<?xml version="1.0" encoding="UTF-8" standalone="yes"?><svg xmlns="http://www.w3.org/2000/svg" xmlns:xlink="http://www.w3.org/1999/xlink" height="1636px" style="width:1981px;height:1636px;" version="1.1" viewBox="0 0 1981 1636" width="1981px"><defs><filter height="300%" id="f1" width="300%" x="-1" y="-1"><feGaussianBlur result="blurOut" stdDeviation="2.0"/><feColorMatrix in="blurOut" result="blurOut2" type="matrix" values="0 0 0 0 0 0 0 0 0 0 0 0 0 0 0 0 0 0 .4 0"/><feOffset dx="4.0" dy="4.0" in="blurOut2" result="blurOut3"/><feBlend in="SourceGraphic" in2="blurOut3" mode="normal"/></filter></defs><g><text fill="#000000" font-family="sans-serif" font-size="14" font-weight="bold" lengthAdjust="spacingAndGlyphs" textLength="87" x="949" y="22.9951">sd_allocate</text><rect fill="#FFFFFF" filter="url(#f1)" height="1509.6563" style="stroke: #A80036; stroke-width: 1.0;" width="10" x="102" y="78.5938"/><rect fill="#FFFFFF" filter="url(#f1)" height="29.1328" style="stroke: #A80036; stroke-width: 1.0;" width="10" x="317" y="99.5938"/><rect fill="#FFFFFF" filter="url(#f1)" height="828.3281" style="stroke: #A80036; stroke-width: 1.0;" width="10" x="478.5" y="157.8594"/><rect fill="#FFFFFF" filter="url(#f1)" height="28" style="stroke: #A80036; stroke-width: 1.0;" width="10" x="483.5" y="219.125"/><rect fill="#FFFFFF" filter="url(#f1)" height="28" style="stroke: #A80036; stroke-width: 1.0;" width="10" x="483.5" y="408.6563"/><rect fill="#FFFFFF" filter="url(#f1)" height="29.1328" style="stroke: #A80036; stroke-width: 1.0;" width="10" x="478.5" y="1039.4531"/><rect fill="#FFFFFF" filter="url(#f1)" height="87.3984" style="stroke: #A80036; stroke-width: 1.0;" width="10" x="478.5" y="1097.7188"/><rect fill="#FFFFFF" filter="url(#f1)" height="57.2656" style="stroke: #A80036; stroke-width: 1.0;" width="10" x="808.5" y="307.3906"/><rect fill="#FFFFFF" filter="url(#f1)" height="57.2656" style="stroke: #A80036; stroke-width: 1.0;" width="10" x="808.5" y="472.7891"/><rect fill="#FFFFFF" filter="url(#f1)" height="57.2656" style="stroke: #A80036; stroke-width: 1.0;" width="10" x="808.5" y="878.9219"/><rect fill="#FFFFFF" filter="url(#f1)" height="57.2656" style="stroke: #A80036; stroke-width: 1.0;" width="10" x="808.5" y="1256.3828"/><rect fill="#FFFFFF" filter="url(#f1)" height="57.2656" style="stroke: #A80036; stroke-width: 1.0;" width="10" x="808.5" y="1342.6484"/><rect fill="#FFFFFF" filter="url(#f1)" height="43.2656" style="stroke: #A80036; stroke-width: 1.0;" width="10" x="808.5" y="1529.9844"/><rect fill="#FFFFFF" filter="url(#f1)" height="14.1328" style="stroke: #A80036; stroke-width: 1.0;" width="10" x="1143.5" y="350.5234"/><rect fill="#FFFFFF" filter="url(#f1)" height="442.2656" style="stroke: #A80036; stroke-width: 1.0;" width="10" x="1143.5" y="515.9219"/><rect fill="#FFFFFF" filter="url(#f1)" height="14.1328" style="stroke: #A80036; stroke-width: 1.0;" width="10" x="1148.5" y="922.0547"/><rect fill="#FFFFFF" filter="url(#f1)" height="14.1328" style="stroke: #A80036; stroke-width: 1.0;" width="10" x="1143.5" y="1299.5156"/><rect fill="#FFFFFF" filter="url(#f1)" height="57.2656" style="stroke: #A80036; stroke-width: 1.0;" width="10" x="1370.5" y="583.1875"/><rect fill="#FFFFFF" filter="url(#f1)" height="57.2656" style="stroke: #A80036; stroke-width: 1.0;" width="10" x="1370.5" y="726.3906"/><rect fill="#FFFFFF" filter="url(#f1)" height="29.1328" style="stroke: #A80036; stroke-width: 1.0;" width="10" x="1535.5" y="1126.8516"/><rect fill="#FFFFFF" filter="url(#f1)" height="14.1328" style="stroke: #A80036; stroke-width: 1.0;" width="10" x="1668.5" y="1385.7813"/><rect fill="#FFFFFF" filter="url(#f1)" height="14.1328" style="stroke: #A80036; stroke-width: 1.0;" width="10" x="1668.5" y="1559.1172"/><rect fill="#FFFFFF" filter="url(#f1)" height="57.2656" style="stroke: #A80036; stroke-width: 1.0;" width="10" x="1812.5" y="1428.9141"/><rect fill="#FFFFFF" filter="url(#f1)" height="14.1328" style="stroke: #A80036; stroke-width: 1.0;" width="10" x="1927" y="1458.0469"/><rect fill="#FFFFFF" filter="url(#f1)" height="785.1953" style="stroke: #000000; stroke-width: 2.0;" width="1101.5" x="385.5" y="172.9922"/><rect fill="#FFFFFF" filter="url(#f1)" height="103.3984" style="stroke: #000000; stroke-width: 2.0;" width="809" x="405.5" y="269.2578"/><rect fill="#FFFFFF" filter="url(#f1)" height="406.1328" style="stroke: #000000; stroke-width: 2.0;" width="1081.5" x="395.5" y="545.0547"/><rect fill="#FFFFFF" height="260.6016" style="stroke: none; stroke-width: 1.0;" width="1081.5" x="395.5" y="690.5859"/><rect fill="#FFFFFF" filter="url(#f1)" height="103.3984" style="stroke: #000000; stroke-width: 2.0;" width="809" x="405.5" y="840.7891"/><rect fill="#FFFFFF" filter="url(#f1)" height="579.9297" style="stroke: #000000; stroke-width: 2.0;" width="1959" x="13" y="1001.3203"/><rect fill="#FFFFFF" height="87.0703" style="stroke: none; stroke-width: 1.0;" width="1959" x="13" y="1494.1797"/><line style="stroke: #A80036; stroke-width: 1.0; stroke-dasharray: 5.0,5.0;" x1="107" x2="107" y1="68.5938" y2="1598.25"/><line style="stroke: #A80036; stroke-width: 1.0; stroke-dasharray: 5.0,5.0;" x1="321.5" x2="321.5" y1="68.5938" y2="1598.25"/><line style="stroke: #A80036; stroke-width: 1.0; stroke-dasharray: 5.0,5.0;" x1="483.5" x2="483.5" y1="68.5938" y2="1598.25"/><line style="stroke: #A80036; stroke-width: 1.0; stroke-dasharray: 5.0,5.0;" x1="813" x2="813" y1="68.5938" y2="1598.25"/><line style="stroke: #A80036; stroke-width: 1.0; stroke-dasharray: 5.0,5.0;" x1="1148.5" x2="1148.5" y1="68.5938" y2="1598.25"/><line style="stroke: #A80036; stroke-width: 1.0; stroke-dasharray: 5.0,5.0;" x1="1375" x2="1375" y1="68.5938" y2="1598.25"/><line style="stroke: #A80036; stroke-width: 1.0; stroke-dasharray: 5.0,5.0;" x1="1540" x2="1540" y1="68.5938" y2="1598.25"/><line style="stroke: #A80036; stroke-width: 1.0; stroke-dasharray: 5.0,5.0;" x1="1673" x2="1673" y1="68.5938" y2="1598.25"/><line style="stroke: #A80036; stroke-width: 1.0; stroke-dasharray: 5.0,5.0;" x1="1817" x2="1817" y1="68.5938" y2="1598.25"/><line style="stroke: #A80036; stroke-width: 1.0; stroke-dasharray: 5.0,5.0;" x1="1932" x2="1932" y1="68.5938" y2="1598.25"/><rect fill="#FEFECE" filter="url(#f1)" height="30.2969" style="stroke: #A80036; stroke-width: 1.5;" width="164" x="23" y="33.2969"/><text fill="#000000" font-family="sans-serif" font-size="14" lengthAdjust="spacingAndGlyphs" textLength="150" x="30" y="53.292">RequestManagement</text><rect fill="#FEFECE" filter="url(#f1)" height="30.2969" style="stroke: #A80036; stroke-width: 1.5;" width="164" x="23" y="1597.25"/><text fill="#000000" font-family="sans-serif" font-size="14" lengthAdjust="spacingAndGlyphs" textLength="150" x="30" y="1617.2451">RequestManagement</text><rect fill="#FEFECE" filter="url(#f1)" height="30.2969" style="stroke: #A80036; stroke-width: 1.5;" width="163" x="238.5" y="33.2969"/><text fill="#000000" font-family="sans-serif" font-size="14" lengthAdjust="spacingAndGlyphs" textLength="149" x="245.5" y="53.292">LocationManagement</text><rect fill="#FEFECE" filter="url(#f1)" height="30.2969" style="stroke: #A80036; stroke-width: 1.5;" width="163" x="238.5" y="1597.25"/><text fill="#000000" font-family="sans-serif" font-size="14" lengthAdjust="spacingAndGlyphs" textLength="149" x="245.5" y="1617.2451">LocationManagement</text><rect fill="#FEFECE" filter="url(#f1)" height="30.2969" style="stroke: #A80036; stroke-width: 1.5;" width="132" x="415.5" y="33.2969"/><text fill="#000000" font-family="sans-serif" font-size="14" lengthAdjust="spacingAndGlyphs" textLength="118" x="422.5" y="53.292">TaxiManagement</text><rect fill="#FEFECE" filter="url(#f1)" height="30.2969" style="stroke: #A80036; stroke-width: 1.5;" width="132" x="415.5" y="1597.25"/><text fill="#000000" font-family="sans-serif" font-size="14" lengthAdjust="spacingAndGlyphs" textLength="118" x="422.5" y="1617.2451">TaxiManagement</text><rect fill="#FEFECE" filter="url(#f1)" height="30.2969" style="stroke: #A80036; stroke-width: 1.5;" width="141" x="741" y="33.2969"/><text fill="#000000" font-family="sans-serif" font-size="14" lengthAdjust="spacingAndGlyphs" textLength="127" x="748" y="53.292">NotificationSystem</text><rect fill="#FEFECE" filter="url(#f1)" height="30.2969" style="stroke: #A80036; stroke-width: 1.5;" width="141" x="741" y="1597.25"/><text fill="#000000" font-family="sans-serif" font-size="14" lengthAdjust="spacingAndGlyphs" textLength="127" x="748" y="1617.2451">NotificationSystem</text><rect fill="#FEFECE" filter="url(#f1)" height="30.2969" style="stroke: #A80036; stroke-width: 1.5;" width="108" x="1092.5" y="33.2969"/><text fill="#000000" font-family="sans-serif" font-size="14" lengthAdjust="spacingAndGlyphs" textLength="94" x="1099.5" y="53.292">TaxiDriverApp</text><rect fill="#FEFECE" filter="url(#f1)" height="30.2969" style="stroke: #A80036; stroke-width: 1.5;" width="108" x="1092.5" y="1597.25"/><text fill="#000000" font-family="sans-serif" font-size="14" lengthAdjust="spacingAndGlyphs" textLength="94" x="1099.5" y="1617.2451">TaxiDriverApp</text><rect fill="#FEFECE" filter="url(#f1)" height="30.2969" style="stroke: #A80036; stroke-width: 1.5;" width="179" x="1284" y="33.2969"/><text fill="#000000" font-family="sans-serif" font-size="14" lengthAdjust="spacingAndGlyphs" textLength="165" x="1291" y="53.292">RemoteServiceInterface</text><rect fill="#FEFECE" filter="url(#f1)" height="30.2969" style="stroke: #A80036; stroke-width: 1.5;" width="179" x="1284" y="1597.25"/><text fill="#000000" font-family="sans-serif" font-size="14" lengthAdjust="spacingAndGlyphs" textLength="165" x="1291" y="1617.2451">RemoteServiceInterface</text><rect fill="#FEFECE" filter="url(#f1)" height="30.2969" style="stroke: #A80036; stroke-width: 1.5;" width="123" x="1477" y="33.2969"/><text fill="#000000" font-family="sans-serif" font-size="14" lengthAdjust="spacingAndGlyphs" textLength="109" x="1484" y="53.292">MappingService</text><rect fill="#FEFECE" filter="url(#f1)" height="30.2969" style="stroke: #A80036; stroke-width: 1.5;" width="123" x="1477" y="1597.25"/><text fill="#000000" font-family="sans-serif" font-size="14" lengthAdjust="spacingAndGlyphs" textLength="109" x="1484" y="1617.2451">MappingService</text><rect fill="#FEFECE" filter="url(#f1)" height="30.2969" style="stroke: #A80036; stroke-width: 1.5;" width="115" x="1614" y="33.2969"/><text fill="#000000" font-family="sans-serif" font-size="14" lengthAdjust="spacingAndGlyphs" textLength="101" x="1621" y="53.292">PassengerApp</text><rect fill="#FEFECE" filter="url(#f1)" height="30.2969" style="stroke: #A80036; stroke-width: 1.5;" width="115" x="1614" y="1597.25"/><text fill="#000000" font-family="sans-serif" font-size="14" lengthAdjust="spacingAndGlyphs" textLength="101" x="1621" y="1617.2451">PassengerApp</text><rect fill="#FEFECE" filter="url(#f1)" height="30.2969" style="stroke: #A80036; stroke-width: 1.5;" width="145" x="1743" y="33.2969"/><text fill="#000000" font-family="sans-serif" font-size="14" lengthAdjust="spacingAndGlyphs" textLength="131" x="1750" y="53.292">DataAccessUtilities</text><rect fill="#FEFECE" filter="url(#f1)" height="30.2969" style="stroke: #A80036; stroke-width: 1.5;" width="145" x="1743" y="1597.25"/><text fill="#000000" font-family="sans-serif" font-size="14" lengthAdjust="spacingAndGlyphs" textLength="131" x="1750" y="1617.2451">DataAccessUtilities</text><rect fill="#FEFECE" filter="url(#f1)" height="30.2969" style="stroke: #A80036; stroke-width: 1.5;" width="56" x="1902" y="33.2969"/><text fill="#000000" font-family="sans-serif" font-size="14" lengthAdjust="spacingAndGlyphs" textLength="42" x="1909" y="53.292">DBMS</text><rect fill="#FEFECE" filter="url(#f1)" height="30.2969" style="stroke: #A80036; stroke-width: 1.5;" width="56" x="1902" y="1597.25"/><text fill="#000000" font-family="sans-serif" font-size="14" lengthAdjust="spacingAndGlyphs" textLength="42" x="1909" y="1617.2451">DBMS</text><rect fill="#FFFFFF" filter="url(#f1)" height="1509.6563" style="stroke: #A80036; stroke-width: 1.0;" width="10" x="102" y="78.5938"/><rect fill="#FFFFFF" filter="url(#f1)" height="29.1328" style="stroke: #A80036; stroke-width: 1.0;" width="10" x="317" y="99.5938"/><rect fill="#FFFFFF" filter="url(#f1)" height="828.3281" style="stroke: #A80036; stroke-width: 1.0;" width="10" x="478.5" y="157.8594"/><rect fill="#FFFFFF" filter="url(#f1)" height="28" style="stroke: #A80036; stroke-width: 1.0;" width="10" x="483.5" y="219.125"/><rect fill="#FFFFFF" filter="url(#f1)" height="28" style="stroke: #A80036; stroke-width: 1.0;" width="10" x="483.5" y="408.6563"/><rect fill="#FFFFFF" filter="url(#f1)" height="29.1328" style="stroke: #A80036; stroke-width: 1.0;" width="10" x="478.5" y="1039.4531"/><rect fill="#FFFFFF" filter="url(#f1)" height="87.3984" style="stroke: #A80036; stroke-width: 1.0;" width="10" x="478.5" y="1097.7188"/><rect fill="#FFFFFF" filter="url(#f1)" height="57.2656" style="stroke: #A80036; stroke-width: 1.0;" width="10" x="808.5" y="307.3906"/><rect fill="#FFFFFF" filter="url(#f1)" height="57.2656" style="stroke: #A80036; stroke-width: 1.0;" width="10" x="808.5" y="472.7891"/><rect fill="#FFFFFF" filter="url(#f1)" height="57.2656" style="stroke: #A80036; stroke-width: 1.0;" width="10" x="808.5" y="878.9219"/><rect fill="#FFFFFF" filter="url(#f1)" height="57.2656" style="stroke: #A80036; stroke-width: 1.0;" width="10" x="808.5" y="1256.3828"/><rect fill="#FFFFFF" filter="url(#f1)" height="57.2656" style="stroke: #A80036; stroke-width: 1.0;" width="10" x="808.5" y="1342.6484"/><rect fill="#FFFFFF" filter="url(#f1)" height="43.2656" style="stroke: #A80036; stroke-width: 1.0;" width="10" x="808.5" y="1529.9844"/><rect fill="#FFFFFF" filter="url(#f1)" height="14.1328" style="stroke: #A80036; stroke-width: 1.0;" width="10" x="1143.5" y="350.5234"/><rect fill="#FFFFFF" filter="url(#f1)" height="442.2656" style="stroke: #A80036; stroke-width: 1.0;" width="10" x="1143.5" y="515.9219"/><rect fill="#FFFFFF" filter="url(#f1)" height="14.1328" style="stroke: #A80036; stroke-width: 1.0;" width="10" x="1148.5" y="922.0547"/><rect fill="#FFFFFF" filter="url(#f1)" height="14.1328" style="stroke: #A80036; stroke-width: 1.0;" width="10" x="1143.5" y="1299.5156"/><rect fill="#FFFFFF" filter="url(#f1)" height="57.2656" style="stroke: #A80036; stroke-width: 1.0;" width="10" x="1370.5" y="583.1875"/><rect fill="#FFFFFF" filter="url(#f1)" height="57.2656" style="stroke: #A80036; stroke-width: 1.0;" width="10" x="1370.5" y="726.3906"/><rect fill="#FFFFFF" filter="url(#f1)" height="29.1328" style="stroke: #A80036; stroke-width: 1.0;" width="10" x="1535.5" y="1126.8516"/><rect fill="#FFFFFF" filter="url(#f1)" height="14.1328" style="stroke: #A80036; stroke-width: 1.0;" width="10" x="1668.5" y="1385.7813"/><rect fill="#FFFFFF" filter="url(#f1)" height="14.1328" style="stroke: #A80036; stroke-width: 1.0;" width="10" x="1668.5" y="1559.1172"/><rect fill="#FFFFFF" filter="url(#f1)" height="57.2656" style="stroke: #A80036; stroke-width: 1.0;" width="10" x="1812.5" y="1428.9141"/><rect fill="#FFFFFF" filter="url(#f1)" height="14.1328" style="stroke: #A80036; stroke-width: 1.0;" width="10" x="1927" y="1458.0469"/><polygon fill="#A80036" points="305,95.5938,315,99.5938,305,103.5938,309,99.5938" style="stroke: #A80036; stroke-width: 1.0;"/><line style="stroke: #A80036; stroke-width: 1.0;" x1="112" x2="311" y1="99.5938" y2="99.5938"/><text fill="#000000" font-family="sans-serif" font-size="13" lengthAdjust="spacingAndGlyphs" textLength="186" x="119" y="94.6606">getZone(passengerLocation)</text><polygon fill="#A80036" points="123,124.7266,113,128.7266,123,132.7266,119,128.7266" style="stroke: #A80036; stroke-width: 1.0;"/><line style="stroke: #A80036; stroke-width: 1.0; stroke-dasharray: 2.0,2.0;" x1="117" x2="321" y1="128.7266" y2="128.7266"/><text fill="#000000" font-family="sans-serif" font-size="13" lengthAdjust="spacingAndGlyphs" textLength="31" x="129" y="123.7935">zone</text><polygon fill="#A80036" points="466.5,153.8594,476.5,157.8594,466.5,161.8594,470.5,157.8594" style="stroke: #A80036; stroke-width: 1.0;"/><line style="stroke: #A80036; stroke-width: 1.0;" x1="112" x2="472.5" y1="157.8594" y2="157.8594"/><text fill="#000000" font-family="sans-serif" font-size="13" lengthAdjust="spacingAndGlyphs" textLength="255" x="119" y="152.9263">existsAvailableTaxiDriver(request, zone)</text><rect fill="none" height="785.1953" style="stroke: #000000; stroke-width: 2.0;" width="1101.5" x="385.5" y="172.9922"/><polygon fill="#EEEEEE" points="385.5,172.9922,462.5,172.9922,462.5,179.9922,452.5,189.9922,385.5,189.9922,385.5,172.9922" style="stroke: #000000; stroke-width: 2.0;"/><text fill="#000000" font-family="sans-serif" font-size="13" font-weight="bold" lengthAdjust="spacingAndGlyphs" textLength="32" x="400.5" y="186.0591">loop</text><text fill="#000000" font-family="sans-serif" font-size="11" font-weight="bold" lengthAdjust="spacingAndGlyphs" textLength="468" x="477.5" y="185.2026">[until a taxi driver accepts the call, or there are no more taxi drivers left]</text><line style="stroke: #A80036; stroke-width: 1.0;" x1="493.5" x2="535.5" y1="211.2578" y2="211.2578"/><line style="stroke: #A80036; stroke-width: 1.0;" x1="535.5" x2="535.5" y1="211.2578" y2="224.2578"/><line style="stroke: #A80036; stroke-width: 1.0;" x1="494.5" x2="535.5" y1="224.2578" y2="224.2578"/><polygon fill="#A80036" points="504.5,220.2578,494.5,224.2578,504.5,228.2578,500.5,224.2578" style="stroke: #A80036; stroke-width: 1.0;"/><text fill="#000000" font-family="sans-serif" font-size="13" lengthAdjust="spacingAndGlyphs" textLength="160" x="500.5" y="206.1919">dequeueTaxiDriver(zone)</text><rect fill="none" height="103.3984" style="stroke: #000000; stroke-width: 2.0;" width="809" x="405.5" y="269.2578"/><polygon fill="#EEEEEE" points="405.5,269.2578,482.5,269.2578,482.5,276.2578,472.5,286.2578,405.5,286.2578,405.5,269.2578" style="stroke: #000000; stroke-width: 2.0;"/><text fill="#000000" font-family="sans-serif" font-size="13" font-weight="bold" lengthAdjust="spacingAndGlyphs" textLength="32" x="420.5" y="282.3247">loop</text><text fill="#000000" font-family="sans-serif" font-size="11" font-weight="bold" lengthAdjust="spacingAndGlyphs" textLength="212" x="497.5" y="281.4683">[for all taxi driver in zone queue]</text><line style="stroke: #A80036; stroke-width: 1.0;" x1="806.5" x2="796.5" y1="307.3906" y2="303.3906"/><line style="stroke: #A80036; stroke-width: 1.0;" x1="806.5" x2="796.5" y1="307.3906" y2="311.3906"/><line style="stroke: #A80036; stroke-width: 1.0;" x1="488.5" x2="807.5" y1="307.3906" y2="307.3906"/><text fill="#000000" font-family="sans-serif" font-size="13" lengthAdjust="spacingAndGlyphs" textLength="301" x="495.5" y="302.4575">notifyQueueUpdate(taxiId, position, queueSize)</text><line style="stroke: #A80036; stroke-width: 1.0;" x1="488.5" x2="498.5" y1="321.5234" y2="317.5234"/><line style="stroke: #A80036; stroke-width: 1.0;" x1="488.5" x2="498.5" y1="321.5234" y2="325.5234"/><line style="stroke: #A80036; stroke-width: 1.0; stroke-dasharray: 2.0,2.0;" x1="488.5" x2="807.5" y1="321.5234" y2="321.5234"/><line style="stroke: #A80036; stroke-width: 1.0;" x1="1141.5" x2="1131.5" y1="350.5234" y2="346.5234"/><line style="stroke: #A80036; stroke-width: 1.0;" x1="1141.5" x2="1131.5" y1="350.5234" y2="354.5234"/><line style="stroke: #A80036; stroke-width: 1.0;" x1="818.5" x2="1142.5" y1="350.5234" y2="350.5234"/><text fill="#000000" font-family="sans-serif" font-size="13" lengthAdjust="spacingAndGlyphs" textLength="301" x="825.5" y="345.5903">notifyQueueUpdate(taxiId, position, queueSize)</text><line style="stroke: #A80036; stroke-width: 1.0;" x1="813.5" x2="823.5" y1="364.6563" y2="360.6563"/><line style="stroke: #A80036; stroke-width: 1.0;" x1="813.5" x2="823.5" y1="364.6563" y2="368.6563"/><line style="stroke: #A80036; stroke-width: 1.0; stroke-dasharray: 2.0,2.0;" x1="813.5" x2="1147.5" y1="364.6563" y2="364.6563"/><line style="stroke: #A80036; stroke-width: 1.0;" x1="493.5" x2="535.5" y1="400.7891" y2="400.7891"/><line style="stroke: #A80036; stroke-width: 1.0;" x1="535.5" x2="535.5" y1="400.7891" y2="413.7891"/><line style="stroke: #A80036; stroke-width: 1.0;" x1="494.5" x2="535.5" y1="413.7891" y2="413.7891"/><polygon fill="#A80036" points="504.5,409.7891,494.5,413.7891,504.5,417.7891,500.5,413.7891" style="stroke: #A80036; stroke-width: 1.0;"/><text fill="#000000" font-family="sans-serif" font-size="13" lengthAdjust="spacingAndGlyphs" textLength="142" x="500.5" y="395.7231">setPending(taxiDriver)</text><line style="stroke: #A80036; stroke-width: 1.0;" x1="806.5" x2="796.5" y1="472.7891" y2="468.7891"/><line style="stroke: #A80036; stroke-width: 1.0;" x1="806.5" x2="796.5" y1="472.7891" y2="476.7891"/><line style="stroke: #A80036; stroke-width: 1.0;" x1="488.5" x2="807.5" y1="472.7891" y2="472.7891"/><text fill="#000000" font-family="sans-serif" font-size="13" lengthAdjust="spacingAndGlyphs" textLength="238" x="495.5" y="467.856">notifyCallRequest(taxiDriver, request)</text><line style="stroke: #A80036; stroke-width: 1.0;" x1="488.5" x2="498.5" y1="486.9219" y2="482.9219"/><line style="stroke: #A80036; stroke-width: 1.0;" x1="488.5" x2="498.5" y1="486.9219" y2="490.9219"/><line style="stroke: #A80036; stroke-width: 1.0; stroke-dasharray: 2.0,2.0;" x1="488.5" x2="807.5" y1="486.9219" y2="486.9219"/><line style="stroke: #A80036; stroke-width: 1.0;" x1="1141.5" x2="1131.5" y1="515.9219" y2="511.9219"/><line style="stroke: #A80036; stroke-width: 1.0;" x1="1141.5" x2="1131.5" y1="515.9219" y2="519.9219"/><line style="stroke: #A80036; stroke-width: 1.0;" x1="818.5" x2="1142.5" y1="515.9219" y2="515.9219"/><text fill="#000000" font-family="sans-serif" font-size="13" lengthAdjust="spacingAndGlyphs" textLength="238" x="825.5" y="510.9888">notifyCallRequest(taxiDriver, request)</text><line style="stroke: #A80036; stroke-width: 1.0;" x1="813.5" x2="823.5" y1="530.0547" y2="526.0547"/><line style="stroke: #A80036; stroke-width: 1.0;" x1="813.5" x2="823.5" y1="530.0547" y2="534.0547"/><line style="stroke: #A80036; stroke-width: 1.0; stroke-dasharray: 2.0,2.0;" x1="813.5" x2="1142.5" y1="530.0547" y2="530.0547"/><rect fill="none" height="406.1328" style="stroke: #000000; stroke-width: 2.0;" width="1081.5" x="395.5" y="545.0547"/><polygon fill="#EEEEEE" points="395.5,545.0547,459.5,545.0547,459.5,552.0547,449.5,562.0547,395.5,562.0547,395.5,545.0547" style="stroke: #000000; stroke-width: 2.0;"/><text fill="#000000" font-family="sans-serif" font-size="13" font-weight="bold" lengthAdjust="spacingAndGlyphs" textLength="19" x="410.5" y="558.1216">alt</text><text fill="#000000" font-family="sans-serif" font-size="11" font-weight="bold" lengthAdjust="spacingAndGlyphs" textLength="82" x="474.5" y="557.2651">[accept ride]</text><line style="stroke: #A80036; stroke-width: 1.0;" x1="1368.5" x2="1358.5" y1="583.1875" y2="579.1875"/><line style="stroke: #A80036; stroke-width: 1.0;" x1="1368.5" x2="1358.5" y1="583.1875" y2="587.1875"/><line style="stroke: #A80036; stroke-width: 1.0;" x1="1153.5" x2="1369.5" y1="583.1875" y2="583.1875"/><text fill="#000000" font-family="sans-serif" font-size="13" lengthAdjust="spacingAndGlyphs" textLength="198" x="1160.5" y="578.2544">acceptRide(taxiDriver, request)</text><line style="stroke: #A80036; stroke-width: 1.0;" x1="1153.5" x2="1163.5" y1="597.3203" y2="593.3203"/><line style="stroke: #A80036; stroke-width: 1.0;" x1="1153.5" x2="1163.5" y1="597.3203" y2="601.3203"/><line style="stroke: #A80036; stroke-width: 1.0; stroke-dasharray: 2.0,2.0;" x1="1153.5" x2="1369.5" y1="597.3203" y2="597.3203"/><line style="stroke: #A80036; stroke-width: 1.0;" x1="488.5" x2="498.5" y1="626.3203" y2="622.3203"/><line style="stroke: #A80036; stroke-width: 1.0;" x1="488.5" x2="498.5" y1="626.3203" y2="630.3203"/><line style="stroke: #A80036; stroke-width: 1.0;" x1="488.5" x2="1369.5" y1="626.3203" y2="626.3203"/><text fill="#000000" font-family="sans-serif" font-size="13" lengthAdjust="spacingAndGlyphs" textLength="198" x="505.5" y="621.3872">acceptRide(taxiDriver, request)</text><line style="stroke: #A80036; stroke-width: 1.0;" x1="1373.5" x2="1363.5" y1="640.4531" y2="636.4531"/><line style="stroke: #A80036; stroke-width: 1.0;" x1="1373.5" x2="1363.5" y1="640.4531" y2="644.4531"/><line style="stroke: #A80036; stroke-width: 1.0; stroke-dasharray: 2.0,2.0;" x1="488.5" x2="1374.5" y1="640.4531" y2="640.4531"/><line style="stroke: #A80036; stroke-width: 1.0;" x1="488.5" x2="530.5" y1="669.5859" y2="669.5859"/><line style="stroke: #A80036; stroke-width: 1.0;" x1="530.5" x2="530.5" y1="669.5859" y2="682.5859"/><line style="stroke: #A80036; stroke-width: 1.0;" x1="489.5" x2="530.5" y1="682.5859" y2="682.5859"/><polygon fill="#A80036" points="499.5,678.5859,489.5,682.5859,499.5,686.5859,495.5,682.5859" style="stroke: #A80036; stroke-width: 1.0;"/><text fill="#000000" font-family="sans-serif" font-size="13" lengthAdjust="spacingAndGlyphs" textLength="244" x="495.5" y="664.52">setCurrentlyRiding(taxiDriver, request)</text><line style="stroke: #000000; stroke-width: 1.0; stroke-dasharray: 2.0,2.0;" x1="395.5" x2="1477" y1="691.5859" y2="691.5859"/><text fill="#000000" font-family="sans-serif" font-size="11" font-weight="bold" lengthAdjust="spacingAndGlyphs" textLength="301" x="400.5" y="701.7964">[reject ride or taxi driver doesn't reply on time]</text><line style="stroke: #A80036; stroke-width: 1.0;" x1="1368.5" x2="1358.5" y1="726.3906" y2="722.3906"/><line style="stroke: #A80036; stroke-width: 1.0;" x1="1368.5" x2="1358.5" y1="726.3906" y2="730.3906"/><line style="stroke: #A80036; stroke-width: 1.0;" x1="1153.5" x2="1369.5" y1="726.3906" y2="726.3906"/><text fill="#000000" font-family="sans-serif" font-size="13" lengthAdjust="spacingAndGlyphs" textLength="195" x="1160.5" y="721.4575">refuseRide(taxiDriver, request)</text><line style="stroke: #A80036; stroke-width: 1.0;" x1="1153.5" x2="1163.5" y1="740.5234" y2="736.5234"/><line style="stroke: #A80036; stroke-width: 1.0;" x1="1153.5" x2="1163.5" y1="740.5234" y2="744.5234"/><line style="stroke: #A80036; stroke-width: 1.0; stroke-dasharray: 2.0,2.0;" x1="1153.5" x2="1369.5" y1="740.5234" y2="740.5234"/><line style="stroke: #A80036; stroke-width: 1.0;" x1="488.5" x2="498.5" y1="769.5234" y2="765.5234"/><line style="stroke: #A80036; stroke-width: 1.0;" x1="488.5" x2="498.5" y1="769.5234" y2="773.5234"/><line style="stroke: #A80036; stroke-width: 1.0;" x1="488.5" x2="1369.5" y1="769.5234" y2="769.5234"/><text fill="#000000" font-family="sans-serif" font-size="13" lengthAdjust="spacingAndGlyphs" textLength="195" x="505.5" y="764.5903">refuseRide(taxiDriver, request)</text><line style="stroke: #A80036; stroke-width: 1.0;" x1="1373.5" x2="1363.5" y1="783.6563" y2="779.6563"/><line style="stroke: #A80036; stroke-width: 1.0;" x1="1373.5" x2="1363.5" y1="783.6563" y2="787.6563"/><line style="stroke: #A80036; stroke-width: 1.0; stroke-dasharray: 2.0,2.0;" x1="488.5" x2="1374.5" y1="783.6563" y2="783.6563"/><line style="stroke: #A80036; stroke-width: 1.0;" x1="488.5" x2="530.5" y1="812.7891" y2="812.7891"/><line style="stroke: #A80036; stroke-width: 1.0;" x1="530.5" x2="530.5" y1="812.7891" y2="825.7891"/><line style="stroke: #A80036; stroke-width: 1.0;" x1="489.5" x2="530.5" y1="825.7891" y2="825.7891"/><polygon fill="#A80036" points="499.5,821.7891,489.5,825.7891,499.5,829.7891,495.5,825.7891" style="stroke: #A80036; stroke-width: 1.0;"/><text fill="#000000" font-family="sans-serif" font-size="13" lengthAdjust="spacingAndGlyphs" textLength="229" x="495.5" y="807.7231">enqueueTaxiDriver(taxiDriver, zone)</text><rect fill="none" height="103.3984" style="stroke: #000000; stroke-width: 2.0;" width="809" x="405.5" y="840.7891"/><polygon fill="#EEEEEE" points="405.5,840.7891,482.5,840.7891,482.5,847.7891,472.5,857.7891,405.5,857.7891,405.5,840.7891" style="stroke: #000000; stroke-width: 2.0;"/><text fill="#000000" font-family="sans-serif" font-size="13" font-weight="bold" lengthAdjust="spacingAndGlyphs" textLength="32" x="420.5" y="853.856">loop</text><text fill="#000000" font-family="sans-serif" font-size="11" font-weight="bold" lengthAdjust="spacingAndGlyphs" textLength="212" x="497.5" y="852.9995">[for all taxi driver in zone queue]</text><line style="stroke: #A80036; stroke-width: 1.0;" x1="806.5" x2="796.5" y1="878.9219" y2="874.9219"/><line style="stroke: #A80036; stroke-width: 1.0;" x1="806.5" x2="796.5" y1="878.9219" y2="882.9219"/><line style="stroke: #A80036; stroke-width: 1.0;" x1="488.5" x2="807.5" y1="878.9219" y2="878.9219"/><text fill="#000000" font-family="sans-serif" font-size="13" lengthAdjust="spacingAndGlyphs" textLength="301" x="495.5" y="873.9888">notifyQueueUpdate(taxiId, position, queueSize)</text><line style="stroke: #A80036; stroke-width: 1.0;" x1="488.5" x2="498.5" y1="893.0547" y2="889.0547"/><line style="stroke: #A80036; stroke-width: 1.0;" x1="488.5" x2="498.5" y1="893.0547" y2="897.0547"/><line style="stroke: #A80036; stroke-width: 1.0; stroke-dasharray: 2.0,2.0;" x1="488.5" x2="807.5" y1="893.0547" y2="893.0547"/><line style="stroke: #A80036; stroke-width: 1.0;" x1="1146.5" x2="1136.5" y1="922.0547" y2="918.0547"/><line style="stroke: #A80036; stroke-width: 1.0;" x1="1146.5" x2="1136.5" y1="922.0547" y2="926.0547"/><line style="stroke: #A80036; stroke-width: 1.0;" x1="818.5" x2="1147.5" y1="922.0547" y2="922.0547"/><text fill="#000000" font-family="sans-serif" font-size="13" lengthAdjust="spacingAndGlyphs" textLength="301" x="825.5" y="917.1216">notifyQueueUpdate(taxiId, position, queueSize)</text><line style="stroke: #A80036; stroke-width: 1.0;" x1="813.5" x2="823.5" y1="936.1875" y2="932.1875"/><line style="stroke: #A80036; stroke-width: 1.0;" x1="813.5" x2="823.5" y1="936.1875" y2="940.1875"/><line style="stroke: #A80036; stroke-width: 1.0; stroke-dasharray: 2.0,2.0;" x1="813.5" x2="1142.5" y1="936.1875" y2="936.1875"/><polygon fill="#A80036" points="123,982.1875,113,986.1875,123,990.1875,119,986.1875" style="stroke: #A80036; stroke-width: 1.0;"/><line style="stroke: #A80036; stroke-width: 1.0; stroke-dasharray: 2.0,2.0;" x1="117" x2="482.5" y1="986.1875" y2="986.1875"/><text fill="#000000" font-family="sans-serif" font-size="13" lengthAdjust="spacingAndGlyphs" textLength="36" x="129" y="981.2544">result</text><rect fill="none" height="579.9297" style="stroke: #000000; stroke-width: 2.0;" width="1959" x="13" y="1001.3203"/><polygon fill="#EEEEEE" points="13,1001.3203,77,1001.3203,77,1008.3203,67,1018.3203,13,1018.3203,13,1001.3203" style="stroke: #000000; stroke-width: 2.0;"/><text fill="#000000" font-family="sans-serif" font-size="13" font-weight="bold" lengthAdjust="spacingAndGlyphs" textLength="19" x="28" y="1014.3872">alt</text><text fill="#000000" font-family="sans-serif" font-size="11" font-weight="bold" lengthAdjust="spacingAndGlyphs" textLength="328" x="92" y="1013.5308">[successful allocation (i.e., a taxi driver accepted)]</text><polygon fill="#A80036" points="466.5,1035.4531,476.5,1039.4531,466.5,1043.4531,470.5,1039.4531" style="stroke: #A80036; stroke-width: 1.0;"/><line style="stroke: #A80036; stroke-width: 1.0;" x1="112" x2="472.5" y1="1039.4531" y2="1039.4531"/><text fill="#000000" font-family="sans-serif" font-size="13" lengthAdjust="spacingAndGlyphs" textLength="200" x="119" y="1034.52">getAvailableTaxiDriver(request)</text><polygon fill="#A80036" points="123,1064.5859,113,1068.5859,123,1072.5859,119,1068.5859" style="stroke: #A80036; stroke-width: 1.0;"/><line style="stroke: #A80036; stroke-width: 1.0; stroke-dasharray: 2.0,2.0;" x1="117" x2="482.5" y1="1068.5859" y2="1068.5859"/><text fill="#000000" font-family="sans-serif" font-size="13" lengthAdjust="spacingAndGlyphs" textLength="61" x="129" y="1063.6528">taxiDriver</text><polygon fill="#A80036" points="466.5,1093.7188,476.5,1097.7188,466.5,1101.7188,470.5,1097.7188" style="stroke: #A80036; stroke-width: 1.0;"/><line style="stroke: #A80036; stroke-width: 1.0;" x1="112" x2="472.5" y1="1097.7188" y2="1097.7188"/><text fill="#000000" font-family="sans-serif" font-size="13" lengthAdjust="spacingAndGlyphs" textLength="245" x="119" y="1092.7856">getETA(taxiDriver, passengerLocation)</text><polygon fill="#A80036" points="1523.5,1122.8516,1533.5,1126.8516,1523.5,1130.8516,1527.5,1126.8516" style="stroke: #A80036; stroke-width: 1.0;"/><line style="stroke: #A80036; stroke-width: 1.0;" x1="488.5" x2="1529.5" y1="1126.8516" y2="1126.8516"/><text fill="#000000" font-family="sans-serif" font-size="13" lengthAdjust="spacingAndGlyphs" textLength="335" x="495.5" y="1121.9185">computeETA(passengerLocation, taxiDriverLocation)</text><polygon fill="#A80036" points="499.5,1151.9844,489.5,1155.9844,499.5,1159.9844,495.5,1155.9844" style="stroke: #A80036; stroke-width: 1.0;"/><line style="stroke: #A80036; stroke-width: 1.0; stroke-dasharray: 2.0,2.0;" x1="493.5" x2="1539.5" y1="1155.9844" y2="1155.9844"/><text fill="#000000" font-family="sans-serif" font-size="13" lengthAdjust="spacingAndGlyphs" textLength="24" x="505.5" y="1151.0513">ETA</text><polygon fill="#A80036" points="123,1181.1172,113,1185.1172,123,1189.1172,119,1185.1172" style="stroke: #A80036; stroke-width: 1.0;"/><line style="stroke: #A80036; stroke-width: 1.0; stroke-dasharray: 2.0,2.0;" x1="117" x2="482.5" y1="1185.1172" y2="1185.1172"/><text fill="#000000" font-family="sans-serif" font-size="13" lengthAdjust="spacingAndGlyphs" textLength="24" x="129" y="1180.1841">ETA</text><line style="stroke: #A80036; stroke-width: 1.0;" x1="112" x2="154" y1="1214.3828" y2="1214.3828"/><line style="stroke: #A80036; stroke-width: 1.0;" x1="154" x2="154" y1="1214.3828" y2="1227.3828"/><line style="stroke: #A80036; stroke-width: 1.0;" x1="113" x2="154" y1="1227.3828" y2="1227.3828"/><polygon fill="#A80036" points="123,1223.3828,113,1227.3828,123,1231.3828,119,1227.3828" style="stroke: #A80036; stroke-width: 1.0;"/><text fill="#000000" font-family="sans-serif" font-size="13" lengthAdjust="spacingAndGlyphs" textLength="143" x="119" y="1209.3169">generateSecretCode()</text><line style="stroke: #A80036; stroke-width: 1.0;" x1="806.5" x2="796.5" y1="1256.3828" y2="1252.3828"/><line style="stroke: #A80036; stroke-width: 1.0;" x1="806.5" x2="796.5" y1="1256.3828" y2="1260.3828"/><line style="stroke: #A80036; stroke-width: 1.0;" x1="112" x2="807.5" y1="1256.3828" y2="1256.3828"/><text fill="#000000" font-family="sans-serif" font-size="13" lengthAdjust="spacingAndGlyphs" textLength="378" x="119" y="1251.4497">notifyRequestConfirmation(taxiDriver, request, secretCode)</text><line style="stroke: #A80036; stroke-width: 1.0;" x1="112" x2="122" y1="1270.5156" y2="1266.5156"/><line style="stroke: #A80036; stroke-width: 1.0;" x1="112" x2="122" y1="1270.5156" y2="1274.5156"/><line style="stroke: #A80036; stroke-width: 1.0; stroke-dasharray: 2.0,2.0;" x1="112" x2="807.5" y1="1270.5156" y2="1270.5156"/><line style="stroke: #A80036; stroke-width: 1.0;" x1="1141.5" x2="1131.5" y1="1299.5156" y2="1295.5156"/><line style="stroke: #A80036; stroke-width: 1.0;" x1="1141.5" x2="1131.5" y1="1299.5156" y2="1303.5156"/><line style="stroke: #A80036; stroke-width: 1.0;" x1="818.5" x2="1142.5" y1="1299.5156" y2="1299.5156"/><text fill="#000000" font-family="sans-serif" font-size="13" lengthAdjust="spacingAndGlyphs" textLength="158" x="825.5" y="1294.5825">confirmRide(secretCode)</text><line style="stroke: #A80036; stroke-width: 1.0;" x1="813.5" x2="823.5" y1="1313.6484" y2="1309.6484"/><line style="stroke: #A80036; stroke-width: 1.0;" x1="813.5" x2="823.5" y1="1313.6484" y2="1317.6484"/><line style="stroke: #A80036; stroke-width: 1.0; stroke-dasharray: 2.0,2.0;" x1="813.5" x2="1147.5" y1="1313.6484" y2="1313.6484"/><line style="stroke: #A80036; stroke-width: 1.0;" x1="806.5" x2="796.5" y1="1342.6484" y2="1338.6484"/><line style="stroke: #A80036; stroke-width: 1.0;" x1="806.5" x2="796.5" y1="1342.6484" y2="1346.6484"/><line style="stroke: #A80036; stroke-width: 1.0;" x1="112" x2="807.5" y1="1342.6484" y2="1342.6484"/><text fill="#000000" font-family="sans-serif" font-size="13" lengthAdjust="spacingAndGlyphs" textLength="384" x="119" y="1337.7153">notifyRequestConfirmation(passenger, request, secretCode)</text><line style="stroke: #A80036; stroke-width: 1.0;" x1="112" x2="122" y1="1356.7813" y2="1352.7813"/><line style="stroke: #A80036; stroke-width: 1.0;" x1="112" x2="122" y1="1356.7813" y2="1360.7813"/><line style="stroke: #A80036; stroke-width: 1.0; stroke-dasharray: 2.0,2.0;" x1="112" x2="807.5" y1="1356.7813" y2="1356.7813"/><line style="stroke: #A80036; stroke-width: 1.0;" x1="1666.5" x2="1656.5" y1="1385.7813" y2="1381.7813"/><line style="stroke: #A80036; stroke-width: 1.0;" x1="1666.5" x2="1656.5" y1="1385.7813" y2="1389.7813"/><line style="stroke: #A80036; stroke-width: 1.0;" x1="818.5" x2="1667.5" y1="1385.7813" y2="1385.7813"/><text fill="#000000" font-family="sans-serif" font-size="13" lengthAdjust="spacingAndGlyphs" textLength="158" x="825.5" y="1380.8481">confirmRide(secretCode)</text><line style="stroke: #A80036; stroke-width: 1.0;" x1="813.5" x2="823.5" y1="1399.9141" y2="1395.9141"/><line style="stroke: #A80036; stroke-width: 1.0;" x1="813.5" x2="823.5" y1="1399.9141" y2="1403.9141"/><line style="stroke: #A80036; stroke-width: 1.0; stroke-dasharray: 2.0,2.0;" x1="813.5" x2="1672.5" y1="1399.9141" y2="1399.9141"/><polygon fill="#A80036" points="1800.5,1424.9141,1810.5,1428.9141,1800.5,1432.9141,1804.5,1428.9141" style="stroke: #A80036; stroke-width: 1.0;"/><line style="stroke: #A80036; stroke-width: 1.0;" x1="112" x2="1806.5" y1="1428.9141" y2="1428.9141"/><text fill="#000000" font-family="sans-serif" font-size="13" lengthAdjust="spacingAndGlyphs" textLength="133" x="119" y="1423.981">insertReservation(...)</text><polygon fill="#A80036" points="1915,1454.0469,1925,1458.0469,1915,1462.0469,1919,1458.0469" style="stroke: #A80036; stroke-width: 1.0;"/><line style="stroke: #A80036; stroke-width: 1.0;" x1="1822.5" x2="1921" y1="1458.0469" y2="1458.0469"/><text fill="#000000" font-family="sans-serif" font-size="13" lengthAdjust="spacingAndGlyphs" textLength="58" x="1829.5" y="1453.1138">insert(...)</text><polygon fill="#A80036" points="1833.5,1468.1797,1823.5,1472.1797,1833.5,1476.1797,1829.5,1472.1797" style="stroke: #A80036; stroke-width: 1.0;"/><line style="stroke: #A80036; stroke-width: 1.0; stroke-dasharray: 2.0,2.0;" x1="1827.5" x2="1931" y1="1472.1797" y2="1472.1797"/><polygon fill="#A80036" points="123,1482.1797,113,1486.1797,123,1490.1797,119,1486.1797" style="stroke: #A80036; stroke-width: 1.0;"/><line style="stroke: #A80036; stroke-width: 1.0; stroke-dasharray: 2.0,2.0;" x1="117" x2="1816.5" y1="1486.1797" y2="1486.1797"/><line style="stroke: #000000; stroke-width: 1.0; stroke-dasharray: 2.0,2.0;" x1="13" x2="1972" y1="1495.1797" y2="1495.1797"/><text fill="#000000" font-family="sans-serif" font-size="11" font-weight="bold" lengthAdjust="spacingAndGlyphs" textLength="295" x="18" y="1505.3901">[result == false (i.e., no taxi driver accepted)]</text><line style="stroke: #A80036; stroke-width: 1.0;" x1="806.5" x2="796.5" y1="1529.9844" y2="1525.9844"/><line style="stroke: #A80036; stroke-width: 1.0;" x1="806.5" x2="796.5" y1="1529.9844" y2="1533.9844"/><line style="stroke: #A80036; stroke-width: 1.0;" x1="112" x2="807.5" y1="1529.9844" y2="1529.9844"/><text fill="#000000" font-family="sans-serif" font-size="13" lengthAdjust="spacingAndGlyphs" textLength="233" x="119" y="1525.0513">notifyRequestRejection(passengerId)</text><line style="stroke: #A80036; stroke-width: 1.0;" x1="1666.5" x2="1656.5" y1="1559.1172" y2="1555.1172"/><line style="stroke: #A80036; stroke-width: 1.0;" x1="1666.5" x2="1656.5" y1="1559.1172" y2="1563.1172"/><line style="stroke: #A80036; stroke-width: 1.0;" x1="818.5" x2="1667.5" y1="1559.1172" y2="1559.1172"/><text fill="#000000" font-family="sans-serif" font-size="13" lengthAdjust="spacingAndGlyphs" textLength="233" x="825.5" y="1554.1841">notifyRequestRejection(passengerId)</text><line style="stroke: #A80036; stroke-width: 1.0;" x1="813.5" x2="823.5" y1="1573.25" y2="1569.25"/><line style="stroke: #A80036; stroke-width: 1.0;" x1="813.5" x2="823.5" y1="1573.25" y2="1577.25"/><line style="stroke: #A80036; stroke-width: 1.0; stroke-dasharray: 2.0,2.0;" x1="813.5" x2="1672.5" y1="1573.25" y2="1573.25"/></g></svg>