<?xml version="1.0" encoding="UTF-8" standalone="yes"?><svg xmlns="http://www.w3.org/2000/svg" xmlns:xlink="http://www.w3.org/1999/xlink" height="1149px" style="width:1386px;height:1149px;" version="1.1" viewBox="0 0 1386 1149" width="1386px"><defs><filter height="300%" id="f1" width="300%" x="-1" y="-1"><feGaussianBlur result="blurOut" stdDeviation="2.0"/><feColorMatrix in="blurOut" result="blurOut2" type="matrix" values="0 0 0 0 0 0 0 0 0 0 0 0 0 0 0 0 0 0 .4 0"/><feOffset dx="4.0" dy="4.0" in="blurOut2" result="blurOut3"/><feBlend in="SourceGraphic" in2="blurOut3" mode="normal"/></filter></defs><g><text fill="#000000" font-family="sans-serif" font-size="14" font-weight="bold" lengthAdjust="spacingAndGlyphs" textLength="255" x="567.75" y="22.9951">sd_administrative_data_insertion</text><rect fill="#FFFFFF" filter="url(#f1)" height="1022.8672" style="stroke: #A80036; stroke-width: 1.0;" width="10" x="135" y="78.5938"/><rect fill="#FFFFFF" filter="url(#f1)" height="970.7344" style="stroke: #A80036; stroke-width: 1.0;" width="10" x="353" y="123.7266"/><rect fill="#FFFFFF" filter="url(#f1)" height="101.2656" style="stroke: #A80036; stroke-width: 1.0;" width="10" x="558" y="152.8594"/><rect fill="#FFFFFF" filter="url(#f1)" height="28" style="stroke: #A80036; stroke-width: 1.0;" width="10" x="563" y="189.9922"/><rect fill="#FFFFFF" filter="url(#f1)" height="100.3984" style="stroke: #A80036; stroke-width: 1.0;" width="10" x="558" y="674.7188"/><rect fill="#FFFFFF" filter="url(#f1)" height="101.2656" style="stroke: #A80036; stroke-width: 1.0;" width="10" x="766" y="307.3906"/><rect fill="#FFFFFF" filter="url(#f1)" height="28" style="stroke: #A80036; stroke-width: 1.0;" width="10" x="771" y="344.5234"/><rect fill="#FFFFFF" filter="url(#f1)" height="100.3984" style="stroke: #A80036; stroke-width: 1.0;" width="10" x="766" y="804.1172"/><rect fill="#FFFFFF" filter="url(#f1)" height="101.2656" style="stroke: #A80036; stroke-width: 1.0;" width="10" x="974" y="520.1875"/><rect fill="#FFFFFF" filter="url(#f1)" height="28" style="stroke: #A80036; stroke-width: 1.0;" width="10" x="979" y="557.3203"/><rect fill="#FFFFFF" filter="url(#f1)" height="57.2656" style="stroke: #A80036; stroke-width: 1.0;" width="10" x="1188" y="703.8516"/><rect fill="#FFFFFF" filter="url(#f1)" height="57.2656" style="stroke: #A80036; stroke-width: 1.0;" width="10" x="1188" y="833.25"/><rect fill="#FFFFFF" filter="url(#f1)" height="14.1328" style="stroke: #A80036; stroke-width: 1.0;" width="10" x="1302.5" y="732.9844"/><rect fill="#FFFFFF" filter="url(#f1)" height="14.1328" style="stroke: #A80036; stroke-width: 1.0;" width="10" x="1302.5" y="862.3828"/><rect fill="#FFFFFF" filter="url(#f1)" height="1008.8672" style="stroke: #000000; stroke-width: 2.0;" width="1364.5" x="13" y="85.5938"/><rect fill="#FFFFFF" filter="url(#f1)" height="818.2031" style="stroke: #000000; stroke-width: 2.0;" width="1344.5" x="23" y="269.2578"/><rect fill="#FFFFFF" filter="url(#f1)" height="612.7344" style="stroke: #000000; stroke-width: 2.0;" width="1324.5" x="33" y="423.7891"/><rect fill="#FFFFFF" filter="url(#f1)" height="349" style="stroke: #000000; stroke-width: 2.0;" width="1304.5" x="43" y="636.5859"/><rect fill="#FFFFFF" height="43.9375" style="stroke: none; stroke-width: 1.0;" width="1304.5" x="43" y="941.6484"/><rect fill="#FFFFFF" height="43.9375" style="stroke: none; stroke-width: 1.0;" width="1324.5" x="33" y="992.5859"/><rect fill="#FFFFFF" height="43.9375" style="stroke: none; stroke-width: 1.0;" width="1344.5" x="23" y="1043.5234"/><line style="stroke: #A80036; stroke-width: 1.0; stroke-dasharray: 5.0,5.0;" x1="140" x2="140" y1="68.5938" y2="1111.4609"/><line style="stroke: #A80036; stroke-width: 1.0; stroke-dasharray: 5.0,5.0;" x1="357.5" x2="357.5" y1="68.5938" y2="1111.4609"/><line style="stroke: #A80036; stroke-width: 1.0; stroke-dasharray: 5.0,5.0;" x1="562.5" x2="562.5" y1="68.5938" y2="1111.4609"/><line style="stroke: #A80036; stroke-width: 1.0; stroke-dasharray: 5.0,5.0;" x1="770.5" x2="770.5" y1="68.5938" y2="1111.4609"/><line style="stroke: #A80036; stroke-width: 1.0; stroke-dasharray: 5.0,5.0;" x1="979" x2="979" y1="68.5938" y2="1111.4609"/><line style="stroke: #A80036; stroke-width: 1.0; stroke-dasharray: 5.0,5.0;" x1="1192.5" x2="1192.5" y1="68.5938" y2="1111.4609"/><line style="stroke: #A80036; stroke-width: 1.0; stroke-dasharray: 5.0,5.0;" x1="1307.5" x2="1307.5" y1="68.5938" y2="1111.4609"/><rect fill="#FEFECE" filter="url(#f1)" height="30.2969" style="stroke: #A80036; stroke-width: 1.5;" width="170" x="53" y="33.2969"/><text fill="#000000" font-family="sans-serif" font-size="14" lengthAdjust="spacingAndGlyphs" textLength="156" x="60" y="53.292">AdministrationWebApp</text><rect fill="#FEFECE" filter="url(#f1)" height="30.2969" style="stroke: #A80036; stroke-width: 1.5;" width="170" x="53" y="1110.4609"/><text fill="#000000" font-family="sans-serif" font-size="14" lengthAdjust="spacingAndGlyphs" textLength="156" x="60" y="1130.4561">AdministrationWebApp</text><rect fill="#FEFECE" filter="url(#f1)" height="30.2969" style="stroke: #A80036; stroke-width: 1.5;" width="187" x="262.5" y="33.2969"/><text fill="#000000" font-family="sans-serif" font-size="14" lengthAdjust="spacingAndGlyphs" textLength="173" x="269.5" y="53.292">RemoteServicesInterface</text><rect fill="#FEFECE" filter="url(#f1)" height="30.2969" style="stroke: #A80036; stroke-width: 1.5;" width="187" x="262.5" y="1110.4609"/><text fill="#000000" font-family="sans-serif" font-size="14" lengthAdjust="spacingAndGlyphs" textLength="173" x="269.5" y="1130.4561">RemoteServicesInterface</text><rect fill="#FEFECE" filter="url(#f1)" height="30.2969" style="stroke: #A80036; stroke-width: 1.5;" width="195" x="463.5" y="33.2969"/><text fill="#000000" font-family="sans-serif" font-size="14" lengthAdjust="spacingAndGlyphs" textLength="181" x="470.5" y="53.292">ZoneDivisionManagement</text><rect fill="#FEFECE" filter="url(#f1)" height="30.2969" style="stroke: #A80036; stroke-width: 1.5;" width="195" x="463.5" y="1110.4609"/><text fill="#000000" font-family="sans-serif" font-size="14" lengthAdjust="spacingAndGlyphs" textLength="181" x="470.5" y="1130.4561">ZoneDivisionManagement</text><rect fill="#FEFECE" filter="url(#f1)" height="30.2969" style="stroke: #A80036; stroke-width: 1.5;" width="145" x="696.5" y="33.2969"/><text fill="#000000" font-family="sans-serif" font-size="14" lengthAdjust="spacingAndGlyphs" textLength="131" x="703.5" y="53.292">DriverManagement</text><rect fill="#FEFECE" filter="url(#f1)" height="30.2969" style="stroke: #A80036; stroke-width: 1.5;" width="145" x="696.5" y="1110.4609"/><text fill="#000000" font-family="sans-serif" font-size="14" lengthAdjust="spacingAndGlyphs" textLength="131" x="703.5" y="1130.4561">DriverManagement</text><rect fill="#FEFECE" filter="url(#f1)" height="30.2969" style="stroke: #A80036; stroke-width: 1.5;" width="210" x="872" y="33.2969"/><text fill="#000000" font-family="sans-serif" font-size="14" lengthAdjust="spacingAndGlyphs" textLength="196" x="879" y="53.292">APIPermissionsManagement</text><rect fill="#FEFECE" filter="url(#f1)" height="30.2969" style="stroke: #A80036; stroke-width: 1.5;" width="210" x="872" y="1110.4609"/><text fill="#000000" font-family="sans-serif" font-size="14" lengthAdjust="spacingAndGlyphs" textLength="196" x="879" y="1130.4561">APIPermissionsManagement</text><rect fill="#FEFECE" filter="url(#f1)" height="30.2969" style="stroke: #A80036; stroke-width: 1.5;" width="145" x="1118.5" y="33.2969"/><text fill="#000000" font-family="sans-serif" font-size="14" lengthAdjust="spacingAndGlyphs" textLength="131" x="1125.5" y="53.292">DataAccessUtilities</text><rect fill="#FEFECE" filter="url(#f1)" height="30.2969" style="stroke: #A80036; stroke-width: 1.5;" width="145" x="1118.5" y="1110.4609"/><text fill="#000000" font-family="sans-serif" font-size="14" lengthAdjust="spacingAndGlyphs" textLength="131" x="1125.5" y="1130.4561">DataAccessUtilities</text><rect fill="#FEFECE" filter="url(#f1)" height="30.2969" style="stroke: #A80036; stroke-width: 1.5;" width="56" x="1277.5" y="33.2969"/><text fill="#000000" font-family="sans-serif" font-size="14" lengthAdjust="spacingAndGlyphs" textLength="42" x="1284.5" y="53.292">DBMS</text><rect fill="#FEFECE" filter="url(#f1)" height="30.2969" style="stroke: #A80036; stroke-width: 1.5;" width="56" x="1277.5" y="1110.4609"/><text fill="#000000" font-family="sans-serif" font-size="14" lengthAdjust="spacingAndGlyphs" textLength="42" x="1284.5" y="1130.4561">DBMS</text><rect fill="#FFFFFF" filter="url(#f1)" height="1022.8672" style="stroke: #A80036; stroke-width: 1.0;" width="10" x="135" y="78.5938"/><rect fill="#FFFFFF" filter="url(#f1)" height="970.7344" style="stroke: #A80036; stroke-width: 1.0;" width="10" x="353" y="123.7266"/><rect fill="#FFFFFF" filter="url(#f1)" height="101.2656" style="stroke: #A80036; stroke-width: 1.0;" width="10" x="558" y="152.8594"/><rect fill="#FFFFFF" filter="url(#f1)" height="28" style="stroke: #A80036; stroke-width: 1.0;" width="10" x="563" y="189.9922"/><rect fill="#FFFFFF" filter="url(#f1)" height="100.3984" style="stroke: #A80036; stroke-width: 1.0;" width="10" x="558" y="674.7188"/><rect fill="#FFFFFF" filter="url(#f1)" height="101.2656" style="stroke: #A80036; stroke-width: 1.0;" width="10" x="766" y="307.3906"/><rect fill="#FFFFFF" filter="url(#f1)" height="28" style="stroke: #A80036; stroke-width: 1.0;" width="10" x="771" y="344.5234"/><rect fill="#FFFFFF" filter="url(#f1)" height="100.3984" style="stroke: #A80036; stroke-width: 1.0;" width="10" x="766" y="804.1172"/><rect fill="#FFFFFF" filter="url(#f1)" height="101.2656" style="stroke: #A80036; stroke-width: 1.0;" width="10" x="974" y="520.1875"/><rect fill="#FFFFFF" filter="url(#f1)" height="28" style="stroke: #A80036; stroke-width: 1.0;" width="10" x="979" y="557.3203"/><rect fill="#FFFFFF" filter="url(#f1)" height="57.2656" style="stroke: #A80036; stroke-width: 1.0;" width="10" x="1188" y="703.8516"/><rect fill="#FFFFFF" filter="url(#f1)" height="57.2656" style="stroke: #A80036; stroke-width: 1.0;" width="10" x="1188" y="833.25"/><rect fill="#FFFFFF" filter="url(#f1)" height="14.1328" style="stroke: #A80036; stroke-width: 1.0;" width="10" x="1302.5" y="732.9844"/><rect fill="#FFFFFF" filter="url(#f1)" height="14.1328" style="stroke: #A80036; stroke-width: 1.0;" width="10" x="1302.5" y="862.3828"/><rect fill="none" height="1008.8672" style="stroke: #000000; stroke-width: 2.0;" width="1364.5" x="13" y="85.5938"/><polygon fill="#EEEEEE" points="13,85.5938,90,85.5938,90,92.5938,80,102.5938,13,102.5938,13,85.5938" style="stroke: #000000; stroke-width: 2.0;"/><text fill="#000000" font-family="sans-serif" font-size="13" font-weight="bold" lengthAdjust="spacingAndGlyphs" textLength="32" x="28" y="98.6606">loop</text><text fill="#000000" font-family="sans-serif" font-size="11" font-weight="bold" lengthAdjust="spacingAndGlyphs" textLength="169" x="105" y="97.8042">[until confirmation or exit]</text><polygon fill="#A80036" points="341,119.7266,351,123.7266,341,127.7266,345,123.7266" style="stroke: #A80036; stroke-width: 1.0;"/><line style="stroke: #A80036; stroke-width: 1.0;" x1="145" x2="347" y1="123.7266" y2="123.7266"/><text fill="#000000" font-family="sans-serif" font-size="13" lengthAdjust="spacingAndGlyphs" textLength="139" x="152" y="118.7935">sendSetupData(data)</text><polygon fill="#A80036" points="546,148.8594,556,152.8594,546,156.8594,550,152.8594" style="stroke: #A80036; stroke-width: 1.0;"/><line style="stroke: #A80036; stroke-width: 1.0;" x1="363" x2="552" y1="152.8594" y2="152.8594"/><text fill="#000000" font-family="sans-serif" font-size="13" lengthAdjust="spacingAndGlyphs" textLength="101" x="370" y="147.9263">sendData(data)</text><line style="stroke: #A80036; stroke-width: 1.0;" x1="573" x2="615" y1="182.125" y2="182.125"/><line style="stroke: #A80036; stroke-width: 1.0;" x1="615" x2="615" y1="182.125" y2="195.125"/><line style="stroke: #A80036; stroke-width: 1.0;" x1="574" x2="615" y1="195.125" y2="195.125"/><polygon fill="#A80036" points="584,191.125,574,195.125,584,199.125,580,195.125" style="stroke: #A80036; stroke-width: 1.0;"/><text fill="#000000" font-family="sans-serif" font-size="13" lengthAdjust="spacingAndGlyphs" textLength="184" x="580" y="177.0591">checkDataConsistency(data)</text><polygon fill="#A80036" points="374,250.125,364,254.125,374,258.125,370,254.125" style="stroke: #A80036; stroke-width: 1.0;"/><line style="stroke: #A80036; stroke-width: 1.0; stroke-dasharray: 2.0,2.0;" x1="368" x2="562" y1="254.125" y2="254.125"/><text fill="#000000" font-family="sans-serif" font-size="13" lengthAdjust="spacingAndGlyphs" textLength="36" x="380" y="249.1919">result</text><rect fill="none" height="818.2031" style="stroke: #000000; stroke-width: 2.0;" width="1344.5" x="23" y="269.2578"/><polygon fill="#EEEEEE" points="23,269.2578,87,269.2578,87,276.2578,77,286.2578,23,286.2578,23,269.2578" style="stroke: #000000; stroke-width: 2.0;"/><text fill="#000000" font-family="sans-serif" font-size="13" font-weight="bold" lengthAdjust="spacingAndGlyphs" textLength="19" x="38" y="282.3247">alt</text><text fill="#000000" font-family="sans-serif" font-size="11" font-weight="bold" lengthAdjust="spacingAndGlyphs" textLength="130" x="102" y="281.4683">[correct zones data]</text><polygon fill="#A80036" points="754,303.3906,764,307.3906,754,311.3906,758,307.3906" style="stroke: #A80036; stroke-width: 1.0;"/><line style="stroke: #A80036; stroke-width: 1.0;" x1="363" x2="760" y1="307.3906" y2="307.3906"/><text fill="#000000" font-family="sans-serif" font-size="13" lengthAdjust="spacingAndGlyphs" textLength="101" x="370" y="302.4575">sendData(data)</text><line style="stroke: #A80036; stroke-width: 1.0;" x1="781" x2="823" y1="336.6563" y2="336.6563"/><line style="stroke: #A80036; stroke-width: 1.0;" x1="823" x2="823" y1="336.6563" y2="349.6563"/><line style="stroke: #A80036; stroke-width: 1.0;" x1="782" x2="823" y1="349.6563" y2="349.6563"/><polygon fill="#A80036" points="792,345.6563,782,349.6563,792,353.6563,788,349.6563" style="stroke: #A80036; stroke-width: 1.0;"/><text fill="#000000" font-family="sans-serif" font-size="13" lengthAdjust="spacingAndGlyphs" textLength="184" x="788" y="331.5903">checkDataConsistency(data)</text><polygon fill="#A80036" points="374,404.6563,364,408.6563,374,412.6563,370,408.6563" style="stroke: #A80036; stroke-width: 1.0;"/><line style="stroke: #A80036; stroke-width: 1.0; stroke-dasharray: 2.0,2.0;" x1="368" x2="770" y1="408.6563" y2="408.6563"/><text fill="#000000" font-family="sans-serif" font-size="13" lengthAdjust="spacingAndGlyphs" textLength="36" x="380" y="403.7231">result</text><rect fill="none" height="612.7344" style="stroke: #000000; stroke-width: 2.0;" width="1324.5" x="33" y="423.7891"/><polygon fill="#EEEEEE" points="33,423.7891,97,423.7891,97,430.7891,87,440.7891,33,440.7891,33,423.7891" style="stroke: #000000; stroke-width: 2.0;"/><text fill="#000000" font-family="sans-serif" font-size="13" font-weight="bold" lengthAdjust="spacingAndGlyphs" textLength="19" x="48" y="436.856">alt</text><text fill="#000000" font-family="sans-serif" font-size="11" font-weight="bold" lengthAdjust="spacingAndGlyphs" textLength="164" x="112" y="435.9995">[correct taxi drivers data]</text><polygon fill="#A80036" points="156,457.9219,146,461.9219,156,465.9219,152,461.9219" style="stroke: #A80036; stroke-width: 1.0;"/><line style="stroke: #A80036; stroke-width: 1.0; stroke-dasharray: 2.0,2.0;" x1="150" x2="352" y1="461.9219" y2="461.9219"/><text fill="#000000" font-family="sans-serif" font-size="13" lengthAdjust="spacingAndGlyphs" textLength="95" x="162" y="456.9888">dataConfirmed</text><polygon fill="#A80036" points="341,487.0547,351,491.0547,341,495.0547,345,491.0547" style="stroke: #A80036; stroke-width: 1.0;"/><line style="stroke: #A80036; stroke-width: 1.0;" x1="145" x2="347" y1="491.0547" y2="491.0547"/><text fill="#000000" font-family="sans-serif" font-size="13" lengthAdjust="spacingAndGlyphs" textLength="184" x="152" y="486.1216">sendPassword(adminId, psw)</text><polygon fill="#A80036" points="962,516.1875,972,520.1875,962,524.1875,966,520.1875" style="stroke: #A80036; stroke-width: 1.0;"/><line style="stroke: #A80036; stroke-width: 1.0;" x1="363" x2="968" y1="520.1875" y2="520.1875"/><text fill="#000000" font-family="sans-serif" font-size="13" lengthAdjust="spacingAndGlyphs" textLength="184" x="370" y="515.2544">sendPassword(adminId, psw)</text><line style="stroke: #A80036; stroke-width: 1.0;" x1="989" x2="1031" y1="549.4531" y2="549.4531"/><line style="stroke: #A80036; stroke-width: 1.0;" x1="1031" x2="1031" y1="549.4531" y2="562.4531"/><line style="stroke: #A80036; stroke-width: 1.0;" x1="990" x2="1031" y1="562.4531" y2="562.4531"/><polygon fill="#A80036" points="1000,558.4531,990,562.4531,1000,566.4531,996,562.4531" style="stroke: #A80036; stroke-width: 1.0;"/><text fill="#000000" font-family="sans-serif" font-size="13" lengthAdjust="spacingAndGlyphs" textLength="190" x="996" y="544.3872">checkPassword(adminId, psw)</text><polygon fill="#A80036" points="374,617.4531,364,621.4531,374,625.4531,370,621.4531" style="stroke: #A80036; stroke-width: 1.0;"/><line style="stroke: #A80036; stroke-width: 1.0; stroke-dasharray: 2.0,2.0;" x1="368" x2="978" y1="621.4531" y2="621.4531"/><text fill="#000000" font-family="sans-serif" font-size="13" lengthAdjust="spacingAndGlyphs" textLength="36" x="380" y="616.52">result</text><rect fill="none" height="349" style="stroke: #000000; stroke-width: 2.0;" width="1304.5" x="43" y="636.5859"/><polygon fill="#EEEEEE" points="43,636.5859,107,636.5859,107,643.5859,97,653.5859,43,653.5859,43,636.5859" style="stroke: #000000; stroke-width: 2.0;"/><text fill="#000000" font-family="sans-serif" font-size="13" font-weight="bold" lengthAdjust="spacingAndGlyphs" textLength="19" x="58" y="649.6528">alt</text><text fill="#000000" font-family="sans-serif" font-size="11" font-weight="bold" lengthAdjust="spacingAndGlyphs" textLength="140" x="122" y="648.7964">[password confirmed]</text><polygon fill="#A80036" points="546,670.7188,556,674.7188,546,678.7188,550,674.7188" style="stroke: #A80036; stroke-width: 1.0;"/><line style="stroke: #A80036; stroke-width: 1.0;" x1="363" x2="552" y1="674.7188" y2="674.7188"/><text fill="#000000" font-family="sans-serif" font-size="13" lengthAdjust="spacingAndGlyphs" textLength="116" x="370" y="669.7856">insertZones(data)</text><polygon fill="#A80036" points="1176,699.8516,1186,703.8516,1176,707.8516,1180,703.8516" style="stroke: #A80036; stroke-width: 1.0;"/><line style="stroke: #A80036; stroke-width: 1.0;" x1="568" x2="1182" y1="703.8516" y2="703.8516"/><text fill="#000000" font-family="sans-serif" font-size="13" lengthAdjust="spacingAndGlyphs" textLength="116" x="575" y="698.9185">insertZones(data)</text><polygon fill="#A80036" points="1290.5,728.9844,1300.5,732.9844,1290.5,736.9844,1294.5,732.9844" style="stroke: #A80036; stroke-width: 1.0;"/><line style="stroke: #A80036; stroke-width: 1.0;" x1="1198" x2="1296.5" y1="732.9844" y2="732.9844"/><text fill="#000000" font-family="sans-serif" font-size="13" lengthAdjust="spacingAndGlyphs" textLength="58" x="1205" y="728.0513">insert(...)</text><polygon fill="#A80036" points="1209,743.1172,1199,747.1172,1209,751.1172,1205,747.1172" style="stroke: #A80036; stroke-width: 1.0;"/><line style="stroke: #A80036; stroke-width: 1.0; stroke-dasharray: 2.0,2.0;" x1="1203" x2="1306.5" y1="747.1172" y2="747.1172"/><polygon fill="#A80036" points="579,757.1172,569,761.1172,579,765.1172,575,761.1172" style="stroke: #A80036; stroke-width: 1.0;"/><line style="stroke: #A80036; stroke-width: 1.0; stroke-dasharray: 2.0,2.0;" x1="573" x2="1192" y1="761.1172" y2="761.1172"/><polygon fill="#A80036" points="374,771.1172,364,775.1172,374,779.1172,370,775.1172" style="stroke: #A80036; stroke-width: 1.0;"/><line style="stroke: #A80036; stroke-width: 1.0; stroke-dasharray: 2.0,2.0;" x1="368" x2="562" y1="775.1172" y2="775.1172"/><polygon fill="#A80036" points="754,800.1172,764,804.1172,754,808.1172,758,804.1172" style="stroke: #A80036; stroke-width: 1.0;"/><line style="stroke: #A80036; stroke-width: 1.0;" x1="363" x2="760" y1="804.1172" y2="804.1172"/><text fill="#000000" font-family="sans-serif" font-size="13" lengthAdjust="spacingAndGlyphs" textLength="145" x="370" y="799.1841">insertTaxiDrivers(data)</text><polygon fill="#A80036" points="1176,829.25,1186,833.25,1176,837.25,1180,833.25" style="stroke: #A80036; stroke-width: 1.0;"/><line style="stroke: #A80036; stroke-width: 1.0;" x1="776" x2="1182" y1="833.25" y2="833.25"/><text fill="#000000" font-family="sans-serif" font-size="13" lengthAdjust="spacingAndGlyphs" textLength="145" x="783" y="828.3169">insertTaxiDrivers(data)</text><polygon fill="#A80036" points="1290.5,858.3828,1300.5,862.3828,1290.5,866.3828,1294.5,862.3828" style="stroke: #A80036; stroke-width: 1.0;"/><line style="stroke: #A80036; stroke-width: 1.0;" x1="1198" x2="1296.5" y1="862.3828" y2="862.3828"/><text fill="#000000" font-family="sans-serif" font-size="13" lengthAdjust="spacingAndGlyphs" textLength="58" x="1205" y="857.4497">insert(...)</text><polygon fill="#A80036" points="1209,872.5156,1199,876.5156,1209,880.5156,1205,876.5156" style="stroke: #A80036; stroke-width: 1.0;"/><line style="stroke: #A80036; stroke-width: 1.0; stroke-dasharray: 2.0,2.0;" x1="1203" x2="1306.5" y1="876.5156" y2="876.5156"/><polygon fill="#A80036" points="787,886.5156,777,890.5156,787,894.5156,783,890.5156" style="stroke: #A80036; stroke-width: 1.0;"/><line style="stroke: #A80036; stroke-width: 1.0; stroke-dasharray: 2.0,2.0;" x1="781" x2="1192" y1="890.5156" y2="890.5156"/><polygon fill="#A80036" points="374,900.5156,364,904.5156,374,908.5156,370,904.5156" style="stroke: #A80036; stroke-width: 1.0;"/><line style="stroke: #A80036; stroke-width: 1.0; stroke-dasharray: 2.0,2.0;" x1="368" x2="770" y1="904.5156" y2="904.5156"/><polygon fill="#A80036" points="156,929.5156,146,933.5156,156,937.5156,152,933.5156" style="stroke: #A80036; stroke-width: 1.0;"/><line style="stroke: #A80036; stroke-width: 1.0; stroke-dasharray: 2.0,2.0;" x1="150" x2="352" y1="933.5156" y2="933.5156"/><text fill="#000000" font-family="sans-serif" font-size="13" lengthAdjust="spacingAndGlyphs" textLength="183" x="162" y="928.5825">passwordConfirmedMessage</text><line style="stroke: #000000; stroke-width: 1.0; stroke-dasharray: 2.0,2.0;" x1="43" x2="1347.5" y1="942.6484" y2="942.6484"/><text fill="#000000" font-family="sans-serif" font-size="11" font-weight="bold" lengthAdjust="spacingAndGlyphs" textLength="129" x="48" y="952.8589">[password rejected]</text><polygon fill="#A80036" points="156,973.4531,146,977.4531,156,981.4531,152,977.4531" style="stroke: #A80036; stroke-width: 1.0;"/><line style="stroke: #A80036; stroke-width: 1.0; stroke-dasharray: 2.0,2.0;" x1="150" x2="352" y1="977.4531" y2="977.4531"/><text fill="#000000" font-family="sans-serif" font-size="13" lengthAdjust="spacingAndGlyphs" textLength="172" x="162" y="972.52">passwordRejectedMessage</text><line style="stroke: #000000; stroke-width: 1.0; stroke-dasharray: 2.0,2.0;" x1="33" x2="1357.5" y1="993.5859" y2="993.5859"/><text fill="#000000" font-family="sans-serif" font-size="11" font-weight="bold" lengthAdjust="spacingAndGlyphs" textLength="159" x="38" y="1003.7964">[wrong taxi drivers data]</text><polygon fill="#A80036" points="156,1024.3906,146,1028.3906,156,1032.3906,152,1028.3906" style="stroke: #A80036; stroke-width: 1.0;"/><line style="stroke: #A80036; stroke-width: 1.0; stroke-dasharray: 2.0,2.0;" x1="150" x2="352" y1="1028.3906" y2="1028.3906"/><text fill="#000000" font-family="sans-serif" font-size="13" lengthAdjust="spacingAndGlyphs" textLength="103" x="162" y="1023.4575">errorDescription</text><line style="stroke: #000000; stroke-width: 1.0; stroke-dasharray: 2.0,2.0;" x1="23" x2="1367.5" y1="1044.5234" y2="1044.5234"/><text fill="#000000" font-family="sans-serif" font-size="11" font-weight="bold" lengthAdjust="spacingAndGlyphs" textLength="125" x="28" y="1054.7339">[wrong zones data]</text><polygon fill="#A80036" points="156,1075.3281,146,1079.3281,156,1083.3281,152,1079.3281" style="stroke: #A80036; stroke-width: 1.0;"/><line style="stroke: #A80036; stroke-width: 1.0; stroke-dasharray: 2.0,2.0;" x1="150" x2="352" y1="1079.3281" y2="1079.3281"/><text fill="#000000" font-family="sans-serif" font-size="13" lengthAdjust="spacingAndGlyphs" textLength="103" x="162" y="1074.395">errorDescription</text></g></svg>