<?xml version="1.0" encoding="UTF-8" standalone="yes"?><svg xmlns="http://www.w3.org/2000/svg" xmlns:xlink="http://www.w3.org/1999/xlink" height="569px" style="width:950px;height:569px;" version="1.1" viewBox="0 0 950 569" width="950px"><defs><filter height="300%" id="f1" width="300%" x="-1" y="-1"><feGaussianBlur result="blurOut" stdDeviation="2.0"/><feColorMatrix in="blurOut" result="blurOut2" type="matrix" values="0 0 0 0 0 0 0 0 0 0 0 0 0 0 0 0 0 0 .4 0"/><feOffset dx="4.0" dy="4.0" in="blurOut2" result="blurOut3"/><feBlend in="SourceGraphic" in2="blurOut3" mode="normal"/></filter></defs><g><text fill="#000000" font-family="sans-serif" font-size="14" font-weight="bold" lengthAdjust="spacingAndGlyphs" textLength="199" x="377.75" y="22.9951">sd_reservation_allocation</text><rect fill="#FFFFFF" filter="url(#f1)" height="442.7266" style="stroke: #A80036; stroke-width: 1.0;" width="10" x="143.5" y="78.5938"/><rect fill="#FFFFFF" filter="url(#f1)" height="317.3281" style="stroke: #A80036; stroke-width: 1.0;" width="10" x="593.5" y="189.9922"/><rect fill="#FFFFFF" filter="url(#f1)" height="57.2656" style="stroke: #A80036; stroke-width: 1.0;" width="10" x="762" y="435.0547"/><rect fill="#FFFFFF" filter="url(#f1)" height="14.1328" style="stroke: #A80036; stroke-width: 1.0;" width="10" x="876.5" y="464.1875"/><rect fill="#FFFFFF" filter="url(#f1)" height="386.5938" style="stroke: #000000; stroke-width: 2.0;" width="928.5" x="13" y="127.7266"/><rect fill="#FFFFFF" filter="url(#f1)" height="355.4609" style="stroke: #000000; stroke-width: 2.0;" width="908.5" x="23" y="151.8594"/><rect fill="#FFFFFF" filter="url(#f1)" height="295.1953" style="stroke: #000000; stroke-width: 2.0;" width="888.5" x="33" y="205.125"/><rect fill="#FFFFFF" filter="url(#f1)" height="103.3984" style="stroke: #000000; stroke-width: 2.0;" width="412" x="43" y="303.6563"/><rect fill="#FFFFFF" height="44.1328" style="stroke: none; stroke-width: 1.0;" width="412" x="43" y="362.9219"/><line style="stroke: #A80036; stroke-width: 1.0; stroke-dasharray: 5.0,5.0;" x1="148" x2="148" y1="68.5938" y2="531.3203"/><line style="stroke: #A80036; stroke-width: 1.0; stroke-dasharray: 5.0,5.0;" x1="598.5" x2="598.5" y1="68.5938" y2="531.3203"/><line style="stroke: #A80036; stroke-width: 1.0; stroke-dasharray: 5.0,5.0;" x1="766.5" x2="766.5" y1="68.5938" y2="531.3203"/><line style="stroke: #A80036; stroke-width: 1.0; stroke-dasharray: 5.0,5.0;" x1="881.5" x2="881.5" y1="68.5938" y2="531.3203"/><rect fill="#FEFECE" filter="url(#f1)" height="30.2969" style="stroke: #A80036; stroke-width: 1.5;" width="187" x="53" y="33.2969"/><text fill="#000000" font-family="sans-serif" font-size="14" lengthAdjust="spacingAndGlyphs" textLength="173" x="60" y="53.292">ReservationManagement</text><rect fill="#FEFECE" filter="url(#f1)" height="30.2969" style="stroke: #A80036; stroke-width: 1.5;" width="187" x="53" y="530.3203"/><text fill="#000000" font-family="sans-serif" font-size="14" lengthAdjust="spacingAndGlyphs" textLength="173" x="60" y="550.3154">ReservationManagement</text><rect fill="#FEFECE" filter="url(#f1)" height="30.2969" style="stroke: #A80036; stroke-width: 1.5;" width="164" x="514.5" y="33.2969"/><text fill="#000000" font-family="sans-serif" font-size="14" lengthAdjust="spacingAndGlyphs" textLength="150" x="521.5" y="53.292">RequestManagement</text><rect fill="#FEFECE" filter="url(#f1)" height="30.2969" style="stroke: #A80036; stroke-width: 1.5;" width="164" x="514.5" y="530.3203"/><text fill="#000000" font-family="sans-serif" font-size="14" lengthAdjust="spacingAndGlyphs" textLength="150" x="521.5" y="550.3154">RequestManagement</text><rect fill="#FEFECE" filter="url(#f1)" height="30.2969" style="stroke: #A80036; stroke-width: 1.5;" width="145" x="692.5" y="33.2969"/><text fill="#000000" font-family="sans-serif" font-size="14" lengthAdjust="spacingAndGlyphs" textLength="131" x="699.5" y="53.292">DataAccessUtilities</text><rect fill="#FEFECE" filter="url(#f1)" height="30.2969" style="stroke: #A80036; stroke-width: 1.5;" width="145" x="692.5" y="530.3203"/><text fill="#000000" font-family="sans-serif" font-size="14" lengthAdjust="spacingAndGlyphs" textLength="131" x="699.5" y="550.3154">DataAccessUtilities</text><rect fill="#FEFECE" filter="url(#f1)" height="30.2969" style="stroke: #A80036; stroke-width: 1.5;" width="56" x="851.5" y="33.2969"/><text fill="#000000" font-family="sans-serif" font-size="14" lengthAdjust="spacingAndGlyphs" textLength="42" x="858.5" y="53.292">DBMS</text><rect fill="#FEFECE" filter="url(#f1)" height="30.2969" style="stroke: #A80036; stroke-width: 1.5;" width="56" x="851.5" y="530.3203"/><text fill="#000000" font-family="sans-serif" font-size="14" lengthAdjust="spacingAndGlyphs" textLength="42" x="858.5" y="550.3154">DBMS</text><rect fill="#FFFFFF" filter="url(#f1)" height="442.7266" style="stroke: #A80036; stroke-width: 1.0;" width="10" x="143.5" y="78.5938"/><rect fill="#FFFFFF" filter="url(#f1)" height="317.3281" style="stroke: #A80036; stroke-width: 1.0;" width="10" x="593.5" y="189.9922"/><rect fill="#FFFFFF" filter="url(#f1)" height="57.2656" style="stroke: #A80036; stroke-width: 1.0;" width="10" x="762" y="435.0547"/><rect fill="#FFFFFF" filter="url(#f1)" height="14.1328" style="stroke: #A80036; stroke-width: 1.0;" width="10" x="876.5" y="464.1875"/><line style="stroke: #A80036; stroke-width: 1.0;" x1="153.5" x2="195.5" y1="99.7266" y2="99.7266"/><line style="stroke: #A80036; stroke-width: 1.0;" x1="195.5" x2="195.5" y1="99.7266" y2="112.7266"/><line style="stroke: #A80036; stroke-width: 1.0;" x1="154.5" x2="195.5" y1="112.7266" y2="112.7266"/><polygon fill="#A80036" points="164.5,108.7266,154.5,112.7266,164.5,116.7266,160.5,112.7266" style="stroke: #A80036; stroke-width: 1.0;"/><text fill="#000000" font-family="sans-serif" font-size="13" lengthAdjust="spacingAndGlyphs" textLength="129" x="160.5" y="94.6606">checkReservations()</text><rect fill="none" height="386.5938" style="stroke: #000000; stroke-width: 2.0;" width="928.5" x="13" y="127.7266"/><polygon fill="#EEEEEE" points="13,127.7266,83,127.7266,83,134.7266,73,144.7266,13,144.7266,13,127.7266" style="stroke: #000000; stroke-width: 2.0;"/><text fill="#000000" font-family="sans-serif" font-size="13" font-weight="bold" lengthAdjust="spacingAndGlyphs" textLength="25" x="28" y="140.7935">opt</text><text fill="#000000" font-family="sans-serif" font-size="11" font-weight="bold" lengthAdjust="spacingAndGlyphs" textLength="240" x="98" y="139.937">[some reservation must be allocated]</text><rect fill="none" height="355.4609" style="stroke: #000000; stroke-width: 2.0;" width="908.5" x="23" y="151.8594"/><polygon fill="#EEEEEE" points="23,151.8594,100,151.8594,100,158.8594,90,168.8594,23,168.8594,23,151.8594" style="stroke: #000000; stroke-width: 2.0;"/><text fill="#000000" font-family="sans-serif" font-size="13" font-weight="bold" lengthAdjust="spacingAndGlyphs" textLength="32" x="38" y="164.9263">loop</text><text fill="#000000" font-family="sans-serif" font-size="11" font-weight="bold" lengthAdjust="spacingAndGlyphs" textLength="233" x="115" y="164.0698">[for all reservations to be allocated]</text><polygon fill="#A80036" points="581.5,185.9922,591.5,189.9922,581.5,193.9922,585.5,189.9922" style="stroke: #A80036; stroke-width: 1.0;"/><line style="stroke: #A80036; stroke-width: 1.0;" x1="153.5" x2="587.5" y1="189.9922" y2="189.9922"/><text fill="#000000" font-family="sans-serif" font-size="13" lengthAdjust="spacingAndGlyphs" textLength="421" x="160.5" y="185.0591">allocateReservation(passengerId, passengerLocation, destination)</text><rect fill="none" height="295.1953" style="stroke: #000000; stroke-width: 2.0;" width="888.5" x="33" y="205.125"/><polygon fill="#EEEEEE" points="33,205.125,110,205.125,110,212.125,100,222.125,33,222.125,33,205.125" style="stroke: #000000; stroke-width: 2.0;"/><text fill="#000000" font-family="sans-serif" font-size="13" font-weight="bold" lengthAdjust="spacingAndGlyphs" textLength="32" x="48" y="218.1919">loop</text><text fill="#000000" font-family="sans-serif" font-size="11" font-weight="bold" lengthAdjust="spacingAndGlyphs" textLength="249" x="125" y="217.3354">[try every two minutes, up to 10 times]</text><rect fill="#FFFFFF" filter="url(#f1)" height="40.2656" style="stroke: #000000; stroke-width: 2.0;" width="399" x="511.5" y="222.2578"/><polygon fill="#EEEEEE" points="511.5,222.2578,577.5,222.2578,577.5,229.2578,567.5,239.2578,511.5,239.2578,511.5,222.2578" style="stroke: #000000; stroke-width: 2.0;"/><text fill="#000000" font-family="sans-serif" font-size="13" font-weight="bold" lengthAdjust="spacingAndGlyphs" textLength="21" x="524.5" y="236.3247">ref</text><text fill="#000000" font-family="sans-serif" font-size="13" lengthAdjust="spacingAndGlyphs" textLength="72" x="677" y="255.3247">sd_allocate</text><polygon fill="#A80036" points="164.5,284.5234,154.5,288.5234,164.5,292.5234,160.5,288.5234" style="stroke: #A80036; stroke-width: 1.0;"/><line style="stroke: #A80036; stroke-width: 1.0; stroke-dasharray: 2.0,2.0;" x1="158.5" x2="592.5" y1="288.5234" y2="288.5234"/><text fill="#000000" font-family="sans-serif" font-size="13" lengthAdjust="spacingAndGlyphs" textLength="100" x="170.5" y="283.5903">allocationResult</text><rect fill="none" height="103.3984" style="stroke: #000000; stroke-width: 2.0;" width="412" x="43" y="303.6563"/><polygon fill="#EEEEEE" points="43,303.6563,107,303.6563,107,310.6563,97,320.6563,43,320.6563,43,303.6563" style="stroke: #000000; stroke-width: 2.0;"/><text fill="#000000" font-family="sans-serif" font-size="13" font-weight="bold" lengthAdjust="spacingAndGlyphs" textLength="19" x="58" y="316.7231">alt</text><text fill="#000000" font-family="sans-serif" font-size="11" font-weight="bold" lengthAdjust="spacingAndGlyphs" textLength="328" x="122" y="315.8667">[successful allocation (i.e., a taxi driver accepted)]</text><line style="stroke: #A80036; stroke-width: 1.0;" x1="153.5" x2="195.5" y1="341.9219" y2="341.9219"/><line style="stroke: #A80036; stroke-width: 1.0;" x1="195.5" x2="195.5" y1="341.9219" y2="354.9219"/><line style="stroke: #A80036; stroke-width: 1.0;" x1="154.5" x2="195.5" y1="354.9219" y2="354.9219"/><polygon fill="#A80036" points="164.5,350.9219,154.5,354.9219,164.5,358.9219,160.5,354.9219" style="stroke: #A80036; stroke-width: 1.0;"/><text fill="#000000" font-family="sans-serif" font-size="13" lengthAdjust="spacingAndGlyphs" textLength="155" x="160.5" y="336.856">setReservationAsDone()</text><line style="stroke: #000000; stroke-width: 1.0; stroke-dasharray: 2.0,2.0;" x1="43" x2="455" y1="363.9219" y2="363.9219"/><line style="stroke: #A80036; stroke-width: 1.0;" x1="153.5" x2="195.5" y1="386.0547" y2="386.0547"/><line style="stroke: #A80036; stroke-width: 1.0;" x1="195.5" x2="195.5" y1="386.0547" y2="399.0547"/><line style="stroke: #A80036; stroke-width: 1.0;" x1="154.5" x2="195.5" y1="399.0547" y2="399.0547"/><polygon fill="#A80036" points="164.5,395.0547,154.5,399.0547,164.5,403.0547,160.5,399.0547" style="stroke: #A80036; stroke-width: 1.0;"/><text fill="#000000" font-family="sans-serif" font-size="13" lengthAdjust="spacingAndGlyphs" textLength="125" x="160.5" y="380.9888">deleteReservation()</text><polygon fill="#A80036" points="750,431.0547,760,435.0547,750,439.0547,754,435.0547" style="stroke: #A80036; stroke-width: 1.0;"/><line style="stroke: #A80036; stroke-width: 1.0;" x1="153.5" x2="756" y1="435.0547" y2="435.0547"/><text fill="#000000" font-family="sans-serif" font-size="13" lengthAdjust="spacingAndGlyphs" textLength="164" x="160.5" y="430.1216">updateReservationList(...)</text><polygon fill="#A80036" points="864.5,460.1875,874.5,464.1875,864.5,468.1875,868.5,464.1875" style="stroke: #A80036; stroke-width: 1.0;"/><line style="stroke: #A80036; stroke-width: 1.0;" x1="772" x2="870.5" y1="464.1875" y2="464.1875"/><text fill="#000000" font-family="sans-serif" font-size="13" lengthAdjust="spacingAndGlyphs" textLength="67" x="779" y="459.2544">update(...)</text><polygon fill="#A80036" points="783,474.3203,773,478.3203,783,482.3203,779,478.3203" style="stroke: #A80036; stroke-width: 1.0;"/><line style="stroke: #A80036; stroke-width: 1.0; stroke-dasharray: 2.0,2.0;" x1="777" x2="880.5" y1="478.3203" y2="478.3203"/><polygon fill="#A80036" points="164.5,488.3203,154.5,492.3203,164.5,496.3203,160.5,492.3203" style="stroke: #A80036; stroke-width: 1.0;"/><line style="stroke: #A80036; stroke-width: 1.0; stroke-dasharray: 2.0,2.0;" x1="158.5" x2="766" y1="492.3203" y2="492.3203"/></g></svg>