<?xml version="1.0" encoding="UTF-8" standalone="yes"?><svg xmlns="http://www.w3.org/2000/svg" xmlns:xlink="http://www.w3.org/1999/xlink" height="315px" style="width:789px;height:315px;" version="1.1" viewBox="0 0 789 315" width="789px"><defs><filter height="300%" id="f1" width="300%" x="-1" y="-1"><feGaussianBlur result="blurOut" stdDeviation="2.0"/><feColorMatrix in="blurOut" result="blurOut2" type="matrix" values="0 0 0 0 0 0 0 0 0 0 0 0 0 0 0 0 0 0 .4 0"/><feOffset dx="4.0" dy="4.0" in="blurOut2" result="blurOut3"/><feBlend in="SourceGraphic" in2="blurOut3" mode="normal"/></filter></defs><g><text fill="#000000" font-family="sans-serif" font-size="14" font-weight="bold" lengthAdjust="spacingAndGlyphs" textLength="176" x="311.25" y="22.9951">sd_show_reservations</text><rect fill="#FFFFFF" filter="url(#f1)" height="180.5313" style="stroke: #A80036; stroke-width: 1.0;" width="10" x="62.5" y="78.5938"/><rect fill="#FFFFFF" filter="url(#f1)" height="159.5313" style="stroke: #A80036; stroke-width: 1.0;" width="10" x="297.5" y="99.5938"/><rect fill="#FFFFFF" filter="url(#f1)" height="101.2656" style="stroke: #A80036; stroke-width: 1.0;" width="10" x="532.5" y="128.7266"/><rect fill="#FFFFFF" filter="url(#f1)" height="28" style="stroke: #A80036; stroke-width: 1.0;" width="10" x="537.5" y="165.8594"/><line style="stroke: #A80036; stroke-width: 1.0; stroke-dasharray: 5.0,5.0;" x1="67" x2="67" y1="68.5938" y2="277.2578"/><line style="stroke: #A80036; stroke-width: 1.0; stroke-dasharray: 5.0,5.0;" x1="302" x2="302" y1="68.5938" y2="277.2578"/><line style="stroke: #A80036; stroke-width: 1.0; stroke-dasharray: 5.0,5.0;" x1="537" x2="537" y1="68.5938" y2="277.2578"/><rect fill="#FEFECE" filter="url(#f1)" height="30.2969" style="stroke: #A80036; stroke-width: 1.5;" width="115" x="8" y="33.2969"/><text fill="#000000" font-family="sans-serif" font-size="14" lengthAdjust="spacingAndGlyphs" textLength="101" x="15" y="53.292">PassengerApp</text><rect fill="#FEFECE" filter="url(#f1)" height="30.2969" style="stroke: #A80036; stroke-width: 1.5;" width="115" x="8" y="276.2578"/><text fill="#000000" font-family="sans-serif" font-size="14" lengthAdjust="spacingAndGlyphs" textLength="101" x="15" y="296.2529">PassengerApp</text><rect fill="#FEFECE" filter="url(#f1)" height="30.2969" style="stroke: #A80036; stroke-width: 1.5;" width="187" x="207" y="33.2969"/><text fill="#000000" font-family="sans-serif" font-size="14" lengthAdjust="spacingAndGlyphs" textLength="173" x="214" y="53.292">RemoteServicesInterface</text><rect fill="#FEFECE" filter="url(#f1)" height="30.2969" style="stroke: #A80036; stroke-width: 1.5;" width="187" x="207" y="276.2578"/><text fill="#000000" font-family="sans-serif" font-size="14" lengthAdjust="spacingAndGlyphs" textLength="173" x="214" y="296.2529">RemoteServicesInterface</text><rect fill="#FEFECE" filter="url(#f1)" height="30.2969" style="stroke: #A80036; stroke-width: 1.5;" width="187" x="442" y="33.2969"/><text fill="#000000" font-family="sans-serif" font-size="14" lengthAdjust="spacingAndGlyphs" textLength="173" x="449" y="53.292">ReservationManagement</text><rect fill="#FEFECE" filter="url(#f1)" height="30.2969" style="stroke: #A80036; stroke-width: 1.5;" width="187" x="442" y="276.2578"/><text fill="#000000" font-family="sans-serif" font-size="14" lengthAdjust="spacingAndGlyphs" textLength="173" x="449" y="296.2529">ReservationManagement</text><rect fill="#FFFFFF" filter="url(#f1)" height="180.5313" style="stroke: #A80036; stroke-width: 1.0;" width="10" x="62.5" y="78.5938"/><rect fill="#FFFFFF" filter="url(#f1)" height="159.5313" style="stroke: #A80036; stroke-width: 1.0;" width="10" x="297.5" y="99.5938"/><rect fill="#FFFFFF" filter="url(#f1)" height="101.2656" style="stroke: #A80036; stroke-width: 1.0;" width="10" x="532.5" y="128.7266"/><rect fill="#FFFFFF" filter="url(#f1)" height="28" style="stroke: #A80036; stroke-width: 1.0;" width="10" x="537.5" y="165.8594"/><polygon fill="#A80036" points="285.5,95.5938,295.5,99.5938,285.5,103.5938,289.5,99.5938" style="stroke: #A80036; stroke-width: 1.0;"/><line style="stroke: #A80036; stroke-width: 1.0;" x1="72.5" x2="291.5" y1="99.5938" y2="99.5938"/><text fill="#000000" font-family="sans-serif" font-size="13" lengthAdjust="spacingAndGlyphs" textLength="206" x="79.5" y="94.6606">getReservationList(passengerId)</text><polygon fill="#A80036" points="520.5,124.7266,530.5,128.7266,520.5,132.7266,524.5,128.7266" style="stroke: #A80036; stroke-width: 1.0;"/><line style="stroke: #A80036; stroke-width: 1.0;" x1="307.5" x2="526.5" y1="128.7266" y2="128.7266"/><text fill="#000000" font-family="sans-serif" font-size="13" lengthAdjust="spacingAndGlyphs" textLength="206" x="314.5" y="123.7935">getReservationList(passengerId)</text><line style="stroke: #A80036; stroke-width: 1.0;" x1="547.5" x2="589.5" y1="157.9922" y2="157.9922"/><line style="stroke: #A80036; stroke-width: 1.0;" x1="589.5" x2="589.5" y1="157.9922" y2="170.9922"/><line style="stroke: #A80036; stroke-width: 1.0;" x1="548.5" x2="589.5" y1="170.9922" y2="170.9922"/><polygon fill="#A80036" points="558.5,166.9922,548.5,170.9922,558.5,174.9922,554.5,170.9922" style="stroke: #A80036; stroke-width: 1.0;"/><text fill="#000000" font-family="sans-serif" font-size="13" lengthAdjust="spacingAndGlyphs" textLength="234" x="554.5" y="152.9263">retrieveReservationList(passengerId)</text><polygon fill="#A80036" points="318.5,225.9922,308.5,229.9922,318.5,233.9922,314.5,229.9922" style="stroke: #A80036; stroke-width: 1.0;"/><line style="stroke: #A80036; stroke-width: 1.0; stroke-dasharray: 2.0,2.0;" x1="312.5" x2="536.5" y1="229.9922" y2="229.9922"/><text fill="#000000" font-family="sans-serif" font-size="13" lengthAdjust="spacingAndGlyphs" textLength="18" x="324.5" y="225.0591">list</text><polygon fill="#A80036" points="78.5,255.125,68.5,259.125,78.5,263.125,74.5,259.125" style="stroke: #A80036; stroke-width: 1.0;"/><line style="stroke: #A80036; stroke-width: 1.0; stroke-dasharray: 2.0,2.0;" x1="72.5" x2="301.5" y1="259.125" y2="259.125"/><text fill="#000000" font-family="sans-serif" font-size="13" lengthAdjust="spacingAndGlyphs" textLength="18" x="84.5" y="254.1919">list</text></g></svg>