<?xml version="1.0" encoding="UTF-8" standalone="yes"?><svg xmlns="http://www.w3.org/2000/svg" xmlns:xlink="http://www.w3.org/1999/xlink" height="1850px" style="width:1399px;height:1850px;" version="1.1" viewBox="0 0 1399 1850" width="1399px"><defs><filter height="300%" id="f1" width="300%" x="-1" y="-1"><feGaussianBlur result="blurOut" stdDeviation="2.0"/><feColorMatrix in="blurOut" result="blurOut2" type="matrix" values="0 0 0 0 0 0 0 0 0 0 0 0 0 0 0 0 0 0 .4 0"/><feOffset dx="4.0" dy="4.0" in="blurOut2" result="blurOut3"/><feBlend in="SourceGraphic" in2="blurOut3" mode="normal"/></filter></defs><g><text fill="#000000" font-family="sans-serif" font-size="14" font-weight="bold" lengthAdjust="spacingAndGlyphs" textLength="76" x="663.75" y="22.9951">sd_toggle</text><rect fill="#FFFFFF" filter="url(#f1)" height="1723.9297" style="stroke: #A80036; stroke-width: 1.0;" width="10" x="163" y="78.5938"/><rect fill="#FFFFFF" filter="url(#f1)" height="14.1328" style="stroke: #A80036; stroke-width: 1.0;" width="10" x="168" y="494.7891"/><rect fill="#FFFFFF" filter="url(#f1)" height="14.1328" style="stroke: #A80036; stroke-width: 1.0;" width="10" x="168" y="1039.0547"/><rect fill="#FFFFFF" filter="url(#f1)" height="14.1328" style="stroke: #A80036; stroke-width: 1.0;" width="10" x="168" y="1565.8594"/><rect fill="#FFFFFF" filter="url(#f1)" height="1674.7969" style="stroke: #A80036; stroke-width: 1.0;" width="10" x="365" y="128.7266"/><rect fill="#FFFFFF" filter="url(#f1)" height="1644.6641" style="stroke: #A80036; stroke-width: 1.0;" width="10" x="567" y="157.8594"/><rect fill="#FFFFFF" filter="url(#f1)" height="28" style="stroke: #A80036; stroke-width: 1.0;" width="10" x="572" y="194.9922"/><rect fill="#FFFFFF" filter="url(#f1)" height="28" style="stroke: #A80036; stroke-width: 1.0;" width="10" x="572" y="291.2578"/><rect fill="#FFFFFF" filter="url(#f1)" height="28" style="stroke: #A80036; stroke-width: 1.0;" width="10" x="572" y="363.3906"/><rect fill="#FFFFFF" filter="url(#f1)" height="28" style="stroke: #A80036; stroke-width: 1.0;" width="10" x="572" y="768.2578"/><rect fill="#FFFFFF" filter="url(#f1)" height="28" style="stroke: #A80036; stroke-width: 1.0;" width="10" x="572" y="907.6563"/><rect fill="#FFFFFF" filter="url(#f1)" height="28" style="stroke: #A80036; stroke-width: 1.0;" width="10" x="572" y="1362.3281"/><rect fill="#FFFFFF" filter="url(#f1)" height="28" style="stroke: #A80036; stroke-width: 1.0;" width="10" x="572" y="1434.4609"/><rect fill="#FFFFFF" filter="url(#f1)" height="57.2656" style="stroke: #A80036; stroke-width: 1.0;" width="10" x="897" y="451.6563"/><rect fill="#FFFFFF" filter="url(#f1)" height="57.2656" style="stroke: #A80036; stroke-width: 1.0;" width="10" x="897" y="995.9219"/><rect fill="#FFFFFF" filter="url(#f1)" height="57.2656" style="stroke: #A80036; stroke-width: 1.0;" width="10" x="897" y="1522.7266"/><rect fill="#FFFFFF" filter="url(#f1)" height="57.2656" style="stroke: #A80036; stroke-width: 1.0;" width="10" x="1054" y="544.9219"/><rect fill="#FFFFFF" filter="url(#f1)" height="57.2656" style="stroke: #A80036; stroke-width: 1.0;" width="10" x="1054" y="631.1875"/><rect fill="#FFFFFF" filter="url(#f1)" height="57.2656" style="stroke: #A80036; stroke-width: 1.0;" width="10" x="1054" y="1089.1875"/><rect fill="#FFFFFF" filter="url(#f1)" height="57.2656" style="stroke: #A80036; stroke-width: 1.0;" width="10" x="1054" y="1175.4531"/><rect fill="#FFFFFF" filter="url(#f1)" height="57.2656" style="stroke: #A80036; stroke-width: 1.0;" width="10" x="1054" y="1615.9922"/><rect fill="#FFFFFF" filter="url(#f1)" height="57.2656" style="stroke: #A80036; stroke-width: 1.0;" width="10" x="1054" y="1702.2578"/><rect fill="#FFFFFF" filter="url(#f1)" height="14.1328" style="stroke: #A80036; stroke-width: 1.0;" width="10" x="1168.5" y="574.0547"/><rect fill="#FFFFFF" filter="url(#f1)" height="14.1328" style="stroke: #A80036; stroke-width: 1.0;" width="10" x="1168.5" y="660.3203"/><rect fill="#FFFFFF" filter="url(#f1)" height="14.1328" style="stroke: #A80036; stroke-width: 1.0;" width="10" x="1168.5" y="1118.3203"/><rect fill="#FFFFFF" filter="url(#f1)" height="14.1328" style="stroke: #A80036; stroke-width: 1.0;" width="10" x="1168.5" y="1204.5859"/><rect fill="#FFFFFF" filter="url(#f1)" height="14.1328" style="stroke: #A80036; stroke-width: 1.0;" width="10" x="1168.5" y="1645.125"/><rect fill="#FFFFFF" filter="url(#f1)" height="14.1328" style="stroke: #A80036; stroke-width: 1.0;" width="10" x="1168.5" y="1731.3906"/><rect fill="#FFFFFF" filter="url(#f1)" height="14.1328" style="stroke: #A80036; stroke-width: 1.0;" width="10" x="1292" y="832.3906"/><rect fill="#FFFFFF" filter="url(#f1)" height="1550.3984" style="stroke: #000000; stroke-width: 2.0;" width="1308.5" x="82" y="245.125"/><rect fill="#FFFFFF" filter="url(#f1)" height="103.3984" style="stroke: #000000; stroke-width: 2.0;" width="882.5" x="102" y="413.5234"/><rect fill="#FFFFFF" height="594.0703" style="stroke: none; stroke-width: 1.0;" width="1308.5" x="82" y="724.4531"/><rect fill="#FFFFFF" filter="url(#f1)" height="450" style="stroke: #000000; stroke-width: 2.0;" width="1121.5" x="92" y="861.5234"/><rect fill="#FFFFFF" filter="url(#f1)" height="103.3984" style="stroke: #000000; stroke-width: 2.0;" width="882.5" x="102" y="957.7891"/><rect fill="#FFFFFF" height="42.8047" style="stroke: none; stroke-width: 1.0;" width="1121.5" x="92" y="1268.7188"/><rect fill="#FFFFFF" height="477" style="stroke: none; stroke-width: 1.0;" width="1308.5" x="82" y="1318.5234"/><rect fill="#FFFFFF" filter="url(#f1)" height="103.3984" style="stroke: #000000; stroke-width: 2.0;" width="882.5" x="102" y="1484.5938"/><line style="stroke: #A80036; stroke-width: 1.0; stroke-dasharray: 5.0,5.0;" x1="168" x2="168" y1="68.5938" y2="1812.5234"/><line style="stroke: #A80036; stroke-width: 1.0; stroke-dasharray: 5.0,5.0;" x1="369.5" x2="369.5" y1="68.5938" y2="1812.5234"/><line style="stroke: #A80036; stroke-width: 1.0; stroke-dasharray: 5.0,5.0;" x1="572" x2="572" y1="68.5938" y2="1812.5234"/><line style="stroke: #A80036; stroke-width: 1.0; stroke-dasharray: 5.0,5.0;" x1="901.5" x2="901.5" y1="68.5938" y2="1812.5234"/><line style="stroke: #A80036; stroke-width: 1.0; stroke-dasharray: 5.0,5.0;" x1="1058.5" x2="1058.5" y1="68.5938" y2="1812.5234"/><line style="stroke: #A80036; stroke-width: 1.0; stroke-dasharray: 5.0,5.0;" x1="1173.5" x2="1173.5" y1="68.5938" y2="1812.5234"/><line style="stroke: #A80036; stroke-width: 1.0; stroke-dasharray: 5.0,5.0;" x1="1296.5" x2="1296.5" y1="68.5938" y2="1812.5234"/><rect fill="#FEFECE" filter="url(#f1)" height="30.2969" style="stroke: #A80036; stroke-width: 1.5;" width="108" x="112" y="33.2969"/><text fill="#000000" font-family="sans-serif" font-size="14" lengthAdjust="spacingAndGlyphs" textLength="94" x="119" y="53.292">TaxiDriverApp</text><rect fill="#FEFECE" filter="url(#f1)" height="30.2969" style="stroke: #A80036; stroke-width: 1.5;" width="108" x="112" y="1811.5234"/><text fill="#000000" font-family="sans-serif" font-size="14" lengthAdjust="spacingAndGlyphs" textLength="94" x="119" y="1831.5186">TaxiDriverApp</text><rect fill="#FEFECE" filter="url(#f1)" height="30.2969" style="stroke: #A80036; stroke-width: 1.5;" width="187" x="274.5" y="33.2969"/><text fill="#000000" font-family="sans-serif" font-size="14" lengthAdjust="spacingAndGlyphs" textLength="173" x="281.5" y="53.292">RemoteServicesInterface</text><rect fill="#FEFECE" filter="url(#f1)" height="30.2969" style="stroke: #A80036; stroke-width: 1.5;" width="187" x="274.5" y="1811.5234"/><text fill="#000000" font-family="sans-serif" font-size="14" lengthAdjust="spacingAndGlyphs" textLength="173" x="281.5" y="1831.5186">RemoteServicesInterface</text><rect fill="#FEFECE" filter="url(#f1)" height="30.2969" style="stroke: #A80036; stroke-width: 1.5;" width="132" x="504" y="33.2969"/><text fill="#000000" font-family="sans-serif" font-size="14" lengthAdjust="spacingAndGlyphs" textLength="118" x="511" y="53.292">TaxiManagement</text><rect fill="#FEFECE" filter="url(#f1)" height="30.2969" style="stroke: #A80036; stroke-width: 1.5;" width="132" x="504" y="1811.5234"/><text fill="#000000" font-family="sans-serif" font-size="14" lengthAdjust="spacingAndGlyphs" textLength="118" x="511" y="1831.5186">TaxiManagement</text><rect fill="#FEFECE" filter="url(#f1)" height="30.2969" style="stroke: #A80036; stroke-width: 1.5;" width="141" x="829.5" y="33.2969"/><text fill="#000000" font-family="sans-serif" font-size="14" lengthAdjust="spacingAndGlyphs" textLength="127" x="836.5" y="53.292">NotificationSystem</text><rect fill="#FEFECE" filter="url(#f1)" height="30.2969" style="stroke: #A80036; stroke-width: 1.5;" width="141" x="829.5" y="1811.5234"/><text fill="#000000" font-family="sans-serif" font-size="14" lengthAdjust="spacingAndGlyphs" textLength="127" x="836.5" y="1831.5186">NotificationSystem</text><rect fill="#FEFECE" filter="url(#f1)" height="30.2969" style="stroke: #A80036; stroke-width: 1.5;" width="145" x="984.5" y="33.2969"/><text fill="#000000" font-family="sans-serif" font-size="14" lengthAdjust="spacingAndGlyphs" textLength="131" x="991.5" y="53.292">DataAccessUtilities</text><rect fill="#FEFECE" filter="url(#f1)" height="30.2969" style="stroke: #A80036; stroke-width: 1.5;" width="145" x="984.5" y="1811.5234"/><text fill="#000000" font-family="sans-serif" font-size="14" lengthAdjust="spacingAndGlyphs" textLength="131" x="991.5" y="1831.5186">DataAccessUtilities</text><rect fill="#FEFECE" filter="url(#f1)" height="30.2969" style="stroke: #A80036; stroke-width: 1.5;" width="56" x="1143.5" y="33.2969"/><text fill="#000000" font-family="sans-serif" font-size="14" lengthAdjust="spacingAndGlyphs" textLength="42" x="1150.5" y="53.292">DBMS</text><rect fill="#FEFECE" filter="url(#f1)" height="30.2969" style="stroke: #A80036; stroke-width: 1.5;" width="56" x="1143.5" y="1811.5234"/><text fill="#000000" font-family="sans-serif" font-size="14" lengthAdjust="spacingAndGlyphs" textLength="42" x="1150.5" y="1831.5186">DBMS</text><rect fill="#FEFECE" filter="url(#f1)" height="30.2969" style="stroke: #A80036; stroke-width: 1.5;" width="163" x="1213.5" y="33.2969"/><text fill="#000000" font-family="sans-serif" font-size="14" lengthAdjust="spacingAndGlyphs" textLength="149" x="1220.5" y="53.292">LocationManagement</text><rect fill="#FEFECE" filter="url(#f1)" height="30.2969" style="stroke: #A80036; stroke-width: 1.5;" width="163" x="1213.5" y="1811.5234"/><text fill="#000000" font-family="sans-serif" font-size="14" lengthAdjust="spacingAndGlyphs" textLength="149" x="1220.5" y="1831.5186">LocationManagement</text><rect fill="#FFFFFF" filter="url(#f1)" height="1723.9297" style="stroke: #A80036; stroke-width: 1.0;" width="10" x="163" y="78.5938"/><rect fill="#FFFFFF" filter="url(#f1)" height="14.1328" style="stroke: #A80036; stroke-width: 1.0;" width="10" x="168" y="494.7891"/><rect fill="#FFFFFF" filter="url(#f1)" height="14.1328" style="stroke: #A80036; stroke-width: 1.0;" width="10" x="168" y="1039.0547"/><rect fill="#FFFFFF" filter="url(#f1)" height="14.1328" style="stroke: #A80036; stroke-width: 1.0;" width="10" x="168" y="1565.8594"/><rect fill="#FFFFFF" filter="url(#f1)" height="1674.7969" style="stroke: #A80036; stroke-width: 1.0;" width="10" x="365" y="128.7266"/><rect fill="#FFFFFF" filter="url(#f1)" height="1644.6641" style="stroke: #A80036; stroke-width: 1.0;" width="10" x="567" y="157.8594"/><rect fill="#FFFFFF" filter="url(#f1)" height="28" style="stroke: #A80036; stroke-width: 1.0;" width="10" x="572" y="194.9922"/><rect fill="#FFFFFF" filter="url(#f1)" height="28" style="stroke: #A80036; stroke-width: 1.0;" width="10" x="572" y="291.2578"/><rect fill="#FFFFFF" filter="url(#f1)" height="28" style="stroke: #A80036; stroke-width: 1.0;" width="10" x="572" y="363.3906"/><rect fill="#FFFFFF" filter="url(#f1)" height="28" style="stroke: #A80036; stroke-width: 1.0;" width="10" x="572" y="768.2578"/><rect fill="#FFFFFF" filter="url(#f1)" height="28" style="stroke: #A80036; stroke-width: 1.0;" width="10" x="572" y="907.6563"/><rect fill="#FFFFFF" filter="url(#f1)" height="28" style="stroke: #A80036; stroke-width: 1.0;" width="10" x="572" y="1362.3281"/><rect fill="#FFFFFF" filter="url(#f1)" height="28" style="stroke: #A80036; stroke-width: 1.0;" width="10" x="572" y="1434.4609"/><rect fill="#FFFFFF" filter="url(#f1)" height="57.2656" style="stroke: #A80036; stroke-width: 1.0;" width="10" x="897" y="451.6563"/><rect fill="#FFFFFF" filter="url(#f1)" height="57.2656" style="stroke: #A80036; stroke-width: 1.0;" width="10" x="897" y="995.9219"/><rect fill="#FFFFFF" filter="url(#f1)" height="57.2656" style="stroke: #A80036; stroke-width: 1.0;" width="10" x="897" y="1522.7266"/><rect fill="#FFFFFF" filter="url(#f1)" height="57.2656" style="stroke: #A80036; stroke-width: 1.0;" width="10" x="1054" y="544.9219"/><rect fill="#FFFFFF" filter="url(#f1)" height="57.2656" style="stroke: #A80036; stroke-width: 1.0;" width="10" x="1054" y="631.1875"/><rect fill="#FFFFFF" filter="url(#f1)" height="57.2656" style="stroke: #A80036; stroke-width: 1.0;" width="10" x="1054" y="1089.1875"/><rect fill="#FFFFFF" filter="url(#f1)" height="57.2656" style="stroke: #A80036; stroke-width: 1.0;" width="10" x="1054" y="1175.4531"/><rect fill="#FFFFFF" filter="url(#f1)" height="57.2656" style="stroke: #A80036; stroke-width: 1.0;" width="10" x="1054" y="1615.9922"/><rect fill="#FFFFFF" filter="url(#f1)" height="57.2656" style="stroke: #A80036; stroke-width: 1.0;" width="10" x="1054" y="1702.2578"/><rect fill="#FFFFFF" filter="url(#f1)" height="14.1328" style="stroke: #A80036; stroke-width: 1.0;" width="10" x="1168.5" y="574.0547"/><rect fill="#FFFFFF" filter="url(#f1)" height="14.1328" style="stroke: #A80036; stroke-width: 1.0;" width="10" x="1168.5" y="660.3203"/><rect fill="#FFFFFF" filter="url(#f1)" height="14.1328" style="stroke: #A80036; stroke-width: 1.0;" width="10" x="1168.5" y="1118.3203"/><rect fill="#FFFFFF" filter="url(#f1)" height="14.1328" style="stroke: #A80036; stroke-width: 1.0;" width="10" x="1168.5" y="1204.5859"/><rect fill="#FFFFFF" filter="url(#f1)" height="14.1328" style="stroke: #A80036; stroke-width: 1.0;" width="10" x="1168.5" y="1645.125"/><rect fill="#FFFFFF" filter="url(#f1)" height="14.1328" style="stroke: #A80036; stroke-width: 1.0;" width="10" x="1168.5" y="1731.3906"/><rect fill="#FFFFFF" filter="url(#f1)" height="14.1328" style="stroke: #A80036; stroke-width: 1.0;" width="10" x="1292" y="832.3906"/><polygon fill="#A80036" points="151,95.5938,161,99.5938,151,103.5938,155,99.5938" style="stroke: #A80036; stroke-width: 1.0;"/><line style="stroke: #A80036; stroke-width: 1.0;" x1="3" x2="157" y1="99.5938" y2="99.5938"/><text fill="#000000" font-family="sans-serif" font-size="13" font-style="italic" lengthAdjust="spacingAndGlyphs" textLength="141" x="10" y="94.6606">toggle button pressed</text><polygon fill="#A80036" points="353,124.7266,363,128.7266,353,132.7266,357,128.7266" style="stroke: #A80036; stroke-width: 1.0;"/><line style="stroke: #A80036; stroke-width: 1.0;" x1="173" x2="359" y1="128.7266" y2="128.7266"/><text fill="#000000" font-family="sans-serif" font-size="13" lengthAdjust="spacingAndGlyphs" textLength="173" x="180" y="123.7935">togglePressed(taxiDriverId)</text><polygon fill="#A80036" points="555,153.8594,565,157.8594,555,161.8594,559,157.8594" style="stroke: #A80036; stroke-width: 1.0;"/><line style="stroke: #A80036; stroke-width: 1.0;" x1="375" x2="561" y1="157.8594" y2="157.8594"/><text fill="#000000" font-family="sans-serif" font-size="13" lengthAdjust="spacingAndGlyphs" textLength="173" x="382" y="152.9263">togglePressed(taxiDriverId)</text><line style="stroke: #A80036; stroke-width: 1.0;" x1="582" x2="624" y1="187.125" y2="187.125"/><line style="stroke: #A80036; stroke-width: 1.0;" x1="624" x2="624" y1="187.125" y2="200.125"/><line style="stroke: #A80036; stroke-width: 1.0;" x1="583" x2="624" y1="200.125" y2="200.125"/><polygon fill="#A80036" points="593,196.125,583,200.125,593,204.125,589,200.125" style="stroke: #A80036; stroke-width: 1.0;"/><text fill="#000000" font-family="sans-serif" font-size="13" lengthAdjust="spacingAndGlyphs" textLength="161" x="589" y="182.0591">checkStatus(taxiDriverId)</text><rect fill="none" height="1550.3984" style="stroke: #000000; stroke-width: 2.0;" width="1308.5" x="82" y="245.125"/><polygon fill="#EEEEEE" points="82,245.125,146,245.125,146,252.125,136,262.125,82,262.125,82,245.125" style="stroke: #000000; stroke-width: 2.0;"/><text fill="#000000" font-family="sans-serif" font-size="13" font-weight="bold" lengthAdjust="spacingAndGlyphs" textLength="19" x="97" y="258.1919">alt</text><text fill="#000000" font-family="sans-serif" font-size="11" font-weight="bold" lengthAdjust="spacingAndGlyphs" textLength="135" x="161" y="257.3354">[status == available]</text><line style="stroke: #A80036; stroke-width: 1.0;" x1="582" x2="624" y1="283.3906" y2="283.3906"/><line style="stroke: #A80036; stroke-width: 1.0;" x1="624" x2="624" y1="283.3906" y2="296.3906"/><line style="stroke: #A80036; stroke-width: 1.0;" x1="583" x2="624" y1="296.3906" y2="296.3906"/><polygon fill="#A80036" points="593,292.3906,583,296.3906,593,300.3906,589,296.3906" style="stroke: #A80036; stroke-width: 1.0;"/><text fill="#000000" font-family="sans-serif" font-size="13" lengthAdjust="spacingAndGlyphs" textLength="265" x="589" y="278.3247">removeTaxiFromZoneQueue(taxiDriverId)</text><line style="stroke: #A80036; stroke-width: 1.0;" x1="582" x2="624" y1="355.5234" y2="355.5234"/><line style="stroke: #A80036; stroke-width: 1.0;" x1="624" x2="624" y1="355.5234" y2="368.5234"/><line style="stroke: #A80036; stroke-width: 1.0;" x1="583" x2="624" y1="368.5234" y2="368.5234"/><polygon fill="#A80036" points="593,364.5234,583,368.5234,593,372.5234,589,368.5234" style="stroke: #A80036; stroke-width: 1.0;"/><text fill="#000000" font-family="sans-serif" font-size="13" lengthAdjust="spacingAndGlyphs" textLength="176" x="589" y="350.4575">setUnavailable(taxiDriverId)</text><rect fill="none" height="103.3984" style="stroke: #000000; stroke-width: 2.0;" width="882.5" x="102" y="413.5234"/><polygon fill="#EEEEEE" points="102,413.5234,179,413.5234,179,420.5234,169,430.5234,102,430.5234,102,413.5234" style="stroke: #000000; stroke-width: 2.0;"/><text fill="#000000" font-family="sans-serif" font-size="13" font-weight="bold" lengthAdjust="spacingAndGlyphs" textLength="32" x="117" y="426.5903">loop</text><text fill="#000000" font-family="sans-serif" font-size="11" font-weight="bold" lengthAdjust="spacingAndGlyphs" textLength="212" x="194" y="425.7339">[for all taxi driver in zone queue]</text><line style="stroke: #A80036; stroke-width: 1.0;" x1="895" x2="885" y1="451.6563" y2="447.6563"/><line style="stroke: #A80036; stroke-width: 1.0;" x1="895" x2="885" y1="451.6563" y2="455.6563"/><line style="stroke: #A80036; stroke-width: 1.0;" x1="577" x2="896" y1="451.6563" y2="451.6563"/><text fill="#000000" font-family="sans-serif" font-size="13" lengthAdjust="spacingAndGlyphs" textLength="301" x="584" y="446.7231">notifyQueueUpdate(taxiId, position, queueSize)</text><line style="stroke: #A80036; stroke-width: 1.0;" x1="577" x2="587" y1="465.7891" y2="461.7891"/><line style="stroke: #A80036; stroke-width: 1.0;" x1="577" x2="587" y1="465.7891" y2="469.7891"/><line style="stroke: #A80036; stroke-width: 1.0; stroke-dasharray: 2.0,2.0;" x1="577" x2="896" y1="465.7891" y2="465.7891"/><line style="stroke: #A80036; stroke-width: 1.0;" x1="178" x2="188" y1="494.7891" y2="490.7891"/><line style="stroke: #A80036; stroke-width: 1.0;" x1="178" x2="188" y1="494.7891" y2="498.7891"/><line style="stroke: #A80036; stroke-width: 1.0;" x1="178" x2="896" y1="494.7891" y2="494.7891"/><text fill="#000000" font-family="sans-serif" font-size="13" lengthAdjust="spacingAndGlyphs" textLength="301" x="195" y="489.856">notifyQueueUpdate(taxiId, position, queueSize)</text><line style="stroke: #A80036; stroke-width: 1.0;" x1="900" x2="890" y1="508.9219" y2="504.9219"/><line style="stroke: #A80036; stroke-width: 1.0;" x1="900" x2="890" y1="508.9219" y2="512.9219"/><line style="stroke: #A80036; stroke-width: 1.0; stroke-dasharray: 2.0,2.0;" x1="173" x2="901" y1="508.9219" y2="508.9219"/><polygon fill="#A80036" points="1042,540.9219,1052,544.9219,1042,548.9219,1046,544.9219" style="stroke: #A80036; stroke-width: 1.0;"/><line style="stroke: #A80036; stroke-width: 1.0;" x1="577" x2="1048" y1="544.9219" y2="544.9219"/><text fill="#000000" font-family="sans-serif" font-size="13" lengthAdjust="spacingAndGlyphs" textLength="104" x="584" y="539.9888">updateQueues()</text><polygon fill="#A80036" points="1156.5,570.0547,1166.5,574.0547,1156.5,578.0547,1160.5,574.0547" style="stroke: #A80036; stroke-width: 1.0;"/><line style="stroke: #A80036; stroke-width: 1.0;" x1="1064" x2="1162.5" y1="574.0547" y2="574.0547"/><text fill="#000000" font-family="sans-serif" font-size="13" lengthAdjust="spacingAndGlyphs" textLength="67" x="1071" y="569.1216">update(...)</text><polygon fill="#A80036" points="1075,584.1875,1065,588.1875,1075,592.1875,1071,588.1875" style="stroke: #A80036; stroke-width: 1.0;"/><line style="stroke: #A80036; stroke-width: 1.0; stroke-dasharray: 2.0,2.0;" x1="1069" x2="1172.5" y1="588.1875" y2="588.1875"/><polygon fill="#A80036" points="588,598.1875,578,602.1875,588,606.1875,584,602.1875" style="stroke: #A80036; stroke-width: 1.0;"/><line style="stroke: #A80036; stroke-width: 1.0; stroke-dasharray: 2.0,2.0;" x1="582" x2="1058" y1="602.1875" y2="602.1875"/><polygon fill="#A80036" points="1042,627.1875,1052,631.1875,1042,635.1875,1046,631.1875" style="stroke: #A80036; stroke-width: 1.0;"/><line style="stroke: #A80036; stroke-width: 1.0;" x1="577" x2="1048" y1="631.1875" y2="631.1875"/><text fill="#000000" font-family="sans-serif" font-size="13" lengthAdjust="spacingAndGlyphs" textLength="343" x="584" y="626.2544">updateTaxiStatus(taxiDriverId, TaxiStatusUnavailable)</text><polygon fill="#A80036" points="1156.5,656.3203,1166.5,660.3203,1156.5,664.3203,1160.5,660.3203" style="stroke: #A80036; stroke-width: 1.0;"/><line style="stroke: #A80036; stroke-width: 1.0;" x1="1064" x2="1162.5" y1="660.3203" y2="660.3203"/><text fill="#000000" font-family="sans-serif" font-size="13" lengthAdjust="spacingAndGlyphs" textLength="67" x="1071" y="655.3872">update(...)</text><polygon fill="#A80036" points="1075,670.4531,1065,674.4531,1075,678.4531,1071,674.4531" style="stroke: #A80036; stroke-width: 1.0;"/><line style="stroke: #A80036; stroke-width: 1.0; stroke-dasharray: 2.0,2.0;" x1="1069" x2="1172.5" y1="674.4531" y2="674.4531"/><polygon fill="#A80036" points="588,684.4531,578,688.4531,588,692.4531,584,688.4531" style="stroke: #A80036; stroke-width: 1.0;"/><line style="stroke: #A80036; stroke-width: 1.0; stroke-dasharray: 2.0,2.0;" x1="582" x2="1058" y1="688.4531" y2="688.4531"/><polygon fill="#A80036" points="386,698.4531,376,702.4531,386,706.4531,382,702.4531" style="stroke: #A80036; stroke-width: 1.0;"/><line style="stroke: #A80036; stroke-width: 1.0; stroke-dasharray: 2.0,2.0;" x1="380" x2="566" y1="702.4531" y2="702.4531"/><polygon fill="#A80036" points="184,712.4531,174,716.4531,184,720.4531,180,716.4531" style="stroke: #A80036; stroke-width: 1.0;"/><line style="stroke: #A80036; stroke-width: 1.0; stroke-dasharray: 2.0,2.0;" x1="178" x2="364" y1="716.4531" y2="716.4531"/><line style="stroke: #000000; stroke-width: 1.0; stroke-dasharray: 2.0,2.0;" x1="82" x2="1390.5" y1="725.4531" y2="725.4531"/><text fill="#000000" font-family="sans-serif" font-size="11" font-weight="bold" lengthAdjust="spacingAndGlyphs" textLength="151" x="87" y="735.6636">[status == unavailable]</text><line style="stroke: #A80036; stroke-width: 1.0;" x1="582" x2="624" y1="760.3906" y2="760.3906"/><line style="stroke: #A80036; stroke-width: 1.0;" x1="624" x2="624" y1="760.3906" y2="773.3906"/><line style="stroke: #A80036; stroke-width: 1.0;" x1="583" x2="624" y1="773.3906" y2="773.3906"/><polygon fill="#A80036" points="593,769.3906,583,773.3906,593,777.3906,589,773.3906" style="stroke: #A80036; stroke-width: 1.0;"/><text fill="#000000" font-family="sans-serif" font-size="13" lengthAdjust="spacingAndGlyphs" textLength="220" x="589" y="755.3247">getTaxiDriverLocation(taxiDriverId)</text><polygon fill="#A80036" points="1280,828.3906,1290,832.3906,1280,836.3906,1284,832.3906" style="stroke: #A80036; stroke-width: 1.0;"/><line style="stroke: #A80036; stroke-width: 1.0;" x1="577" x2="1286" y1="832.3906" y2="832.3906"/><text fill="#000000" font-family="sans-serif" font-size="13" lengthAdjust="spacingAndGlyphs" textLength="235" x="584" y="827.4575">isLocationInsideCity(currentLocation)</text><polygon fill="#A80036" points="588,842.5234,578,846.5234,588,850.5234,584,846.5234" style="stroke: #A80036; stroke-width: 1.0;"/><line style="stroke: #A80036; stroke-width: 1.0; stroke-dasharray: 2.0,2.0;" x1="582" x2="1296" y1="846.5234" y2="846.5234"/><rect fill="none" height="450" style="stroke: #000000; stroke-width: 2.0;" width="1121.5" x="92" y="861.5234"/><polygon fill="#EEEEEE" points="92,861.5234,156,861.5234,156,868.5234,146,878.5234,92,878.5234,92,861.5234" style="stroke: #000000; stroke-width: 2.0;"/><text fill="#000000" font-family="sans-serif" font-size="13" font-weight="bold" lengthAdjust="spacingAndGlyphs" textLength="19" x="107" y="874.5903">alt</text><text fill="#000000" font-family="sans-serif" font-size="11" font-weight="bold" lengthAdjust="spacingAndGlyphs" textLength="36" x="171" y="873.7339">[true]</text><line style="stroke: #A80036; stroke-width: 1.0;" x1="582" x2="624" y1="899.7891" y2="899.7891"/><line style="stroke: #A80036; stroke-width: 1.0;" x1="624" x2="624" y1="899.7891" y2="912.7891"/><line style="stroke: #A80036; stroke-width: 1.0;" x1="583" x2="624" y1="912.7891" y2="912.7891"/><polygon fill="#A80036" points="593,908.7891,583,912.7891,593,916.7891,589,912.7891" style="stroke: #A80036; stroke-width: 1.0;"/><text fill="#000000" font-family="sans-serif" font-size="13" lengthAdjust="spacingAndGlyphs" textLength="159" x="589" y="894.7231">setAvailable(taxiDriverId)</text><rect fill="none" height="103.3984" style="stroke: #000000; stroke-width: 2.0;" width="882.5" x="102" y="957.7891"/><polygon fill="#EEEEEE" points="102,957.7891,179,957.7891,179,964.7891,169,974.7891,102,974.7891,102,957.7891" style="stroke: #000000; stroke-width: 2.0;"/><text fill="#000000" font-family="sans-serif" font-size="13" font-weight="bold" lengthAdjust="spacingAndGlyphs" textLength="32" x="117" y="970.856">loop</text><text fill="#000000" font-family="sans-serif" font-size="11" font-weight="bold" lengthAdjust="spacingAndGlyphs" textLength="212" x="194" y="969.9995">[for all taxi driver in zone queue]</text><line style="stroke: #A80036; stroke-width: 1.0;" x1="895" x2="885" y1="995.9219" y2="991.9219"/><line style="stroke: #A80036; stroke-width: 1.0;" x1="895" x2="885" y1="995.9219" y2="999.9219"/><line style="stroke: #A80036; stroke-width: 1.0;" x1="577" x2="896" y1="995.9219" y2="995.9219"/><text fill="#000000" font-family="sans-serif" font-size="13" lengthAdjust="spacingAndGlyphs" textLength="301" x="584" y="990.9888">notifyQueueUpdate(taxiId, position, queueSize)</text><line style="stroke: #A80036; stroke-width: 1.0;" x1="577" x2="587" y1="1010.0547" y2="1006.0547"/><line style="stroke: #A80036; stroke-width: 1.0;" x1="577" x2="587" y1="1010.0547" y2="1014.0547"/><line style="stroke: #A80036; stroke-width: 1.0; stroke-dasharray: 2.0,2.0;" x1="577" x2="896" y1="1010.0547" y2="1010.0547"/><line style="stroke: #A80036; stroke-width: 1.0;" x1="178" x2="188" y1="1039.0547" y2="1035.0547"/><line style="stroke: #A80036; stroke-width: 1.0;" x1="178" x2="188" y1="1039.0547" y2="1043.0547"/><line style="stroke: #A80036; stroke-width: 1.0;" x1="178" x2="896" y1="1039.0547" y2="1039.0547"/><text fill="#000000" font-family="sans-serif" font-size="13" lengthAdjust="spacingAndGlyphs" textLength="301" x="195" y="1034.1216">notifyQueueUpdate(taxiId, position, queueSize)</text><line style="stroke: #A80036; stroke-width: 1.0;" x1="900" x2="890" y1="1053.1875" y2="1049.1875"/><line style="stroke: #A80036; stroke-width: 1.0;" x1="900" x2="890" y1="1053.1875" y2="1057.1875"/><line style="stroke: #A80036; stroke-width: 1.0; stroke-dasharray: 2.0,2.0;" x1="173" x2="901" y1="1053.1875" y2="1053.1875"/><polygon fill="#A80036" points="1042,1085.1875,1052,1089.1875,1042,1093.1875,1046,1089.1875" style="stroke: #A80036; stroke-width: 1.0;"/><line style="stroke: #A80036; stroke-width: 1.0;" x1="577" x2="1048" y1="1089.1875" y2="1089.1875"/><text fill="#000000" font-family="sans-serif" font-size="13" lengthAdjust="spacingAndGlyphs" textLength="104" x="584" y="1084.2544">updateQueues()</text><polygon fill="#A80036" points="1156.5,1114.3203,1166.5,1118.3203,1156.5,1122.3203,1160.5,1118.3203" style="stroke: #A80036; stroke-width: 1.0;"/><line style="stroke: #A80036; stroke-width: 1.0;" x1="1064" x2="1162.5" y1="1118.3203" y2="1118.3203"/><text fill="#000000" font-family="sans-serif" font-size="13" lengthAdjust="spacingAndGlyphs" textLength="67" x="1071" y="1113.3872">update(...)</text><polygon fill="#A80036" points="1075,1128.4531,1065,1132.4531,1075,1136.4531,1071,1132.4531" style="stroke: #A80036; stroke-width: 1.0;"/><line style="stroke: #A80036; stroke-width: 1.0; stroke-dasharray: 2.0,2.0;" x1="1069" x2="1172.5" y1="1132.4531" y2="1132.4531"/><polygon fill="#A80036" points="588,1142.4531,578,1146.4531,588,1150.4531,584,1146.4531" style="stroke: #A80036; stroke-width: 1.0;"/><line style="stroke: #A80036; stroke-width: 1.0; stroke-dasharray: 2.0,2.0;" x1="582" x2="1058" y1="1146.4531" y2="1146.4531"/><polygon fill="#A80036" points="1042,1171.4531,1052,1175.4531,1042,1179.4531,1046,1175.4531" style="stroke: #A80036; stroke-width: 1.0;"/><line style="stroke: #A80036; stroke-width: 1.0;" x1="577" x2="1048" y1="1175.4531" y2="1175.4531"/><text fill="#000000" font-family="sans-serif" font-size="13" lengthAdjust="spacingAndGlyphs" textLength="326" x="584" y="1170.52">updateTaxiStatus(taxiDriverId, TaxiStatusAvailable)</text><polygon fill="#A80036" points="1156.5,1200.5859,1166.5,1204.5859,1156.5,1208.5859,1160.5,1204.5859" style="stroke: #A80036; stroke-width: 1.0;"/><line style="stroke: #A80036; stroke-width: 1.0;" x1="1064" x2="1162.5" y1="1204.5859" y2="1204.5859"/><text fill="#000000" font-family="sans-serif" font-size="13" lengthAdjust="spacingAndGlyphs" textLength="67" x="1071" y="1199.6528">update(...)</text><polygon fill="#A80036" points="1075,1214.7188,1065,1218.7188,1075,1222.7188,1071,1218.7188" style="stroke: #A80036; stroke-width: 1.0;"/><line style="stroke: #A80036; stroke-width: 1.0; stroke-dasharray: 2.0,2.0;" x1="1069" x2="1172.5" y1="1218.7188" y2="1218.7188"/><polygon fill="#A80036" points="588,1228.7188,578,1232.7188,588,1236.7188,584,1232.7188" style="stroke: #A80036; stroke-width: 1.0;"/><line style="stroke: #A80036; stroke-width: 1.0; stroke-dasharray: 2.0,2.0;" x1="582" x2="1058" y1="1232.7188" y2="1232.7188"/><polygon fill="#A80036" points="386,1242.7188,376,1246.7188,386,1250.7188,382,1246.7188" style="stroke: #A80036; stroke-width: 1.0;"/><line style="stroke: #A80036; stroke-width: 1.0; stroke-dasharray: 2.0,2.0;" x1="380" x2="566" y1="1246.7188" y2="1246.7188"/><polygon fill="#A80036" points="184,1256.7188,174,1260.7188,184,1264.7188,180,1260.7188" style="stroke: #A80036; stroke-width: 1.0;"/><line style="stroke: #A80036; stroke-width: 1.0; stroke-dasharray: 2.0,2.0;" x1="178" x2="364" y1="1260.7188" y2="1260.7188"/><line style="stroke: #000000; stroke-width: 1.0; stroke-dasharray: 2.0,2.0;" x1="92" x2="1213.5" y1="1269.7188" y2="1269.7188"/><text fill="#000000" font-family="sans-serif" font-size="11" font-weight="bold" lengthAdjust="spacingAndGlyphs" textLength="42" x="97" y="1279.9292">[false]</text><polygon fill="#A80036" points="386,1285.5234,376,1289.5234,386,1293.5234,382,1289.5234" style="stroke: #A80036; stroke-width: 1.0;"/><line style="stroke: #A80036; stroke-width: 1.0; stroke-dasharray: 2.0,2.0;" x1="380" x2="566" y1="1289.5234" y2="1289.5234"/><polygon fill="#A80036" points="184,1299.5234,174,1303.5234,184,1307.5234,180,1303.5234" style="stroke: #A80036; stroke-width: 1.0;"/><line style="stroke: #A80036; stroke-width: 1.0; stroke-dasharray: 2.0,2.0;" x1="178" x2="364" y1="1303.5234" y2="1303.5234"/><line style="stroke: #000000; stroke-width: 1.0; stroke-dasharray: 2.0,2.0;" x1="82" x2="1390.5" y1="1319.5234" y2="1319.5234"/><text fill="#000000" font-family="sans-serif" font-size="11" font-weight="bold" lengthAdjust="spacingAndGlyphs" textLength="153" x="87" y="1329.7339">[status == outside_city]</text><line style="stroke: #A80036; stroke-width: 1.0;" x1="582" x2="624" y1="1354.4609" y2="1354.4609"/><line style="stroke: #A80036; stroke-width: 1.0;" x1="624" x2="624" y1="1354.4609" y2="1367.4609"/><line style="stroke: #A80036; stroke-width: 1.0;" x1="583" x2="624" y1="1367.4609" y2="1367.4609"/><polygon fill="#A80036" points="593,1363.4609,583,1367.4609,593,1371.4609,589,1367.4609" style="stroke: #A80036; stroke-width: 1.0;"/><text fill="#000000" font-family="sans-serif" font-size="13" lengthAdjust="spacingAndGlyphs" textLength="284" x="589" y="1349.395">removeTaxiFromOutsideCityList(taxiDriverId)</text><line style="stroke: #A80036; stroke-width: 1.0;" x1="582" x2="624" y1="1426.5938" y2="1426.5938"/><line style="stroke: #A80036; stroke-width: 1.0;" x1="624" x2="624" y1="1426.5938" y2="1439.5938"/><line style="stroke: #A80036; stroke-width: 1.0;" x1="583" x2="624" y1="1439.5938" y2="1439.5938"/><polygon fill="#A80036" points="593,1435.5938,583,1439.5938,593,1443.5938,589,1439.5938" style="stroke: #A80036; stroke-width: 1.0;"/><text fill="#000000" font-family="sans-serif" font-size="13" lengthAdjust="spacingAndGlyphs" textLength="176" x="589" y="1421.5278">setUnavailable(taxiDriverId)</text><rect fill="none" height="103.3984" style="stroke: #000000; stroke-width: 2.0;" width="882.5" x="102" y="1484.5938"/><polygon fill="#EEEEEE" points="102,1484.5938,179,1484.5938,179,1491.5938,169,1501.5938,102,1501.5938,102,1484.5938" style="stroke: #000000; stroke-width: 2.0;"/><text fill="#000000" font-family="sans-serif" font-size="13" font-weight="bold" lengthAdjust="spacingAndGlyphs" textLength="32" x="117" y="1497.6606">loop</text><text fill="#000000" font-family="sans-serif" font-size="11" font-weight="bold" lengthAdjust="spacingAndGlyphs" textLength="212" x="194" y="1496.8042">[for all taxi driver in zone queue]</text><line style="stroke: #A80036; stroke-width: 1.0;" x1="895" x2="885" y1="1522.7266" y2="1518.7266"/><line style="stroke: #A80036; stroke-width: 1.0;" x1="895" x2="885" y1="1522.7266" y2="1526.7266"/><line style="stroke: #A80036; stroke-width: 1.0;" x1="577" x2="896" y1="1522.7266" y2="1522.7266"/><text fill="#000000" font-family="sans-serif" font-size="13" lengthAdjust="spacingAndGlyphs" textLength="301" x="584" y="1517.7935">notifyQueueUpdate(taxiId, position, queueSize)</text><line style="stroke: #A80036; stroke-width: 1.0;" x1="577" x2="587" y1="1536.8594" y2="1532.8594"/><line style="stroke: #A80036; stroke-width: 1.0;" x1="577" x2="587" y1="1536.8594" y2="1540.8594"/><line style="stroke: #A80036; stroke-width: 1.0; stroke-dasharray: 2.0,2.0;" x1="577" x2="896" y1="1536.8594" y2="1536.8594"/><line style="stroke: #A80036; stroke-width: 1.0;" x1="178" x2="188" y1="1565.8594" y2="1561.8594"/><line style="stroke: #A80036; stroke-width: 1.0;" x1="178" x2="188" y1="1565.8594" y2="1569.8594"/><line style="stroke: #A80036; stroke-width: 1.0;" x1="178" x2="896" y1="1565.8594" y2="1565.8594"/><text fill="#000000" font-family="sans-serif" font-size="13" lengthAdjust="spacingAndGlyphs" textLength="301" x="195" y="1560.9263">notifyQueueUpdate(taxiId, position, queueSize)</text><line style="stroke: #A80036; stroke-width: 1.0;" x1="900" x2="890" y1="1579.9922" y2="1575.9922"/><line style="stroke: #A80036; stroke-width: 1.0;" x1="900" x2="890" y1="1579.9922" y2="1583.9922"/><line style="stroke: #A80036; stroke-width: 1.0; stroke-dasharray: 2.0,2.0;" x1="173" x2="901" y1="1579.9922" y2="1579.9922"/><polygon fill="#A80036" points="1042,1611.9922,1052,1615.9922,1042,1619.9922,1046,1615.9922" style="stroke: #A80036; stroke-width: 1.0;"/><line style="stroke: #A80036; stroke-width: 1.0;" x1="577" x2="1048" y1="1615.9922" y2="1615.9922"/><text fill="#000000" font-family="sans-serif" font-size="13" lengthAdjust="spacingAndGlyphs" textLength="104" x="584" y="1611.0591">updateQueues()</text><polygon fill="#A80036" points="1156.5,1641.125,1166.5,1645.125,1156.5,1649.125,1160.5,1645.125" style="stroke: #A80036; stroke-width: 1.0;"/><line style="stroke: #A80036; stroke-width: 1.0;" x1="1064" x2="1162.5" y1="1645.125" y2="1645.125"/><text fill="#000000" font-family="sans-serif" font-size="13" lengthAdjust="spacingAndGlyphs" textLength="67" x="1071" y="1640.1919">update(...)</text><polygon fill="#A80036" points="1075,1655.2578,1065,1659.2578,1075,1663.2578,1071,1659.2578" style="stroke: #A80036; stroke-width: 1.0;"/><line style="stroke: #A80036; stroke-width: 1.0; stroke-dasharray: 2.0,2.0;" x1="1069" x2="1172.5" y1="1659.2578" y2="1659.2578"/><polygon fill="#A80036" points="588,1669.2578,578,1673.2578,588,1677.2578,584,1673.2578" style="stroke: #A80036; stroke-width: 1.0;"/><line style="stroke: #A80036; stroke-width: 1.0; stroke-dasharray: 2.0,2.0;" x1="582" x2="1058" y1="1673.2578" y2="1673.2578"/><polygon fill="#A80036" points="1042,1698.2578,1052,1702.2578,1042,1706.2578,1046,1702.2578" style="stroke: #A80036; stroke-width: 1.0;"/><line style="stroke: #A80036; stroke-width: 1.0;" x1="577" x2="1048" y1="1702.2578" y2="1702.2578"/><text fill="#000000" font-family="sans-serif" font-size="13" lengthAdjust="spacingAndGlyphs" textLength="343" x="584" y="1697.3247">updateTaxiStatus(taxiDriverId, TaxiStatusUnavailable)</text><polygon fill="#A80036" points="1156.5,1727.3906,1166.5,1731.3906,1156.5,1735.3906,1160.5,1731.3906" style="stroke: #A80036; stroke-width: 1.0;"/><line style="stroke: #A80036; stroke-width: 1.0;" x1="1064" x2="1162.5" y1="1731.3906" y2="1731.3906"/><text fill="#000000" font-family="sans-serif" font-size="13" lengthAdjust="spacingAndGlyphs" textLength="67" x="1071" y="1726.4575">update(...)</text><polygon fill="#A80036" points="1075,1741.5234,1065,1745.5234,1075,1749.5234,1071,1745.5234" style="stroke: #A80036; stroke-width: 1.0;"/><line style="stroke: #A80036; stroke-width: 1.0; stroke-dasharray: 2.0,2.0;" x1="1069" x2="1172.5" y1="1745.5234" y2="1745.5234"/><polygon fill="#A80036" points="588,1755.5234,578,1759.5234,588,1763.5234,584,1759.5234" style="stroke: #A80036; stroke-width: 1.0;"/><line style="stroke: #A80036; stroke-width: 1.0; stroke-dasharray: 2.0,2.0;" x1="582" x2="1058" y1="1759.5234" y2="1759.5234"/><polygon fill="#A80036" points="386,1769.5234,376,1773.5234,386,1777.5234,382,1773.5234" style="stroke: #A80036; stroke-width: 1.0;"/><line style="stroke: #A80036; stroke-width: 1.0; stroke-dasharray: 2.0,2.0;" x1="380" x2="566" y1="1773.5234" y2="1773.5234"/><polygon fill="#A80036" points="184,1783.5234,174,1787.5234,184,1791.5234,180,1787.5234" style="stroke: #A80036; stroke-width: 1.0;"/><line style="stroke: #A80036; stroke-width: 1.0; stroke-dasharray: 2.0,2.0;" x1="178" x2="364" y1="1787.5234" y2="1787.5234"/></g></svg>