<?xml version="1.0" encoding="UTF-8" standalone="yes"?><svg xmlns="http://www.w3.org/2000/svg" xmlns:xlink="http://www.w3.org/1999/xlink" height="1401px" style="width:1851px;height:1401px;" version="1.1" viewBox="0 0 1851 1401" width="1851px"><defs><filter height="300%" id="f1" width="300%" x="-1" y="-1"><feGaussianBlur result="blurOut" stdDeviation="2.0"/><feColorMatrix in="blurOut" result="blurOut2" type="matrix" values="0 0 0 0 0 0 0 0 0 0 0 0 0 0 0 0 0 0 .4 0"/><feOffset dx="4.0" dy="4.0" in="blurOut2" result="blurOut3"/><feBlend in="SourceGraphic" in2="blurOut3" mode="normal"/></filter></defs><g><text fill="#000000" font-family="sans-serif" font-size="14" font-weight="bold" lengthAdjust="spacingAndGlyphs" textLength="87" x="884" y="22.9951">sd_allocate</text><rect fill="#FFFFFF" filter="url(#f1)" height="1274.8594" style="stroke: #A80036; stroke-width: 1.0;" width="10" x="102" y="78.5938"/><rect fill="#FFFFFF" filter="url(#f1)" height="29.1328" style="stroke: #A80036; stroke-width: 1.0;" width="10" x="317" y="99.5938"/><rect fill="#FFFFFF" filter="url(#f1)" height="593.5313" style="stroke: #A80036; stroke-width: 1.0;" width="10" x="478.5" y="157.8594"/><rect fill="#FFFFFF" filter="url(#f1)" height="28" style="stroke: #A80036; stroke-width: 1.0;" width="10" x="483.5" y="219.125"/><rect fill="#FFFFFF" filter="url(#f1)" height="28" style="stroke: #A80036; stroke-width: 1.0;" width="10" x="483.5" y="291.2578"/><rect fill="#FFFFFF" filter="url(#f1)" height="29.1328" style="stroke: #A80036; stroke-width: 1.0;" width="10" x="478.5" y="804.6563"/><rect fill="#FFFFFF" filter="url(#f1)" height="87.3984" style="stroke: #A80036; stroke-width: 1.0;" width="10" x="478.5" y="862.9219"/><rect fill="#FFFFFF" filter="url(#f1)" height="57.2656" style="stroke: #A80036; stroke-width: 1.0;" width="10" x="746.5" y="355.3906"/><rect fill="#FFFFFF" filter="url(#f1)" height="57.2656" style="stroke: #A80036; stroke-width: 1.0;" width="10" x="746.5" y="1021.5859"/><rect fill="#FFFFFF" filter="url(#f1)" height="57.2656" style="stroke: #A80036; stroke-width: 1.0;" width="10" x="746.5" y="1107.8516"/><rect fill="#FFFFFF" filter="url(#f1)" height="43.2656" style="stroke: #A80036; stroke-width: 1.0;" width="10" x="746.5" y="1295.1875"/><rect fill="#FFFFFF" filter="url(#f1)" height="324.8672" style="stroke: #A80036; stroke-width: 1.0;" width="10" x="1013.5" y="398.5234"/><rect fill="#FFFFFF" filter="url(#f1)" height="14.1328" style="stroke: #A80036; stroke-width: 1.0;" width="10" x="1013.5" y="1064.7188"/><rect fill="#FFFFFF" filter="url(#f1)" height="57.2656" style="stroke: #A80036; stroke-width: 1.0;" width="10" x="1240.5" y="465.7891"/><rect fill="#FFFFFF" filter="url(#f1)" height="57.2656" style="stroke: #A80036; stroke-width: 1.0;" width="10" x="1240.5" y="608.9922"/><rect fill="#FFFFFF" filter="url(#f1)" height="29.1328" style="stroke: #A80036; stroke-width: 1.0;" width="10" x="1405.5" y="892.0547"/><rect fill="#FFFFFF" filter="url(#f1)" height="14.1328" style="stroke: #A80036; stroke-width: 1.0;" width="10" x="1538.5" y="1150.9844"/><rect fill="#FFFFFF" filter="url(#f1)" height="14.1328" style="stroke: #A80036; stroke-width: 1.0;" width="10" x="1538.5" y="1324.3203"/><rect fill="#FFFFFF" filter="url(#f1)" height="57.2656" style="stroke: #A80036; stroke-width: 1.0;" width="10" x="1682.5" y="1194.1172"/><rect fill="#FFFFFF" filter="url(#f1)" height="14.1328" style="stroke: #A80036; stroke-width: 1.0;" width="10" x="1797" y="1223.25"/><rect fill="#FFFFFF" filter="url(#f1)" height="550.3984" style="stroke: #000000; stroke-width: 2.0;" width="961.5" x="395.5" y="172.9922"/><rect fill="#FFFFFF" filter="url(#f1)" height="288.7344" style="stroke: #000000; stroke-width: 2.0;" width="941.5" x="405.5" y="427.6563"/><rect fill="#FFFFFF" height="143.2031" style="stroke: none; stroke-width: 1.0;" width="941.5" x="405.5" y="573.1875"/><rect fill="#FFFFFF" filter="url(#f1)" height="579.9297" style="stroke: #000000; stroke-width: 2.0;" width="1829" x="13" y="766.5234"/><rect fill="#FFFFFF" height="87.0703" style="stroke: none; stroke-width: 1.0;" width="1829" x="13" y="1259.3828"/><line style="stroke: #A80036; stroke-width: 1.0; stroke-dasharray: 5.0,5.0;" x1="107" x2="107" y1="68.5938" y2="1363.4531"/><line style="stroke: #A80036; stroke-width: 1.0; stroke-dasharray: 5.0,5.0;" x1="321.5" x2="321.5" y1="68.5938" y2="1363.4531"/><line style="stroke: #A80036; stroke-width: 1.0; stroke-dasharray: 5.0,5.0;" x1="483.5" x2="483.5" y1="68.5938" y2="1363.4531"/><line style="stroke: #A80036; stroke-width: 1.0; stroke-dasharray: 5.0,5.0;" x1="751" x2="751" y1="68.5938" y2="1363.4531"/><line style="stroke: #A80036; stroke-width: 1.0; stroke-dasharray: 5.0,5.0;" x1="1018.5" x2="1018.5" y1="68.5938" y2="1363.4531"/><line style="stroke: #A80036; stroke-width: 1.0; stroke-dasharray: 5.0,5.0;" x1="1245" x2="1245" y1="68.5938" y2="1363.4531"/><line style="stroke: #A80036; stroke-width: 1.0; stroke-dasharray: 5.0,5.0;" x1="1410" x2="1410" y1="68.5938" y2="1363.4531"/><line style="stroke: #A80036; stroke-width: 1.0; stroke-dasharray: 5.0,5.0;" x1="1543" x2="1543" y1="68.5938" y2="1363.4531"/><line style="stroke: #A80036; stroke-width: 1.0; stroke-dasharray: 5.0,5.0;" x1="1687" x2="1687" y1="68.5938" y2="1363.4531"/><line style="stroke: #A80036; stroke-width: 1.0; stroke-dasharray: 5.0,5.0;" x1="1802" x2="1802" y1="68.5938" y2="1363.4531"/><rect fill="#FEFECE" filter="url(#f1)" height="30.2969" style="stroke: #A80036; stroke-width: 1.5;" width="164" x="23" y="33.2969"/><text fill="#000000" font-family="sans-serif" font-size="14" lengthAdjust="spacingAndGlyphs" textLength="150" x="30" y="53.292">RequestManagement</text><rect fill="#FEFECE" filter="url(#f1)" height="30.2969" style="stroke: #A80036; stroke-width: 1.5;" width="164" x="23" y="1362.4531"/><text fill="#000000" font-family="sans-serif" font-size="14" lengthAdjust="spacingAndGlyphs" textLength="150" x="30" y="1382.4482">RequestManagement</text><rect fill="#FEFECE" filter="url(#f1)" height="30.2969" style="stroke: #A80036; stroke-width: 1.5;" width="163" x="238.5" y="33.2969"/><text fill="#000000" font-family="sans-serif" font-size="14" lengthAdjust="spacingAndGlyphs" textLength="149" x="245.5" y="53.292">LocationManagement</text><rect fill="#FEFECE" filter="url(#f1)" height="30.2969" style="stroke: #A80036; stroke-width: 1.5;" width="163" x="238.5" y="1362.4531"/><text fill="#000000" font-family="sans-serif" font-size="14" lengthAdjust="spacingAndGlyphs" textLength="149" x="245.5" y="1382.4482">LocationManagement</text><rect fill="#FEFECE" filter="url(#f1)" height="30.2969" style="stroke: #A80036; stroke-width: 1.5;" width="132" x="415.5" y="33.2969"/><text fill="#000000" font-family="sans-serif" font-size="14" lengthAdjust="spacingAndGlyphs" textLength="118" x="422.5" y="53.292">TaxiManagement</text><rect fill="#FEFECE" filter="url(#f1)" height="30.2969" style="stroke: #A80036; stroke-width: 1.5;" width="132" x="415.5" y="1362.4531"/><text fill="#000000" font-family="sans-serif" font-size="14" lengthAdjust="spacingAndGlyphs" textLength="118" x="422.5" y="1382.4482">TaxiManagement</text><rect fill="#FEFECE" filter="url(#f1)" height="30.2969" style="stroke: #A80036; stroke-width: 1.5;" width="141" x="679" y="33.2969"/><text fill="#000000" font-family="sans-serif" font-size="14" lengthAdjust="spacingAndGlyphs" textLength="127" x="686" y="53.292">NotificationSystem</text><rect fill="#FEFECE" filter="url(#f1)" height="30.2969" style="stroke: #A80036; stroke-width: 1.5;" width="141" x="679" y="1362.4531"/><text fill="#000000" font-family="sans-serif" font-size="14" lengthAdjust="spacingAndGlyphs" textLength="127" x="686" y="1382.4482">NotificationSystem</text><rect fill="#FEFECE" filter="url(#f1)" height="30.2969" style="stroke: #A80036; stroke-width: 1.5;" width="108" x="962.5" y="33.2969"/><text fill="#000000" font-family="sans-serif" font-size="14" lengthAdjust="spacingAndGlyphs" textLength="94" x="969.5" y="53.292">TaxiDriverApp</text><rect fill="#FEFECE" filter="url(#f1)" height="30.2969" style="stroke: #A80036; stroke-width: 1.5;" width="108" x="962.5" y="1362.4531"/><text fill="#000000" font-family="sans-serif" font-size="14" lengthAdjust="spacingAndGlyphs" textLength="94" x="969.5" y="1382.4482">TaxiDriverApp</text><rect fill="#FEFECE" filter="url(#f1)" height="30.2969" style="stroke: #A80036; stroke-width: 1.5;" width="179" x="1154" y="33.2969"/><text fill="#000000" font-family="sans-serif" font-size="14" lengthAdjust="spacingAndGlyphs" textLength="165" x="1161" y="53.292">RemoteServiceInterface</text><rect fill="#FEFECE" filter="url(#f1)" height="30.2969" style="stroke: #A80036; stroke-width: 1.5;" width="179" x="1154" y="1362.4531"/><text fill="#000000" font-family="sans-serif" font-size="14" lengthAdjust="spacingAndGlyphs" textLength="165" x="1161" y="1382.4482">RemoteServiceInterface</text><rect fill="#FEFECE" filter="url(#f1)" height="30.2969" style="stroke: #A80036; stroke-width: 1.5;" width="123" x="1347" y="33.2969"/><text fill="#000000" font-family="sans-serif" font-size="14" lengthAdjust="spacingAndGlyphs" textLength="109" x="1354" y="53.292">MappingService</text><rect fill="#FEFECE" filter="url(#f1)" height="30.2969" style="stroke: #A80036; stroke-width: 1.5;" width="123" x="1347" y="1362.4531"/><text fill="#000000" font-family="sans-serif" font-size="14" lengthAdjust="spacingAndGlyphs" textLength="109" x="1354" y="1382.4482">MappingService</text><rect fill="#FEFECE" filter="url(#f1)" height="30.2969" style="stroke: #A80036; stroke-width: 1.5;" width="115" x="1484" y="33.2969"/><text fill="#000000" font-family="sans-serif" font-size="14" lengthAdjust="spacingAndGlyphs" textLength="101" x="1491" y="53.292">PassengerApp</text><rect fill="#FEFECE" filter="url(#f1)" height="30.2969" style="stroke: #A80036; stroke-width: 1.5;" width="115" x="1484" y="1362.4531"/><text fill="#000000" font-family="sans-serif" font-size="14" lengthAdjust="spacingAndGlyphs" textLength="101" x="1491" y="1382.4482">PassengerApp</text><rect fill="#FEFECE" filter="url(#f1)" height="30.2969" style="stroke: #A80036; stroke-width: 1.5;" width="145" x="1613" y="33.2969"/><text fill="#000000" font-family="sans-serif" font-size="14" lengthAdjust="spacingAndGlyphs" textLength="131" x="1620" y="53.292">DataAccessUtilities</text><rect fill="#FEFECE" filter="url(#f1)" height="30.2969" style="stroke: #A80036; stroke-width: 1.5;" width="145" x="1613" y="1362.4531"/><text fill="#000000" font-family="sans-serif" font-size="14" lengthAdjust="spacingAndGlyphs" textLength="131" x="1620" y="1382.4482">DataAccessUtilities</text><rect fill="#FEFECE" filter="url(#f1)" height="30.2969" style="stroke: #A80036; stroke-width: 1.5;" width="56" x="1772" y="33.2969"/><text fill="#000000" font-family="sans-serif" font-size="14" lengthAdjust="spacingAndGlyphs" textLength="42" x="1779" y="53.292">DBMS</text><rect fill="#FEFECE" filter="url(#f1)" height="30.2969" style="stroke: #A80036; stroke-width: 1.5;" width="56" x="1772" y="1362.4531"/><text fill="#000000" font-family="sans-serif" font-size="14" lengthAdjust="spacingAndGlyphs" textLength="42" x="1779" y="1382.4482">DBMS</text><rect fill="#FFFFFF" filter="url(#f1)" height="1274.8594" style="stroke: #A80036; stroke-width: 1.0;" width="10" x="102" y="78.5938"/><rect fill="#FFFFFF" filter="url(#f1)" height="29.1328" style="stroke: #A80036; stroke-width: 1.0;" width="10" x="317" y="99.5938"/><rect fill="#FFFFFF" filter="url(#f1)" height="593.5313" style="stroke: #A80036; stroke-width: 1.0;" width="10" x="478.5" y="157.8594"/><rect fill="#FFFFFF" filter="url(#f1)" height="28" style="stroke: #A80036; stroke-width: 1.0;" width="10" x="483.5" y="219.125"/><rect fill="#FFFFFF" filter="url(#f1)" height="28" style="stroke: #A80036; stroke-width: 1.0;" width="10" x="483.5" y="291.2578"/><rect fill="#FFFFFF" filter="url(#f1)" height="29.1328" style="stroke: #A80036; stroke-width: 1.0;" width="10" x="478.5" y="804.6563"/><rect fill="#FFFFFF" filter="url(#f1)" height="87.3984" style="stroke: #A80036; stroke-width: 1.0;" width="10" x="478.5" y="862.9219"/><rect fill="#FFFFFF" filter="url(#f1)" height="57.2656" style="stroke: #A80036; stroke-width: 1.0;" width="10" x="746.5" y="355.3906"/><rect fill="#FFFFFF" filter="url(#f1)" height="57.2656" style="stroke: #A80036; stroke-width: 1.0;" width="10" x="746.5" y="1021.5859"/><rect fill="#FFFFFF" filter="url(#f1)" height="57.2656" style="stroke: #A80036; stroke-width: 1.0;" width="10" x="746.5" y="1107.8516"/><rect fill="#FFFFFF" filter="url(#f1)" height="43.2656" style="stroke: #A80036; stroke-width: 1.0;" width="10" x="746.5" y="1295.1875"/><rect fill="#FFFFFF" filter="url(#f1)" height="324.8672" style="stroke: #A80036; stroke-width: 1.0;" width="10" x="1013.5" y="398.5234"/><rect fill="#FFFFFF" filter="url(#f1)" height="14.1328" style="stroke: #A80036; stroke-width: 1.0;" width="10" x="1013.5" y="1064.7188"/><rect fill="#FFFFFF" filter="url(#f1)" height="57.2656" style="stroke: #A80036; stroke-width: 1.0;" width="10" x="1240.5" y="465.7891"/><rect fill="#FFFFFF" filter="url(#f1)" height="57.2656" style="stroke: #A80036; stroke-width: 1.0;" width="10" x="1240.5" y="608.9922"/><rect fill="#FFFFFF" filter="url(#f1)" height="29.1328" style="stroke: #A80036; stroke-width: 1.0;" width="10" x="1405.5" y="892.0547"/><rect fill="#FFFFFF" filter="url(#f1)" height="14.1328" style="stroke: #A80036; stroke-width: 1.0;" width="10" x="1538.5" y="1150.9844"/><rect fill="#FFFFFF" filter="url(#f1)" height="14.1328" style="stroke: #A80036; stroke-width: 1.0;" width="10" x="1538.5" y="1324.3203"/><rect fill="#FFFFFF" filter="url(#f1)" height="57.2656" style="stroke: #A80036; stroke-width: 1.0;" width="10" x="1682.5" y="1194.1172"/><rect fill="#FFFFFF" filter="url(#f1)" height="14.1328" style="stroke: #A80036; stroke-width: 1.0;" width="10" x="1797" y="1223.25"/><polygon fill="#A80036" points="305,95.5938,315,99.5938,305,103.5938,309,99.5938" style="stroke: #A80036; stroke-width: 1.0;"/><line style="stroke: #A80036; stroke-width: 1.0;" x1="112" x2="311" y1="99.5938" y2="99.5938"/><text fill="#000000" font-family="sans-serif" font-size="13" lengthAdjust="spacingAndGlyphs" textLength="186" x="119" y="94.6606">getZone(passengerLocation)</text><polygon fill="#A80036" points="123,124.7266,113,128.7266,123,132.7266,119,128.7266" style="stroke: #A80036; stroke-width: 1.0;"/><line style="stroke: #A80036; stroke-width: 1.0; stroke-dasharray: 2.0,2.0;" x1="117" x2="321" y1="128.7266" y2="128.7266"/><text fill="#000000" font-family="sans-serif" font-size="13" lengthAdjust="spacingAndGlyphs" textLength="31" x="129" y="123.7935">zone</text><polygon fill="#A80036" points="466.5,153.8594,476.5,157.8594,466.5,161.8594,470.5,157.8594" style="stroke: #A80036; stroke-width: 1.0;"/><line style="stroke: #A80036; stroke-width: 1.0;" x1="112" x2="472.5" y1="157.8594" y2="157.8594"/><text fill="#000000" font-family="sans-serif" font-size="13" lengthAdjust="spacingAndGlyphs" textLength="255" x="119" y="152.9263">existsAvailableTaxiDriver(request, zone)</text><rect fill="none" height="550.3984" style="stroke: #000000; stroke-width: 2.0;" width="961.5" x="395.5" y="172.9922"/><polygon fill="#EEEEEE" points="395.5,172.9922,472.5,172.9922,472.5,179.9922,462.5,189.9922,395.5,189.9922,395.5,172.9922" style="stroke: #000000; stroke-width: 2.0;"/><text fill="#000000" font-family="sans-serif" font-size="13" font-weight="bold" lengthAdjust="spacingAndGlyphs" textLength="32" x="410.5" y="186.0591">loop</text><text fill="#000000" font-family="sans-serif" font-size="11" font-weight="bold" lengthAdjust="spacingAndGlyphs" textLength="468" x="487.5" y="185.2026">[until a taxi driver accepts the call, or there are no more taxi drivers left]</text><line style="stroke: #A80036; stroke-width: 1.0;" x1="493.5" x2="535.5" y1="211.2578" y2="211.2578"/><line style="stroke: #A80036; stroke-width: 1.0;" x1="535.5" x2="535.5" y1="211.2578" y2="224.2578"/><line style="stroke: #A80036; stroke-width: 1.0;" x1="494.5" x2="535.5" y1="224.2578" y2="224.2578"/><polygon fill="#A80036" points="504.5,220.2578,494.5,224.2578,504.5,228.2578,500.5,224.2578" style="stroke: #A80036; stroke-width: 1.0;"/><text fill="#000000" font-family="sans-serif" font-size="13" lengthAdjust="spacingAndGlyphs" textLength="160" x="500.5" y="206.1919">dequeueTaxiDriver(zone)</text><line style="stroke: #A80036; stroke-width: 1.0;" x1="493.5" x2="535.5" y1="283.3906" y2="283.3906"/><line style="stroke: #A80036; stroke-width: 1.0;" x1="535.5" x2="535.5" y1="283.3906" y2="296.3906"/><line style="stroke: #A80036; stroke-width: 1.0;" x1="494.5" x2="535.5" y1="296.3906" y2="296.3906"/><polygon fill="#A80036" points="504.5,292.3906,494.5,296.3906,504.5,300.3906,500.5,296.3906" style="stroke: #A80036; stroke-width: 1.0;"/><text fill="#000000" font-family="sans-serif" font-size="13" lengthAdjust="spacingAndGlyphs" textLength="142" x="500.5" y="278.3247">setPending(taxiDriver)</text><line style="stroke: #A80036; stroke-width: 1.0;" x1="744.5" x2="734.5" y1="355.3906" y2="351.3906"/><line style="stroke: #A80036; stroke-width: 1.0;" x1="744.5" x2="734.5" y1="355.3906" y2="359.3906"/><line style="stroke: #A80036; stroke-width: 1.0;" x1="488.5" x2="745.5" y1="355.3906" y2="355.3906"/><text fill="#000000" font-family="sans-serif" font-size="13" lengthAdjust="spacingAndGlyphs" textLength="238" x="495.5" y="350.4575">notifyCallRequest(taxiDriver, request)</text><line style="stroke: #A80036; stroke-width: 1.0;" x1="488.5" x2="498.5" y1="369.5234" y2="365.5234"/><line style="stroke: #A80036; stroke-width: 1.0;" x1="488.5" x2="498.5" y1="369.5234" y2="373.5234"/><line style="stroke: #A80036; stroke-width: 1.0; stroke-dasharray: 2.0,2.0;" x1="488.5" x2="745.5" y1="369.5234" y2="369.5234"/><line style="stroke: #A80036; stroke-width: 1.0;" x1="1011.5" x2="1001.5" y1="398.5234" y2="394.5234"/><line style="stroke: #A80036; stroke-width: 1.0;" x1="1011.5" x2="1001.5" y1="398.5234" y2="402.5234"/><line style="stroke: #A80036; stroke-width: 1.0;" x1="756.5" x2="1012.5" y1="398.5234" y2="398.5234"/><text fill="#000000" font-family="sans-serif" font-size="13" lengthAdjust="spacingAndGlyphs" textLength="238" x="763.5" y="393.5903">notifyCallRequest(taxiDriver, request)</text><line style="stroke: #A80036; stroke-width: 1.0;" x1="751.5" x2="761.5" y1="412.6563" y2="408.6563"/><line style="stroke: #A80036; stroke-width: 1.0;" x1="751.5" x2="761.5" y1="412.6563" y2="416.6563"/><line style="stroke: #A80036; stroke-width: 1.0; stroke-dasharray: 2.0,2.0;" x1="751.5" x2="1012.5" y1="412.6563" y2="412.6563"/><rect fill="none" height="288.7344" style="stroke: #000000; stroke-width: 2.0;" width="941.5" x="405.5" y="427.6563"/><polygon fill="#EEEEEE" points="405.5,427.6563,469.5,427.6563,469.5,434.6563,459.5,444.6563,405.5,444.6563,405.5,427.6563" style="stroke: #000000; stroke-width: 2.0;"/><text fill="#000000" font-family="sans-serif" font-size="13" font-weight="bold" lengthAdjust="spacingAndGlyphs" textLength="19" x="420.5" y="440.7231">alt</text><text fill="#000000" font-family="sans-serif" font-size="11" font-weight="bold" lengthAdjust="spacingAndGlyphs" textLength="82" x="484.5" y="439.8667">[accept ride]</text><line style="stroke: #A80036; stroke-width: 1.0;" x1="1238.5" x2="1228.5" y1="465.7891" y2="461.7891"/><line style="stroke: #A80036; stroke-width: 1.0;" x1="1238.5" x2="1228.5" y1="465.7891" y2="469.7891"/><line style="stroke: #A80036; stroke-width: 1.0;" x1="1023.5" x2="1239.5" y1="465.7891" y2="465.7891"/><text fill="#000000" font-family="sans-serif" font-size="13" lengthAdjust="spacingAndGlyphs" textLength="198" x="1030.5" y="460.856">acceptRide(taxiDriver, request)</text><line style="stroke: #A80036; stroke-width: 1.0;" x1="1023.5" x2="1033.5" y1="479.9219" y2="475.9219"/><line style="stroke: #A80036; stroke-width: 1.0;" x1="1023.5" x2="1033.5" y1="479.9219" y2="483.9219"/><line style="stroke: #A80036; stroke-width: 1.0; stroke-dasharray: 2.0,2.0;" x1="1023.5" x2="1239.5" y1="479.9219" y2="479.9219"/><line style="stroke: #A80036; stroke-width: 1.0;" x1="488.5" x2="498.5" y1="508.9219" y2="504.9219"/><line style="stroke: #A80036; stroke-width: 1.0;" x1="488.5" x2="498.5" y1="508.9219" y2="512.9219"/><line style="stroke: #A80036; stroke-width: 1.0;" x1="488.5" x2="1239.5" y1="508.9219" y2="508.9219"/><text fill="#000000" font-family="sans-serif" font-size="13" lengthAdjust="spacingAndGlyphs" textLength="198" x="505.5" y="503.9888">acceptRide(taxiDriver, request)</text><line style="stroke: #A80036; stroke-width: 1.0;" x1="1243.5" x2="1233.5" y1="523.0547" y2="519.0547"/><line style="stroke: #A80036; stroke-width: 1.0;" x1="1243.5" x2="1233.5" y1="523.0547" y2="527.0547"/><line style="stroke: #A80036; stroke-width: 1.0; stroke-dasharray: 2.0,2.0;" x1="488.5" x2="1244.5" y1="523.0547" y2="523.0547"/><line style="stroke: #A80036; stroke-width: 1.0;" x1="488.5" x2="530.5" y1="552.1875" y2="552.1875"/><line style="stroke: #A80036; stroke-width: 1.0;" x1="530.5" x2="530.5" y1="552.1875" y2="565.1875"/><line style="stroke: #A80036; stroke-width: 1.0;" x1="489.5" x2="530.5" y1="565.1875" y2="565.1875"/><polygon fill="#A80036" points="499.5,561.1875,489.5,565.1875,499.5,569.1875,495.5,565.1875" style="stroke: #A80036; stroke-width: 1.0;"/><text fill="#000000" font-family="sans-serif" font-size="13" lengthAdjust="spacingAndGlyphs" textLength="244" x="495.5" y="547.1216">setCurrentlyRiding(taxiDriver, request)</text><line style="stroke: #000000; stroke-width: 1.0; stroke-dasharray: 2.0,2.0;" x1="405.5" x2="1347" y1="574.1875" y2="574.1875"/><text fill="#000000" font-family="sans-serif" font-size="11" font-weight="bold" lengthAdjust="spacingAndGlyphs" textLength="301" x="410.5" y="584.3979">[reject ride or taxi driver doesn't reply on time]</text><line style="stroke: #A80036; stroke-width: 1.0;" x1="1238.5" x2="1228.5" y1="608.9922" y2="604.9922"/><line style="stroke: #A80036; stroke-width: 1.0;" x1="1238.5" x2="1228.5" y1="608.9922" y2="612.9922"/><line style="stroke: #A80036; stroke-width: 1.0;" x1="1023.5" x2="1239.5" y1="608.9922" y2="608.9922"/><text fill="#000000" font-family="sans-serif" font-size="13" lengthAdjust="spacingAndGlyphs" textLength="195" x="1030.5" y="604.0591">refuseRide(taxiDriver, request)</text><line style="stroke: #A80036; stroke-width: 1.0;" x1="1023.5" x2="1033.5" y1="623.125" y2="619.125"/><line style="stroke: #A80036; stroke-width: 1.0;" x1="1023.5" x2="1033.5" y1="623.125" y2="627.125"/><line style="stroke: #A80036; stroke-width: 1.0; stroke-dasharray: 2.0,2.0;" x1="1023.5" x2="1239.5" y1="623.125" y2="623.125"/><line style="stroke: #A80036; stroke-width: 1.0;" x1="488.5" x2="498.5" y1="652.125" y2="648.125"/><line style="stroke: #A80036; stroke-width: 1.0;" x1="488.5" x2="498.5" y1="652.125" y2="656.125"/><line style="stroke: #A80036; stroke-width: 1.0;" x1="488.5" x2="1239.5" y1="652.125" y2="652.125"/><text fill="#000000" font-family="sans-serif" font-size="13" lengthAdjust="spacingAndGlyphs" textLength="195" x="505.5" y="647.1919">refuseRide(taxiDriver, request)</text><line style="stroke: #A80036; stroke-width: 1.0;" x1="1243.5" x2="1233.5" y1="666.2578" y2="662.2578"/><line style="stroke: #A80036; stroke-width: 1.0;" x1="1243.5" x2="1233.5" y1="666.2578" y2="670.2578"/><line style="stroke: #A80036; stroke-width: 1.0; stroke-dasharray: 2.0,2.0;" x1="488.5" x2="1244.5" y1="666.2578" y2="666.2578"/><line style="stroke: #A80036; stroke-width: 1.0;" x1="488.5" x2="530.5" y1="695.3906" y2="695.3906"/><line style="stroke: #A80036; stroke-width: 1.0;" x1="530.5" x2="530.5" y1="695.3906" y2="708.3906"/><line style="stroke: #A80036; stroke-width: 1.0;" x1="489.5" x2="530.5" y1="708.3906" y2="708.3906"/><polygon fill="#A80036" points="499.5,704.3906,489.5,708.3906,499.5,712.3906,495.5,708.3906" style="stroke: #A80036; stroke-width: 1.0;"/><text fill="#000000" font-family="sans-serif" font-size="13" lengthAdjust="spacingAndGlyphs" textLength="229" x="495.5" y="690.3247">enqueueTaxiDriver(taxiDriver, zone)</text><polygon fill="#A80036" points="123,747.3906,113,751.3906,123,755.3906,119,751.3906" style="stroke: #A80036; stroke-width: 1.0;"/><line style="stroke: #A80036; stroke-width: 1.0; stroke-dasharray: 2.0,2.0;" x1="117" x2="482.5" y1="751.3906" y2="751.3906"/><text fill="#000000" font-family="sans-serif" font-size="13" lengthAdjust="spacingAndGlyphs" textLength="36" x="129" y="746.4575">result</text><rect fill="none" height="579.9297" style="stroke: #000000; stroke-width: 2.0;" width="1829" x="13" y="766.5234"/><polygon fill="#EEEEEE" points="13,766.5234,77,766.5234,77,773.5234,67,783.5234,13,783.5234,13,766.5234" style="stroke: #000000; stroke-width: 2.0;"/><text fill="#000000" font-family="sans-serif" font-size="13" font-weight="bold" lengthAdjust="spacingAndGlyphs" textLength="19" x="28" y="779.5903">alt</text><text fill="#000000" font-family="sans-serif" font-size="11" font-weight="bold" lengthAdjust="spacingAndGlyphs" textLength="328" x="92" y="778.7339">[successful allocation (i.e., a taxi driver accepted)]</text><polygon fill="#A80036" points="466.5,800.6563,476.5,804.6563,466.5,808.6563,470.5,804.6563" style="stroke: #A80036; stroke-width: 1.0;"/><line style="stroke: #A80036; stroke-width: 1.0;" x1="112" x2="472.5" y1="804.6563" y2="804.6563"/><text fill="#000000" font-family="sans-serif" font-size="13" lengthAdjust="spacingAndGlyphs" textLength="200" x="119" y="799.7231">getAvailableTaxiDriver(request)</text><polygon fill="#A80036" points="123,829.7891,113,833.7891,123,837.7891,119,833.7891" style="stroke: #A80036; stroke-width: 1.0;"/><line style="stroke: #A80036; stroke-width: 1.0; stroke-dasharray: 2.0,2.0;" x1="117" x2="482.5" y1="833.7891" y2="833.7891"/><text fill="#000000" font-family="sans-serif" font-size="13" lengthAdjust="spacingAndGlyphs" textLength="61" x="129" y="828.856">taxiDriver</text><polygon fill="#A80036" points="466.5,858.9219,476.5,862.9219,466.5,866.9219,470.5,862.9219" style="stroke: #A80036; stroke-width: 1.0;"/><line style="stroke: #A80036; stroke-width: 1.0;" x1="112" x2="472.5" y1="862.9219" y2="862.9219"/><text fill="#000000" font-family="sans-serif" font-size="13" lengthAdjust="spacingAndGlyphs" textLength="245" x="119" y="857.9888">getETA(taxiDriver, passengerLocation)</text><polygon fill="#A80036" points="1393.5,888.0547,1403.5,892.0547,1393.5,896.0547,1397.5,892.0547" style="stroke: #A80036; stroke-width: 1.0;"/><line style="stroke: #A80036; stroke-width: 1.0;" x1="488.5" x2="1399.5" y1="892.0547" y2="892.0547"/><text fill="#000000" font-family="sans-serif" font-size="13" lengthAdjust="spacingAndGlyphs" textLength="335" x="495.5" y="887.1216">computeETA(passengerLocation, taxiDriverLocation)</text><polygon fill="#A80036" points="499.5,917.1875,489.5,921.1875,499.5,925.1875,495.5,921.1875" style="stroke: #A80036; stroke-width: 1.0;"/><line style="stroke: #A80036; stroke-width: 1.0; stroke-dasharray: 2.0,2.0;" x1="493.5" x2="1409.5" y1="921.1875" y2="921.1875"/><text fill="#000000" font-family="sans-serif" font-size="13" lengthAdjust="spacingAndGlyphs" textLength="24" x="505.5" y="916.2544">ETA</text><polygon fill="#A80036" points="123,946.3203,113,950.3203,123,954.3203,119,950.3203" style="stroke: #A80036; stroke-width: 1.0;"/><line style="stroke: #A80036; stroke-width: 1.0; stroke-dasharray: 2.0,2.0;" x1="117" x2="482.5" y1="950.3203" y2="950.3203"/><text fill="#000000" font-family="sans-serif" font-size="13" lengthAdjust="spacingAndGlyphs" textLength="24" x="129" y="945.3872">ETA</text><line style="stroke: #A80036; stroke-width: 1.0;" x1="112" x2="154" y1="979.5859" y2="979.5859"/><line style="stroke: #A80036; stroke-width: 1.0;" x1="154" x2="154" y1="979.5859" y2="992.5859"/><line style="stroke: #A80036; stroke-width: 1.0;" x1="113" x2="154" y1="992.5859" y2="992.5859"/><polygon fill="#A80036" points="123,988.5859,113,992.5859,123,996.5859,119,992.5859" style="stroke: #A80036; stroke-width: 1.0;"/><text fill="#000000" font-family="sans-serif" font-size="13" lengthAdjust="spacingAndGlyphs" textLength="143" x="119" y="974.52">generateSecretCode()</text><line style="stroke: #A80036; stroke-width: 1.0;" x1="744.5" x2="734.5" y1="1021.5859" y2="1017.5859"/><line style="stroke: #A80036; stroke-width: 1.0;" x1="744.5" x2="734.5" y1="1021.5859" y2="1025.5859"/><line style="stroke: #A80036; stroke-width: 1.0;" x1="112" x2="745.5" y1="1021.5859" y2="1021.5859"/><text fill="#000000" font-family="sans-serif" font-size="13" lengthAdjust="spacingAndGlyphs" textLength="378" x="119" y="1016.6528">notifyRequestConfirmation(taxiDriver, request, secretCode)</text><line style="stroke: #A80036; stroke-width: 1.0;" x1="112" x2="122" y1="1035.7188" y2="1031.7188"/><line style="stroke: #A80036; stroke-width: 1.0;" x1="112" x2="122" y1="1035.7188" y2="1039.7188"/><line style="stroke: #A80036; stroke-width: 1.0; stroke-dasharray: 2.0,2.0;" x1="112" x2="745.5" y1="1035.7188" y2="1035.7188"/><line style="stroke: #A80036; stroke-width: 1.0;" x1="1011.5" x2="1001.5" y1="1064.7188" y2="1060.7188"/><line style="stroke: #A80036; stroke-width: 1.0;" x1="1011.5" x2="1001.5" y1="1064.7188" y2="1068.7188"/><line style="stroke: #A80036; stroke-width: 1.0;" x1="756.5" x2="1012.5" y1="1064.7188" y2="1064.7188"/><text fill="#000000" font-family="sans-serif" font-size="13" lengthAdjust="spacingAndGlyphs" textLength="158" x="763.5" y="1059.7856">confirmRide(secretCode)</text><line style="stroke: #A80036; stroke-width: 1.0;" x1="751.5" x2="761.5" y1="1078.8516" y2="1074.8516"/><line style="stroke: #A80036; stroke-width: 1.0;" x1="751.5" x2="761.5" y1="1078.8516" y2="1082.8516"/><line style="stroke: #A80036; stroke-width: 1.0; stroke-dasharray: 2.0,2.0;" x1="751.5" x2="1017.5" y1="1078.8516" y2="1078.8516"/><line style="stroke: #A80036; stroke-width: 1.0;" x1="744.5" x2="734.5" y1="1107.8516" y2="1103.8516"/><line style="stroke: #A80036; stroke-width: 1.0;" x1="744.5" x2="734.5" y1="1107.8516" y2="1111.8516"/><line style="stroke: #A80036; stroke-width: 1.0;" x1="112" x2="745.5" y1="1107.8516" y2="1107.8516"/><text fill="#000000" font-family="sans-serif" font-size="13" lengthAdjust="spacingAndGlyphs" textLength="384" x="119" y="1102.9185">notifyRequestConfirmation(passenger, request, secretCode)</text><line style="stroke: #A80036; stroke-width: 1.0;" x1="112" x2="122" y1="1121.9844" y2="1117.9844"/><line style="stroke: #A80036; stroke-width: 1.0;" x1="112" x2="122" y1="1121.9844" y2="1125.9844"/><line style="stroke: #A80036; stroke-width: 1.0; stroke-dasharray: 2.0,2.0;" x1="112" x2="745.5" y1="1121.9844" y2="1121.9844"/><line style="stroke: #A80036; stroke-width: 1.0;" x1="1536.5" x2="1526.5" y1="1150.9844" y2="1146.9844"/><line style="stroke: #A80036; stroke-width: 1.0;" x1="1536.5" x2="1526.5" y1="1150.9844" y2="1154.9844"/><line style="stroke: #A80036; stroke-width: 1.0;" x1="756.5" x2="1537.5" y1="1150.9844" y2="1150.9844"/><text fill="#000000" font-family="sans-serif" font-size="13" lengthAdjust="spacingAndGlyphs" textLength="158" x="763.5" y="1146.0513">confirmRide(secretCode)</text><line style="stroke: #A80036; stroke-width: 1.0;" x1="751.5" x2="761.5" y1="1165.1172" y2="1161.1172"/><line style="stroke: #A80036; stroke-width: 1.0;" x1="751.5" x2="761.5" y1="1165.1172" y2="1169.1172"/><line style="stroke: #A80036; stroke-width: 1.0; stroke-dasharray: 2.0,2.0;" x1="751.5" x2="1542.5" y1="1165.1172" y2="1165.1172"/><polygon fill="#A80036" points="1670.5,1190.1172,1680.5,1194.1172,1670.5,1198.1172,1674.5,1194.1172" style="stroke: #A80036; stroke-width: 1.0;"/><line style="stroke: #A80036; stroke-width: 1.0;" x1="112" x2="1676.5" y1="1194.1172" y2="1194.1172"/><text fill="#000000" font-family="sans-serif" font-size="13" lengthAdjust="spacingAndGlyphs" textLength="133" x="119" y="1189.1841">insertReservation(...)</text><polygon fill="#A80036" points="1785,1219.25,1795,1223.25,1785,1227.25,1789,1223.25" style="stroke: #A80036; stroke-width: 1.0;"/><line style="stroke: #A80036; stroke-width: 1.0;" x1="1692.5" x2="1791" y1="1223.25" y2="1223.25"/><text fill="#000000" font-family="sans-serif" font-size="13" lengthAdjust="spacingAndGlyphs" textLength="58" x="1699.5" y="1218.3169">insert(...)</text><polygon fill="#A80036" points="1703.5,1233.3828,1693.5,1237.3828,1703.5,1241.3828,1699.5,1237.3828" style="stroke: #A80036; stroke-width: 1.0;"/><line style="stroke: #A80036; stroke-width: 1.0; stroke-dasharray: 2.0,2.0;" x1="1697.5" x2="1801" y1="1237.3828" y2="1237.3828"/><polygon fill="#A80036" points="123,1247.3828,113,1251.3828,123,1255.3828,119,1251.3828" style="stroke: #A80036; stroke-width: 1.0;"/><line style="stroke: #A80036; stroke-width: 1.0; stroke-dasharray: 2.0,2.0;" x1="117" x2="1686.5" y1="1251.3828" y2="1251.3828"/><line style="stroke: #000000; stroke-width: 1.0; stroke-dasharray: 2.0,2.0;" x1="13" x2="1842" y1="1260.3828" y2="1260.3828"/><text fill="#000000" font-family="sans-serif" font-size="11" font-weight="bold" lengthAdjust="spacingAndGlyphs" textLength="295" x="18" y="1270.5933">[result == false (i.e., no taxi driver accepted)]</text><line style="stroke: #A80036; stroke-width: 1.0;" x1="744.5" x2="734.5" y1="1295.1875" y2="1291.1875"/><line style="stroke: #A80036; stroke-width: 1.0;" x1="744.5" x2="734.5" y1="1295.1875" y2="1299.1875"/><line style="stroke: #A80036; stroke-width: 1.0;" x1="112" x2="745.5" y1="1295.1875" y2="1295.1875"/><text fill="#000000" font-family="sans-serif" font-size="13" lengthAdjust="spacingAndGlyphs" textLength="233" x="119" y="1290.2544">notifyRequestRejection(passengerId)</text><line style="stroke: #A80036; stroke-width: 1.0;" x1="1536.5" x2="1526.5" y1="1324.3203" y2="1320.3203"/><line style="stroke: #A80036; stroke-width: 1.0;" x1="1536.5" x2="1526.5" y1="1324.3203" y2="1328.3203"/><line style="stroke: #A80036; stroke-width: 1.0;" x1="756.5" x2="1537.5" y1="1324.3203" y2="1324.3203"/><text fill="#000000" font-family="sans-serif" font-size="13" lengthAdjust="spacingAndGlyphs" textLength="233" x="763.5" y="1319.3872">notifyRequestRejection(passengerId)</text><line style="stroke: #A80036; stroke-width: 1.0;" x1="751.5" x2="761.5" y1="1338.4531" y2="1334.4531"/><line style="stroke: #A80036; stroke-width: 1.0;" x1="751.5" x2="761.5" y1="1338.4531" y2="1342.4531"/><line style="stroke: #A80036; stroke-width: 1.0; stroke-dasharray: 2.0,2.0;" x1="751.5" x2="1542.5" y1="1338.4531" y2="1338.4531"/></g></svg>