<?xml version="1.0" encoding="UTF-8" standalone="yes"?><svg xmlns="http://www.w3.org/2000/svg" xmlns:xlink="http://www.w3.org/1999/xlink" height="1144px" style="width:1878px;height:1144px;" version="1.1" viewBox="0 0 1878 1144" width="1878px"><defs><filter height="300%" id="f1" width="300%" x="-1" y="-1"><feGaussianBlur result="blurOut" stdDeviation="2.0"/><feColorMatrix in="blurOut" result="blurOut2" type="matrix" values="0 0 0 0 0 0 0 0 0 0 0 0 0 0 0 0 0 0 .4 0"/><feOffset dx="4.0" dy="4.0" in="blurOut2" result="blurOut3"/><feBlend in="SourceGraphic" in2="blurOut3" mode="normal"/></filter></defs><g><text fill="#000000" font-family="sans-serif" font-size="14" font-weight="bold" lengthAdjust="spacingAndGlyphs" textLength="96" x="893.25" y="22.9951">sd_drop_call</text><rect fill="#FFFFFF" filter="url(#f1)" height="1017.2578" style="stroke: #A80036; stroke-width: 1.0;" width="10" x="94" y="78.5938"/><rect fill="#FFFFFF" filter="url(#f1)" height="14.1328" style="stroke: #A80036; stroke-width: 1.0;" width="10" x="99" y="660.7188"/><rect fill="#FFFFFF" filter="url(#f1)" height="996.2578" style="stroke: #A80036; stroke-width: 1.0;" width="10" x="255.5" y="99.5938"/><rect fill="#FFFFFF" filter="url(#f1)" height="967.125" style="stroke: #A80036; stroke-width: 1.0;" width="10" x="445" y="128.7266"/><rect fill="#FFFFFF" filter="url(#f1)" height="29.1328" style="stroke: #A80036; stroke-width: 1.0;" width="10" x="831" y="242.125"/><rect fill="#FFFFFF" filter="url(#f1)" height="14.1328" style="stroke: #A80036; stroke-width: 1.0;" width="10" x="831" y="353.6563"/><rect fill="#FFFFFF" filter="url(#f1)" height="29.1328" style="stroke: #A80036; stroke-width: 1.0;" width="10" x="831" y="493.0547"/><rect fill="#FFFFFF" filter="url(#f1)" height="365.3281" style="stroke: #A80036; stroke-width: 1.0;" width="10" x="1095" y="324.5234"/><rect fill="#FFFFFF" filter="url(#f1)" height="28" style="stroke: #A80036; stroke-width: 1.0;" width="10" x="1100" y="428.9219"/><rect fill="#FFFFFF" filter="url(#f1)" height="28" style="stroke: #A80036; stroke-width: 1.0;" width="10" x="1095" y="733.6563"/><rect fill="#FFFFFF" filter="url(#f1)" height="57.2656" style="stroke: #A80036; stroke-width: 1.0;" width="10" x="1425" y="617.5859"/><rect fill="#FFFFFF" filter="url(#f1)" height="57.2656" style="stroke: #A80036; stroke-width: 1.0;" width="10" x="1425" y="905.0547"/><rect fill="#FFFFFF" filter="url(#f1)" height="57.2656" style="stroke: #A80036; stroke-width: 1.0;" width="10" x="1582" y="818.7891"/><rect fill="#FFFFFF" filter="url(#f1)" height="14.1328" style="stroke: #A80036; stroke-width: 1.0;" width="10" x="1696.5" y="847.9219"/><rect fill="#FFFFFF" filter="url(#f1)" height="14.1328" style="stroke: #A80036; stroke-width: 1.0;" width="10" x="1795.5" y="948.1875"/><rect fill="#FFFFFF" filter="url(#f1)" height="802.4609" style="stroke: #000000; stroke-width: 2.0;" width="1856.5" x="13" y="286.3906"/><rect fill="#FFFFFF" filter="url(#f1)" height="394" style="stroke: #000000; stroke-width: 2.0;" width="1499.5" x="23" y="382.7891"/><rect fill="#FFFFFF" filter="url(#f1)" height="103.3984" style="stroke: #000000; stroke-width: 2.0;" width="1479.5" x="33" y="579.4531"/><rect fill="#FFFFFF" height="86.9375" style="stroke: none; stroke-width: 1.0;" width="1499.5" x="23" y="689.8516"/><rect fill="#FFFFFF" height="60.2656" style="stroke: none; stroke-width: 1.0;" width="1856.5" x="13" y="1028.5859"/><line style="stroke: #A80036; stroke-width: 1.0; stroke-dasharray: 5.0,5.0;" x1="99" x2="99" y1="68.5938" y2="1105.8516"/><line style="stroke: #A80036; stroke-width: 1.0; stroke-dasharray: 5.0,5.0;" x1="260" x2="260" y1="68.5938" y2="1105.8516"/><line style="stroke: #A80036; stroke-width: 1.0; stroke-dasharray: 5.0,5.0;" x1="450" x2="450" y1="68.5938" y2="1105.8516"/><line style="stroke: #A80036; stroke-width: 1.0; stroke-dasharray: 5.0,5.0;" x1="835.5" x2="835.5" y1="68.5938" y2="1105.8516"/><line style="stroke: #A80036; stroke-width: 1.0; stroke-dasharray: 5.0,5.0;" x1="1100" x2="1100" y1="68.5938" y2="1105.8516"/><line style="stroke: #A80036; stroke-width: 1.0; stroke-dasharray: 5.0,5.0;" x1="1429.5" x2="1429.5" y1="68.5938" y2="1105.8516"/><line style="stroke: #A80036; stroke-width: 1.0; stroke-dasharray: 5.0,5.0;" x1="1586.5" x2="1586.5" y1="68.5938" y2="1105.8516"/><line style="stroke: #A80036; stroke-width: 1.0; stroke-dasharray: 5.0,5.0;" x1="1701.5" x2="1701.5" y1="68.5938" y2="1105.8516"/><line style="stroke: #A80036; stroke-width: 1.0; stroke-dasharray: 5.0,5.0;" x1="1800.5" x2="1800.5" y1="68.5938" y2="1105.8516"/><rect fill="#FEFECE" filter="url(#f1)" height="30.2969" style="stroke: #A80036; stroke-width: 1.5;" width="108" x="43" y="33.2969"/><text fill="#000000" font-family="sans-serif" font-size="14" lengthAdjust="spacingAndGlyphs" textLength="94" x="50" y="53.292">TaxiDriverApp</text><rect fill="#FEFECE" filter="url(#f1)" height="30.2969" style="stroke: #A80036; stroke-width: 1.5;" width="108" x="43" y="1104.8516"/><text fill="#000000" font-family="sans-serif" font-size="14" lengthAdjust="spacingAndGlyphs" textLength="94" x="50" y="1124.8467">TaxiDriverApp</text><rect fill="#FEFECE" filter="url(#f1)" height="30.2969" style="stroke: #A80036; stroke-width: 1.5;" width="187" x="165" y="33.2969"/><text fill="#000000" font-family="sans-serif" font-size="14" lengthAdjust="spacingAndGlyphs" textLength="173" x="172" y="53.292">RemoteServicesInterface</text><rect fill="#FEFECE" filter="url(#f1)" height="30.2969" style="stroke: #A80036; stroke-width: 1.5;" width="187" x="165" y="1104.8516"/><text fill="#000000" font-family="sans-serif" font-size="14" lengthAdjust="spacingAndGlyphs" textLength="173" x="172" y="1124.8467">RemoteServicesInterface</text><rect fill="#FEFECE" filter="url(#f1)" height="30.2969" style="stroke: #A80036; stroke-width: 1.5;" width="164" x="366" y="33.2969"/><text fill="#000000" font-family="sans-serif" font-size="14" lengthAdjust="spacingAndGlyphs" textLength="150" x="373" y="53.292">RequestManagement</text><rect fill="#FEFECE" filter="url(#f1)" height="30.2969" style="stroke: #A80036; stroke-width: 1.5;" width="164" x="366" y="1104.8516"/><text fill="#000000" font-family="sans-serif" font-size="14" lengthAdjust="spacingAndGlyphs" textLength="150" x="373" y="1124.8467">RequestManagement</text><rect fill="#FEFECE" filter="url(#f1)" height="30.2969" style="stroke: #A80036; stroke-width: 1.5;" width="163" x="752.5" y="33.2969"/><text fill="#000000" font-family="sans-serif" font-size="14" lengthAdjust="spacingAndGlyphs" textLength="149" x="759.5" y="53.292">LocationManagement</text><rect fill="#FEFECE" filter="url(#f1)" height="30.2969" style="stroke: #A80036; stroke-width: 1.5;" width="163" x="752.5" y="1104.8516"/><text fill="#000000" font-family="sans-serif" font-size="14" lengthAdjust="spacingAndGlyphs" textLength="149" x="759.5" y="1124.8467">LocationManagement</text><rect fill="#FEFECE" filter="url(#f1)" height="30.2969" style="stroke: #A80036; stroke-width: 1.5;" width="132" x="1032" y="33.2969"/><text fill="#000000" font-family="sans-serif" font-size="14" lengthAdjust="spacingAndGlyphs" textLength="118" x="1039" y="53.292">TaxiManagement</text><rect fill="#FEFECE" filter="url(#f1)" height="30.2969" style="stroke: #A80036; stroke-width: 1.5;" width="132" x="1032" y="1104.8516"/><text fill="#000000" font-family="sans-serif" font-size="14" lengthAdjust="spacingAndGlyphs" textLength="118" x="1039" y="1124.8467">TaxiManagement</text><rect fill="#FEFECE" filter="url(#f1)" height="30.2969" style="stroke: #A80036; stroke-width: 1.5;" width="141" x="1357.5" y="33.2969"/><text fill="#000000" font-family="sans-serif" font-size="14" lengthAdjust="spacingAndGlyphs" textLength="127" x="1364.5" y="53.292">NotificationSystem</text><rect fill="#FEFECE" filter="url(#f1)" height="30.2969" style="stroke: #A80036; stroke-width: 1.5;" width="141" x="1357.5" y="1104.8516"/><text fill="#000000" font-family="sans-serif" font-size="14" lengthAdjust="spacingAndGlyphs" textLength="127" x="1364.5" y="1124.8467">NotificationSystem</text><rect fill="#FEFECE" filter="url(#f1)" height="30.2969" style="stroke: #A80036; stroke-width: 1.5;" width="145" x="1512.5" y="33.2969"/><text fill="#000000" font-family="sans-serif" font-size="14" lengthAdjust="spacingAndGlyphs" textLength="131" x="1519.5" y="53.292">DataAccessUtilities</text><rect fill="#FEFECE" filter="url(#f1)" height="30.2969" style="stroke: #A80036; stroke-width: 1.5;" width="145" x="1512.5" y="1104.8516"/><text fill="#000000" font-family="sans-serif" font-size="14" lengthAdjust="spacingAndGlyphs" textLength="131" x="1519.5" y="1124.8467">DataAccessUtilities</text><rect fill="#FEFECE" filter="url(#f1)" height="30.2969" style="stroke: #A80036; stroke-width: 1.5;" width="56" x="1671.5" y="33.2969"/><text fill="#000000" font-family="sans-serif" font-size="14" lengthAdjust="spacingAndGlyphs" textLength="42" x="1678.5" y="53.292">DBMS</text><rect fill="#FEFECE" filter="url(#f1)" height="30.2969" style="stroke: #A80036; stroke-width: 1.5;" width="56" x="1671.5" y="1104.8516"/><text fill="#000000" font-family="sans-serif" font-size="14" lengthAdjust="spacingAndGlyphs" textLength="42" x="1678.5" y="1124.8467">DBMS</text><rect fill="#FEFECE" filter="url(#f1)" height="30.2969" style="stroke: #A80036; stroke-width: 1.5;" width="114" x="1741.5" y="33.2969"/><text fill="#000000" font-family="sans-serif" font-size="14" lengthAdjust="spacingAndGlyphs" textLength="100" x="1748.5" y="53.292">PassangerApp</text><rect fill="#FEFECE" filter="url(#f1)" height="30.2969" style="stroke: #A80036; stroke-width: 1.5;" width="114" x="1741.5" y="1104.8516"/><text fill="#000000" font-family="sans-serif" font-size="14" lengthAdjust="spacingAndGlyphs" textLength="100" x="1748.5" y="1124.8467">PassangerApp</text><rect fill="#FFFFFF" filter="url(#f1)" height="1017.2578" style="stroke: #A80036; stroke-width: 1.0;" width="10" x="94" y="78.5938"/><rect fill="#FFFFFF" filter="url(#f1)" height="14.1328" style="stroke: #A80036; stroke-width: 1.0;" width="10" x="99" y="660.7188"/><rect fill="#FFFFFF" filter="url(#f1)" height="996.2578" style="stroke: #A80036; stroke-width: 1.0;" width="10" x="255.5" y="99.5938"/><rect fill="#FFFFFF" filter="url(#f1)" height="967.125" style="stroke: #A80036; stroke-width: 1.0;" width="10" x="445" y="128.7266"/><rect fill="#FFFFFF" filter="url(#f1)" height="29.1328" style="stroke: #A80036; stroke-width: 1.0;" width="10" x="831" y="242.125"/><rect fill="#FFFFFF" filter="url(#f1)" height="14.1328" style="stroke: #A80036; stroke-width: 1.0;" width="10" x="831" y="353.6563"/><rect fill="#FFFFFF" filter="url(#f1)" height="29.1328" style="stroke: #A80036; stroke-width: 1.0;" width="10" x="831" y="493.0547"/><rect fill="#FFFFFF" filter="url(#f1)" height="365.3281" style="stroke: #A80036; stroke-width: 1.0;" width="10" x="1095" y="324.5234"/><rect fill="#FFFFFF" filter="url(#f1)" height="28" style="stroke: #A80036; stroke-width: 1.0;" width="10" x="1100" y="428.9219"/><rect fill="#FFFFFF" filter="url(#f1)" height="28" style="stroke: #A80036; stroke-width: 1.0;" width="10" x="1095" y="733.6563"/><rect fill="#FFFFFF" filter="url(#f1)" height="57.2656" style="stroke: #A80036; stroke-width: 1.0;" width="10" x="1425" y="617.5859"/><rect fill="#FFFFFF" filter="url(#f1)" height="57.2656" style="stroke: #A80036; stroke-width: 1.0;" width="10" x="1425" y="905.0547"/><rect fill="#FFFFFF" filter="url(#f1)" height="57.2656" style="stroke: #A80036; stroke-width: 1.0;" width="10" x="1582" y="818.7891"/><rect fill="#FFFFFF" filter="url(#f1)" height="14.1328" style="stroke: #A80036; stroke-width: 1.0;" width="10" x="1696.5" y="847.9219"/><rect fill="#FFFFFF" filter="url(#f1)" height="14.1328" style="stroke: #A80036; stroke-width: 1.0;" width="10" x="1795.5" y="948.1875"/><polygon fill="#A80036" points="243.5,95.5938,253.5,99.5938,243.5,103.5938,247.5,99.5938" style="stroke: #A80036; stroke-width: 1.0;"/><line style="stroke: #A80036; stroke-width: 1.0;" x1="104" x2="249.5" y1="99.5938" y2="99.5938"/><text fill="#000000" font-family="sans-serif" font-size="13" lengthAdjust="spacingAndGlyphs" textLength="125" x="111" y="94.6606">dropRequest(taxiId)</text><polygon fill="#A80036" points="433,124.7266,443,128.7266,433,132.7266,437,128.7266" style="stroke: #A80036; stroke-width: 1.0;"/><line style="stroke: #A80036; stroke-width: 1.0;" x1="265.5" x2="439" y1="128.7266" y2="128.7266"/><text fill="#000000" font-family="sans-serif" font-size="13" lengthAdjust="spacingAndGlyphs" textLength="125" x="272.5" y="123.7935">dropRequest(taxiId)</text><line style="stroke: #A80036; stroke-width: 1.0;" x1="455" x2="497" y1="157.9922" y2="157.9922"/><line style="stroke: #A80036; stroke-width: 1.0;" x1="497" x2="497" y1="157.9922" y2="170.9922"/><line style="stroke: #A80036; stroke-width: 1.0;" x1="456" x2="497" y1="170.9922" y2="170.9922"/><polygon fill="#A80036" points="466,166.9922,456,170.9922,466,174.9922,462,170.9922" style="stroke: #A80036; stroke-width: 1.0;"/><text fill="#000000" font-family="sans-serif" font-size="13" lengthAdjust="spacingAndGlyphs" textLength="162" x="462" y="152.9263">getRequestForTaxi(taxiId)</text><line style="stroke: #A80036; stroke-width: 1.0;" x1="455" x2="497" y1="200.125" y2="200.125"/><line style="stroke: #A80036; stroke-width: 1.0;" x1="497" x2="497" y1="200.125" y2="213.125"/><line style="stroke: #A80036; stroke-width: 1.0;" x1="456" x2="497" y1="213.125" y2="213.125"/><polygon fill="#A80036" points="466,209.125,456,213.125,466,217.125,462,213.125" style="stroke: #A80036; stroke-width: 1.0;"/><text fill="#000000" font-family="sans-serif" font-size="13" lengthAdjust="spacingAndGlyphs" textLength="235" x="462" y="195.0591">getMeetingPointForRequest(request)</text><polygon fill="#A80036" points="819,238.125,829,242.125,819,246.125,823,242.125" style="stroke: #A80036; stroke-width: 1.0;"/><line style="stroke: #A80036; stroke-width: 1.0;" x1="455" x2="825" y1="242.125" y2="242.125"/><text fill="#000000" font-family="sans-serif" font-size="13" lengthAdjust="spacingAndGlyphs" textLength="357" x="462" y="237.1919">checkTaxiDriverLocation(currentLocation, meetingPoint)</text><polygon fill="#A80036" points="466,267.2578,456,271.2578,466,275.2578,462,271.2578" style="stroke: #A80036; stroke-width: 1.0;"/><line style="stroke: #A80036; stroke-width: 1.0; stroke-dasharray: 2.0,2.0;" x1="460" x2="835" y1="271.2578" y2="271.2578"/><text fill="#000000" font-family="sans-serif" font-size="13" lengthAdjust="spacingAndGlyphs" textLength="36" x="472" y="266.3247">result</text><rect fill="none" height="802.4609" style="stroke: #000000; stroke-width: 2.0;" width="1856.5" x="13" y="286.3906"/><polygon fill="#EEEEEE" points="13,286.3906,77,286.3906,77,293.3906,67,303.3906,13,303.3906,13,286.3906" style="stroke: #000000; stroke-width: 2.0;"/><text fill="#000000" font-family="sans-serif" font-size="13" font-weight="bold" lengthAdjust="spacingAndGlyphs" textLength="19" x="28" y="299.4575">alt</text><text fill="#000000" font-family="sans-serif" font-size="11" font-weight="bold" lengthAdjust="spacingAndGlyphs" textLength="295" x="92" y="298.6011">[taxi driver has reached the meeting location]</text><polygon fill="#A80036" points="1083,320.5234,1093,324.5234,1083,328.5234,1087,324.5234" style="stroke: #A80036; stroke-width: 1.0;"/><line style="stroke: #A80036; stroke-width: 1.0;" x1="455" x2="1089" y1="324.5234" y2="324.5234"/><text fill="#000000" font-family="sans-serif" font-size="13" lengthAdjust="spacingAndGlyphs" textLength="212" x="462" y="319.5903">taxiDriverDroppedRequest(taxiId)</text><polygon fill="#A80036" points="852,349.6563,842,353.6563,852,357.6563,848,353.6563" style="stroke: #A80036; stroke-width: 1.0;"/><line style="stroke: #A80036; stroke-width: 1.0;" x1="846" x2="1094" y1="353.6563" y2="353.6563"/><text fill="#000000" font-family="sans-serif" font-size="13" lengthAdjust="spacingAndGlyphs" textLength="235" x="858" y="348.7231">isLocationInsideCity(currentLocation)</text><polygon fill="#A80036" points="1083,363.7891,1093,367.7891,1083,371.7891,1087,367.7891" style="stroke: #A80036; stroke-width: 1.0;"/><line style="stroke: #A80036; stroke-width: 1.0; stroke-dasharray: 2.0,2.0;" x1="836" x2="1089" y1="367.7891" y2="367.7891"/><rect fill="none" height="394" style="stroke: #000000; stroke-width: 2.0;" width="1499.5" x="23" y="382.7891"/><polygon fill="#EEEEEE" points="23,382.7891,87,382.7891,87,389.7891,77,399.7891,23,399.7891,23,382.7891" style="stroke: #000000; stroke-width: 2.0;"/><text fill="#000000" font-family="sans-serif" font-size="13" font-weight="bold" lengthAdjust="spacingAndGlyphs" textLength="19" x="38" y="395.856">alt</text><text fill="#000000" font-family="sans-serif" font-size="11" font-weight="bold" lengthAdjust="spacingAndGlyphs" textLength="118" x="102" y="394.9995">[taxi driver inside]</text><line style="stroke: #A80036; stroke-width: 1.0;" x1="1110" x2="1152" y1="421.0547" y2="421.0547"/><line style="stroke: #A80036; stroke-width: 1.0;" x1="1152" x2="1152" y1="421.0547" y2="434.0547"/><line style="stroke: #A80036; stroke-width: 1.0;" x1="1111" x2="1152" y1="434.0547" y2="434.0547"/><polygon fill="#A80036" points="1121,430.0547,1111,434.0547,1121,438.0547,1117,434.0547" style="stroke: #A80036; stroke-width: 1.0;"/><text fill="#000000" font-family="sans-serif" font-size="13" lengthAdjust="spacingAndGlyphs" textLength="121" x="1117" y="415.9888">setAvailable(taxiId)</text><polygon fill="#A80036" points="852,489.0547,842,493.0547,852,497.0547,848,493.0547" style="stroke: #A80036; stroke-width: 1.0;"/><line style="stroke: #A80036; stroke-width: 1.0;" x1="846" x2="1094" y1="493.0547" y2="493.0547"/><text fill="#000000" font-family="sans-serif" font-size="13" lengthAdjust="spacingAndGlyphs" textLength="165" x="858" y="488.1216">getZone(currentLocation)</text><polygon fill="#A80036" points="1083,518.1875,1093,522.1875,1083,526.1875,1087,522.1875" style="stroke: #A80036; stroke-width: 1.0;"/><line style="stroke: #A80036; stroke-width: 1.0; stroke-dasharray: 2.0,2.0;" x1="836" x2="1089" y1="522.1875" y2="522.1875"/><text fill="#000000" font-family="sans-serif" font-size="13" lengthAdjust="spacingAndGlyphs" textLength="31" x="843" y="517.2544">zone</text><line style="stroke: #A80036; stroke-width: 1.0;" x1="1105" x2="1147" y1="551.4531" y2="551.4531"/><line style="stroke: #A80036; stroke-width: 1.0;" x1="1147" x2="1147" y1="551.4531" y2="564.4531"/><line style="stroke: #A80036; stroke-width: 1.0;" x1="1106" x2="1147" y1="564.4531" y2="564.4531"/><polygon fill="#A80036" points="1116,560.4531,1106,564.4531,1116,568.4531,1112,564.4531" style="stroke: #A80036; stroke-width: 1.0;"/><text fill="#000000" font-family="sans-serif" font-size="13" lengthAdjust="spacingAndGlyphs" textLength="139" x="1112" y="546.3872">enqueue(zone, taxiId)</text><rect fill="none" height="103.3984" style="stroke: #000000; stroke-width: 2.0;" width="1479.5" x="33" y="579.4531"/><polygon fill="#EEEEEE" points="33,579.4531,110,579.4531,110,586.4531,100,596.4531,33,596.4531,33,579.4531" style="stroke: #000000; stroke-width: 2.0;"/><text fill="#000000" font-family="sans-serif" font-size="13" font-weight="bold" lengthAdjust="spacingAndGlyphs" textLength="32" x="48" y="592.52">loop</text><text fill="#000000" font-family="sans-serif" font-size="11" font-weight="bold" lengthAdjust="spacingAndGlyphs" textLength="212" x="125" y="591.6636">[for all taxi driver in zone queue]</text><line style="stroke: #A80036; stroke-width: 1.0;" x1="1423" x2="1413" y1="617.5859" y2="613.5859"/><line style="stroke: #A80036; stroke-width: 1.0;" x1="1423" x2="1413" y1="617.5859" y2="621.5859"/><line style="stroke: #A80036; stroke-width: 1.0;" x1="1105" x2="1424" y1="617.5859" y2="617.5859"/><text fill="#000000" font-family="sans-serif" font-size="13" lengthAdjust="spacingAndGlyphs" textLength="301" x="1112" y="612.6528">notifyQueueUpdate(taxiId, position, queueSize)</text><line style="stroke: #A80036; stroke-width: 1.0;" x1="1105" x2="1115" y1="631.7188" y2="627.7188"/><line style="stroke: #A80036; stroke-width: 1.0;" x1="1105" x2="1115" y1="631.7188" y2="635.7188"/><line style="stroke: #A80036; stroke-width: 1.0; stroke-dasharray: 2.0,2.0;" x1="1105" x2="1424" y1="631.7188" y2="631.7188"/><line style="stroke: #A80036; stroke-width: 1.0;" x1="109" x2="119" y1="660.7188" y2="656.7188"/><line style="stroke: #A80036; stroke-width: 1.0;" x1="109" x2="119" y1="660.7188" y2="664.7188"/><line style="stroke: #A80036; stroke-width: 1.0;" x1="109" x2="1424" y1="660.7188" y2="660.7188"/><text fill="#000000" font-family="sans-serif" font-size="13" lengthAdjust="spacingAndGlyphs" textLength="301" x="126" y="655.7856">notifyQueueUpdate(taxiId, position, queueSize)</text><line style="stroke: #A80036; stroke-width: 1.0;" x1="1428" x2="1418" y1="674.8516" y2="670.8516"/><line style="stroke: #A80036; stroke-width: 1.0;" x1="1428" x2="1418" y1="674.8516" y2="678.8516"/><line style="stroke: #A80036; stroke-width: 1.0; stroke-dasharray: 2.0,2.0;" x1="104" x2="1429" y1="674.8516" y2="674.8516"/><line style="stroke: #000000; stroke-width: 1.0; stroke-dasharray: 2.0,2.0;" x1="23" x2="1522.5" y1="690.8516" y2="690.8516"/><text fill="#000000" font-family="sans-serif" font-size="11" font-weight="bold" lengthAdjust="spacingAndGlyphs" textLength="154" x="28" y="701.062">[taxi driver outside city]</text><line style="stroke: #A80036; stroke-width: 1.0;" x1="1105" x2="1147" y1="725.7891" y2="725.7891"/><line style="stroke: #A80036; stroke-width: 1.0;" x1="1147" x2="1147" y1="725.7891" y2="738.7891"/><line style="stroke: #A80036; stroke-width: 1.0;" x1="1106" x2="1147" y1="738.7891" y2="738.7891"/><polygon fill="#A80036" points="1116,734.7891,1106,738.7891,1116,742.7891,1112,738.7891" style="stroke: #A80036; stroke-width: 1.0;"/><text fill="#000000" font-family="sans-serif" font-size="13" lengthAdjust="spacingAndGlyphs" textLength="137" x="1112" y="720.7231">setOutsideCity(taxiId)</text><polygon fill="#A80036" points="466,785.7891,456,789.7891,466,793.7891,462,789.7891" style="stroke: #A80036; stroke-width: 1.0;"/><line style="stroke: #A80036; stroke-width: 1.0; stroke-dasharray: 2.0,2.0;" x1="460" x2="1099" y1="789.7891" y2="789.7891"/><polygon fill="#A80036" points="1570,814.7891,1580,818.7891,1570,822.7891,1574,818.7891" style="stroke: #A80036; stroke-width: 1.0;"/><line style="stroke: #A80036; stroke-width: 1.0;" x1="455" x2="1576" y1="818.7891" y2="818.7891"/><text fill="#000000" font-family="sans-serif" font-size="13" lengthAdjust="spacingAndGlyphs" textLength="67" x="462" y="813.856">update(...)</text><polygon fill="#A80036" points="1684.5,843.9219,1694.5,847.9219,1684.5,851.9219,1688.5,847.9219" style="stroke: #A80036; stroke-width: 1.0;"/><line style="stroke: #A80036; stroke-width: 1.0;" x1="1592" x2="1690.5" y1="847.9219" y2="847.9219"/><text fill="#000000" font-family="sans-serif" font-size="13" lengthAdjust="spacingAndGlyphs" textLength="67" x="1599" y="842.9888">update(...)</text><polygon fill="#A80036" points="1603,858.0547,1593,862.0547,1603,866.0547,1599,862.0547" style="stroke: #A80036; stroke-width: 1.0;"/><line style="stroke: #A80036; stroke-width: 1.0; stroke-dasharray: 2.0,2.0;" x1="1597" x2="1700.5" y1="862.0547" y2="862.0547"/><polygon fill="#A80036" points="466,872.0547,456,876.0547,466,880.0547,462,876.0547" style="stroke: #A80036; stroke-width: 1.0;"/><line style="stroke: #A80036; stroke-width: 1.0; stroke-dasharray: 2.0,2.0;" x1="460" x2="1586" y1="876.0547" y2="876.0547"/><line style="stroke: #A80036; stroke-width: 1.0;" x1="1423" x2="1413" y1="905.0547" y2="901.0547"/><line style="stroke: #A80036; stroke-width: 1.0;" x1="1423" x2="1413" y1="905.0547" y2="909.0547"/><line style="stroke: #A80036; stroke-width: 1.0;" x1="455" x2="1424" y1="905.0547" y2="905.0547"/><text fill="#000000" font-family="sans-serif" font-size="13" lengthAdjust="spacingAndGlyphs" textLength="201" x="462" y="900.1216">notifyCallDropped(passengerId)</text><line style="stroke: #A80036; stroke-width: 1.0;" x1="455" x2="465" y1="919.1875" y2="915.1875"/><line style="stroke: #A80036; stroke-width: 1.0;" x1="455" x2="465" y1="919.1875" y2="923.1875"/><line style="stroke: #A80036; stroke-width: 1.0; stroke-dasharray: 2.0,2.0;" x1="455" x2="1424" y1="919.1875" y2="919.1875"/><line style="stroke: #A80036; stroke-width: 1.0;" x1="1793.5" x2="1783.5" y1="948.1875" y2="944.1875"/><line style="stroke: #A80036; stroke-width: 1.0;" x1="1793.5" x2="1783.5" y1="948.1875" y2="952.1875"/><line style="stroke: #A80036; stroke-width: 1.0;" x1="1435" x2="1794.5" y1="948.1875" y2="948.1875"/><text fill="#000000" font-family="sans-serif" font-size="13" lengthAdjust="spacingAndGlyphs" textLength="201" x="1442" y="943.2544">notifyCallDropped(passengerId)</text><line style="stroke: #A80036; stroke-width: 1.0;" x1="1430" x2="1440" y1="962.3203" y2="958.3203"/><line style="stroke: #A80036; stroke-width: 1.0;" x1="1430" x2="1440" y1="962.3203" y2="966.3203"/><line style="stroke: #A80036; stroke-width: 1.0; stroke-dasharray: 2.0,2.0;" x1="1430" x2="1799.5" y1="962.3203" y2="962.3203"/><polygon fill="#A80036" points="276.5,987.3203,266.5,991.3203,276.5,995.3203,272.5,991.3203" style="stroke: #A80036; stroke-width: 1.0;"/><line style="stroke: #A80036; stroke-width: 1.0; stroke-dasharray: 2.0,2.0;" x1="270.5" x2="444" y1="991.3203" y2="991.3203"/><text fill="#000000" font-family="sans-serif" font-size="13" lengthAdjust="spacingAndGlyphs" textLength="15" x="282.5" y="986.3872">ok</text><polygon fill="#A80036" points="115,1016.4531,105,1020.4531,115,1024.4531,111,1020.4531" style="stroke: #A80036; stroke-width: 1.0;"/><line style="stroke: #A80036; stroke-width: 1.0; stroke-dasharray: 2.0,2.0;" x1="109" x2="254.5" y1="1020.4531" y2="1020.4531"/><text fill="#000000" font-family="sans-serif" font-size="13" lengthAdjust="spacingAndGlyphs" textLength="15" x="121" y="1015.52">ok</text><line style="stroke: #000000; stroke-width: 1.0; stroke-dasharray: 2.0,2.0;" x1="13" x2="1869.5" y1="1029.5859" y2="1029.5859"/><polygon fill="#A80036" points="276.5,1047.5859,266.5,1051.5859,276.5,1055.5859,272.5,1051.5859" style="stroke: #A80036; stroke-width: 1.0;"/><line style="stroke: #A80036; stroke-width: 1.0; stroke-dasharray: 2.0,2.0;" x1="270.5" x2="444" y1="1051.5859" y2="1051.5859"/><text fill="#000000" font-family="sans-serif" font-size="13" lengthAdjust="spacingAndGlyphs" textLength="69" x="282.5" y="1046.6528">notAllowed</text><polygon fill="#A80036" points="115,1076.7188,105,1080.7188,115,1084.7188,111,1080.7188" style="stroke: #A80036; stroke-width: 1.0;"/><line style="stroke: #A80036; stroke-width: 1.0; stroke-dasharray: 2.0,2.0;" x1="109" x2="254.5" y1="1080.7188" y2="1080.7188"/><text fill="#000000" font-family="sans-serif" font-size="13" lengthAdjust="spacingAndGlyphs" textLength="69" x="121" y="1075.7856">notAllowed</text></g></svg>