<?xml version="1.0" encoding="UTF-8" standalone="yes"?><svg xmlns="http://www.w3.org/2000/svg" xmlns:xlink="http://www.w3.org/1999/xlink" height="1056px" style="width:1689px;height:1056px;" version="1.1" viewBox="0 0 1689 1056" width="1689px"><defs><filter height="300%" id="f1" width="300%" x="-1" y="-1"><feGaussianBlur result="blurOut" stdDeviation="2.0"/><feColorMatrix in="blurOut" result="blurOut2" type="matrix" values="0 0 0 0 0 0 0 0 0 0 0 0 0 0 0 0 0 0 .4 0"/><feOffset dx="4.0" dy="4.0" in="blurOut2" result="blurOut3"/><feBlend in="SourceGraphic" in2="blurOut3" mode="normal"/></filter></defs><g><text fill="#000000" font-family="sans-serif" font-size="14" font-weight="bold" lengthAdjust="spacingAndGlyphs" textLength="96" x="798.75" y="22.9951">sd_drop_call</text><rect fill="#FFFFFF" filter="url(#f1)" height="929.8594" style="stroke: #A80036; stroke-width: 1.0;" width="10" x="74" y="78.5938"/><rect fill="#FFFFFF" filter="url(#f1)" height="908.8594" style="stroke: #A80036; stroke-width: 1.0;" width="10" x="235.5" y="99.5938"/><rect fill="#FFFFFF" filter="url(#f1)" height="879.7266" style="stroke: #A80036; stroke-width: 1.0;" width="10" x="425" y="128.7266"/><rect fill="#FFFFFF" filter="url(#f1)" height="29.1328" style="stroke: #A80036; stroke-width: 1.0;" width="10" x="811" y="242.125"/><rect fill="#FFFFFF" filter="url(#f1)" height="14.1328" style="stroke: #A80036; stroke-width: 1.0;" width="10" x="811" y="353.6563"/><rect fill="#FFFFFF" filter="url(#f1)" height="29.1328" style="stroke: #A80036; stroke-width: 1.0;" width="10" x="811" y="493.0547"/><rect fill="#FFFFFF" filter="url(#f1)" height="683.9297" style="stroke: #A80036; stroke-width: 1.0;" width="10" x="1075" y="324.5234"/><rect fill="#FFFFFF" filter="url(#f1)" height="28" style="stroke: #A80036; stroke-width: 1.0;" width="10" x="1080" y="428.9219"/><rect fill="#FFFFFF" filter="url(#f1)" height="28" style="stroke: #A80036; stroke-width: 1.0;" width="10" x="1080" y="559.3203"/><rect fill="#FFFFFF" filter="url(#f1)" height="28" style="stroke: #A80036; stroke-width: 1.0;" width="10" x="1080" y="646.2578"/><rect fill="#FFFFFF" filter="url(#f1)" height="57.2656" style="stroke: #A80036; stroke-width: 1.0;" width="10" x="1238" y="731.3906"/><rect fill="#FFFFFF" filter="url(#f1)" height="14.1328" style="stroke: #A80036; stroke-width: 1.0;" width="10" x="1352.5" y="760.5234"/><rect fill="#FFFFFF" filter="url(#f1)" height="57.2656" style="stroke: #A80036; stroke-width: 1.0;" width="10" x="1465" y="817.6563"/><rect fill="#FFFFFF" filter="url(#f1)" height="14.1328" style="stroke: #A80036; stroke-width: 1.0;" width="10" x="1606.5" y="860.7891"/><rect fill="#FFFFFF" filter="url(#f1)" height="715.0625" style="stroke: #000000; stroke-width: 2.0;" width="1667.5" x="13" y="286.3906"/><rect fill="#FFFFFF" filter="url(#f1)" height="306.6016" style="stroke: #000000; stroke-width: 2.0;" width="525.5" x="722.5" y="382.7891"/><rect fill="#FFFFFF" height="86.9375" style="stroke: none; stroke-width: 1.0;" width="525.5" x="722.5" y="602.4531"/><rect fill="#FFFFFF" height="60.2656" style="stroke: none; stroke-width: 1.0;" width="1667.5" x="13" y="941.1875"/><line style="stroke: #A80036; stroke-width: 1.0; stroke-dasharray: 5.0,5.0;" x1="79" x2="79" y1="68.5938" y2="1018.4531"/><line style="stroke: #A80036; stroke-width: 1.0; stroke-dasharray: 5.0,5.0;" x1="240" x2="240" y1="68.5938" y2="1018.4531"/><line style="stroke: #A80036; stroke-width: 1.0; stroke-dasharray: 5.0,5.0;" x1="430" x2="430" y1="68.5938" y2="1018.4531"/><line style="stroke: #A80036; stroke-width: 1.0; stroke-dasharray: 5.0,5.0;" x1="815.5" x2="815.5" y1="68.5938" y2="1018.4531"/><line style="stroke: #A80036; stroke-width: 1.0; stroke-dasharray: 5.0,5.0;" x1="1080" x2="1080" y1="68.5938" y2="1018.4531"/><line style="stroke: #A80036; stroke-width: 1.0; stroke-dasharray: 5.0,5.0;" x1="1242.5" x2="1242.5" y1="68.5938" y2="1018.4531"/><line style="stroke: #A80036; stroke-width: 1.0; stroke-dasharray: 5.0,5.0;" x1="1357.5" x2="1357.5" y1="68.5938" y2="1018.4531"/><line style="stroke: #A80036; stroke-width: 1.0; stroke-dasharray: 5.0,5.0;" x1="1469.5" x2="1469.5" y1="68.5938" y2="1018.4531"/><line style="stroke: #A80036; stroke-width: 1.0; stroke-dasharray: 5.0,5.0;" x1="1611.5" x2="1611.5" y1="68.5938" y2="1018.4531"/><rect fill="#FEFECE" filter="url(#f1)" height="30.2969" style="stroke: #A80036; stroke-width: 1.5;" width="108" x="23" y="33.2969"/><text fill="#000000" font-family="sans-serif" font-size="14" lengthAdjust="spacingAndGlyphs" textLength="94" x="30" y="53.292">TaxiDriverApp</text><rect fill="#FEFECE" filter="url(#f1)" height="30.2969" style="stroke: #A80036; stroke-width: 1.5;" width="108" x="23" y="1017.4531"/><text fill="#000000" font-family="sans-serif" font-size="14" lengthAdjust="spacingAndGlyphs" textLength="94" x="30" y="1037.4482">TaxiDriverApp</text><rect fill="#FEFECE" filter="url(#f1)" height="30.2969" style="stroke: #A80036; stroke-width: 1.5;" width="187" x="145" y="33.2969"/><text fill="#000000" font-family="sans-serif" font-size="14" lengthAdjust="spacingAndGlyphs" textLength="173" x="152" y="53.292">RemoteServicesInterface</text><rect fill="#FEFECE" filter="url(#f1)" height="30.2969" style="stroke: #A80036; stroke-width: 1.5;" width="187" x="145" y="1017.4531"/><text fill="#000000" font-family="sans-serif" font-size="14" lengthAdjust="spacingAndGlyphs" textLength="173" x="152" y="1037.4482">RemoteServicesInterface</text><rect fill="#FEFECE" filter="url(#f1)" height="30.2969" style="stroke: #A80036; stroke-width: 1.5;" width="164" x="346" y="33.2969"/><text fill="#000000" font-family="sans-serif" font-size="14" lengthAdjust="spacingAndGlyphs" textLength="150" x="353" y="53.292">RequestManagement</text><rect fill="#FEFECE" filter="url(#f1)" height="30.2969" style="stroke: #A80036; stroke-width: 1.5;" width="164" x="346" y="1017.4531"/><text fill="#000000" font-family="sans-serif" font-size="14" lengthAdjust="spacingAndGlyphs" textLength="150" x="353" y="1037.4482">RequestManagement</text><rect fill="#FEFECE" filter="url(#f1)" height="30.2969" style="stroke: #A80036; stroke-width: 1.5;" width="163" x="732.5" y="33.2969"/><text fill="#000000" font-family="sans-serif" font-size="14" lengthAdjust="spacingAndGlyphs" textLength="149" x="739.5" y="53.292">LocationManagement</text><rect fill="#FEFECE" filter="url(#f1)" height="30.2969" style="stroke: #A80036; stroke-width: 1.5;" width="163" x="732.5" y="1017.4531"/><text fill="#000000" font-family="sans-serif" font-size="14" lengthAdjust="spacingAndGlyphs" textLength="149" x="739.5" y="1037.4482">LocationManagement</text><rect fill="#FEFECE" filter="url(#f1)" height="30.2969" style="stroke: #A80036; stroke-width: 1.5;" width="132" x="1012" y="33.2969"/><text fill="#000000" font-family="sans-serif" font-size="14" lengthAdjust="spacingAndGlyphs" textLength="118" x="1019" y="53.292">TaxiManagement</text><rect fill="#FEFECE" filter="url(#f1)" height="30.2969" style="stroke: #A80036; stroke-width: 1.5;" width="132" x="1012" y="1017.4531"/><text fill="#000000" font-family="sans-serif" font-size="14" lengthAdjust="spacingAndGlyphs" textLength="118" x="1019" y="1037.4482">TaxiManagement</text><rect fill="#FEFECE" filter="url(#f1)" height="30.2969" style="stroke: #A80036; stroke-width: 1.5;" width="145" x="1168.5" y="33.2969"/><text fill="#000000" font-family="sans-serif" font-size="14" lengthAdjust="spacingAndGlyphs" textLength="131" x="1175.5" y="53.292">DataAccessUtilities</text><rect fill="#FEFECE" filter="url(#f1)" height="30.2969" style="stroke: #A80036; stroke-width: 1.5;" width="145" x="1168.5" y="1017.4531"/><text fill="#000000" font-family="sans-serif" font-size="14" lengthAdjust="spacingAndGlyphs" textLength="131" x="1175.5" y="1037.4482">DataAccessUtilities</text><rect fill="#FEFECE" filter="url(#f1)" height="30.2969" style="stroke: #A80036; stroke-width: 1.5;" width="56" x="1327.5" y="33.2969"/><text fill="#000000" font-family="sans-serif" font-size="14" lengthAdjust="spacingAndGlyphs" textLength="42" x="1334.5" y="53.292">DBMS</text><rect fill="#FEFECE" filter="url(#f1)" height="30.2969" style="stroke: #A80036; stroke-width: 1.5;" width="56" x="1327.5" y="1017.4531"/><text fill="#000000" font-family="sans-serif" font-size="14" lengthAdjust="spacingAndGlyphs" textLength="42" x="1334.5" y="1037.4482">DBMS</text><rect fill="#FEFECE" filter="url(#f1)" height="30.2969" style="stroke: #A80036; stroke-width: 1.5;" width="141" x="1397.5" y="33.2969"/><text fill="#000000" font-family="sans-serif" font-size="14" lengthAdjust="spacingAndGlyphs" textLength="127" x="1404.5" y="53.292">NotificationSystem</text><rect fill="#FEFECE" filter="url(#f1)" height="30.2969" style="stroke: #A80036; stroke-width: 1.5;" width="141" x="1397.5" y="1017.4531"/><text fill="#000000" font-family="sans-serif" font-size="14" lengthAdjust="spacingAndGlyphs" textLength="127" x="1404.5" y="1037.4482">NotificationSystem</text><rect fill="#FEFECE" filter="url(#f1)" height="30.2969" style="stroke: #A80036; stroke-width: 1.5;" width="114" x="1552.5" y="33.2969"/><text fill="#000000" font-family="sans-serif" font-size="14" lengthAdjust="spacingAndGlyphs" textLength="100" x="1559.5" y="53.292">PassangerApp</text><rect fill="#FEFECE" filter="url(#f1)" height="30.2969" style="stroke: #A80036; stroke-width: 1.5;" width="114" x="1552.5" y="1017.4531"/><text fill="#000000" font-family="sans-serif" font-size="14" lengthAdjust="spacingAndGlyphs" textLength="100" x="1559.5" y="1037.4482">PassangerApp</text><rect fill="#FFFFFF" filter="url(#f1)" height="929.8594" style="stroke: #A80036; stroke-width: 1.0;" width="10" x="74" y="78.5938"/><rect fill="#FFFFFF" filter="url(#f1)" height="908.8594" style="stroke: #A80036; stroke-width: 1.0;" width="10" x="235.5" y="99.5938"/><rect fill="#FFFFFF" filter="url(#f1)" height="879.7266" style="stroke: #A80036; stroke-width: 1.0;" width="10" x="425" y="128.7266"/><rect fill="#FFFFFF" filter="url(#f1)" height="29.1328" style="stroke: #A80036; stroke-width: 1.0;" width="10" x="811" y="242.125"/><rect fill="#FFFFFF" filter="url(#f1)" height="14.1328" style="stroke: #A80036; stroke-width: 1.0;" width="10" x="811" y="353.6563"/><rect fill="#FFFFFF" filter="url(#f1)" height="29.1328" style="stroke: #A80036; stroke-width: 1.0;" width="10" x="811" y="493.0547"/><rect fill="#FFFFFF" filter="url(#f1)" height="683.9297" style="stroke: #A80036; stroke-width: 1.0;" width="10" x="1075" y="324.5234"/><rect fill="#FFFFFF" filter="url(#f1)" height="28" style="stroke: #A80036; stroke-width: 1.0;" width="10" x="1080" y="428.9219"/><rect fill="#FFFFFF" filter="url(#f1)" height="28" style="stroke: #A80036; stroke-width: 1.0;" width="10" x="1080" y="559.3203"/><rect fill="#FFFFFF" filter="url(#f1)" height="28" style="stroke: #A80036; stroke-width: 1.0;" width="10" x="1080" y="646.2578"/><rect fill="#FFFFFF" filter="url(#f1)" height="57.2656" style="stroke: #A80036; stroke-width: 1.0;" width="10" x="1238" y="731.3906"/><rect fill="#FFFFFF" filter="url(#f1)" height="14.1328" style="stroke: #A80036; stroke-width: 1.0;" width="10" x="1352.5" y="760.5234"/><rect fill="#FFFFFF" filter="url(#f1)" height="57.2656" style="stroke: #A80036; stroke-width: 1.0;" width="10" x="1465" y="817.6563"/><rect fill="#FFFFFF" filter="url(#f1)" height="14.1328" style="stroke: #A80036; stroke-width: 1.0;" width="10" x="1606.5" y="860.7891"/><polygon fill="#A80036" points="223.5,95.5938,233.5,99.5938,223.5,103.5938,227.5,99.5938" style="stroke: #A80036; stroke-width: 1.0;"/><line style="stroke: #A80036; stroke-width: 1.0;" x1="84" x2="229.5" y1="99.5938" y2="99.5938"/><text fill="#000000" font-family="sans-serif" font-size="13" lengthAdjust="spacingAndGlyphs" textLength="125" x="91" y="94.6606">dropRequest(taxiId)</text><polygon fill="#A80036" points="413,124.7266,423,128.7266,413,132.7266,417,128.7266" style="stroke: #A80036; stroke-width: 1.0;"/><line style="stroke: #A80036; stroke-width: 1.0;" x1="245.5" x2="419" y1="128.7266" y2="128.7266"/><text fill="#000000" font-family="sans-serif" font-size="13" lengthAdjust="spacingAndGlyphs" textLength="125" x="252.5" y="123.7935">dropRequest(taxiId)</text><line style="stroke: #A80036; stroke-width: 1.0;" x1="435" x2="477" y1="157.9922" y2="157.9922"/><line style="stroke: #A80036; stroke-width: 1.0;" x1="477" x2="477" y1="157.9922" y2="170.9922"/><line style="stroke: #A80036; stroke-width: 1.0;" x1="436" x2="477" y1="170.9922" y2="170.9922"/><polygon fill="#A80036" points="446,166.9922,436,170.9922,446,174.9922,442,170.9922" style="stroke: #A80036; stroke-width: 1.0;"/><text fill="#000000" font-family="sans-serif" font-size="13" lengthAdjust="spacingAndGlyphs" textLength="162" x="442" y="152.9263">getRequestForTaxi(taxiId)</text><line style="stroke: #A80036; stroke-width: 1.0;" x1="435" x2="477" y1="200.125" y2="200.125"/><line style="stroke: #A80036; stroke-width: 1.0;" x1="477" x2="477" y1="200.125" y2="213.125"/><line style="stroke: #A80036; stroke-width: 1.0;" x1="436" x2="477" y1="213.125" y2="213.125"/><polygon fill="#A80036" points="446,209.125,436,213.125,446,217.125,442,213.125" style="stroke: #A80036; stroke-width: 1.0;"/><text fill="#000000" font-family="sans-serif" font-size="13" lengthAdjust="spacingAndGlyphs" textLength="235" x="442" y="195.0591">getMeetingPointForRequest(request)</text><polygon fill="#A80036" points="799,238.125,809,242.125,799,246.125,803,242.125" style="stroke: #A80036; stroke-width: 1.0;"/><line style="stroke: #A80036; stroke-width: 1.0;" x1="435" x2="805" y1="242.125" y2="242.125"/><text fill="#000000" font-family="sans-serif" font-size="13" lengthAdjust="spacingAndGlyphs" textLength="357" x="442" y="237.1919">checkTaxiDriverLocation(currentLocation, meetingPoint)</text><polygon fill="#A80036" points="446,267.2578,436,271.2578,446,275.2578,442,271.2578" style="stroke: #A80036; stroke-width: 1.0;"/><line style="stroke: #A80036; stroke-width: 1.0; stroke-dasharray: 2.0,2.0;" x1="440" x2="815" y1="271.2578" y2="271.2578"/><text fill="#000000" font-family="sans-serif" font-size="13" lengthAdjust="spacingAndGlyphs" textLength="36" x="452" y="266.3247">result</text><rect fill="none" height="715.0625" style="stroke: #000000; stroke-width: 2.0;" width="1667.5" x="13" y="286.3906"/><polygon fill="#EEEEEE" points="13,286.3906,77,286.3906,77,293.3906,67,303.3906,13,303.3906,13,286.3906" style="stroke: #000000; stroke-width: 2.0;"/><text fill="#000000" font-family="sans-serif" font-size="13" font-weight="bold" lengthAdjust="spacingAndGlyphs" textLength="19" x="28" y="299.4575">alt</text><text fill="#000000" font-family="sans-serif" font-size="11" font-weight="bold" lengthAdjust="spacingAndGlyphs" textLength="295" x="92" y="298.6011">[taxi driver has reached the meeting location]</text><polygon fill="#A80036" points="1063,320.5234,1073,324.5234,1063,328.5234,1067,324.5234" style="stroke: #A80036; stroke-width: 1.0;"/><line style="stroke: #A80036; stroke-width: 1.0;" x1="435" x2="1069" y1="324.5234" y2="324.5234"/><text fill="#000000" font-family="sans-serif" font-size="13" lengthAdjust="spacingAndGlyphs" textLength="212" x="442" y="319.5903">taxiDriverDroppedRequest(taxiId)</text><polygon fill="#A80036" points="832,349.6563,822,353.6563,832,357.6563,828,353.6563" style="stroke: #A80036; stroke-width: 1.0;"/><line style="stroke: #A80036; stroke-width: 1.0;" x1="826" x2="1074" y1="353.6563" y2="353.6563"/><text fill="#000000" font-family="sans-serif" font-size="13" lengthAdjust="spacingAndGlyphs" textLength="235" x="838" y="348.7231">isLocationInsideCity(currentLocation)</text><polygon fill="#A80036" points="1063,363.7891,1073,367.7891,1063,371.7891,1067,367.7891" style="stroke: #A80036; stroke-width: 1.0;"/><line style="stroke: #A80036; stroke-width: 1.0; stroke-dasharray: 2.0,2.0;" x1="816" x2="1069" y1="367.7891" y2="367.7891"/><rect fill="none" height="306.6016" style="stroke: #000000; stroke-width: 2.0;" width="525.5" x="722.5" y="382.7891"/><polygon fill="#EEEEEE" points="722.5,382.7891,786.5,382.7891,786.5,389.7891,776.5,399.7891,722.5,399.7891,722.5,382.7891" style="stroke: #000000; stroke-width: 2.0;"/><text fill="#000000" font-family="sans-serif" font-size="13" font-weight="bold" lengthAdjust="spacingAndGlyphs" textLength="19" x="737.5" y="395.856">alt</text><text fill="#000000" font-family="sans-serif" font-size="11" font-weight="bold" lengthAdjust="spacingAndGlyphs" textLength="118" x="801.5" y="394.9995">[taxi driver inside]</text><line style="stroke: #A80036; stroke-width: 1.0;" x1="1090" x2="1132" y1="421.0547" y2="421.0547"/><line style="stroke: #A80036; stroke-width: 1.0;" x1="1132" x2="1132" y1="421.0547" y2="434.0547"/><line style="stroke: #A80036; stroke-width: 1.0;" x1="1091" x2="1132" y1="434.0547" y2="434.0547"/><polygon fill="#A80036" points="1101,430.0547,1091,434.0547,1101,438.0547,1097,434.0547" style="stroke: #A80036; stroke-width: 1.0;"/><text fill="#000000" font-family="sans-serif" font-size="13" lengthAdjust="spacingAndGlyphs" textLength="121" x="1097" y="415.9888">setAvailable(taxiId)</text><polygon fill="#A80036" points="832,489.0547,822,493.0547,832,497.0547,828,493.0547" style="stroke: #A80036; stroke-width: 1.0;"/><line style="stroke: #A80036; stroke-width: 1.0;" x1="826" x2="1074" y1="493.0547" y2="493.0547"/><text fill="#000000" font-family="sans-serif" font-size="13" lengthAdjust="spacingAndGlyphs" textLength="165" x="838" y="488.1216">getZone(currentLocation)</text><polygon fill="#A80036" points="1063,518.1875,1073,522.1875,1063,526.1875,1067,522.1875" style="stroke: #A80036; stroke-width: 1.0;"/><line style="stroke: #A80036; stroke-width: 1.0; stroke-dasharray: 2.0,2.0;" x1="816" x2="1069" y1="522.1875" y2="522.1875"/><text fill="#000000" font-family="sans-serif" font-size="13" lengthAdjust="spacingAndGlyphs" textLength="31" x="823" y="517.2544">zone</text><line style="stroke: #A80036; stroke-width: 1.0;" x1="1090" x2="1132" y1="551.4531" y2="551.4531"/><line style="stroke: #A80036; stroke-width: 1.0;" x1="1132" x2="1132" y1="551.4531" y2="564.4531"/><line style="stroke: #A80036; stroke-width: 1.0;" x1="1091" x2="1132" y1="564.4531" y2="564.4531"/><polygon fill="#A80036" points="1101,560.4531,1091,564.4531,1101,568.4531,1097,564.4531" style="stroke: #A80036; stroke-width: 1.0;"/><text fill="#000000" font-family="sans-serif" font-size="13" lengthAdjust="spacingAndGlyphs" textLength="139" x="1097" y="546.3872">enqueue(zone, taxiId)</text><line style="stroke: #000000; stroke-width: 1.0; stroke-dasharray: 2.0,2.0;" x1="722.5" x2="1248" y1="603.4531" y2="603.4531"/><text fill="#000000" font-family="sans-serif" font-size="11" font-weight="bold" lengthAdjust="spacingAndGlyphs" textLength="154" x="727.5" y="613.6636">[taxi driver outside city]</text><line style="stroke: #A80036; stroke-width: 1.0;" x1="1090" x2="1132" y1="638.3906" y2="638.3906"/><line style="stroke: #A80036; stroke-width: 1.0;" x1="1132" x2="1132" y1="638.3906" y2="651.3906"/><line style="stroke: #A80036; stroke-width: 1.0;" x1="1091" x2="1132" y1="651.3906" y2="651.3906"/><polygon fill="#A80036" points="1101,647.3906,1091,651.3906,1101,655.3906,1097,651.3906" style="stroke: #A80036; stroke-width: 1.0;"/><text fill="#000000" font-family="sans-serif" font-size="13" lengthAdjust="spacingAndGlyphs" textLength="137" x="1097" y="633.3247">setOutsideCity(taxiId)</text><polygon fill="#A80036" points="446,698.3906,436,702.3906,446,706.3906,442,702.3906" style="stroke: #A80036; stroke-width: 1.0;"/><line style="stroke: #A80036; stroke-width: 1.0; stroke-dasharray: 2.0,2.0;" x1="440" x2="1074" y1="702.3906" y2="702.3906"/><polygon fill="#A80036" points="1226,727.3906,1236,731.3906,1226,735.3906,1230,731.3906" style="stroke: #A80036; stroke-width: 1.0;"/><line style="stroke: #A80036; stroke-width: 1.0;" x1="435" x2="1232" y1="731.3906" y2="731.3906"/><text fill="#000000" font-family="sans-serif" font-size="13" lengthAdjust="spacingAndGlyphs" textLength="67" x="442" y="726.4575">update(...)</text><polygon fill="#A80036" points="1340.5,756.5234,1350.5,760.5234,1340.5,764.5234,1344.5,760.5234" style="stroke: #A80036; stroke-width: 1.0;"/><line style="stroke: #A80036; stroke-width: 1.0;" x1="1248" x2="1346.5" y1="760.5234" y2="760.5234"/><text fill="#000000" font-family="sans-serif" font-size="13" lengthAdjust="spacingAndGlyphs" textLength="67" x="1255" y="755.5903">update(...)</text><polygon fill="#A80036" points="1259,770.6563,1249,774.6563,1259,778.6563,1255,774.6563" style="stroke: #A80036; stroke-width: 1.0;"/><line style="stroke: #A80036; stroke-width: 1.0; stroke-dasharray: 2.0,2.0;" x1="1253" x2="1356.5" y1="774.6563" y2="774.6563"/><polygon fill="#A80036" points="446,784.6563,436,788.6563,446,792.6563,442,788.6563" style="stroke: #A80036; stroke-width: 1.0;"/><line style="stroke: #A80036; stroke-width: 1.0; stroke-dasharray: 2.0,2.0;" x1="440" x2="1242" y1="788.6563" y2="788.6563"/><line style="stroke: #A80036; stroke-width: 1.0;" x1="1463" x2="1453" y1="817.6563" y2="813.6563"/><line style="stroke: #A80036; stroke-width: 1.0;" x1="1463" x2="1453" y1="817.6563" y2="821.6563"/><line style="stroke: #A80036; stroke-width: 1.0;" x1="435" x2="1464" y1="817.6563" y2="817.6563"/><text fill="#000000" font-family="sans-serif" font-size="13" lengthAdjust="spacingAndGlyphs" textLength="86" x="442" y="812.7231">callDropped()</text><line style="stroke: #A80036; stroke-width: 1.0;" x1="435" x2="445" y1="831.7891" y2="827.7891"/><line style="stroke: #A80036; stroke-width: 1.0;" x1="435" x2="445" y1="831.7891" y2="835.7891"/><line style="stroke: #A80036; stroke-width: 1.0; stroke-dasharray: 2.0,2.0;" x1="435" x2="1464" y1="831.7891" y2="831.7891"/><line style="stroke: #A80036; stroke-width: 1.0;" x1="1604.5" x2="1594.5" y1="860.7891" y2="856.7891"/><line style="stroke: #A80036; stroke-width: 1.0;" x1="1604.5" x2="1594.5" y1="860.7891" y2="864.7891"/><line style="stroke: #A80036; stroke-width: 1.0;" x1="1475" x2="1605.5" y1="860.7891" y2="860.7891"/><text fill="#000000" font-family="sans-serif" font-size="13" lengthAdjust="spacingAndGlyphs" textLength="86" x="1482" y="855.856">callDropped()</text><line style="stroke: #A80036; stroke-width: 1.0;" x1="1470" x2="1480" y1="874.9219" y2="870.9219"/><line style="stroke: #A80036; stroke-width: 1.0;" x1="1470" x2="1480" y1="874.9219" y2="878.9219"/><line style="stroke: #A80036; stroke-width: 1.0; stroke-dasharray: 2.0,2.0;" x1="1470" x2="1610.5" y1="874.9219" y2="874.9219"/><polygon fill="#A80036" points="256.5,899.9219,246.5,903.9219,256.5,907.9219,252.5,903.9219" style="stroke: #A80036; stroke-width: 1.0;"/><line style="stroke: #A80036; stroke-width: 1.0; stroke-dasharray: 2.0,2.0;" x1="250.5" x2="424" y1="903.9219" y2="903.9219"/><text fill="#000000" font-family="sans-serif" font-size="13" lengthAdjust="spacingAndGlyphs" textLength="15" x="262.5" y="898.9888">ok</text><polygon fill="#A80036" points="95,929.0547,85,933.0547,95,937.0547,91,933.0547" style="stroke: #A80036; stroke-width: 1.0;"/><line style="stroke: #A80036; stroke-width: 1.0; stroke-dasharray: 2.0,2.0;" x1="89" x2="234.5" y1="933.0547" y2="933.0547"/><text fill="#000000" font-family="sans-serif" font-size="13" lengthAdjust="spacingAndGlyphs" textLength="15" x="101" y="928.1216">ok</text><line style="stroke: #000000; stroke-width: 1.0; stroke-dasharray: 2.0,2.0;" x1="13" x2="1680.5" y1="942.1875" y2="942.1875"/><polygon fill="#A80036" points="256.5,960.1875,246.5,964.1875,256.5,968.1875,252.5,964.1875" style="stroke: #A80036; stroke-width: 1.0;"/><line style="stroke: #A80036; stroke-width: 1.0; stroke-dasharray: 2.0,2.0;" x1="250.5" x2="424" y1="964.1875" y2="964.1875"/><text fill="#000000" font-family="sans-serif" font-size="13" lengthAdjust="spacingAndGlyphs" textLength="69" x="262.5" y="959.2544">notAllowed</text><polygon fill="#A80036" points="95,989.3203,85,993.3203,95,997.3203,91,993.3203" style="stroke: #A80036; stroke-width: 1.0;"/><line style="stroke: #A80036; stroke-width: 1.0; stroke-dasharray: 2.0,2.0;" x1="89" x2="234.5" y1="993.3203" y2="993.3203"/><text fill="#000000" font-family="sans-serif" font-size="13" lengthAdjust="spacingAndGlyphs" textLength="69" x="101" y="988.3872">notAllowed</text></g></svg>