<?xml version="1.0" encoding="UTF-8" standalone="yes"?><svg xmlns="http://www.w3.org/2000/svg" xmlns:xlink="http://www.w3.org/1999/xlink" height="752px" style="width:1282px;height:752px;" version="1.1" viewBox="0 0 1282 752" width="1282px"><defs><filter height="300%" id="f1" width="300%" x="-1" y="-1"><feGaussianBlur result="blurOut" stdDeviation="2.0"/><feColorMatrix in="blurOut" result="blurOut2" type="matrix" values="0 0 0 0 0 0 0 0 0 0 0 0 0 0 0 0 0 0 .4 0"/><feOffset dx="4.0" dy="4.0" in="blurOut2" result="blurOut3"/><feBlend in="SourceGraphic" in2="blurOut3" mode="normal"/></filter></defs><g><text fill="#000000" font-family="sans-serif" font-size="14" font-weight="bold" lengthAdjust="spacingAndGlyphs" textLength="94" x="596.25" y="22.9951">sd_end_ride</text><rect fill="#FFFFFF" filter="url(#f1)" height="625.1953" style="stroke: #A80036; stroke-width: 1.0;" width="10" x="74" y="78.5938"/><rect fill="#FFFFFF" filter="url(#f1)" height="604.1953" style="stroke: #A80036; stroke-width: 1.0;" width="10" x="344" y="99.5938"/><rect fill="#FFFFFF" filter="url(#f1)" height="575.0625" style="stroke: #A80036; stroke-width: 1.0;" width="10" x="614" y="128.7266"/><rect fill="#FFFFFF" filter="url(#f1)" height="29.1328" style="stroke: #A80036; stroke-width: 1.0;" width="10" x="946" y="224.125"/><rect fill="#FFFFFF" filter="url(#f1)" height="29.1328" style="stroke: #A80036; stroke-width: 1.0;" width="10" x="946" y="348.6563"/><rect fill="#FFFFFF" filter="url(#f1)" height="57.2656" style="stroke: #A80036; stroke-width: 1.0;" width="10" x="1114" y="500.1875"/><rect fill="#FFFFFF" filter="url(#f1)" height="14.1328" style="stroke: #A80036; stroke-width: 1.0;" width="10" x="1228.5" y="529.3203"/><rect fill="#FFFFFF" filter="url(#f1)" height="510.7969" style="stroke: #000000; stroke-width: 2.0;" width="1260.5" x="13" y="185.9922"/><rect fill="#FFFFFF" filter="url(#f1)" height="203.7969" style="stroke: #000000; stroke-width: 2.0;" width="503.5" x="541" y="268.3906"/><rect fill="#FFFFFF" height="44.1328" style="stroke: none; stroke-width: 1.0;" width="503.5" x="541" y="428.0547"/><rect fill="#FFFFFF" height="73.0703" style="stroke: none; stroke-width: 1.0;" width="1260.5" x="13" y="623.7188"/><line style="stroke: #A80036; stroke-width: 1.0; stroke-dasharray: 5.0,5.0;" x1="79" x2="79" y1="68.5938" y2="713.7891"/><line style="stroke: #A80036; stroke-width: 1.0; stroke-dasharray: 5.0,5.0;" x1="348.5" x2="348.5" y1="68.5938" y2="713.7891"/><line style="stroke: #A80036; stroke-width: 1.0; stroke-dasharray: 5.0,5.0;" x1="619" x2="619" y1="68.5938" y2="713.7891"/><line style="stroke: #A80036; stroke-width: 1.0; stroke-dasharray: 5.0,5.0;" x1="950.5" x2="950.5" y1="68.5938" y2="713.7891"/><line style="stroke: #A80036; stroke-width: 1.0; stroke-dasharray: 5.0,5.0;" x1="1118.5" x2="1118.5" y1="68.5938" y2="713.7891"/><line style="stroke: #A80036; stroke-width: 1.0; stroke-dasharray: 5.0,5.0;" x1="1233.5" x2="1233.5" y1="68.5938" y2="713.7891"/><rect fill="#FEFECE" filter="url(#f1)" height="30.2969" style="stroke: #A80036; stroke-width: 1.5;" width="108" x="23" y="33.2969"/><text fill="#000000" font-family="sans-serif" font-size="14" lengthAdjust="spacingAndGlyphs" textLength="94" x="30" y="53.292">TaxiDriverApp</text><rect fill="#FEFECE" filter="url(#f1)" height="30.2969" style="stroke: #A80036; stroke-width: 1.5;" width="108" x="23" y="712.7891"/><text fill="#000000" font-family="sans-serif" font-size="14" lengthAdjust="spacingAndGlyphs" textLength="94" x="30" y="732.7842">TaxiDriverApp</text><rect fill="#FEFECE" filter="url(#f1)" height="30.2969" style="stroke: #A80036; stroke-width: 1.5;" width="187" x="253.5" y="33.2969"/><text fill="#000000" font-family="sans-serif" font-size="14" lengthAdjust="spacingAndGlyphs" textLength="173" x="260.5" y="53.292">RemoteServicesInterface</text><rect fill="#FEFECE" filter="url(#f1)" height="30.2969" style="stroke: #A80036; stroke-width: 1.5;" width="187" x="253.5" y="712.7891"/><text fill="#000000" font-family="sans-serif" font-size="14" lengthAdjust="spacingAndGlyphs" textLength="173" x="260.5" y="732.7842">RemoteServicesInterface</text><rect fill="#FEFECE" filter="url(#f1)" height="30.2969" style="stroke: #A80036; stroke-width: 1.5;" width="132" x="551" y="33.2969"/><text fill="#000000" font-family="sans-serif" font-size="14" lengthAdjust="spacingAndGlyphs" textLength="118" x="558" y="53.292">TaxiManagement</text><rect fill="#FEFECE" filter="url(#f1)" height="30.2969" style="stroke: #A80036; stroke-width: 1.5;" width="132" x="551" y="712.7891"/><text fill="#000000" font-family="sans-serif" font-size="14" lengthAdjust="spacingAndGlyphs" textLength="118" x="558" y="732.7842">TaxiManagement</text><rect fill="#FEFECE" filter="url(#f1)" height="30.2969" style="stroke: #A80036; stroke-width: 1.5;" width="163" x="867.5" y="33.2969"/><text fill="#000000" font-family="sans-serif" font-size="14" lengthAdjust="spacingAndGlyphs" textLength="149" x="874.5" y="53.292">LocationManagement</text><rect fill="#FEFECE" filter="url(#f1)" height="30.2969" style="stroke: #A80036; stroke-width: 1.5;" width="163" x="867.5" y="712.7891"/><text fill="#000000" font-family="sans-serif" font-size="14" lengthAdjust="spacingAndGlyphs" textLength="149" x="874.5" y="732.7842">LocationManagement</text><rect fill="#FEFECE" filter="url(#f1)" height="30.2969" style="stroke: #A80036; stroke-width: 1.5;" width="145" x="1044.5" y="33.2969"/><text fill="#000000" font-family="sans-serif" font-size="14" lengthAdjust="spacingAndGlyphs" textLength="131" x="1051.5" y="53.292">DataAccessUtilities</text><rect fill="#FEFECE" filter="url(#f1)" height="30.2969" style="stroke: #A80036; stroke-width: 1.5;" width="145" x="1044.5" y="712.7891"/><text fill="#000000" font-family="sans-serif" font-size="14" lengthAdjust="spacingAndGlyphs" textLength="131" x="1051.5" y="732.7842">DataAccessUtilities</text><rect fill="#FEFECE" filter="url(#f1)" height="30.2969" style="stroke: #A80036; stroke-width: 1.5;" width="56" x="1203.5" y="33.2969"/><text fill="#000000" font-family="sans-serif" font-size="14" lengthAdjust="spacingAndGlyphs" textLength="42" x="1210.5" y="53.292">DBMS</text><rect fill="#FEFECE" filter="url(#f1)" height="30.2969" style="stroke: #A80036; stroke-width: 1.5;" width="56" x="1203.5" y="712.7891"/><text fill="#000000" font-family="sans-serif" font-size="14" lengthAdjust="spacingAndGlyphs" textLength="42" x="1210.5" y="732.7842">DBMS</text><rect fill="#FFFFFF" filter="url(#f1)" height="625.1953" style="stroke: #A80036; stroke-width: 1.0;" width="10" x="74" y="78.5938"/><rect fill="#FFFFFF" filter="url(#f1)" height="604.1953" style="stroke: #A80036; stroke-width: 1.0;" width="10" x="344" y="99.5938"/><rect fill="#FFFFFF" filter="url(#f1)" height="575.0625" style="stroke: #A80036; stroke-width: 1.0;" width="10" x="614" y="128.7266"/><rect fill="#FFFFFF" filter="url(#f1)" height="29.1328" style="stroke: #A80036; stroke-width: 1.0;" width="10" x="946" y="224.125"/><rect fill="#FFFFFF" filter="url(#f1)" height="29.1328" style="stroke: #A80036; stroke-width: 1.0;" width="10" x="946" y="348.6563"/><rect fill="#FFFFFF" filter="url(#f1)" height="57.2656" style="stroke: #A80036; stroke-width: 1.0;" width="10" x="1114" y="500.1875"/><rect fill="#FFFFFF" filter="url(#f1)" height="14.1328" style="stroke: #A80036; stroke-width: 1.0;" width="10" x="1228.5" y="529.3203"/><polygon fill="#A80036" points="332,95.5938,342,99.5938,332,103.5938,336,99.5938" style="stroke: #A80036; stroke-width: 1.0;"/><line style="stroke: #A80036; stroke-width: 1.0;" x1="84" x2="338" y1="99.5938" y2="99.5938"/><text fill="#000000" font-family="sans-serif" font-size="13" lengthAdjust="spacingAndGlyphs" textLength="241" x="91" y="94.6606">endRide(taxiDriverId, currentLocation)</text><polygon fill="#A80036" points="602,124.7266,612,128.7266,602,132.7266,606,128.7266" style="stroke: #A80036; stroke-width: 1.0;"/><line style="stroke: #A80036; stroke-width: 1.0;" x1="354" x2="608" y1="128.7266" y2="128.7266"/><text fill="#000000" font-family="sans-serif" font-size="13" lengthAdjust="spacingAndGlyphs" textLength="241" x="361" y="123.7935">endRide(taxiDriverId, currentLocation)</text><line style="stroke: #A80036; stroke-width: 1.0;" x1="624" x2="666" y1="157.9922" y2="157.9922"/><line style="stroke: #A80036; stroke-width: 1.0;" x1="666" x2="666" y1="157.9922" y2="170.9922"/><line style="stroke: #A80036; stroke-width: 1.0;" x1="625" x2="666" y1="170.9922" y2="170.9922"/><polygon fill="#A80036" points="635,166.9922,625,170.9922,635,174.9922,631,170.9922" style="stroke: #A80036; stroke-width: 1.0;"/><text fill="#000000" font-family="sans-serif" font-size="13" lengthAdjust="spacingAndGlyphs" textLength="308" x="631" y="152.9263">checkEndRideFunctionalityIsAllowed(taxiDriverId)</text><rect fill="none" height="510.7969" style="stroke: #000000; stroke-width: 2.0;" width="1260.5" x="13" y="185.9922"/><polygon fill="#EEEEEE" points="13,185.9922,77,185.9922,77,192.9922,67,202.9922,13,202.9922,13,185.9922" style="stroke: #000000; stroke-width: 2.0;"/><text fill="#000000" font-family="sans-serif" font-size="13" font-weight="bold" lengthAdjust="spacingAndGlyphs" textLength="19" x="28" y="199.0591">alt</text><text fill="#000000" font-family="sans-serif" font-size="11" font-weight="bold" lengthAdjust="spacingAndGlyphs" textLength="25" x="92" y="198.2026">[ok]</text><polygon fill="#A80036" points="934,220.125,944,224.125,934,228.125,938,224.125" style="stroke: #A80036; stroke-width: 1.0;"/><line style="stroke: #A80036; stroke-width: 1.0;" x1="624" x2="940" y1="224.125" y2="224.125"/><text fill="#000000" font-family="sans-serif" font-size="13" lengthAdjust="spacingAndGlyphs" textLength="235" x="631" y="219.1919">isLocationInsideCity(currentLocation)</text><polygon fill="#A80036" points="635,249.2578,625,253.2578,635,257.2578,631,253.2578" style="stroke: #A80036; stroke-width: 1.0;"/><line style="stroke: #A80036; stroke-width: 1.0; stroke-dasharray: 2.0,2.0;" x1="629" x2="950" y1="253.2578" y2="253.2578"/><text fill="#000000" font-family="sans-serif" font-size="13" lengthAdjust="spacingAndGlyphs" textLength="36" x="641" y="248.3247">result</text><rect fill="none" height="203.7969" style="stroke: #000000; stroke-width: 2.0;" width="503.5" x="541" y="268.3906"/><polygon fill="#EEEEEE" points="541,268.3906,605,268.3906,605,275.3906,595,285.3906,541,285.3906,541,268.3906" style="stroke: #000000; stroke-width: 2.0;"/><text fill="#000000" font-family="sans-serif" font-size="13" font-weight="bold" lengthAdjust="spacingAndGlyphs" textLength="19" x="556" y="281.4575">alt</text><text fill="#000000" font-family="sans-serif" font-size="11" font-weight="bold" lengthAdjust="spacingAndGlyphs" textLength="145" x="620" y="280.6011">[taxi driver inside city]</text><line style="stroke: #A80036; stroke-width: 1.0;" x1="624" x2="666" y1="306.6563" y2="306.6563"/><line style="stroke: #A80036; stroke-width: 1.0;" x1="666" x2="666" y1="306.6563" y2="319.6563"/><line style="stroke: #A80036; stroke-width: 1.0;" x1="625" x2="666" y1="319.6563" y2="319.6563"/><polygon fill="#A80036" points="635,315.6563,625,319.6563,635,323.6563,631,319.6563" style="stroke: #A80036; stroke-width: 1.0;"/><text fill="#000000" font-family="sans-serif" font-size="13" lengthAdjust="spacingAndGlyphs" textLength="159" x="631" y="301.5903">setAvailable(taxiDriverId)</text><polygon fill="#A80036" points="934,344.6563,944,348.6563,934,352.6563,938,348.6563" style="stroke: #A80036; stroke-width: 1.0;"/><line style="stroke: #A80036; stroke-width: 1.0;" x1="624" x2="940" y1="348.6563" y2="348.6563"/><text fill="#000000" font-family="sans-serif" font-size="13" lengthAdjust="spacingAndGlyphs" textLength="165" x="631" y="343.7231">getZone(currentLocation)</text><polygon fill="#A80036" points="635,373.7891,625,377.7891,635,381.7891,631,377.7891" style="stroke: #A80036; stroke-width: 1.0;"/><line style="stroke: #A80036; stroke-width: 1.0; stroke-dasharray: 2.0,2.0;" x1="629" x2="950" y1="377.7891" y2="377.7891"/><text fill="#000000" font-family="sans-serif" font-size="13" lengthAdjust="spacingAndGlyphs" textLength="31" x="641" y="372.856">zone</text><line style="stroke: #A80036; stroke-width: 1.0;" x1="624" x2="666" y1="407.0547" y2="407.0547"/><line style="stroke: #A80036; stroke-width: 1.0;" x1="666" x2="666" y1="407.0547" y2="420.0547"/><line style="stroke: #A80036; stroke-width: 1.0;" x1="625" x2="666" y1="420.0547" y2="420.0547"/><polygon fill="#A80036" points="635,416.0547,625,420.0547,635,424.0547,631,420.0547" style="stroke: #A80036; stroke-width: 1.0;"/><text fill="#000000" font-family="sans-serif" font-size="13" lengthAdjust="spacingAndGlyphs" textLength="177" x="631" y="401.9888">dequeue(zone, taxiDriverId)</text><line style="stroke: #000000; stroke-width: 1.0; stroke-dasharray: 2.0,2.0;" x1="541" x2="1044.5" y1="429.0547" y2="429.0547"/><line style="stroke: #A80036; stroke-width: 1.0;" x1="624" x2="666" y1="451.1875" y2="451.1875"/><line style="stroke: #A80036; stroke-width: 1.0;" x1="666" x2="666" y1="451.1875" y2="464.1875"/><line style="stroke: #A80036; stroke-width: 1.0;" x1="625" x2="666" y1="464.1875" y2="464.1875"/><polygon fill="#A80036" points="635,460.1875,625,464.1875,635,468.1875,631,464.1875" style="stroke: #A80036; stroke-width: 1.0;"/><text fill="#000000" font-family="sans-serif" font-size="13" lengthAdjust="spacingAndGlyphs" textLength="175" x="631" y="446.1216">setOutsideCity(taxiDriverId)</text><polygon fill="#A80036" points="1102,496.1875,1112,500.1875,1102,504.1875,1106,500.1875" style="stroke: #A80036; stroke-width: 1.0;"/><line style="stroke: #A80036; stroke-width: 1.0;" x1="624" x2="1108" y1="500.1875" y2="500.1875"/><text fill="#000000" font-family="sans-serif" font-size="13" lengthAdjust="spacingAndGlyphs" textLength="67" x="631" y="495.2544">update(...)</text><polygon fill="#A80036" points="1216.5,525.3203,1226.5,529.3203,1216.5,533.3203,1220.5,529.3203" style="stroke: #A80036; stroke-width: 1.0;"/><line style="stroke: #A80036; stroke-width: 1.0;" x1="1124" x2="1222.5" y1="529.3203" y2="529.3203"/><text fill="#000000" font-family="sans-serif" font-size="13" lengthAdjust="spacingAndGlyphs" textLength="67" x="1131" y="524.3872">update(...)</text><polygon fill="#A80036" points="1135,539.4531,1125,543.4531,1135,547.4531,1131,543.4531" style="stroke: #A80036; stroke-width: 1.0;"/><line style="stroke: #A80036; stroke-width: 1.0; stroke-dasharray: 2.0,2.0;" x1="1129" x2="1232.5" y1="543.4531" y2="543.4531"/><polygon fill="#A80036" points="635,553.4531,625,557.4531,635,561.4531,631,557.4531" style="stroke: #A80036; stroke-width: 1.0;"/><line style="stroke: #A80036; stroke-width: 1.0; stroke-dasharray: 2.0,2.0;" x1="629" x2="1118" y1="557.4531" y2="557.4531"/><polygon fill="#A80036" points="365,582.4531,355,586.4531,365,590.4531,361,586.4531" style="stroke: #A80036; stroke-width: 1.0;"/><line style="stroke: #A80036; stroke-width: 1.0; stroke-dasharray: 2.0,2.0;" x1="359" x2="613" y1="586.4531" y2="586.4531"/><text fill="#000000" font-family="sans-serif" font-size="13" lengthAdjust="spacingAndGlyphs" textLength="15" x="371" y="581.52">ok</text><polygon fill="#A80036" points="95,611.5859,85,615.5859,95,619.5859,91,615.5859" style="stroke: #A80036; stroke-width: 1.0;"/><line style="stroke: #A80036; stroke-width: 1.0; stroke-dasharray: 2.0,2.0;" x1="89" x2="343" y1="615.5859" y2="615.5859"/><text fill="#000000" font-family="sans-serif" font-size="13" lengthAdjust="spacingAndGlyphs" textLength="15" x="101" y="610.6528">ok</text><line style="stroke: #000000; stroke-width: 1.0; stroke-dasharray: 2.0,2.0;" x1="13" x2="1273.5" y1="624.7188" y2="624.7188"/><text fill="#000000" font-family="sans-serif" font-size="11" font-weight="bold" lengthAdjust="spacingAndGlyphs" textLength="25" x="18" y="634.9292">[ko]</text><polygon fill="#A80036" points="365,655.5234,355,659.5234,365,663.5234,361,659.5234" style="stroke: #A80036; stroke-width: 1.0;"/><line style="stroke: #A80036; stroke-width: 1.0; stroke-dasharray: 2.0,2.0;" x1="359" x2="613" y1="659.5234" y2="659.5234"/><text fill="#000000" font-family="sans-serif" font-size="13" lengthAdjust="spacingAndGlyphs" textLength="69" x="371" y="654.5903">notAllowed</text><polygon fill="#A80036" points="95,684.6563,85,688.6563,95,692.6563,91,688.6563" style="stroke: #A80036; stroke-width: 1.0;"/><line style="stroke: #A80036; stroke-width: 1.0; stroke-dasharray: 2.0,2.0;" x1="89" x2="343" y1="688.6563" y2="688.6563"/><text fill="#000000" font-family="sans-serif" font-size="13" lengthAdjust="spacingAndGlyphs" textLength="69" x="101" y="683.7231">notAllowed</text></g></svg>