<?xml version="1.0" encoding="UTF-8" standalone="yes"?><svg xmlns="http://www.w3.org/2000/svg" xmlns:xlink="http://www.w3.org/1999/xlink" height="869px" style="width:1457px;height:869px;" version="1.1" viewBox="0 0 1457 869" width="1457px"><defs><filter height="300%" id="f1" width="300%" x="-1" y="-1"><feGaussianBlur result="blurOut" stdDeviation="2.0"/><feColorMatrix in="blurOut" result="blurOut2" type="matrix" values="0 0 0 0 0 0 0 0 0 0 0 0 0 0 0 0 0 0 .4 0"/><feOffset dx="4.0" dy="4.0" in="blurOut2" result="blurOut3"/><feBlend in="SourceGraphic" in2="blurOut3" mode="normal"/></filter></defs><g><text fill="#000000" font-family="sans-serif" font-size="14" font-weight="bold" lengthAdjust="spacingAndGlyphs" textLength="94" x="683.75" y="22.9951">sd_end_ride</text><rect fill="#FFFFFF" filter="url(#f1)" height="742.5938" style="stroke: #A80036; stroke-width: 1.0;" width="10" x="94" y="78.5938"/><rect fill="#FFFFFF" filter="url(#f1)" height="14.1328" style="stroke: #A80036; stroke-width: 1.0;" width="10" x="99" y="516.3203"/><rect fill="#FFFFFF" filter="url(#f1)" height="721.5938" style="stroke: #A80036; stroke-width: 1.0;" width="10" x="364" y="99.5938"/><rect fill="#FFFFFF" filter="url(#f1)" height="692.4609" style="stroke: #A80036; stroke-width: 1.0;" width="10" x="634" y="128.7266"/><rect fill="#FFFFFF" filter="url(#f1)" height="29.1328" style="stroke: #A80036; stroke-width: 1.0;" width="10" x="966" y="224.125"/><rect fill="#FFFFFF" filter="url(#f1)" height="29.1328" style="stroke: #A80036; stroke-width: 1.0;" width="10" x="966" y="348.6563"/><rect fill="#FFFFFF" filter="url(#f1)" height="57.2656" style="stroke: #A80036; stroke-width: 1.0;" width="10" x="1132" y="473.1875"/><rect fill="#FFFFFF" filter="url(#f1)" height="57.2656" style="stroke: #A80036; stroke-width: 1.0;" width="10" x="1289" y="617.5859"/><rect fill="#FFFFFF" filter="url(#f1)" height="14.1328" style="stroke: #A80036; stroke-width: 1.0;" width="10" x="1403.5" y="646.7188"/><rect fill="#FFFFFF" filter="url(#f1)" height="628.1953" style="stroke: #000000; stroke-width: 2.0;" width="1435.5" x="13" y="185.9922"/><rect fill="#FFFFFF" filter="url(#f1)" height="321.1953" style="stroke: #000000; stroke-width: 2.0;" width="1206.5" x="23" y="268.3906"/><rect fill="#FFFFFF" filter="url(#f1)" height="103.3984" style="stroke: #000000; stroke-width: 2.0;" width="1186.5" x="33" y="435.0547"/><rect fill="#FFFFFF" height="44.1328" style="stroke: none; stroke-width: 1.0;" width="1206.5" x="23" y="545.4531"/><rect fill="#FFFFFF" height="73.0703" style="stroke: none; stroke-width: 1.0;" width="1435.5" x="13" y="741.1172"/><line style="stroke: #A80036; stroke-width: 1.0; stroke-dasharray: 5.0,5.0;" x1="99" x2="99" y1="68.5938" y2="831.1875"/><line style="stroke: #A80036; stroke-width: 1.0; stroke-dasharray: 5.0,5.0;" x1="368.5" x2="368.5" y1="68.5938" y2="831.1875"/><line style="stroke: #A80036; stroke-width: 1.0; stroke-dasharray: 5.0,5.0;" x1="639" x2="639" y1="68.5938" y2="831.1875"/><line style="stroke: #A80036; stroke-width: 1.0; stroke-dasharray: 5.0,5.0;" x1="970.5" x2="970.5" y1="68.5938" y2="831.1875"/><line style="stroke: #A80036; stroke-width: 1.0; stroke-dasharray: 5.0,5.0;" x1="1136.5" x2="1136.5" y1="68.5938" y2="831.1875"/><line style="stroke: #A80036; stroke-width: 1.0; stroke-dasharray: 5.0,5.0;" x1="1293.5" x2="1293.5" y1="68.5938" y2="831.1875"/><line style="stroke: #A80036; stroke-width: 1.0; stroke-dasharray: 5.0,5.0;" x1="1408.5" x2="1408.5" y1="68.5938" y2="831.1875"/><rect fill="#FEFECE" filter="url(#f1)" height="30.2969" style="stroke: #A80036; stroke-width: 1.5;" width="108" x="43" y="33.2969"/><text fill="#000000" font-family="sans-serif" font-size="14" lengthAdjust="spacingAndGlyphs" textLength="94" x="50" y="53.292">TaxiDriverApp</text><rect fill="#FEFECE" filter="url(#f1)" height="30.2969" style="stroke: #A80036; stroke-width: 1.5;" width="108" x="43" y="830.1875"/><text fill="#000000" font-family="sans-serif" font-size="14" lengthAdjust="spacingAndGlyphs" textLength="94" x="50" y="850.1826">TaxiDriverApp</text><rect fill="#FEFECE" filter="url(#f1)" height="30.2969" style="stroke: #A80036; stroke-width: 1.5;" width="187" x="273.5" y="33.2969"/><text fill="#000000" font-family="sans-serif" font-size="14" lengthAdjust="spacingAndGlyphs" textLength="173" x="280.5" y="53.292">RemoteServicesInterface</text><rect fill="#FEFECE" filter="url(#f1)" height="30.2969" style="stroke: #A80036; stroke-width: 1.5;" width="187" x="273.5" y="830.1875"/><text fill="#000000" font-family="sans-serif" font-size="14" lengthAdjust="spacingAndGlyphs" textLength="173" x="280.5" y="850.1826">RemoteServicesInterface</text><rect fill="#FEFECE" filter="url(#f1)" height="30.2969" style="stroke: #A80036; stroke-width: 1.5;" width="132" x="571" y="33.2969"/><text fill="#000000" font-family="sans-serif" font-size="14" lengthAdjust="spacingAndGlyphs" textLength="118" x="578" y="53.292">TaxiManagement</text><rect fill="#FEFECE" filter="url(#f1)" height="30.2969" style="stroke: #A80036; stroke-width: 1.5;" width="132" x="571" y="830.1875"/><text fill="#000000" font-family="sans-serif" font-size="14" lengthAdjust="spacingAndGlyphs" textLength="118" x="578" y="850.1826">TaxiManagement</text><rect fill="#FEFECE" filter="url(#f1)" height="30.2969" style="stroke: #A80036; stroke-width: 1.5;" width="163" x="887.5" y="33.2969"/><text fill="#000000" font-family="sans-serif" font-size="14" lengthAdjust="spacingAndGlyphs" textLength="149" x="894.5" y="53.292">LocationManagement</text><rect fill="#FEFECE" filter="url(#f1)" height="30.2969" style="stroke: #A80036; stroke-width: 1.5;" width="163" x="887.5" y="830.1875"/><text fill="#000000" font-family="sans-serif" font-size="14" lengthAdjust="spacingAndGlyphs" textLength="149" x="894.5" y="850.1826">LocationManagement</text><rect fill="#FEFECE" filter="url(#f1)" height="30.2969" style="stroke: #A80036; stroke-width: 1.5;" width="141" x="1064.5" y="33.2969"/><text fill="#000000" font-family="sans-serif" font-size="14" lengthAdjust="spacingAndGlyphs" textLength="127" x="1071.5" y="53.292">NotificationSystem</text><rect fill="#FEFECE" filter="url(#f1)" height="30.2969" style="stroke: #A80036; stroke-width: 1.5;" width="141" x="1064.5" y="830.1875"/><text fill="#000000" font-family="sans-serif" font-size="14" lengthAdjust="spacingAndGlyphs" textLength="127" x="1071.5" y="850.1826">NotificationSystem</text><rect fill="#FEFECE" filter="url(#f1)" height="30.2969" style="stroke: #A80036; stroke-width: 1.5;" width="145" x="1219.5" y="33.2969"/><text fill="#000000" font-family="sans-serif" font-size="14" lengthAdjust="spacingAndGlyphs" textLength="131" x="1226.5" y="53.292">DataAccessUtilities</text><rect fill="#FEFECE" filter="url(#f1)" height="30.2969" style="stroke: #A80036; stroke-width: 1.5;" width="145" x="1219.5" y="830.1875"/><text fill="#000000" font-family="sans-serif" font-size="14" lengthAdjust="spacingAndGlyphs" textLength="131" x="1226.5" y="850.1826">DataAccessUtilities</text><rect fill="#FEFECE" filter="url(#f1)" height="30.2969" style="stroke: #A80036; stroke-width: 1.5;" width="56" x="1378.5" y="33.2969"/><text fill="#000000" font-family="sans-serif" font-size="14" lengthAdjust="spacingAndGlyphs" textLength="42" x="1385.5" y="53.292">DBMS</text><rect fill="#FEFECE" filter="url(#f1)" height="30.2969" style="stroke: #A80036; stroke-width: 1.5;" width="56" x="1378.5" y="830.1875"/><text fill="#000000" font-family="sans-serif" font-size="14" lengthAdjust="spacingAndGlyphs" textLength="42" x="1385.5" y="850.1826">DBMS</text><rect fill="#FFFFFF" filter="url(#f1)" height="742.5938" style="stroke: #A80036; stroke-width: 1.0;" width="10" x="94" y="78.5938"/><rect fill="#FFFFFF" filter="url(#f1)" height="14.1328" style="stroke: #A80036; stroke-width: 1.0;" width="10" x="99" y="516.3203"/><rect fill="#FFFFFF" filter="url(#f1)" height="721.5938" style="stroke: #A80036; stroke-width: 1.0;" width="10" x="364" y="99.5938"/><rect fill="#FFFFFF" filter="url(#f1)" height="692.4609" style="stroke: #A80036; stroke-width: 1.0;" width="10" x="634" y="128.7266"/><rect fill="#FFFFFF" filter="url(#f1)" height="29.1328" style="stroke: #A80036; stroke-width: 1.0;" width="10" x="966" y="224.125"/><rect fill="#FFFFFF" filter="url(#f1)" height="29.1328" style="stroke: #A80036; stroke-width: 1.0;" width="10" x="966" y="348.6563"/><rect fill="#FFFFFF" filter="url(#f1)" height="57.2656" style="stroke: #A80036; stroke-width: 1.0;" width="10" x="1132" y="473.1875"/><rect fill="#FFFFFF" filter="url(#f1)" height="57.2656" style="stroke: #A80036; stroke-width: 1.0;" width="10" x="1289" y="617.5859"/><rect fill="#FFFFFF" filter="url(#f1)" height="14.1328" style="stroke: #A80036; stroke-width: 1.0;" width="10" x="1403.5" y="646.7188"/><polygon fill="#A80036" points="352,95.5938,362,99.5938,352,103.5938,356,99.5938" style="stroke: #A80036; stroke-width: 1.0;"/><line style="stroke: #A80036; stroke-width: 1.0;" x1="104" x2="358" y1="99.5938" y2="99.5938"/><text fill="#000000" font-family="sans-serif" font-size="13" lengthAdjust="spacingAndGlyphs" textLength="241" x="111" y="94.6606">endRide(taxiDriverId, currentLocation)</text><polygon fill="#A80036" points="622,124.7266,632,128.7266,622,132.7266,626,128.7266" style="stroke: #A80036; stroke-width: 1.0;"/><line style="stroke: #A80036; stroke-width: 1.0;" x1="374" x2="628" y1="128.7266" y2="128.7266"/><text fill="#000000" font-family="sans-serif" font-size="13" lengthAdjust="spacingAndGlyphs" textLength="241" x="381" y="123.7935">endRide(taxiDriverId, currentLocation)</text><line style="stroke: #A80036; stroke-width: 1.0;" x1="644" x2="686" y1="157.9922" y2="157.9922"/><line style="stroke: #A80036; stroke-width: 1.0;" x1="686" x2="686" y1="157.9922" y2="170.9922"/><line style="stroke: #A80036; stroke-width: 1.0;" x1="645" x2="686" y1="170.9922" y2="170.9922"/><polygon fill="#A80036" points="655,166.9922,645,170.9922,655,174.9922,651,170.9922" style="stroke: #A80036; stroke-width: 1.0;"/><text fill="#000000" font-family="sans-serif" font-size="13" lengthAdjust="spacingAndGlyphs" textLength="308" x="651" y="152.9263">checkEndRideFunctionalityIsAllowed(taxiDriverId)</text><rect fill="none" height="628.1953" style="stroke: #000000; stroke-width: 2.0;" width="1435.5" x="13" y="185.9922"/><polygon fill="#EEEEEE" points="13,185.9922,77,185.9922,77,192.9922,67,202.9922,13,202.9922,13,185.9922" style="stroke: #000000; stroke-width: 2.0;"/><text fill="#000000" font-family="sans-serif" font-size="13" font-weight="bold" lengthAdjust="spacingAndGlyphs" textLength="19" x="28" y="199.0591">alt</text><text fill="#000000" font-family="sans-serif" font-size="11" font-weight="bold" lengthAdjust="spacingAndGlyphs" textLength="25" x="92" y="198.2026">[ok]</text><polygon fill="#A80036" points="954,220.125,964,224.125,954,228.125,958,224.125" style="stroke: #A80036; stroke-width: 1.0;"/><line style="stroke: #A80036; stroke-width: 1.0;" x1="644" x2="960" y1="224.125" y2="224.125"/><text fill="#000000" font-family="sans-serif" font-size="13" lengthAdjust="spacingAndGlyphs" textLength="235" x="651" y="219.1919">isLocationInsideCity(currentLocation)</text><polygon fill="#A80036" points="655,249.2578,645,253.2578,655,257.2578,651,253.2578" style="stroke: #A80036; stroke-width: 1.0;"/><line style="stroke: #A80036; stroke-width: 1.0; stroke-dasharray: 2.0,2.0;" x1="649" x2="970" y1="253.2578" y2="253.2578"/><text fill="#000000" font-family="sans-serif" font-size="13" lengthAdjust="spacingAndGlyphs" textLength="36" x="661" y="248.3247">result</text><rect fill="none" height="321.1953" style="stroke: #000000; stroke-width: 2.0;" width="1206.5" x="23" y="268.3906"/><polygon fill="#EEEEEE" points="23,268.3906,87,268.3906,87,275.3906,77,285.3906,23,285.3906,23,268.3906" style="stroke: #000000; stroke-width: 2.0;"/><text fill="#000000" font-family="sans-serif" font-size="13" font-weight="bold" lengthAdjust="spacingAndGlyphs" textLength="19" x="38" y="281.4575">alt</text><text fill="#000000" font-family="sans-serif" font-size="11" font-weight="bold" lengthAdjust="spacingAndGlyphs" textLength="145" x="102" y="280.6011">[taxi driver inside city]</text><line style="stroke: #A80036; stroke-width: 1.0;" x1="644" x2="686" y1="306.6563" y2="306.6563"/><line style="stroke: #A80036; stroke-width: 1.0;" x1="686" x2="686" y1="306.6563" y2="319.6563"/><line style="stroke: #A80036; stroke-width: 1.0;" x1="645" x2="686" y1="319.6563" y2="319.6563"/><polygon fill="#A80036" points="655,315.6563,645,319.6563,655,323.6563,651,319.6563" style="stroke: #A80036; stroke-width: 1.0;"/><text fill="#000000" font-family="sans-serif" font-size="13" lengthAdjust="spacingAndGlyphs" textLength="159" x="651" y="301.5903">setAvailable(taxiDriverId)</text><polygon fill="#A80036" points="954,344.6563,964,348.6563,954,352.6563,958,348.6563" style="stroke: #A80036; stroke-width: 1.0;"/><line style="stroke: #A80036; stroke-width: 1.0;" x1="644" x2="960" y1="348.6563" y2="348.6563"/><text fill="#000000" font-family="sans-serif" font-size="13" lengthAdjust="spacingAndGlyphs" textLength="165" x="651" y="343.7231">getZone(currentLocation)</text><polygon fill="#A80036" points="655,373.7891,645,377.7891,655,381.7891,651,377.7891" style="stroke: #A80036; stroke-width: 1.0;"/><line style="stroke: #A80036; stroke-width: 1.0; stroke-dasharray: 2.0,2.0;" x1="649" x2="970" y1="377.7891" y2="377.7891"/><text fill="#000000" font-family="sans-serif" font-size="13" lengthAdjust="spacingAndGlyphs" textLength="31" x="661" y="372.856">zone</text><line style="stroke: #A80036; stroke-width: 1.0;" x1="644" x2="686" y1="407.0547" y2="407.0547"/><line style="stroke: #A80036; stroke-width: 1.0;" x1="686" x2="686" y1="407.0547" y2="420.0547"/><line style="stroke: #A80036; stroke-width: 1.0;" x1="645" x2="686" y1="420.0547" y2="420.0547"/><polygon fill="#A80036" points="655,416.0547,645,420.0547,655,424.0547,651,420.0547" style="stroke: #A80036; stroke-width: 1.0;"/><text fill="#000000" font-family="sans-serif" font-size="13" lengthAdjust="spacingAndGlyphs" textLength="177" x="651" y="401.9888">enqueue(zone, taxiDriverId)</text><rect fill="none" height="103.3984" style="stroke: #000000; stroke-width: 2.0;" width="1186.5" x="33" y="435.0547"/><polygon fill="#EEEEEE" points="33,435.0547,110,435.0547,110,442.0547,100,452.0547,33,452.0547,33,435.0547" style="stroke: #000000; stroke-width: 2.0;"/><text fill="#000000" font-family="sans-serif" font-size="13" font-weight="bold" lengthAdjust="spacingAndGlyphs" textLength="32" x="48" y="448.1216">loop</text><text fill="#000000" font-family="sans-serif" font-size="11" font-weight="bold" lengthAdjust="spacingAndGlyphs" textLength="212" x="125" y="447.2651">[for all taxi driver in zone queue]</text><line style="stroke: #A80036; stroke-width: 1.0;" x1="1130" x2="1120" y1="473.1875" y2="469.1875"/><line style="stroke: #A80036; stroke-width: 1.0;" x1="1130" x2="1120" y1="473.1875" y2="477.1875"/><line style="stroke: #A80036; stroke-width: 1.0;" x1="644" x2="1131" y1="473.1875" y2="473.1875"/><text fill="#000000" font-family="sans-serif" font-size="13" lengthAdjust="spacingAndGlyphs" textLength="301" x="651" y="468.2544">notifyQueueUpdate(taxiId, position, queueSize)</text><line style="stroke: #A80036; stroke-width: 1.0;" x1="644" x2="654" y1="487.3203" y2="483.3203"/><line style="stroke: #A80036; stroke-width: 1.0;" x1="644" x2="654" y1="487.3203" y2="491.3203"/><line style="stroke: #A80036; stroke-width: 1.0; stroke-dasharray: 2.0,2.0;" x1="644" x2="1131" y1="487.3203" y2="487.3203"/><line style="stroke: #A80036; stroke-width: 1.0;" x1="109" x2="119" y1="516.3203" y2="512.3203"/><line style="stroke: #A80036; stroke-width: 1.0;" x1="109" x2="119" y1="516.3203" y2="520.3203"/><line style="stroke: #A80036; stroke-width: 1.0;" x1="109" x2="1131" y1="516.3203" y2="516.3203"/><text fill="#000000" font-family="sans-serif" font-size="13" lengthAdjust="spacingAndGlyphs" textLength="301" x="126" y="511.3872">notifyQueueUpdate(taxiId, position, queueSize)</text><line style="stroke: #A80036; stroke-width: 1.0;" x1="1135" x2="1125" y1="530.4531" y2="526.4531"/><line style="stroke: #A80036; stroke-width: 1.0;" x1="1135" x2="1125" y1="530.4531" y2="534.4531"/><line style="stroke: #A80036; stroke-width: 1.0; stroke-dasharray: 2.0,2.0;" x1="104" x2="1136" y1="530.4531" y2="530.4531"/><line style="stroke: #000000; stroke-width: 1.0; stroke-dasharray: 2.0,2.0;" x1="23" x2="1229.5" y1="546.4531" y2="546.4531"/><line style="stroke: #A80036; stroke-width: 1.0;" x1="644" x2="686" y1="568.5859" y2="568.5859"/><line style="stroke: #A80036; stroke-width: 1.0;" x1="686" x2="686" y1="568.5859" y2="581.5859"/><line style="stroke: #A80036; stroke-width: 1.0;" x1="645" x2="686" y1="581.5859" y2="581.5859"/><polygon fill="#A80036" points="655,577.5859,645,581.5859,655,585.5859,651,581.5859" style="stroke: #A80036; stroke-width: 1.0;"/><text fill="#000000" font-family="sans-serif" font-size="13" lengthAdjust="spacingAndGlyphs" textLength="175" x="651" y="563.52">setOutsideCity(taxiDriverId)</text><polygon fill="#A80036" points="1277,613.5859,1287,617.5859,1277,621.5859,1281,617.5859" style="stroke: #A80036; stroke-width: 1.0;"/><line style="stroke: #A80036; stroke-width: 1.0;" x1="644" x2="1283" y1="617.5859" y2="617.5859"/><text fill="#000000" font-family="sans-serif" font-size="13" lengthAdjust="spacingAndGlyphs" textLength="67" x="651" y="612.6528">update(...)</text><polygon fill="#A80036" points="1391.5,642.7188,1401.5,646.7188,1391.5,650.7188,1395.5,646.7188" style="stroke: #A80036; stroke-width: 1.0;"/><line style="stroke: #A80036; stroke-width: 1.0;" x1="1299" x2="1397.5" y1="646.7188" y2="646.7188"/><text fill="#000000" font-family="sans-serif" font-size="13" lengthAdjust="spacingAndGlyphs" textLength="67" x="1306" y="641.7856">update(...)</text><polygon fill="#A80036" points="1310,656.8516,1300,660.8516,1310,664.8516,1306,660.8516" style="stroke: #A80036; stroke-width: 1.0;"/><line style="stroke: #A80036; stroke-width: 1.0; stroke-dasharray: 2.0,2.0;" x1="1304" x2="1407.5" y1="660.8516" y2="660.8516"/><polygon fill="#A80036" points="655,670.8516,645,674.8516,655,678.8516,651,674.8516" style="stroke: #A80036; stroke-width: 1.0;"/><line style="stroke: #A80036; stroke-width: 1.0; stroke-dasharray: 2.0,2.0;" x1="649" x2="1293" y1="674.8516" y2="674.8516"/><polygon fill="#A80036" points="385,699.8516,375,703.8516,385,707.8516,381,703.8516" style="stroke: #A80036; stroke-width: 1.0;"/><line style="stroke: #A80036; stroke-width: 1.0; stroke-dasharray: 2.0,2.0;" x1="379" x2="633" y1="703.8516" y2="703.8516"/><text fill="#000000" font-family="sans-serif" font-size="13" lengthAdjust="spacingAndGlyphs" textLength="15" x="391" y="698.9185">ok</text><polygon fill="#A80036" points="115,728.9844,105,732.9844,115,736.9844,111,732.9844" style="stroke: #A80036; stroke-width: 1.0;"/><line style="stroke: #A80036; stroke-width: 1.0; stroke-dasharray: 2.0,2.0;" x1="109" x2="363" y1="732.9844" y2="732.9844"/><text fill="#000000" font-family="sans-serif" font-size="13" lengthAdjust="spacingAndGlyphs" textLength="15" x="121" y="728.0513">ok</text><line style="stroke: #000000; stroke-width: 1.0; stroke-dasharray: 2.0,2.0;" x1="13" x2="1448.5" y1="742.1172" y2="742.1172"/><text fill="#000000" font-family="sans-serif" font-size="11" font-weight="bold" lengthAdjust="spacingAndGlyphs" textLength="25" x="18" y="752.3276">[ko]</text><polygon fill="#A80036" points="385,772.9219,375,776.9219,385,780.9219,381,776.9219" style="stroke: #A80036; stroke-width: 1.0;"/><line style="stroke: #A80036; stroke-width: 1.0; stroke-dasharray: 2.0,2.0;" x1="379" x2="633" y1="776.9219" y2="776.9219"/><text fill="#000000" font-family="sans-serif" font-size="13" lengthAdjust="spacingAndGlyphs" textLength="69" x="391" y="771.9888">notAllowed</text><polygon fill="#A80036" points="115,802.0547,105,806.0547,115,810.0547,111,806.0547" style="stroke: #A80036; stroke-width: 1.0;"/><line style="stroke: #A80036; stroke-width: 1.0; stroke-dasharray: 2.0,2.0;" x1="109" x2="363" y1="806.0547" y2="806.0547"/><text fill="#000000" font-family="sans-serif" font-size="13" lengthAdjust="spacingAndGlyphs" textLength="69" x="121" y="801.1216">notAllowed</text></g></svg>