<?xml version="1.0" encoding="UTF-8" standalone="yes"?><svg xmlns="http://www.w3.org/2000/svg" xmlns:xlink="http://www.w3.org/1999/xlink" height="432px" style="width:1351px;height:432px;" version="1.1" viewBox="0 0 1351 432" width="1351px"><defs><filter height="300%" id="f1" width="300%" x="-1" y="-1"><feGaussianBlur result="blurOut" stdDeviation="2.0"/><feColorMatrix in="blurOut" result="blurOut2" type="matrix" values="0 0 0 0 0 0 0 0 0 0 0 0 0 0 0 0 0 0 .4 0"/><feOffset dx="4.0" dy="4.0" in="blurOut2" result="blurOut3"/><feBlend in="SourceGraphic" in2="blurOut3" mode="normal"/></filter></defs><g><text fill="#000000" font-family="sans-serif" font-size="14" font-weight="bold" lengthAdjust="spacingAndGlyphs" textLength="88" x="633.5" y="22.9951">sd_request</text><rect fill="#FFFFFF" filter="url(#f1)" height="305.8672" style="stroke: #A80036; stroke-width: 1.0;" width="10" x="77.5" y="78.5938"/><rect fill="#FFFFFF" filter="url(#f1)" height="57.2656" style="stroke: #A80036; stroke-width: 1.0;" width="10" x="476.5" y="99.5938"/><rect fill="#FFFFFF" filter="url(#f1)" height="241.7344" style="stroke: #A80036; stroke-width: 1.0;" width="10" x="875.5" y="142.7266"/><rect fill="#FFFFFF" filter="url(#f1)" height="57.2656" style="stroke: #A80036; stroke-width: 1.0;" width="10" x="1254.5" y="312.1953"/><rect fill="#FFFFFF" filter="url(#f1)" height="163.4688" style="stroke: #000000; stroke-width: 2.0;" width="1329" x="13" y="213.9922"/><rect fill="#FFFFFF" height="101.0703" style="stroke: none; stroke-width: 1.0;" width="1329" x="13" y="276.3906"/><line style="stroke: #A80036; stroke-width: 1.0; stroke-dasharray: 5.0,5.0;" x1="82" x2="82" y1="68.5938" y2="394.4609"/><line style="stroke: #A80036; stroke-width: 1.0; stroke-dasharray: 5.0,5.0;" x1="481" x2="481" y1="68.5938" y2="394.4609"/><line style="stroke: #A80036; stroke-width: 1.0; stroke-dasharray: 5.0,5.0;" x1="880.5" x2="880.5" y1="68.5938" y2="394.4609"/><line style="stroke: #A80036; stroke-width: 1.0; stroke-dasharray: 5.0,5.0;" x1="1259" x2="1259" y1="68.5938" y2="394.4609"/><rect fill="#FEFECE" filter="url(#f1)" height="30.2969" style="stroke: #A80036; stroke-width: 1.5;" width="115" x="23" y="33.2969"/><text fill="#000000" font-family="sans-serif" font-size="14" lengthAdjust="spacingAndGlyphs" textLength="101" x="30" y="53.292">PassengerApp</text><rect fill="#FEFECE" filter="url(#f1)" height="30.2969" style="stroke: #A80036; stroke-width: 1.5;" width="115" x="23" y="393.4609"/><text fill="#000000" font-family="sans-serif" font-size="14" lengthAdjust="spacingAndGlyphs" textLength="101" x="30" y="413.4561">PassengerApp</text><rect fill="#FEFECE" filter="url(#f1)" height="30.2969" style="stroke: #A80036; stroke-width: 1.5;" width="179" x="390" y="33.2969"/><text fill="#000000" font-family="sans-serif" font-size="14" lengthAdjust="spacingAndGlyphs" textLength="165" x="397" y="53.292">RemoteServiceInterface</text><rect fill="#FEFECE" filter="url(#f1)" height="30.2969" style="stroke: #A80036; stroke-width: 1.5;" width="179" x="390" y="393.4609"/><text fill="#000000" font-family="sans-serif" font-size="14" lengthAdjust="spacingAndGlyphs" textLength="165" x="397" y="413.4561">RemoteServiceInterface</text><rect fill="#FEFECE" filter="url(#f1)" height="30.2969" style="stroke: #A80036; stroke-width: 1.5;" width="164" x="796.5" y="33.2969"/><text fill="#000000" font-family="sans-serif" font-size="14" lengthAdjust="spacingAndGlyphs" textLength="150" x="803.5" y="53.292">RequestManagement</text><rect fill="#FEFECE" filter="url(#f1)" height="30.2969" style="stroke: #A80036; stroke-width: 1.5;" width="164" x="796.5" y="393.4609"/><text fill="#000000" font-family="sans-serif" font-size="14" lengthAdjust="spacingAndGlyphs" textLength="150" x="803.5" y="413.4561">RequestManagement</text><rect fill="#FEFECE" filter="url(#f1)" height="30.2969" style="stroke: #A80036; stroke-width: 1.5;" width="141" x="1187" y="33.2969"/><text fill="#000000" font-family="sans-serif" font-size="14" lengthAdjust="spacingAndGlyphs" textLength="127" x="1194" y="53.292">NotificationSystem</text><rect fill="#FEFECE" filter="url(#f1)" height="30.2969" style="stroke: #A80036; stroke-width: 1.5;" width="141" x="1187" y="393.4609"/><text fill="#000000" font-family="sans-serif" font-size="14" lengthAdjust="spacingAndGlyphs" textLength="127" x="1194" y="413.4561">NotificationSystem</text><rect fill="#FFFFFF" filter="url(#f1)" height="305.8672" style="stroke: #A80036; stroke-width: 1.0;" width="10" x="77.5" y="78.5938"/><rect fill="#FFFFFF" filter="url(#f1)" height="57.2656" style="stroke: #A80036; stroke-width: 1.0;" width="10" x="476.5" y="99.5938"/><rect fill="#FFFFFF" filter="url(#f1)" height="241.7344" style="stroke: #A80036; stroke-width: 1.0;" width="10" x="875.5" y="142.7266"/><rect fill="#FFFFFF" filter="url(#f1)" height="57.2656" style="stroke: #A80036; stroke-width: 1.0;" width="10" x="1254.5" y="312.1953"/><line style="stroke: #A80036; stroke-width: 1.0;" x1="474.5" x2="464.5" y1="99.5938" y2="95.5938"/><line style="stroke: #A80036; stroke-width: 1.0;" x1="474.5" x2="464.5" y1="99.5938" y2="103.5938"/><line style="stroke: #A80036; stroke-width: 1.0;" x1="87.5" x2="475.5" y1="99.5938" y2="99.5938"/><text fill="#000000" font-family="sans-serif" font-size="13" lengthAdjust="spacingAndGlyphs" textLength="370" x="94.5" y="94.6606">requestTaxi(passengerId, passengerLocation, destination)</text><line style="stroke: #A80036; stroke-width: 1.0;" x1="87.5" x2="97.5" y1="113.7266" y2="109.7266"/><line style="stroke: #A80036; stroke-width: 1.0;" x1="87.5" x2="97.5" y1="113.7266" y2="117.7266"/><line style="stroke: #A80036; stroke-width: 1.0; stroke-dasharray: 2.0,2.0;" x1="87.5" x2="475.5" y1="113.7266" y2="113.7266"/><line style="stroke: #A80036; stroke-width: 1.0;" x1="873.5" x2="863.5" y1="142.7266" y2="138.7266"/><line style="stroke: #A80036; stroke-width: 1.0;" x1="873.5" x2="863.5" y1="142.7266" y2="146.7266"/><line style="stroke: #A80036; stroke-width: 1.0;" x1="486.5" x2="874.5" y1="142.7266" y2="142.7266"/><text fill="#000000" font-family="sans-serif" font-size="13" lengthAdjust="spacingAndGlyphs" textLength="370" x="493.5" y="137.7935">requestTaxi(passengerId, passengerLocation, destination)</text><line style="stroke: #A80036; stroke-width: 1.0;" x1="481.5" x2="491.5" y1="156.8594" y2="152.8594"/><line style="stroke: #A80036; stroke-width: 1.0;" x1="481.5" x2="491.5" y1="156.8594" y2="160.8594"/><line style="stroke: #A80036; stroke-width: 1.0; stroke-dasharray: 2.0,2.0;" x1="481.5" x2="874.5" y1="156.8594" y2="156.8594"/><line style="stroke: #A80036; stroke-width: 1.0;" x1="885.5" x2="927.5" y1="185.9922" y2="185.9922"/><line style="stroke: #A80036; stroke-width: 1.0;" x1="927.5" x2="927.5" y1="185.9922" y2="198.9922"/><line style="stroke: #A80036; stroke-width: 1.0;" x1="886.5" x2="927.5" y1="198.9922" y2="198.9922"/><polygon fill="#A80036" points="896.5,194.9922,886.5,198.9922,896.5,202.9922,892.5,198.9922" style="stroke: #A80036; stroke-width: 1.0;"/><text fill="#000000" font-family="sans-serif" font-size="13" lengthAdjust="spacingAndGlyphs" textLength="355" x="892.5" y="180.9263">checkDataConsistency(passengerLocation, destination)</text><rect fill="none" height="163.4688" style="stroke: #000000; stroke-width: 2.0;" width="1329" x="13" y="213.9922"/><polygon fill="#EEEEEE" points="13,213.9922,77,213.9922,77,220.9922,67,230.9922,13,230.9922,13,213.9922" style="stroke: #000000; stroke-width: 2.0;"/><text fill="#000000" font-family="sans-serif" font-size="13" font-weight="bold" lengthAdjust="spacingAndGlyphs" textLength="19" x="28" y="227.0591">alt</text><text fill="#000000" font-family="sans-serif" font-size="11" font-weight="bold" lengthAdjust="spacingAndGlyphs" textLength="88" x="92" y="226.2026">[correct data]</text><rect fill="#FFFFFF" filter="url(#f1)" height="40.2656" style="stroke: #000000; stroke-width: 2.0;" width="537.5" x="793.5" y="231.125"/><polygon fill="#EEEEEE" points="793.5,231.125,859.5,231.125,859.5,238.125,849.5,248.125,793.5,248.125,793.5,231.125" style="stroke: #000000; stroke-width: 2.0;"/><text fill="#000000" font-family="sans-serif" font-size="13" font-weight="bold" lengthAdjust="spacingAndGlyphs" textLength="21" x="806.5" y="245.1919">ref</text><text fill="#000000" font-family="sans-serif" font-size="13" lengthAdjust="spacingAndGlyphs" textLength="72" x="1028.25" y="264.1919">sd_allocate</text><line style="stroke: #000000; stroke-width: 1.0; stroke-dasharray: 2.0,2.0;" x1="13" x2="1342" y1="277.3906" y2="277.3906"/><text fill="#000000" font-family="sans-serif" font-size="11" font-weight="bold" lengthAdjust="spacingAndGlyphs" textLength="83" x="18" y="287.6011">[wrong data]</text><line style="stroke: #A80036; stroke-width: 1.0;" x1="1252.5" x2="1242.5" y1="312.1953" y2="308.1953"/><line style="stroke: #A80036; stroke-width: 1.0;" x1="1252.5" x2="1242.5" y1="312.1953" y2="316.1953"/><line style="stroke: #A80036; stroke-width: 1.0;" x1="885.5" x2="1253.5" y1="312.1953" y2="312.1953"/><text fill="#000000" font-family="sans-serif" font-size="13" lengthAdjust="spacingAndGlyphs" textLength="217" x="892.5" y="307.2622">notifyErrorInRequest(passengerId)</text><line style="stroke: #A80036; stroke-width: 1.0;" x1="885.5" x2="895.5" y1="326.3281" y2="322.3281"/><line style="stroke: #A80036; stroke-width: 1.0;" x1="885.5" x2="895.5" y1="326.3281" y2="330.3281"/><line style="stroke: #A80036; stroke-width: 1.0; stroke-dasharray: 2.0,2.0;" x1="885.5" x2="1253.5" y1="326.3281" y2="326.3281"/><line style="stroke: #A80036; stroke-width: 1.0;" x1="87.5" x2="97.5" y1="355.3281" y2="351.3281"/><line style="stroke: #A80036; stroke-width: 1.0;" x1="87.5" x2="97.5" y1="355.3281" y2="359.3281"/><line style="stroke: #A80036; stroke-width: 1.0;" x1="87.5" x2="1253.5" y1="355.3281" y2="355.3281"/><text fill="#000000" font-family="sans-serif" font-size="13" lengthAdjust="spacingAndGlyphs" textLength="217" x="104.5" y="350.395">notifyErrorInRequest(passengerId)</text><line style="stroke: #A80036; stroke-width: 1.0;" x1="1257.5" x2="1247.5" y1="369.4609" y2="365.4609"/><line style="stroke: #A80036; stroke-width: 1.0;" x1="1257.5" x2="1247.5" y1="369.4609" y2="373.4609"/><line style="stroke: #A80036; stroke-width: 1.0; stroke-dasharray: 2.0,2.0;" x1="87.5" x2="1258.5" y1="369.4609" y2="369.4609"/></g></svg>