<?xml version="1.0" encoding="UTF-8" standalone="yes"?><svg xmlns="http://www.w3.org/2000/svg" xmlns:xlink="http://www.w3.org/1999/xlink" height="476px" style="width:1385px;height:476px;" version="1.1" viewBox="0 0 1385 476" width="1385px"><defs><filter height="300%" id="f1" width="300%" x="-1" y="-1"><feGaussianBlur result="blurOut" stdDeviation="2.0"/><feColorMatrix in="blurOut" result="blurOut2" type="matrix" values="0 0 0 0 0 0 0 0 0 0 0 0 0 0 0 0 0 0 .4 0"/><feOffset dx="4.0" dy="4.0" in="blurOut2" result="blurOut3"/><feBlend in="SourceGraphic" in2="blurOut3" mode="normal"/></filter></defs><g><text fill="#000000" font-family="sans-serif" font-size="14" font-weight="bold" lengthAdjust="spacingAndGlyphs" textLength="88" x="650.5" y="22.9951">sd_reserve</text><rect fill="#FFFFFF" filter="url(#f1)" height="349.1328" style="stroke: #A80036; stroke-width: 1.0;" width="10" x="77.5" y="78.5938"/><rect fill="#FFFFFF" filter="url(#f1)" height="328.1328" style="stroke: #A80036; stroke-width: 1.0;" width="10" x="463.5" y="99.5938"/><rect fill="#FFFFFF" filter="url(#f1)" height="299" style="stroke: #A80036; stroke-width: 1.0;" width="10" x="849.5" y="128.7266"/><rect fill="#FFFFFF" filter="url(#f1)" height="57.2656" style="stroke: #A80036; stroke-width: 1.0;" width="10" x="1216.5" y="224.125"/><rect fill="#FFFFFF" filter="url(#f1)" height="14.1328" style="stroke: #A80036; stroke-width: 1.0;" width="10" x="1331" y="253.2578"/><rect fill="#FFFFFF" filter="url(#f1)" height="234.7344" style="stroke: #000000; stroke-width: 2.0;" width="1363" x="13" y="185.9922"/><rect fill="#FFFFFF" height="73.0703" style="stroke: none; stroke-width: 1.0;" width="1363" x="13" y="347.6563"/><line style="stroke: #A80036; stroke-width: 1.0; stroke-dasharray: 5.0,5.0;" x1="82" x2="82" y1="68.5938" y2="437.7266"/><line style="stroke: #A80036; stroke-width: 1.0; stroke-dasharray: 5.0,5.0;" x1="468" x2="468" y1="68.5938" y2="437.7266"/><line style="stroke: #A80036; stroke-width: 1.0; stroke-dasharray: 5.0,5.0;" x1="854" x2="854" y1="68.5938" y2="437.7266"/><line style="stroke: #A80036; stroke-width: 1.0; stroke-dasharray: 5.0,5.0;" x1="1221" x2="1221" y1="68.5938" y2="437.7266"/><line style="stroke: #A80036; stroke-width: 1.0; stroke-dasharray: 5.0,5.0;" x1="1336" x2="1336" y1="68.5938" y2="437.7266"/><rect fill="#FEFECE" filter="url(#f1)" height="30.2969" style="stroke: #A80036; stroke-width: 1.5;" width="115" x="23" y="33.2969"/><text fill="#000000" font-family="sans-serif" font-size="14" lengthAdjust="spacingAndGlyphs" textLength="101" x="30" y="53.292">PassengerApp</text><rect fill="#FEFECE" filter="url(#f1)" height="30.2969" style="stroke: #A80036; stroke-width: 1.5;" width="115" x="23" y="436.7266"/><text fill="#000000" font-family="sans-serif" font-size="14" lengthAdjust="spacingAndGlyphs" textLength="101" x="30" y="456.7217">PassengerApp</text><rect fill="#FEFECE" filter="url(#f1)" height="30.2969" style="stroke: #A80036; stroke-width: 1.5;" width="187" x="373" y="33.2969"/><text fill="#000000" font-family="sans-serif" font-size="14" lengthAdjust="spacingAndGlyphs" textLength="173" x="380" y="53.292">RemoteServicesInterface</text><rect fill="#FEFECE" filter="url(#f1)" height="30.2969" style="stroke: #A80036; stroke-width: 1.5;" width="187" x="373" y="436.7266"/><text fill="#000000" font-family="sans-serif" font-size="14" lengthAdjust="spacingAndGlyphs" textLength="173" x="380" y="456.7217">RemoteServicesInterface</text><rect fill="#FEFECE" filter="url(#f1)" height="30.2969" style="stroke: #A80036; stroke-width: 1.5;" width="187" x="759" y="33.2969"/><text fill="#000000" font-family="sans-serif" font-size="14" lengthAdjust="spacingAndGlyphs" textLength="173" x="766" y="53.292">ReservationManagement</text><rect fill="#FEFECE" filter="url(#f1)" height="30.2969" style="stroke: #A80036; stroke-width: 1.5;" width="187" x="759" y="436.7266"/><text fill="#000000" font-family="sans-serif" font-size="14" lengthAdjust="spacingAndGlyphs" textLength="173" x="766" y="456.7217">ReservationManagement</text><rect fill="#FEFECE" filter="url(#f1)" height="30.2969" style="stroke: #A80036; stroke-width: 1.5;" width="145" x="1147" y="33.2969"/><text fill="#000000" font-family="sans-serif" font-size="14" lengthAdjust="spacingAndGlyphs" textLength="131" x="1154" y="53.292">DataAccessUtilities</text><rect fill="#FEFECE" filter="url(#f1)" height="30.2969" style="stroke: #A80036; stroke-width: 1.5;" width="145" x="1147" y="436.7266"/><text fill="#000000" font-family="sans-serif" font-size="14" lengthAdjust="spacingAndGlyphs" textLength="131" x="1154" y="456.7217">DataAccessUtilities</text><rect fill="#FEFECE" filter="url(#f1)" height="30.2969" style="stroke: #A80036; stroke-width: 1.5;" width="56" x="1306" y="33.2969"/><text fill="#000000" font-family="sans-serif" font-size="14" lengthAdjust="spacingAndGlyphs" textLength="42" x="1313" y="53.292">DBMS</text><rect fill="#FEFECE" filter="url(#f1)" height="30.2969" style="stroke: #A80036; stroke-width: 1.5;" width="56" x="1306" y="436.7266"/><text fill="#000000" font-family="sans-serif" font-size="14" lengthAdjust="spacingAndGlyphs" textLength="42" x="1313" y="456.7217">DBMS</text><rect fill="#FFFFFF" filter="url(#f1)" height="349.1328" style="stroke: #A80036; stroke-width: 1.0;" width="10" x="77.5" y="78.5938"/><rect fill="#FFFFFF" filter="url(#f1)" height="328.1328" style="stroke: #A80036; stroke-width: 1.0;" width="10" x="463.5" y="99.5938"/><rect fill="#FFFFFF" filter="url(#f1)" height="299" style="stroke: #A80036; stroke-width: 1.0;" width="10" x="849.5" y="128.7266"/><rect fill="#FFFFFF" filter="url(#f1)" height="57.2656" style="stroke: #A80036; stroke-width: 1.0;" width="10" x="1216.5" y="224.125"/><rect fill="#FFFFFF" filter="url(#f1)" height="14.1328" style="stroke: #A80036; stroke-width: 1.0;" width="10" x="1331" y="253.2578"/><polygon fill="#A80036" points="451.5,95.5938,461.5,99.5938,451.5,103.5938,455.5,99.5938" style="stroke: #A80036; stroke-width: 1.0;"/><line style="stroke: #A80036; stroke-width: 1.0;" x1="87.5" x2="457.5" y1="99.5938" y2="99.5938"/><text fill="#000000" font-family="sans-serif" font-size="13" lengthAdjust="spacingAndGlyphs" textLength="357" x="94.5" y="94.6606">reserveTaxi(passengerId, origin, destination, date, time)</text><polygon fill="#A80036" points="837.5,124.7266,847.5,128.7266,837.5,132.7266,841.5,128.7266" style="stroke: #A80036; stroke-width: 1.0;"/><line style="stroke: #A80036; stroke-width: 1.0;" x1="473.5" x2="843.5" y1="128.7266" y2="128.7266"/><text fill="#000000" font-family="sans-serif" font-size="13" lengthAdjust="spacingAndGlyphs" textLength="357" x="480.5" y="123.7935">reserveTaxi(passengerId, origin, destination, date, time)</text><line style="stroke: #A80036; stroke-width: 1.0;" x1="859.5" x2="901.5" y1="157.9922" y2="157.9922"/><line style="stroke: #A80036; stroke-width: 1.0;" x1="901.5" x2="901.5" y1="157.9922" y2="170.9922"/><line style="stroke: #A80036; stroke-width: 1.0;" x1="860.5" x2="901.5" y1="170.9922" y2="170.9922"/><polygon fill="#A80036" points="870.5,166.9922,860.5,170.9922,870.5,174.9922,866.5,170.9922" style="stroke: #A80036; stroke-width: 1.0;"/><text fill="#000000" font-family="sans-serif" font-size="13" lengthAdjust="spacingAndGlyphs" textLength="343" x="866.5" y="152.9263">checkDataConsistency(origin, destination, date, time)</text><rect fill="none" height="234.7344" style="stroke: #000000; stroke-width: 2.0;" width="1363" x="13" y="185.9922"/><polygon fill="#EEEEEE" points="13,185.9922,77,185.9922,77,192.9922,67,202.9922,13,202.9922,13,185.9922" style="stroke: #000000; stroke-width: 2.0;"/><text fill="#000000" font-family="sans-serif" font-size="13" font-weight="bold" lengthAdjust="spacingAndGlyphs" textLength="19" x="28" y="199.0591">alt</text><text fill="#000000" font-family="sans-serif" font-size="11" font-weight="bold" lengthAdjust="spacingAndGlyphs" textLength="88" x="92" y="198.2026">[correct data]</text><polygon fill="#A80036" points="1204.5,220.125,1214.5,224.125,1204.5,228.125,1208.5,224.125" style="stroke: #A80036; stroke-width: 1.0;"/><line style="stroke: #A80036; stroke-width: 1.0;" x1="859.5" x2="1210.5" y1="224.125" y2="224.125"/><text fill="#000000" font-family="sans-serif" font-size="13" lengthAdjust="spacingAndGlyphs" textLength="220" x="866.5" y="219.1919">insertNewReservation(reservation)</text><polygon fill="#A80036" points="1319,249.2578,1329,253.2578,1319,257.2578,1323,253.2578" style="stroke: #A80036; stroke-width: 1.0;"/><line style="stroke: #A80036; stroke-width: 1.0;" x1="1226.5" x2="1325" y1="253.2578" y2="253.2578"/><text fill="#000000" font-family="sans-serif" font-size="13" lengthAdjust="spacingAndGlyphs" textLength="58" x="1233.5" y="248.3247">insert(...)</text><polygon fill="#A80036" points="1237.5,263.3906,1227.5,267.3906,1237.5,271.3906,1233.5,267.3906" style="stroke: #A80036; stroke-width: 1.0;"/><line style="stroke: #A80036; stroke-width: 1.0; stroke-dasharray: 2.0,2.0;" x1="1231.5" x2="1335" y1="267.3906" y2="267.3906"/><polygon fill="#A80036" points="870.5,277.3906,860.5,281.3906,870.5,285.3906,866.5,281.3906" style="stroke: #A80036; stroke-width: 1.0;"/><line style="stroke: #A80036; stroke-width: 1.0; stroke-dasharray: 2.0,2.0;" x1="864.5" x2="1220.5" y1="281.3906" y2="281.3906"/><polygon fill="#A80036" points="484.5,306.3906,474.5,310.3906,484.5,314.3906,480.5,310.3906" style="stroke: #A80036; stroke-width: 1.0;"/><line style="stroke: #A80036; stroke-width: 1.0; stroke-dasharray: 2.0,2.0;" x1="478.5" x2="848.5" y1="310.3906" y2="310.3906"/><text fill="#000000" font-family="sans-serif" font-size="13" lengthAdjust="spacingAndGlyphs" textLength="123" x="490.5" y="305.4575">confirmReservation</text><polygon fill="#A80036" points="98.5,335.5234,88.5,339.5234,98.5,343.5234,94.5,339.5234" style="stroke: #A80036; stroke-width: 1.0;"/><line style="stroke: #A80036; stroke-width: 1.0; stroke-dasharray: 2.0,2.0;" x1="92.5" x2="462.5" y1="339.5234" y2="339.5234"/><text fill="#000000" font-family="sans-serif" font-size="13" lengthAdjust="spacingAndGlyphs" textLength="123" x="104.5" y="334.5903">confirmReservation</text><line style="stroke: #000000; stroke-width: 1.0; stroke-dasharray: 2.0,2.0;" x1="13" x2="1376" y1="348.6563" y2="348.6563"/><text fill="#000000" font-family="sans-serif" font-size="11" font-weight="bold" lengthAdjust="spacingAndGlyphs" textLength="83" x="18" y="358.8667">[wrong data]</text><polygon fill="#A80036" points="484.5,379.4609,474.5,383.4609,484.5,387.4609,480.5,383.4609" style="stroke: #A80036; stroke-width: 1.0;"/><line style="stroke: #A80036; stroke-width: 1.0; stroke-dasharray: 2.0,2.0;" x1="478.5" x2="848.5" y1="383.4609" y2="383.4609"/><text fill="#000000" font-family="sans-serif" font-size="13" lengthAdjust="spacingAndGlyphs" textLength="117" x="490.5" y="378.5278">errorInReservation</text><polygon fill="#A80036" points="98.5,408.5938,88.5,412.5938,98.5,416.5938,94.5,412.5938" style="stroke: #A80036; stroke-width: 1.0;"/><line style="stroke: #A80036; stroke-width: 1.0; stroke-dasharray: 2.0,2.0;" x1="92.5" x2="462.5" y1="412.5938" y2="412.5938"/><text fill="#000000" font-family="sans-serif" font-size="13" lengthAdjust="spacingAndGlyphs" textLength="117" x="104.5" y="407.6606">errorInReservation</text></g></svg>