<?xml version="1.0" encoding="UTF-8" standalone="yes"?><svg xmlns="http://www.w3.org/2000/svg" xmlns:xlink="http://www.w3.org/1999/xlink" height="1498px" style="width:1284px;height:1498px;" version="1.1" viewBox="0 0 1284 1498" width="1284px"><defs><filter height="300%" id="f1" width="300%" x="-1" y="-1"><feGaussianBlur result="blurOut" stdDeviation="2.0"/><feColorMatrix in="blurOut" result="blurOut2" type="matrix" values="0 0 0 0 0 0 0 0 0 0 0 0 0 0 0 0 0 0 .4 0"/><feOffset dx="4.0" dy="4.0" in="blurOut2" result="blurOut3"/><feBlend in="SourceGraphic" in2="blurOut3" mode="normal"/></filter></defs><g><text fill="#000000" font-family="sans-serif" font-size="14" font-weight="bold" lengthAdjust="spacingAndGlyphs" textLength="76" x="606.25" y="22.9951">sd_toggle</text><rect fill="#FFFFFF" filter="url(#f1)" height="1371.7344" style="stroke: #A80036; stroke-width: 1.0;" width="10" x="163" y="78.5938"/><rect fill="#FFFFFF" filter="url(#f1)" height="1322.6016" style="stroke: #A80036; stroke-width: 1.0;" width="10" x="365" y="128.7266"/><rect fill="#FFFFFF" filter="url(#f1)" height="1292.4688" style="stroke: #A80036; stroke-width: 1.0;" width="10" x="567" y="157.8594"/><rect fill="#FFFFFF" filter="url(#f1)" height="28" style="stroke: #A80036; stroke-width: 1.0;" width="10" x="572" y="194.9922"/><rect fill="#FFFFFF" filter="url(#f1)" height="28" style="stroke: #A80036; stroke-width: 1.0;" width="10" x="572" y="291.2578"/><rect fill="#FFFFFF" filter="url(#f1)" height="28" style="stroke: #A80036; stroke-width: 1.0;" width="10" x="572" y="363.3906"/><rect fill="#FFFFFF" filter="url(#f1)" height="28" style="stroke: #A80036; stroke-width: 1.0;" width="10" x="572" y="650.8594"/><rect fill="#FFFFFF" filter="url(#f1)" height="28" style="stroke: #A80036; stroke-width: 1.0;" width="10" x="572" y="790.2578"/><rect fill="#FFFFFF" filter="url(#f1)" height="28" style="stroke: #A80036; stroke-width: 1.0;" width="10" x="572" y="1127.5313"/><rect fill="#FFFFFF" filter="url(#f1)" height="28" style="stroke: #A80036; stroke-width: 1.0;" width="10" x="572" y="1199.6641"/><rect fill="#FFFFFF" filter="url(#f1)" height="57.2656" style="stroke: #A80036; stroke-width: 1.0;" width="10" x="939" y="427.5234"/><rect fill="#FFFFFF" filter="url(#f1)" height="57.2656" style="stroke: #A80036; stroke-width: 1.0;" width="10" x="939" y="513.7891"/><rect fill="#FFFFFF" filter="url(#f1)" height="57.2656" style="stroke: #A80036; stroke-width: 1.0;" width="10" x="939" y="854.3906"/><rect fill="#FFFFFF" filter="url(#f1)" height="57.2656" style="stroke: #A80036; stroke-width: 1.0;" width="10" x="939" y="940.6563"/><rect fill="#FFFFFF" filter="url(#f1)" height="57.2656" style="stroke: #A80036; stroke-width: 1.0;" width="10" x="939" y="1263.7969"/><rect fill="#FFFFFF" filter="url(#f1)" height="57.2656" style="stroke: #A80036; stroke-width: 1.0;" width="10" x="939" y="1350.0625"/><rect fill="#FFFFFF" filter="url(#f1)" height="14.1328" style="stroke: #A80036; stroke-width: 1.0;" width="10" x="1053.5" y="456.6563"/><rect fill="#FFFFFF" filter="url(#f1)" height="14.1328" style="stroke: #A80036; stroke-width: 1.0;" width="10" x="1053.5" y="542.9219"/><rect fill="#FFFFFF" filter="url(#f1)" height="14.1328" style="stroke: #A80036; stroke-width: 1.0;" width="10" x="1053.5" y="883.5234"/><rect fill="#FFFFFF" filter="url(#f1)" height="14.1328" style="stroke: #A80036; stroke-width: 1.0;" width="10" x="1053.5" y="969.7891"/><rect fill="#FFFFFF" filter="url(#f1)" height="14.1328" style="stroke: #A80036; stroke-width: 1.0;" width="10" x="1053.5" y="1292.9297"/><rect fill="#FFFFFF" filter="url(#f1)" height="14.1328" style="stroke: #A80036; stroke-width: 1.0;" width="10" x="1053.5" y="1379.1953"/><rect fill="#FFFFFF" filter="url(#f1)" height="14.1328" style="stroke: #A80036; stroke-width: 1.0;" width="10" x="1177" y="714.9922"/><rect fill="#FFFFFF" filter="url(#f1)" height="1198.2031" style="stroke: #000000; stroke-width: 2.0;" width="1183.5" x="92" y="245.125"/><rect fill="#FFFFFF" height="476.6719" style="stroke: none; stroke-width: 1.0;" width="1183.5" x="92" y="607.0547"/><rect fill="#FFFFFF" filter="url(#f1)" height="332.6016" style="stroke: #000000; stroke-width: 2.0;" width="996.5" x="102" y="744.125"/><rect fill="#FFFFFF" height="42.8047" style="stroke: none; stroke-width: 1.0;" width="996.5" x="102" y="1033.9219"/><rect fill="#FFFFFF" height="359.6016" style="stroke: none; stroke-width: 1.0;" width="1183.5" x="92" y="1083.7266"/><line style="stroke: #A80036; stroke-width: 1.0; stroke-dasharray: 5.0,5.0;" x1="168" x2="168" y1="68.5938" y2="1460.3281"/><line style="stroke: #A80036; stroke-width: 1.0; stroke-dasharray: 5.0,5.0;" x1="369.5" x2="369.5" y1="68.5938" y2="1460.3281"/><line style="stroke: #A80036; stroke-width: 1.0; stroke-dasharray: 5.0,5.0;" x1="572" x2="572" y1="68.5938" y2="1460.3281"/><line style="stroke: #A80036; stroke-width: 1.0; stroke-dasharray: 5.0,5.0;" x1="943.5" x2="943.5" y1="68.5938" y2="1460.3281"/><line style="stroke: #A80036; stroke-width: 1.0; stroke-dasharray: 5.0,5.0;" x1="1058.5" x2="1058.5" y1="68.5938" y2="1460.3281"/><line style="stroke: #A80036; stroke-width: 1.0; stroke-dasharray: 5.0,5.0;" x1="1181.5" x2="1181.5" y1="68.5938" y2="1460.3281"/><rect fill="#FEFECE" filter="url(#f1)" height="30.2969" style="stroke: #A80036; stroke-width: 1.5;" width="108" x="112" y="33.2969"/><text fill="#000000" font-family="sans-serif" font-size="14" lengthAdjust="spacingAndGlyphs" textLength="94" x="119" y="53.292">TaxiDriverApp</text><rect fill="#FEFECE" filter="url(#f1)" height="30.2969" style="stroke: #A80036; stroke-width: 1.5;" width="108" x="112" y="1459.3281"/><text fill="#000000" font-family="sans-serif" font-size="14" lengthAdjust="spacingAndGlyphs" textLength="94" x="119" y="1479.3232">TaxiDriverApp</text><rect fill="#FEFECE" filter="url(#f1)" height="30.2969" style="stroke: #A80036; stroke-width: 1.5;" width="187" x="274.5" y="33.2969"/><text fill="#000000" font-family="sans-serif" font-size="14" lengthAdjust="spacingAndGlyphs" textLength="173" x="281.5" y="53.292">RemoteServicesInterface</text><rect fill="#FEFECE" filter="url(#f1)" height="30.2969" style="stroke: #A80036; stroke-width: 1.5;" width="187" x="274.5" y="1459.3281"/><text fill="#000000" font-family="sans-serif" font-size="14" lengthAdjust="spacingAndGlyphs" textLength="173" x="281.5" y="1479.3232">RemoteServicesInterface</text><rect fill="#FEFECE" filter="url(#f1)" height="30.2969" style="stroke: #A80036; stroke-width: 1.5;" width="132" x="504" y="33.2969"/><text fill="#000000" font-family="sans-serif" font-size="14" lengthAdjust="spacingAndGlyphs" textLength="118" x="511" y="53.292">TaxiManagement</text><rect fill="#FEFECE" filter="url(#f1)" height="30.2969" style="stroke: #A80036; stroke-width: 1.5;" width="132" x="504" y="1459.3281"/><text fill="#000000" font-family="sans-serif" font-size="14" lengthAdjust="spacingAndGlyphs" textLength="118" x="511" y="1479.3232">TaxiManagement</text><rect fill="#FEFECE" filter="url(#f1)" height="30.2969" style="stroke: #A80036; stroke-width: 1.5;" width="145" x="869.5" y="33.2969"/><text fill="#000000" font-family="sans-serif" font-size="14" lengthAdjust="spacingAndGlyphs" textLength="131" x="876.5" y="53.292">DataAccessUtilities</text><rect fill="#FEFECE" filter="url(#f1)" height="30.2969" style="stroke: #A80036; stroke-width: 1.5;" width="145" x="869.5" y="1459.3281"/><text fill="#000000" font-family="sans-serif" font-size="14" lengthAdjust="spacingAndGlyphs" textLength="131" x="876.5" y="1479.3232">DataAccessUtilities</text><rect fill="#FEFECE" filter="url(#f1)" height="30.2969" style="stroke: #A80036; stroke-width: 1.5;" width="56" x="1028.5" y="33.2969"/><text fill="#000000" font-family="sans-serif" font-size="14" lengthAdjust="spacingAndGlyphs" textLength="42" x="1035.5" y="53.292">DBMS</text><rect fill="#FEFECE" filter="url(#f1)" height="30.2969" style="stroke: #A80036; stroke-width: 1.5;" width="56" x="1028.5" y="1459.3281"/><text fill="#000000" font-family="sans-serif" font-size="14" lengthAdjust="spacingAndGlyphs" textLength="42" x="1035.5" y="1479.3232">DBMS</text><rect fill="#FEFECE" filter="url(#f1)" height="30.2969" style="stroke: #A80036; stroke-width: 1.5;" width="163" x="1098.5" y="33.2969"/><text fill="#000000" font-family="sans-serif" font-size="14" lengthAdjust="spacingAndGlyphs" textLength="149" x="1105.5" y="53.292">LocationManagement</text><rect fill="#FEFECE" filter="url(#f1)" height="30.2969" style="stroke: #A80036; stroke-width: 1.5;" width="163" x="1098.5" y="1459.3281"/><text fill="#000000" font-family="sans-serif" font-size="14" lengthAdjust="spacingAndGlyphs" textLength="149" x="1105.5" y="1479.3232">LocationManagement</text><rect fill="#FFFFFF" filter="url(#f1)" height="1371.7344" style="stroke: #A80036; stroke-width: 1.0;" width="10" x="163" y="78.5938"/><rect fill="#FFFFFF" filter="url(#f1)" height="1322.6016" style="stroke: #A80036; stroke-width: 1.0;" width="10" x="365" y="128.7266"/><rect fill="#FFFFFF" filter="url(#f1)" height="1292.4688" style="stroke: #A80036; stroke-width: 1.0;" width="10" x="567" y="157.8594"/><rect fill="#FFFFFF" filter="url(#f1)" height="28" style="stroke: #A80036; stroke-width: 1.0;" width="10" x="572" y="194.9922"/><rect fill="#FFFFFF" filter="url(#f1)" height="28" style="stroke: #A80036; stroke-width: 1.0;" width="10" x="572" y="291.2578"/><rect fill="#FFFFFF" filter="url(#f1)" height="28" style="stroke: #A80036; stroke-width: 1.0;" width="10" x="572" y="363.3906"/><rect fill="#FFFFFF" filter="url(#f1)" height="28" style="stroke: #A80036; stroke-width: 1.0;" width="10" x="572" y="650.8594"/><rect fill="#FFFFFF" filter="url(#f1)" height="28" style="stroke: #A80036; stroke-width: 1.0;" width="10" x="572" y="790.2578"/><rect fill="#FFFFFF" filter="url(#f1)" height="28" style="stroke: #A80036; stroke-width: 1.0;" width="10" x="572" y="1127.5313"/><rect fill="#FFFFFF" filter="url(#f1)" height="28" style="stroke: #A80036; stroke-width: 1.0;" width="10" x="572" y="1199.6641"/><rect fill="#FFFFFF" filter="url(#f1)" height="57.2656" style="stroke: #A80036; stroke-width: 1.0;" width="10" x="939" y="427.5234"/><rect fill="#FFFFFF" filter="url(#f1)" height="57.2656" style="stroke: #A80036; stroke-width: 1.0;" width="10" x="939" y="513.7891"/><rect fill="#FFFFFF" filter="url(#f1)" height="57.2656" style="stroke: #A80036; stroke-width: 1.0;" width="10" x="939" y="854.3906"/><rect fill="#FFFFFF" filter="url(#f1)" height="57.2656" style="stroke: #A80036; stroke-width: 1.0;" width="10" x="939" y="940.6563"/><rect fill="#FFFFFF" filter="url(#f1)" height="57.2656" style="stroke: #A80036; stroke-width: 1.0;" width="10" x="939" y="1263.7969"/><rect fill="#FFFFFF" filter="url(#f1)" height="57.2656" style="stroke: #A80036; stroke-width: 1.0;" width="10" x="939" y="1350.0625"/><rect fill="#FFFFFF" filter="url(#f1)" height="14.1328" style="stroke: #A80036; stroke-width: 1.0;" width="10" x="1053.5" y="456.6563"/><rect fill="#FFFFFF" filter="url(#f1)" height="14.1328" style="stroke: #A80036; stroke-width: 1.0;" width="10" x="1053.5" y="542.9219"/><rect fill="#FFFFFF" filter="url(#f1)" height="14.1328" style="stroke: #A80036; stroke-width: 1.0;" width="10" x="1053.5" y="883.5234"/><rect fill="#FFFFFF" filter="url(#f1)" height="14.1328" style="stroke: #A80036; stroke-width: 1.0;" width="10" x="1053.5" y="969.7891"/><rect fill="#FFFFFF" filter="url(#f1)" height="14.1328" style="stroke: #A80036; stroke-width: 1.0;" width="10" x="1053.5" y="1292.9297"/><rect fill="#FFFFFF" filter="url(#f1)" height="14.1328" style="stroke: #A80036; stroke-width: 1.0;" width="10" x="1053.5" y="1379.1953"/><rect fill="#FFFFFF" filter="url(#f1)" height="14.1328" style="stroke: #A80036; stroke-width: 1.0;" width="10" x="1177" y="714.9922"/><polygon fill="#A80036" points="151,95.5938,161,99.5938,151,103.5938,155,99.5938" style="stroke: #A80036; stroke-width: 1.0;"/><line style="stroke: #A80036; stroke-width: 1.0;" x1="3" x2="157" y1="99.5938" y2="99.5938"/><text fill="#000000" font-family="sans-serif" font-size="13" font-style="italic" lengthAdjust="spacingAndGlyphs" textLength="141" x="10" y="94.6606">toggle button pressed</text><polygon fill="#A80036" points="353,124.7266,363,128.7266,353,132.7266,357,128.7266" style="stroke: #A80036; stroke-width: 1.0;"/><line style="stroke: #A80036; stroke-width: 1.0;" x1="173" x2="359" y1="128.7266" y2="128.7266"/><text fill="#000000" font-family="sans-serif" font-size="13" lengthAdjust="spacingAndGlyphs" textLength="173" x="180" y="123.7935">togglePressed(taxiDriverId)</text><polygon fill="#A80036" points="555,153.8594,565,157.8594,555,161.8594,559,157.8594" style="stroke: #A80036; stroke-width: 1.0;"/><line style="stroke: #A80036; stroke-width: 1.0;" x1="375" x2="561" y1="157.8594" y2="157.8594"/><text fill="#000000" font-family="sans-serif" font-size="13" lengthAdjust="spacingAndGlyphs" textLength="173" x="382" y="152.9263">togglePressed(taxiDriverId)</text><line style="stroke: #A80036; stroke-width: 1.0;" x1="582" x2="624" y1="187.125" y2="187.125"/><line style="stroke: #A80036; stroke-width: 1.0;" x1="624" x2="624" y1="187.125" y2="200.125"/><line style="stroke: #A80036; stroke-width: 1.0;" x1="583" x2="624" y1="200.125" y2="200.125"/><polygon fill="#A80036" points="593,196.125,583,200.125,593,204.125,589,200.125" style="stroke: #A80036; stroke-width: 1.0;"/><text fill="#000000" font-family="sans-serif" font-size="13" lengthAdjust="spacingAndGlyphs" textLength="161" x="589" y="182.0591">checkStatus(taxiDriverId)</text><rect fill="none" height="1198.2031" style="stroke: #000000; stroke-width: 2.0;" width="1183.5" x="92" y="245.125"/><polygon fill="#EEEEEE" points="92,245.125,156,245.125,156,252.125,146,262.125,92,262.125,92,245.125" style="stroke: #000000; stroke-width: 2.0;"/><text fill="#000000" font-family="sans-serif" font-size="13" font-weight="bold" lengthAdjust="spacingAndGlyphs" textLength="19" x="107" y="258.1919">alt</text><text fill="#000000" font-family="sans-serif" font-size="11" font-weight="bold" lengthAdjust="spacingAndGlyphs" textLength="135" x="171" y="257.3354">[status == available]</text><line style="stroke: #A80036; stroke-width: 1.0;" x1="582" x2="624" y1="283.3906" y2="283.3906"/><line style="stroke: #A80036; stroke-width: 1.0;" x1="624" x2="624" y1="283.3906" y2="296.3906"/><line style="stroke: #A80036; stroke-width: 1.0;" x1="583" x2="624" y1="296.3906" y2="296.3906"/><polygon fill="#A80036" points="593,292.3906,583,296.3906,593,300.3906,589,296.3906" style="stroke: #A80036; stroke-width: 1.0;"/><text fill="#000000" font-family="sans-serif" font-size="13" lengthAdjust="spacingAndGlyphs" textLength="265" x="589" y="278.3247">removeTaxiFromZoneQueue(taxiDriverId)</text><line style="stroke: #A80036; stroke-width: 1.0;" x1="582" x2="624" y1="355.5234" y2="355.5234"/><line style="stroke: #A80036; stroke-width: 1.0;" x1="624" x2="624" y1="355.5234" y2="368.5234"/><line style="stroke: #A80036; stroke-width: 1.0;" x1="583" x2="624" y1="368.5234" y2="368.5234"/><polygon fill="#A80036" points="593,364.5234,583,368.5234,593,372.5234,589,368.5234" style="stroke: #A80036; stroke-width: 1.0;"/><text fill="#000000" font-family="sans-serif" font-size="13" lengthAdjust="spacingAndGlyphs" textLength="176" x="589" y="350.4575">setUnavailable(taxiDriverId)</text><polygon fill="#A80036" points="927,423.5234,937,427.5234,927,431.5234,931,427.5234" style="stroke: #A80036; stroke-width: 1.0;"/><line style="stroke: #A80036; stroke-width: 1.0;" x1="577" x2="933" y1="427.5234" y2="427.5234"/><text fill="#000000" font-family="sans-serif" font-size="13" lengthAdjust="spacingAndGlyphs" textLength="104" x="584" y="422.5903">updateQueues()</text><polygon fill="#A80036" points="1041.5,452.6563,1051.5,456.6563,1041.5,460.6563,1045.5,456.6563" style="stroke: #A80036; stroke-width: 1.0;"/><line style="stroke: #A80036; stroke-width: 1.0;" x1="949" x2="1047.5" y1="456.6563" y2="456.6563"/><text fill="#000000" font-family="sans-serif" font-size="13" lengthAdjust="spacingAndGlyphs" textLength="67" x="956" y="451.7231">update(...)</text><polygon fill="#A80036" points="960,466.7891,950,470.7891,960,474.7891,956,470.7891" style="stroke: #A80036; stroke-width: 1.0;"/><line style="stroke: #A80036; stroke-width: 1.0; stroke-dasharray: 2.0,2.0;" x1="954" x2="1057.5" y1="470.7891" y2="470.7891"/><polygon fill="#A80036" points="588,480.7891,578,484.7891,588,488.7891,584,484.7891" style="stroke: #A80036; stroke-width: 1.0;"/><line style="stroke: #A80036; stroke-width: 1.0; stroke-dasharray: 2.0,2.0;" x1="582" x2="943" y1="484.7891" y2="484.7891"/><polygon fill="#A80036" points="927,509.7891,937,513.7891,927,517.7891,931,513.7891" style="stroke: #A80036; stroke-width: 1.0;"/><line style="stroke: #A80036; stroke-width: 1.0;" x1="577" x2="933" y1="513.7891" y2="513.7891"/><text fill="#000000" font-family="sans-serif" font-size="13" lengthAdjust="spacingAndGlyphs" textLength="343" x="584" y="508.856">updateTaxiStatus(taxiDriverId, TaxiStatusUnavailable)</text><polygon fill="#A80036" points="1041.5,538.9219,1051.5,542.9219,1041.5,546.9219,1045.5,542.9219" style="stroke: #A80036; stroke-width: 1.0;"/><line style="stroke: #A80036; stroke-width: 1.0;" x1="949" x2="1047.5" y1="542.9219" y2="542.9219"/><text fill="#000000" font-family="sans-serif" font-size="13" lengthAdjust="spacingAndGlyphs" textLength="67" x="956" y="537.9888">update(...)</text><polygon fill="#A80036" points="960,553.0547,950,557.0547,960,561.0547,956,557.0547" style="stroke: #A80036; stroke-width: 1.0;"/><line style="stroke: #A80036; stroke-width: 1.0; stroke-dasharray: 2.0,2.0;" x1="954" x2="1057.5" y1="557.0547" y2="557.0547"/><polygon fill="#A80036" points="588,567.0547,578,571.0547,588,575.0547,584,571.0547" style="stroke: #A80036; stroke-width: 1.0;"/><line style="stroke: #A80036; stroke-width: 1.0; stroke-dasharray: 2.0,2.0;" x1="582" x2="943" y1="571.0547" y2="571.0547"/><polygon fill="#A80036" points="386,581.0547,376,585.0547,386,589.0547,382,585.0547" style="stroke: #A80036; stroke-width: 1.0;"/><line style="stroke: #A80036; stroke-width: 1.0; stroke-dasharray: 2.0,2.0;" x1="380" x2="566" y1="585.0547" y2="585.0547"/><polygon fill="#A80036" points="184,595.0547,174,599.0547,184,603.0547,180,599.0547" style="stroke: #A80036; stroke-width: 1.0;"/><line style="stroke: #A80036; stroke-width: 1.0; stroke-dasharray: 2.0,2.0;" x1="178" x2="364" y1="599.0547" y2="599.0547"/><line style="stroke: #000000; stroke-width: 1.0; stroke-dasharray: 2.0,2.0;" x1="92" x2="1275.5" y1="608.0547" y2="608.0547"/><text fill="#000000" font-family="sans-serif" font-size="11" font-weight="bold" lengthAdjust="spacingAndGlyphs" textLength="151" x="97" y="618.2651">[status == unavailable]</text><line style="stroke: #A80036; stroke-width: 1.0;" x1="582" x2="624" y1="642.9922" y2="642.9922"/><line style="stroke: #A80036; stroke-width: 1.0;" x1="624" x2="624" y1="642.9922" y2="655.9922"/><line style="stroke: #A80036; stroke-width: 1.0;" x1="583" x2="624" y1="655.9922" y2="655.9922"/><polygon fill="#A80036" points="593,651.9922,583,655.9922,593,659.9922,589,655.9922" style="stroke: #A80036; stroke-width: 1.0;"/><text fill="#000000" font-family="sans-serif" font-size="13" lengthAdjust="spacingAndGlyphs" textLength="220" x="589" y="637.9263">getTaxiDriverLocation(taxiDriverId)</text><polygon fill="#A80036" points="1165,710.9922,1175,714.9922,1165,718.9922,1169,714.9922" style="stroke: #A80036; stroke-width: 1.0;"/><line style="stroke: #A80036; stroke-width: 1.0;" x1="577" x2="1171" y1="714.9922" y2="714.9922"/><text fill="#000000" font-family="sans-serif" font-size="13" lengthAdjust="spacingAndGlyphs" textLength="235" x="584" y="710.0591">isLocationInsideCity(currentLocation)</text><polygon fill="#A80036" points="588,725.125,578,729.125,588,733.125,584,729.125" style="stroke: #A80036; stroke-width: 1.0;"/><line style="stroke: #A80036; stroke-width: 1.0; stroke-dasharray: 2.0,2.0;" x1="582" x2="1181" y1="729.125" y2="729.125"/><rect fill="none" height="332.6016" style="stroke: #000000; stroke-width: 2.0;" width="996.5" x="102" y="744.125"/><polygon fill="#EEEEEE" points="102,744.125,166,744.125,166,751.125,156,761.125,102,761.125,102,744.125" style="stroke: #000000; stroke-width: 2.0;"/><text fill="#000000" font-family="sans-serif" font-size="13" font-weight="bold" lengthAdjust="spacingAndGlyphs" textLength="19" x="117" y="757.1919">alt</text><text fill="#000000" font-family="sans-serif" font-size="11" font-weight="bold" lengthAdjust="spacingAndGlyphs" textLength="36" x="181" y="756.3354">[true]</text><line style="stroke: #A80036; stroke-width: 1.0;" x1="582" x2="624" y1="782.3906" y2="782.3906"/><line style="stroke: #A80036; stroke-width: 1.0;" x1="624" x2="624" y1="782.3906" y2="795.3906"/><line style="stroke: #A80036; stroke-width: 1.0;" x1="583" x2="624" y1="795.3906" y2="795.3906"/><polygon fill="#A80036" points="593,791.3906,583,795.3906,593,799.3906,589,795.3906" style="stroke: #A80036; stroke-width: 1.0;"/><text fill="#000000" font-family="sans-serif" font-size="13" lengthAdjust="spacingAndGlyphs" textLength="159" x="589" y="777.3247">setAvailable(taxiDriverId)</text><polygon fill="#A80036" points="927,850.3906,937,854.3906,927,858.3906,931,854.3906" style="stroke: #A80036; stroke-width: 1.0;"/><line style="stroke: #A80036; stroke-width: 1.0;" x1="577" x2="933" y1="854.3906" y2="854.3906"/><text fill="#000000" font-family="sans-serif" font-size="13" lengthAdjust="spacingAndGlyphs" textLength="104" x="584" y="849.4575">updateQueues()</text><polygon fill="#A80036" points="1041.5,879.5234,1051.5,883.5234,1041.5,887.5234,1045.5,883.5234" style="stroke: #A80036; stroke-width: 1.0;"/><line style="stroke: #A80036; stroke-width: 1.0;" x1="949" x2="1047.5" y1="883.5234" y2="883.5234"/><text fill="#000000" font-family="sans-serif" font-size="13" lengthAdjust="spacingAndGlyphs" textLength="67" x="956" y="878.5903">update(...)</text><polygon fill="#A80036" points="960,893.6563,950,897.6563,960,901.6563,956,897.6563" style="stroke: #A80036; stroke-width: 1.0;"/><line style="stroke: #A80036; stroke-width: 1.0; stroke-dasharray: 2.0,2.0;" x1="954" x2="1057.5" y1="897.6563" y2="897.6563"/><polygon fill="#A80036" points="588,907.6563,578,911.6563,588,915.6563,584,911.6563" style="stroke: #A80036; stroke-width: 1.0;"/><line style="stroke: #A80036; stroke-width: 1.0; stroke-dasharray: 2.0,2.0;" x1="582" x2="943" y1="911.6563" y2="911.6563"/><polygon fill="#A80036" points="927,936.6563,937,940.6563,927,944.6563,931,940.6563" style="stroke: #A80036; stroke-width: 1.0;"/><line style="stroke: #A80036; stroke-width: 1.0;" x1="577" x2="933" y1="940.6563" y2="940.6563"/><text fill="#000000" font-family="sans-serif" font-size="13" lengthAdjust="spacingAndGlyphs" textLength="326" x="584" y="935.7231">updateTaxiStatus(taxiDriverId, TaxiStatusAvailable)</text><polygon fill="#A80036" points="1041.5,965.7891,1051.5,969.7891,1041.5,973.7891,1045.5,969.7891" style="stroke: #A80036; stroke-width: 1.0;"/><line style="stroke: #A80036; stroke-width: 1.0;" x1="949" x2="1047.5" y1="969.7891" y2="969.7891"/><text fill="#000000" font-family="sans-serif" font-size="13" lengthAdjust="spacingAndGlyphs" textLength="67" x="956" y="964.856">update(...)</text><polygon fill="#A80036" points="960,979.9219,950,983.9219,960,987.9219,956,983.9219" style="stroke: #A80036; stroke-width: 1.0;"/><line style="stroke: #A80036; stroke-width: 1.0; stroke-dasharray: 2.0,2.0;" x1="954" x2="1057.5" y1="983.9219" y2="983.9219"/><polygon fill="#A80036" points="588,993.9219,578,997.9219,588,1001.9219,584,997.9219" style="stroke: #A80036; stroke-width: 1.0;"/><line style="stroke: #A80036; stroke-width: 1.0; stroke-dasharray: 2.0,2.0;" x1="582" x2="943" y1="997.9219" y2="997.9219"/><polygon fill="#A80036" points="386,1007.9219,376,1011.9219,386,1015.9219,382,1011.9219" style="stroke: #A80036; stroke-width: 1.0;"/><line style="stroke: #A80036; stroke-width: 1.0; stroke-dasharray: 2.0,2.0;" x1="380" x2="566" y1="1011.9219" y2="1011.9219"/><polygon fill="#A80036" points="184,1021.9219,174,1025.9219,184,1029.9219,180,1025.9219" style="stroke: #A80036; stroke-width: 1.0;"/><line style="stroke: #A80036; stroke-width: 1.0; stroke-dasharray: 2.0,2.0;" x1="178" x2="364" y1="1025.9219" y2="1025.9219"/><line style="stroke: #000000; stroke-width: 1.0; stroke-dasharray: 2.0,2.0;" x1="102" x2="1098.5" y1="1034.9219" y2="1034.9219"/><text fill="#000000" font-family="sans-serif" font-size="11" font-weight="bold" lengthAdjust="spacingAndGlyphs" textLength="42" x="107" y="1045.1323">[false]</text><polygon fill="#A80036" points="386,1050.7266,376,1054.7266,386,1058.7266,382,1054.7266" style="stroke: #A80036; stroke-width: 1.0;"/><line style="stroke: #A80036; stroke-width: 1.0; stroke-dasharray: 2.0,2.0;" x1="380" x2="566" y1="1054.7266" y2="1054.7266"/><polygon fill="#A80036" points="184,1064.7266,174,1068.7266,184,1072.7266,180,1068.7266" style="stroke: #A80036; stroke-width: 1.0;"/><line style="stroke: #A80036; stroke-width: 1.0; stroke-dasharray: 2.0,2.0;" x1="178" x2="364" y1="1068.7266" y2="1068.7266"/><line style="stroke: #000000; stroke-width: 1.0; stroke-dasharray: 2.0,2.0;" x1="92" x2="1275.5" y1="1084.7266" y2="1084.7266"/><text fill="#000000" font-family="sans-serif" font-size="11" font-weight="bold" lengthAdjust="spacingAndGlyphs" textLength="153" x="97" y="1094.937">[status == outside_city]</text><line style="stroke: #A80036; stroke-width: 1.0;" x1="582" x2="624" y1="1119.6641" y2="1119.6641"/><line style="stroke: #A80036; stroke-width: 1.0;" x1="624" x2="624" y1="1119.6641" y2="1132.6641"/><line style="stroke: #A80036; stroke-width: 1.0;" x1="583" x2="624" y1="1132.6641" y2="1132.6641"/><polygon fill="#A80036" points="593,1128.6641,583,1132.6641,593,1136.6641,589,1132.6641" style="stroke: #A80036; stroke-width: 1.0;"/><text fill="#000000" font-family="sans-serif" font-size="13" lengthAdjust="spacingAndGlyphs" textLength="284" x="589" y="1114.5981">removeTaxiFromOutsideCityList(taxiDriverId)</text><line style="stroke: #A80036; stroke-width: 1.0;" x1="582" x2="624" y1="1191.7969" y2="1191.7969"/><line style="stroke: #A80036; stroke-width: 1.0;" x1="624" x2="624" y1="1191.7969" y2="1204.7969"/><line style="stroke: #A80036; stroke-width: 1.0;" x1="583" x2="624" y1="1204.7969" y2="1204.7969"/><polygon fill="#A80036" points="593,1200.7969,583,1204.7969,593,1208.7969,589,1204.7969" style="stroke: #A80036; stroke-width: 1.0;"/><text fill="#000000" font-family="sans-serif" font-size="13" lengthAdjust="spacingAndGlyphs" textLength="176" x="589" y="1186.731">setUnavailable(taxiDriverId)</text><polygon fill="#A80036" points="927,1259.7969,937,1263.7969,927,1267.7969,931,1263.7969" style="stroke: #A80036; stroke-width: 1.0;"/><line style="stroke: #A80036; stroke-width: 1.0;" x1="577" x2="933" y1="1263.7969" y2="1263.7969"/><text fill="#000000" font-family="sans-serif" font-size="13" lengthAdjust="spacingAndGlyphs" textLength="104" x="584" y="1258.8638">updateQueues()</text><polygon fill="#A80036" points="1041.5,1288.9297,1051.5,1292.9297,1041.5,1296.9297,1045.5,1292.9297" style="stroke: #A80036; stroke-width: 1.0;"/><line style="stroke: #A80036; stroke-width: 1.0;" x1="949" x2="1047.5" y1="1292.9297" y2="1292.9297"/><text fill="#000000" font-family="sans-serif" font-size="13" lengthAdjust="spacingAndGlyphs" textLength="67" x="956" y="1287.9966">update(...)</text><polygon fill="#A80036" points="960,1303.0625,950,1307.0625,960,1311.0625,956,1307.0625" style="stroke: #A80036; stroke-width: 1.0;"/><line style="stroke: #A80036; stroke-width: 1.0; stroke-dasharray: 2.0,2.0;" x1="954" x2="1057.5" y1="1307.0625" y2="1307.0625"/><polygon fill="#A80036" points="588,1317.0625,578,1321.0625,588,1325.0625,584,1321.0625" style="stroke: #A80036; stroke-width: 1.0;"/><line style="stroke: #A80036; stroke-width: 1.0; stroke-dasharray: 2.0,2.0;" x1="582" x2="943" y1="1321.0625" y2="1321.0625"/><polygon fill="#A80036" points="927,1346.0625,937,1350.0625,927,1354.0625,931,1350.0625" style="stroke: #A80036; stroke-width: 1.0;"/><line style="stroke: #A80036; stroke-width: 1.0;" x1="577" x2="933" y1="1350.0625" y2="1350.0625"/><text fill="#000000" font-family="sans-serif" font-size="13" lengthAdjust="spacingAndGlyphs" textLength="343" x="584" y="1345.1294">updateTaxiStatus(taxiDriverId, TaxiStatusUnavailable)</text><polygon fill="#A80036" points="1041.5,1375.1953,1051.5,1379.1953,1041.5,1383.1953,1045.5,1379.1953" style="stroke: #A80036; stroke-width: 1.0;"/><line style="stroke: #A80036; stroke-width: 1.0;" x1="949" x2="1047.5" y1="1379.1953" y2="1379.1953"/><text fill="#000000" font-family="sans-serif" font-size="13" lengthAdjust="spacingAndGlyphs" textLength="67" x="956" y="1374.2622">update(...)</text><polygon fill="#A80036" points="960,1389.3281,950,1393.3281,960,1397.3281,956,1393.3281" style="stroke: #A80036; stroke-width: 1.0;"/><line style="stroke: #A80036; stroke-width: 1.0; stroke-dasharray: 2.0,2.0;" x1="954" x2="1057.5" y1="1393.3281" y2="1393.3281"/><polygon fill="#A80036" points="588,1403.3281,578,1407.3281,588,1411.3281,584,1407.3281" style="stroke: #A80036; stroke-width: 1.0;"/><line style="stroke: #A80036; stroke-width: 1.0; stroke-dasharray: 2.0,2.0;" x1="582" x2="943" y1="1407.3281" y2="1407.3281"/><polygon fill="#A80036" points="386,1417.3281,376,1421.3281,386,1425.3281,382,1421.3281" style="stroke: #A80036; stroke-width: 1.0;"/><line style="stroke: #A80036; stroke-width: 1.0; stroke-dasharray: 2.0,2.0;" x1="380" x2="566" y1="1421.3281" y2="1421.3281"/><polygon fill="#A80036" points="184,1431.3281,174,1435.3281,184,1439.3281,180,1435.3281" style="stroke: #A80036; stroke-width: 1.0;"/><line style="stroke: #A80036; stroke-width: 1.0; stroke-dasharray: 2.0,2.0;" x1="178" x2="364" y1="1435.3281" y2="1435.3281"/></g></svg>