<?xml version="1.0" encoding="UTF-8" standalone="yes"?><svg xmlns="http://www.w3.org/2000/svg" xmlns:xlink="http://www.w3.org/1999/xlink" height="2017px" style="width:1559px;height:2017px;" version="1.1" viewBox="0 0 1559 2017" width="1559px"><defs><filter height="300%" id="f1" width="300%" x="-1" y="-1"><feGaussianBlur result="blurOut" stdDeviation="2.0"/><feColorMatrix in="blurOut" result="blurOut2" type="matrix" values="0 0 0 0 0 0 0 0 0 0 0 0 0 0 0 0 0 0 .4 0"/><feOffset dx="4.0" dy="4.0" in="blurOut2" result="blurOut3"/><feBlend in="SourceGraphic" in2="blurOut3" mode="normal"/></filter></defs><g><text fill="#000000" font-family="sans-serif" font-size="14" font-weight="bold" lengthAdjust="spacingAndGlyphs" textLength="198" x="682.75" y="22.9951">sd_taxi_location_changed</text><rect fill="#FFFFFF" filter="url(#f1)" height="1732.1875" style="stroke: #A80036; stroke-width: 1.0;" width="10" x="104" y="78.5938"/><rect fill="#FFFFFF" filter="url(#f1)" height="14.1328" style="stroke: #A80036; stroke-width: 1.0;" width="10" x="109" y="817.1172"/><rect fill="#FFFFFF" filter="url(#f1)" height="14.1328" style="stroke: #A80036; stroke-width: 1.0;" width="10" x="109" y="1200.9844"/><rect fill="#FFFFFF" filter="url(#f1)" height="14.1328" style="stroke: #A80036; stroke-width: 1.0;" width="10" x="109" y="1522.9844"/><rect fill="#FFFFFF" filter="url(#f1)" height="57.2656" style="stroke: #A80036; stroke-width: 1.0;" width="10" x="418" y="99.5938"/><rect fill="#FFFFFF" filter="url(#f1)" height="1818.4531" style="stroke: #A80036; stroke-width: 1.0;" width="10" x="732" y="142.7266"/><rect fill="#FFFFFF" filter="url(#f1)" height="28" style="stroke: #A80036; stroke-width: 1.0;" width="10" x="737" y="193.8594"/><rect fill="#FFFFFF" filter="url(#f1)" height="28" style="stroke: #A80036; stroke-width: 1.0;" width="10" x="737" y="513.1875"/><rect fill="#FFFFFF" filter="url(#f1)" height="28" style="stroke: #A80036; stroke-width: 1.0;" width="10" x="737" y="897.0547"/><rect fill="#FFFFFF" filter="url(#f1)" height="28" style="stroke: #A80036; stroke-width: 1.0;" width="10" x="737" y="1581.1172"/><rect fill="#FFFFFF" filter="url(#f1)" height="28" style="stroke: #A80036; stroke-width: 1.0;" width="10" x="737" y="1839.7813"/><rect fill="#FFFFFF" filter="url(#f1)" height="29.1328" style="stroke: #A80036; stroke-width: 1.0;" width="10" x="1038" y="282.125"/><rect fill="#FFFFFF" filter="url(#f1)" height="87.3984" style="stroke: #A80036; stroke-width: 1.0;" width="10" x="1038" y="364.5234"/><rect fill="#FFFFFF" filter="url(#f1)" height="29.1328" style="stroke: #A80036; stroke-width: 1.0;" width="10" x="1038" y="1272.9219"/><rect fill="#FFFFFF" filter="url(#f1)" height="29.1328" style="stroke: #A80036; stroke-width: 1.0;" width="10" x="1038" y="1355.3203"/><rect fill="#FFFFFF" filter="url(#f1)" height="57.2656" style="stroke: #A80036; stroke-width: 1.0;" width="10" x="1206" y="577.3203"/><rect fill="#FFFFFF" filter="url(#f1)" height="57.2656" style="stroke: #A80036; stroke-width: 1.0;" width="10" x="1206" y="961.1875"/><rect fill="#FFFFFF" filter="url(#f1)" height="57.2656" style="stroke: #A80036; stroke-width: 1.0;" width="10" x="1206" y="1645.25"/><rect fill="#FFFFFF" filter="url(#f1)" height="57.2656" style="stroke: #A80036; stroke-width: 1.0;" width="10" x="1206" y="1903.9141"/><rect fill="#FFFFFF" filter="url(#f1)" height="14.1328" style="stroke: #A80036; stroke-width: 1.0;" width="10" x="1320.5" y="606.4531"/><rect fill="#FFFFFF" filter="url(#f1)" height="14.1328" style="stroke: #A80036; stroke-width: 1.0;" width="10" x="1320.5" y="990.3203"/><rect fill="#FFFFFF" filter="url(#f1)" height="14.1328" style="stroke: #A80036; stroke-width: 1.0;" width="10" x="1320.5" y="1674.3828"/><rect fill="#FFFFFF" filter="url(#f1)" height="14.1328" style="stroke: #A80036; stroke-width: 1.0;" width="10" x="1320.5" y="1933.0469"/><rect fill="#FFFFFF" filter="url(#f1)" height="57.2656" style="stroke: #A80036; stroke-width: 1.0;" width="10" x="1433" y="663.5859"/><rect fill="#FFFFFF" filter="url(#f1)" height="57.2656" style="stroke: #A80036; stroke-width: 1.0;" width="10" x="1433" y="773.9844"/><rect fill="#FFFFFF" filter="url(#f1)" height="57.2656" style="stroke: #A80036; stroke-width: 1.0;" width="10" x="1433" y="1047.4531"/><rect fill="#FFFFFF" filter="url(#f1)" height="57.2656" style="stroke: #A80036; stroke-width: 1.0;" width="10" x="1433" y="1157.8516"/><rect fill="#FFFFFF" filter="url(#f1)" height="57.2656" style="stroke: #A80036; stroke-width: 1.0;" width="10" x="1433" y="1479.8516"/><rect fill="#FFFFFF" filter="url(#f1)" height="57.2656" style="stroke: #A80036; stroke-width: 1.0;" width="10" x="1433" y="1731.5156"/><rect fill="#FFFFFF" filter="url(#f1)" height="1559.7891" style="stroke: #000000; stroke-width: 2.0;" width="1537.5" x="13" y="243.9922"/><rect fill="#FFFFFF" filter="url(#f1)" height="903.7266" style="stroke: #000000; stroke-width: 2.0;" width="1517.5" x="23" y="326.3906"/><rect fill="#FFFFFF" filter="url(#f1)" height="379.1953" style="stroke: #000000; stroke-width: 2.0;" width="1497.5" x="33" y="467.0547"/><rect fill="#FFFFFF" filter="url(#f1)" height="103.3984" style="stroke: #000000; stroke-width: 2.0;" width="1477.5" x="43" y="735.8516"/><rect fill="#FFFFFF" height="376.8672" style="stroke: none; stroke-width: 1.0;" width="1517.5" x="23" y="853.25"/><rect fill="#FFFFFF" filter="url(#f1)" height="103.3984" style="stroke: #000000; stroke-width: 2.0;" width="1477.5" x="43" y="1119.7188"/><rect fill="#FFFFFF" height="566.6641" style="stroke: none; stroke-width: 1.0;" width="1537.5" x="13" y="1237.1172"/><rect fill="#FFFFFF" filter="url(#f1)" height="479.5938" style="stroke: #000000; stroke-width: 2.0;" width="1497.5" x="33" y="1317.1875"/><rect fill="#FFFFFF" filter="url(#f1)" height="103.3984" style="stroke: #000000; stroke-width: 2.0;" width="1477.5" x="43" y="1441.7188"/><line style="stroke: #A80036; stroke-width: 1.0; stroke-dasharray: 5.0,5.0;" x1="109" x2="109" y1="68.5938" y2="1979.1797"/><line style="stroke: #A80036; stroke-width: 1.0; stroke-dasharray: 5.0,5.0;" x1="422.5" x2="422.5" y1="68.5938" y2="1979.1797"/><line style="stroke: #A80036; stroke-width: 1.0; stroke-dasharray: 5.0,5.0;" x1="737" x2="737" y1="68.5938" y2="1979.1797"/><line style="stroke: #A80036; stroke-width: 1.0; stroke-dasharray: 5.0,5.0;" x1="1042.5" x2="1042.5" y1="68.5938" y2="1979.1797"/><line style="stroke: #A80036; stroke-width: 1.0; stroke-dasharray: 5.0,5.0;" x1="1210.5" x2="1210.5" y1="68.5938" y2="1979.1797"/><line style="stroke: #A80036; stroke-width: 1.0; stroke-dasharray: 5.0,5.0;" x1="1325.5" x2="1325.5" y1="68.5938" y2="1979.1797"/><line style="stroke: #A80036; stroke-width: 1.0; stroke-dasharray: 5.0,5.0;" x1="1437.5" x2="1437.5" y1="68.5938" y2="1979.1797"/><rect fill="#FEFECE" filter="url(#f1)" height="30.2969" style="stroke: #A80036; stroke-width: 1.5;" width="108" x="53" y="33.2969"/><text fill="#000000" font-family="sans-serif" font-size="14" lengthAdjust="spacingAndGlyphs" textLength="94" x="60" y="53.292">TaxiDriverApp</text><rect fill="#FEFECE" filter="url(#f1)" height="30.2969" style="stroke: #A80036; stroke-width: 1.5;" width="108" x="53" y="1978.1797"/><text fill="#000000" font-family="sans-serif" font-size="14" lengthAdjust="spacingAndGlyphs" textLength="94" x="60" y="1998.1748">TaxiDriverApp</text><rect fill="#FEFECE" filter="url(#f1)" height="30.2969" style="stroke: #A80036; stroke-width: 1.5;" width="187" x="327.5" y="33.2969"/><text fill="#000000" font-family="sans-serif" font-size="14" lengthAdjust="spacingAndGlyphs" textLength="173" x="334.5" y="53.292">RemoteServicesInterface</text><rect fill="#FEFECE" filter="url(#f1)" height="30.2969" style="stroke: #A80036; stroke-width: 1.5;" width="187" x="327.5" y="1978.1797"/><text fill="#000000" font-family="sans-serif" font-size="14" lengthAdjust="spacingAndGlyphs" textLength="173" x="334.5" y="1998.1748">RemoteServicesInterface</text><rect fill="#FEFECE" filter="url(#f1)" height="30.2969" style="stroke: #A80036; stroke-width: 1.5;" width="132" x="669" y="33.2969"/><text fill="#000000" font-family="sans-serif" font-size="14" lengthAdjust="spacingAndGlyphs" textLength="118" x="676" y="53.292">TaxiManagement</text><rect fill="#FEFECE" filter="url(#f1)" height="30.2969" style="stroke: #A80036; stroke-width: 1.5;" width="132" x="669" y="1978.1797"/><text fill="#000000" font-family="sans-serif" font-size="14" lengthAdjust="spacingAndGlyphs" textLength="118" x="676" y="1998.1748">TaxiManagement</text><rect fill="#FEFECE" filter="url(#f1)" height="30.2969" style="stroke: #A80036; stroke-width: 1.5;" width="163" x="959.5" y="33.2969"/><text fill="#000000" font-family="sans-serif" font-size="14" lengthAdjust="spacingAndGlyphs" textLength="149" x="966.5" y="53.292">LocationManagement</text><rect fill="#FEFECE" filter="url(#f1)" height="30.2969" style="stroke: #A80036; stroke-width: 1.5;" width="163" x="959.5" y="1978.1797"/><text fill="#000000" font-family="sans-serif" font-size="14" lengthAdjust="spacingAndGlyphs" textLength="149" x="966.5" y="1998.1748">LocationManagement</text><rect fill="#FEFECE" filter="url(#f1)" height="30.2969" style="stroke: #A80036; stroke-width: 1.5;" width="145" x="1136.5" y="33.2969"/><text fill="#000000" font-family="sans-serif" font-size="14" lengthAdjust="spacingAndGlyphs" textLength="131" x="1143.5" y="53.292">DataAccessUtilities</text><rect fill="#FEFECE" filter="url(#f1)" height="30.2969" style="stroke: #A80036; stroke-width: 1.5;" width="145" x="1136.5" y="1978.1797"/><text fill="#000000" font-family="sans-serif" font-size="14" lengthAdjust="spacingAndGlyphs" textLength="131" x="1143.5" y="1998.1748">DataAccessUtilities</text><rect fill="#FEFECE" filter="url(#f1)" height="30.2969" style="stroke: #A80036; stroke-width: 1.5;" width="56" x="1295.5" y="33.2969"/><text fill="#000000" font-family="sans-serif" font-size="14" lengthAdjust="spacingAndGlyphs" textLength="42" x="1302.5" y="53.292">DBMS</text><rect fill="#FEFECE" filter="url(#f1)" height="30.2969" style="stroke: #A80036; stroke-width: 1.5;" width="56" x="1295.5" y="1978.1797"/><text fill="#000000" font-family="sans-serif" font-size="14" lengthAdjust="spacingAndGlyphs" textLength="42" x="1302.5" y="1998.1748">DBMS</text><rect fill="#FEFECE" filter="url(#f1)" height="30.2969" style="stroke: #A80036; stroke-width: 1.5;" width="141" x="1365.5" y="33.2969"/><text fill="#000000" font-family="sans-serif" font-size="14" lengthAdjust="spacingAndGlyphs" textLength="127" x="1372.5" y="53.292">NotificationSystem</text><rect fill="#FEFECE" filter="url(#f1)" height="30.2969" style="stroke: #A80036; stroke-width: 1.5;" width="141" x="1365.5" y="1978.1797"/><text fill="#000000" font-family="sans-serif" font-size="14" lengthAdjust="spacingAndGlyphs" textLength="127" x="1372.5" y="1998.1748">NotificationSystem</text><rect fill="#FFFFFF" filter="url(#f1)" height="1732.1875" style="stroke: #A80036; stroke-width: 1.0;" width="10" x="104" y="78.5938"/><rect fill="#FFFFFF" filter="url(#f1)" height="14.1328" style="stroke: #A80036; stroke-width: 1.0;" width="10" x="109" y="817.1172"/><rect fill="#FFFFFF" filter="url(#f1)" height="14.1328" style="stroke: #A80036; stroke-width: 1.0;" width="10" x="109" y="1200.9844"/><rect fill="#FFFFFF" filter="url(#f1)" height="14.1328" style="stroke: #A80036; stroke-width: 1.0;" width="10" x="109" y="1522.9844"/><rect fill="#FFFFFF" filter="url(#f1)" height="57.2656" style="stroke: #A80036; stroke-width: 1.0;" width="10" x="418" y="99.5938"/><rect fill="#FFFFFF" filter="url(#f1)" height="1818.4531" style="stroke: #A80036; stroke-width: 1.0;" width="10" x="732" y="142.7266"/><rect fill="#FFFFFF" filter="url(#f1)" height="28" style="stroke: #A80036; stroke-width: 1.0;" width="10" x="737" y="193.8594"/><rect fill="#FFFFFF" filter="url(#f1)" height="28" style="stroke: #A80036; stroke-width: 1.0;" width="10" x="737" y="513.1875"/><rect fill="#FFFFFF" filter="url(#f1)" height="28" style="stroke: #A80036; stroke-width: 1.0;" width="10" x="737" y="897.0547"/><rect fill="#FFFFFF" filter="url(#f1)" height="28" style="stroke: #A80036; stroke-width: 1.0;" width="10" x="737" y="1581.1172"/><rect fill="#FFFFFF" filter="url(#f1)" height="28" style="stroke: #A80036; stroke-width: 1.0;" width="10" x="737" y="1839.7813"/><rect fill="#FFFFFF" filter="url(#f1)" height="29.1328" style="stroke: #A80036; stroke-width: 1.0;" width="10" x="1038" y="282.125"/><rect fill="#FFFFFF" filter="url(#f1)" height="87.3984" style="stroke: #A80036; stroke-width: 1.0;" width="10" x="1038" y="364.5234"/><rect fill="#FFFFFF" filter="url(#f1)" height="29.1328" style="stroke: #A80036; stroke-width: 1.0;" width="10" x="1038" y="1272.9219"/><rect fill="#FFFFFF" filter="url(#f1)" height="29.1328" style="stroke: #A80036; stroke-width: 1.0;" width="10" x="1038" y="1355.3203"/><rect fill="#FFFFFF" filter="url(#f1)" height="57.2656" style="stroke: #A80036; stroke-width: 1.0;" width="10" x="1206" y="577.3203"/><rect fill="#FFFFFF" filter="url(#f1)" height="57.2656" style="stroke: #A80036; stroke-width: 1.0;" width="10" x="1206" y="961.1875"/><rect fill="#FFFFFF" filter="url(#f1)" height="57.2656" style="stroke: #A80036; stroke-width: 1.0;" width="10" x="1206" y="1645.25"/><rect fill="#FFFFFF" filter="url(#f1)" height="57.2656" style="stroke: #A80036; stroke-width: 1.0;" width="10" x="1206" y="1903.9141"/><rect fill="#FFFFFF" filter="url(#f1)" height="14.1328" style="stroke: #A80036; stroke-width: 1.0;" width="10" x="1320.5" y="606.4531"/><rect fill="#FFFFFF" filter="url(#f1)" height="14.1328" style="stroke: #A80036; stroke-width: 1.0;" width="10" x="1320.5" y="990.3203"/><rect fill="#FFFFFF" filter="url(#f1)" height="14.1328" style="stroke: #A80036; stroke-width: 1.0;" width="10" x="1320.5" y="1674.3828"/><rect fill="#FFFFFF" filter="url(#f1)" height="14.1328" style="stroke: #A80036; stroke-width: 1.0;" width="10" x="1320.5" y="1933.0469"/><rect fill="#FFFFFF" filter="url(#f1)" height="57.2656" style="stroke: #A80036; stroke-width: 1.0;" width="10" x="1433" y="663.5859"/><rect fill="#FFFFFF" filter="url(#f1)" height="57.2656" style="stroke: #A80036; stroke-width: 1.0;" width="10" x="1433" y="773.9844"/><rect fill="#FFFFFF" filter="url(#f1)" height="57.2656" style="stroke: #A80036; stroke-width: 1.0;" width="10" x="1433" y="1047.4531"/><rect fill="#FFFFFF" filter="url(#f1)" height="57.2656" style="stroke: #A80036; stroke-width: 1.0;" width="10" x="1433" y="1157.8516"/><rect fill="#FFFFFF" filter="url(#f1)" height="57.2656" style="stroke: #A80036; stroke-width: 1.0;" width="10" x="1433" y="1479.8516"/><rect fill="#FFFFFF" filter="url(#f1)" height="57.2656" style="stroke: #A80036; stroke-width: 1.0;" width="10" x="1433" y="1731.5156"/><line style="stroke: #A80036; stroke-width: 1.0;" x1="416" x2="406" y1="99.5938" y2="95.5938"/><line style="stroke: #A80036; stroke-width: 1.0;" x1="416" x2="406" y1="99.5938" y2="103.5938"/><line style="stroke: #A80036; stroke-width: 1.0;" x1="114" x2="417" y1="99.5938" y2="99.5938"/><text fill="#000000" font-family="sans-serif" font-size="13" lengthAdjust="spacingAndGlyphs" textLength="285" x="121" y="94.6606">sendCurrentLocation(taxiId, currentLocation)</text><line style="stroke: #A80036; stroke-width: 1.0;" x1="114" x2="124" y1="113.7266" y2="109.7266"/><line style="stroke: #A80036; stroke-width: 1.0;" x1="114" x2="124" y1="113.7266" y2="117.7266"/><line style="stroke: #A80036; stroke-width: 1.0; stroke-dasharray: 2.0,2.0;" x1="114" x2="417" y1="113.7266" y2="113.7266"/><line style="stroke: #A80036; stroke-width: 1.0;" x1="730" x2="720" y1="142.7266" y2="138.7266"/><line style="stroke: #A80036; stroke-width: 1.0;" x1="730" x2="720" y1="142.7266" y2="146.7266"/><line style="stroke: #A80036; stroke-width: 1.0;" x1="428" x2="731" y1="142.7266" y2="142.7266"/><text fill="#000000" font-family="sans-serif" font-size="13" lengthAdjust="spacingAndGlyphs" textLength="285" x="435" y="137.7935">sendCurrentLocation(taxiId, currentLocation)</text><line style="stroke: #A80036; stroke-width: 1.0;" x1="423" x2="433" y1="156.8594" y2="152.8594"/><line style="stroke: #A80036; stroke-width: 1.0;" x1="423" x2="433" y1="156.8594" y2="160.8594"/><line style="stroke: #A80036; stroke-width: 1.0; stroke-dasharray: 2.0,2.0;" x1="423" x2="731" y1="156.8594" y2="156.8594"/><line style="stroke: #A80036; stroke-width: 1.0;" x1="747" x2="789" y1="185.9922" y2="185.9922"/><line style="stroke: #A80036; stroke-width: 1.0;" x1="789" x2="789" y1="185.9922" y2="198.9922"/><line style="stroke: #A80036; stroke-width: 1.0;" x1="748" x2="789" y1="198.9922" y2="198.9922"/><polygon fill="#A80036" points="758,194.9922,748,198.9922,758,202.9922,754,198.9922" style="stroke: #A80036; stroke-width: 1.0;"/><text fill="#000000" font-family="sans-serif" font-size="13" lengthAdjust="spacingAndGlyphs" textLength="148" x="754" y="180.9263">checkTaxiStatus(taxiId)</text><rect fill="none" height="1559.7891" style="stroke: #000000; stroke-width: 2.0;" width="1537.5" x="13" y="243.9922"/><polygon fill="#EEEEEE" points="13,243.9922,77,243.9922,77,250.9922,67,260.9922,13,260.9922,13,243.9922" style="stroke: #000000; stroke-width: 2.0;"/><text fill="#000000" font-family="sans-serif" font-size="13" font-weight="bold" lengthAdjust="spacingAndGlyphs" textLength="19" x="28" y="257.0591">alt</text><text fill="#000000" font-family="sans-serif" font-size="11" font-weight="bold" lengthAdjust="spacingAndGlyphs" textLength="135" x="92" y="256.2026">[status == available]</text><polygon fill="#A80036" points="1026,278.125,1036,282.125,1026,286.125,1030,282.125" style="stroke: #A80036; stroke-width: 1.0;"/><line style="stroke: #A80036; stroke-width: 1.0;" x1="742" x2="1032" y1="282.125" y2="282.125"/><text fill="#000000" font-family="sans-serif" font-size="13" lengthAdjust="spacingAndGlyphs" textLength="235" x="749" y="277.1919">isLocationInsideCity(currentLocation)</text><polygon fill="#A80036" points="753,307.2578,743,311.2578,753,315.2578,749,311.2578" style="stroke: #A80036; stroke-width: 1.0;"/><line style="stroke: #A80036; stroke-width: 1.0; stroke-dasharray: 2.0,2.0;" x1="747" x2="1042" y1="311.2578" y2="311.2578"/><text fill="#000000" font-family="sans-serif" font-size="13" lengthAdjust="spacingAndGlyphs" textLength="36" x="759" y="306.3247">result</text><rect fill="none" height="903.7266" style="stroke: #000000; stroke-width: 2.0;" width="1517.5" x="23" y="326.3906"/><polygon fill="#EEEEEE" points="23,326.3906,87,326.3906,87,333.3906,77,343.3906,23,343.3906,23,326.3906" style="stroke: #000000; stroke-width: 2.0;"/><text fill="#000000" font-family="sans-serif" font-size="13" font-weight="bold" lengthAdjust="spacingAndGlyphs" textLength="19" x="38" y="339.4575">alt</text><text fill="#000000" font-family="sans-serif" font-size="11" font-weight="bold" lengthAdjust="spacingAndGlyphs" textLength="76" x="102" y="338.6011">[inside city]</text><polygon fill="#A80036" points="1026,360.5234,1036,364.5234,1026,368.5234,1030,364.5234" style="stroke: #A80036; stroke-width: 1.0;"/><line style="stroke: #A80036; stroke-width: 1.0;" x1="742" x2="1032" y1="364.5234" y2="364.5234"/><text fill="#000000" font-family="sans-serif" font-size="13" lengthAdjust="spacingAndGlyphs" textLength="165" x="749" y="359.5903">getZone(currentLocation)</text><polygon fill="#A80036" points="753,389.6563,743,393.6563,753,397.6563,749,393.6563" style="stroke: #A80036; stroke-width: 1.0;"/><line style="stroke: #A80036; stroke-width: 1.0; stroke-dasharray: 2.0,2.0;" x1="747" x2="1037" y1="393.6563" y2="393.6563"/><text fill="#000000" font-family="sans-serif" font-size="13" lengthAdjust="spacingAndGlyphs" textLength="59" x="759" y="388.7231">newZone</text><polygon fill="#A80036" points="1026,418.7891,1036,422.7891,1026,426.7891,1030,422.7891" style="stroke: #A80036; stroke-width: 1.0;"/><line style="stroke: #A80036; stroke-width: 1.0;" x1="742" x2="1032" y1="422.7891" y2="422.7891"/><text fill="#000000" font-family="sans-serif" font-size="13" lengthAdjust="spacingAndGlyphs" textLength="173" x="749" y="417.856">getZone(previousLocation)</text><polygon fill="#A80036" points="753,447.9219,743,451.9219,753,455.9219,749,451.9219" style="stroke: #A80036; stroke-width: 1.0;"/><line style="stroke: #A80036; stroke-width: 1.0; stroke-dasharray: 2.0,2.0;" x1="747" x2="1042" y1="451.9219" y2="451.9219"/><text fill="#000000" font-family="sans-serif" font-size="13" lengthAdjust="spacingAndGlyphs" textLength="53" x="759" y="446.9888">oldZone</text><rect fill="none" height="379.1953" style="stroke: #000000; stroke-width: 2.0;" width="1497.5" x="33" y="467.0547"/><polygon fill="#EEEEEE" points="33,467.0547,97,467.0547,97,474.0547,87,484.0547,33,484.0547,33,467.0547" style="stroke: #000000; stroke-width: 2.0;"/><text fill="#000000" font-family="sans-serif" font-size="13" font-weight="bold" lengthAdjust="spacingAndGlyphs" textLength="19" x="48" y="480.1216">alt</text><text fill="#000000" font-family="sans-serif" font-size="11" font-weight="bold" lengthAdjust="spacingAndGlyphs" textLength="373" x="112" y="479.2651">[newZone == oldZone (i.e., the taxi driver changed zone)]</text><line style="stroke: #A80036; stroke-width: 1.0;" x1="747" x2="789" y1="505.3203" y2="505.3203"/><line style="stroke: #A80036; stroke-width: 1.0;" x1="789" x2="789" y1="505.3203" y2="518.3203"/><line style="stroke: #A80036; stroke-width: 1.0;" x1="748" x2="789" y1="518.3203" y2="518.3203"/><polygon fill="#A80036" points="758,514.3203,748,518.3203,758,522.3203,754,518.3203" style="stroke: #A80036; stroke-width: 1.0;"/><text fill="#000000" font-family="sans-serif" font-size="13" lengthAdjust="spacingAndGlyphs" textLength="162" x="754" y="500.2544">updateZone(taxiId, zone)</text><polygon fill="#A80036" points="1194,573.3203,1204,577.3203,1194,581.3203,1198,577.3203" style="stroke: #A80036; stroke-width: 1.0;"/><line style="stroke: #A80036; stroke-width: 1.0;" x1="742" x2="1200" y1="577.3203" y2="577.3203"/><text fill="#000000" font-family="sans-serif" font-size="13" lengthAdjust="spacingAndGlyphs" textLength="116" x="749" y="572.3872">updateQueues(...)</text><polygon fill="#A80036" points="1308.5,602.4531,1318.5,606.4531,1308.5,610.4531,1312.5,606.4531" style="stroke: #A80036; stroke-width: 1.0;"/><line style="stroke: #A80036; stroke-width: 1.0;" x1="1216" x2="1314.5" y1="606.4531" y2="606.4531"/><text fill="#000000" font-family="sans-serif" font-size="13" lengthAdjust="spacingAndGlyphs" textLength="67" x="1223" y="601.52">update(...)</text><polygon fill="#A80036" points="1227,616.5859,1217,620.5859,1227,624.5859,1223,620.5859" style="stroke: #A80036; stroke-width: 1.0;"/><line style="stroke: #A80036; stroke-width: 1.0; stroke-dasharray: 2.0,2.0;" x1="1221" x2="1324.5" y1="620.5859" y2="620.5859"/><polygon fill="#A80036" points="753,630.5859,743,634.5859,753,638.5859,749,634.5859" style="stroke: #A80036; stroke-width: 1.0;"/><line style="stroke: #A80036; stroke-width: 1.0; stroke-dasharray: 2.0,2.0;" x1="747" x2="1210" y1="634.5859" y2="634.5859"/><line style="stroke: #A80036; stroke-width: 1.0;" x1="1431" x2="1421" y1="663.5859" y2="659.5859"/><line style="stroke: #A80036; stroke-width: 1.0;" x1="1431" x2="1421" y1="663.5859" y2="667.5859"/><line style="stroke: #A80036; stroke-width: 1.0;" x1="742" x2="1432" y1="663.5859" y2="663.5859"/><text fill="#000000" font-family="sans-serif" font-size="13" lengthAdjust="spacingAndGlyphs" textLength="233" x="749" y="658.6528">notifyZoneChanged(taxiId,newZone)</text><line style="stroke: #A80036; stroke-width: 1.0;" x1="742" x2="752" y1="677.7188" y2="673.7188"/><line style="stroke: #A80036; stroke-width: 1.0;" x1="742" x2="752" y1="677.7188" y2="681.7188"/><line style="stroke: #A80036; stroke-width: 1.0; stroke-dasharray: 2.0,2.0;" x1="742" x2="1432" y1="677.7188" y2="677.7188"/><line style="stroke: #A80036; stroke-width: 1.0;" x1="114" x2="124" y1="706.7188" y2="702.7188"/><line style="stroke: #A80036; stroke-width: 1.0;" x1="114" x2="124" y1="706.7188" y2="710.7188"/><line style="stroke: #A80036; stroke-width: 1.0;" x1="114" x2="1432" y1="706.7188" y2="706.7188"/><text fill="#000000" font-family="sans-serif" font-size="13" lengthAdjust="spacingAndGlyphs" textLength="233" x="131" y="701.7856">notifyZoneChanged(taxiId,newZone)</text><line style="stroke: #A80036; stroke-width: 1.0;" x1="1436" x2="1426" y1="720.8516" y2="716.8516"/><line style="stroke: #A80036; stroke-width: 1.0;" x1="1436" x2="1426" y1="720.8516" y2="724.8516"/><line style="stroke: #A80036; stroke-width: 1.0; stroke-dasharray: 2.0,2.0;" x1="114" x2="1437" y1="720.8516" y2="720.8516"/><rect fill="none" height="103.3984" style="stroke: #000000; stroke-width: 2.0;" width="1477.5" x="43" y="735.8516"/><polygon fill="#EEEEEE" points="43,735.8516,120,735.8516,120,742.8516,110,752.8516,43,752.8516,43,735.8516" style="stroke: #000000; stroke-width: 2.0;"/><text fill="#000000" font-family="sans-serif" font-size="13" font-weight="bold" lengthAdjust="spacingAndGlyphs" textLength="32" x="58" y="748.9185">loop</text><text fill="#000000" font-family="sans-serif" font-size="11" font-weight="bold" lengthAdjust="spacingAndGlyphs" textLength="212" x="135" y="748.062">[for all taxi driver in zone queue]</text><line style="stroke: #A80036; stroke-width: 1.0;" x1="1431" x2="1421" y1="773.9844" y2="769.9844"/><line style="stroke: #A80036; stroke-width: 1.0;" x1="1431" x2="1421" y1="773.9844" y2="777.9844"/><line style="stroke: #A80036; stroke-width: 1.0;" x1="742" x2="1432" y1="773.9844" y2="773.9844"/><text fill="#000000" font-family="sans-serif" font-size="13" lengthAdjust="spacingAndGlyphs" textLength="301" x="749" y="769.0513">notifyQueueUpdate(taxiId, position, queueSize)</text><line style="stroke: #A80036; stroke-width: 1.0;" x1="742" x2="752" y1="788.1172" y2="784.1172"/><line style="stroke: #A80036; stroke-width: 1.0;" x1="742" x2="752" y1="788.1172" y2="792.1172"/><line style="stroke: #A80036; stroke-width: 1.0; stroke-dasharray: 2.0,2.0;" x1="742" x2="1432" y1="788.1172" y2="788.1172"/><line style="stroke: #A80036; stroke-width: 1.0;" x1="119" x2="129" y1="817.1172" y2="813.1172"/><line style="stroke: #A80036; stroke-width: 1.0;" x1="119" x2="129" y1="817.1172" y2="821.1172"/><line style="stroke: #A80036; stroke-width: 1.0;" x1="119" x2="1432" y1="817.1172" y2="817.1172"/><text fill="#000000" font-family="sans-serif" font-size="13" lengthAdjust="spacingAndGlyphs" textLength="301" x="136" y="812.1841">notifyQueueUpdate(taxiId, position, queueSize)</text><line style="stroke: #A80036; stroke-width: 1.0;" x1="1436" x2="1426" y1="831.25" y2="827.25"/><line style="stroke: #A80036; stroke-width: 1.0;" x1="1436" x2="1426" y1="831.25" y2="835.25"/><line style="stroke: #A80036; stroke-width: 1.0; stroke-dasharray: 2.0,2.0;" x1="114" x2="1437" y1="831.25" y2="831.25"/><line style="stroke: #000000; stroke-width: 1.0; stroke-dasharray: 2.0,2.0;" x1="23" x2="1540.5" y1="854.25" y2="854.25"/><text fill="#000000" font-family="sans-serif" font-size="11" font-weight="bold" lengthAdjust="spacingAndGlyphs" textLength="85" x="28" y="864.4604">[outside city]</text><line style="stroke: #A80036; stroke-width: 1.0;" x1="747" x2="789" y1="889.1875" y2="889.1875"/><line style="stroke: #A80036; stroke-width: 1.0;" x1="789" x2="789" y1="889.1875" y2="902.1875"/><line style="stroke: #A80036; stroke-width: 1.0;" x1="748" x2="789" y1="902.1875" y2="902.1875"/><polygon fill="#A80036" points="758,898.1875,748,902.1875,758,906.1875,754,902.1875" style="stroke: #A80036; stroke-width: 1.0;"/><text fill="#000000" font-family="sans-serif" font-size="13" lengthAdjust="spacingAndGlyphs" textLength="137" x="754" y="884.1216">setOutsideCity(taxiId)</text><polygon fill="#A80036" points="1194,957.1875,1204,961.1875,1194,965.1875,1198,961.1875" style="stroke: #A80036; stroke-width: 1.0;"/><line style="stroke: #A80036; stroke-width: 1.0;" x1="742" x2="1200" y1="961.1875" y2="961.1875"/><text fill="#000000" font-family="sans-serif" font-size="13" lengthAdjust="spacingAndGlyphs" textLength="116" x="749" y="956.2544">updateQueues(...)</text><polygon fill="#A80036" points="1308.5,986.3203,1318.5,990.3203,1308.5,994.3203,1312.5,990.3203" style="stroke: #A80036; stroke-width: 1.0;"/><line style="stroke: #A80036; stroke-width: 1.0;" x1="1216" x2="1314.5" y1="990.3203" y2="990.3203"/><text fill="#000000" font-family="sans-serif" font-size="13" lengthAdjust="spacingAndGlyphs" textLength="67" x="1223" y="985.3872">update(...)</text><polygon fill="#A80036" points="1227,1000.4531,1217,1004.4531,1227,1008.4531,1223,1004.4531" style="stroke: #A80036; stroke-width: 1.0;"/><line style="stroke: #A80036; stroke-width: 1.0; stroke-dasharray: 2.0,2.0;" x1="1221" x2="1324.5" y1="1004.4531" y2="1004.4531"/><polygon fill="#A80036" points="753,1014.4531,743,1018.4531,753,1022.4531,749,1018.4531" style="stroke: #A80036; stroke-width: 1.0;"/><line style="stroke: #A80036; stroke-width: 1.0; stroke-dasharray: 2.0,2.0;" x1="747" x2="1210" y1="1018.4531" y2="1018.4531"/><line style="stroke: #A80036; stroke-width: 1.0;" x1="1431" x2="1421" y1="1047.4531" y2="1043.4531"/><line style="stroke: #A80036; stroke-width: 1.0;" x1="1431" x2="1421" y1="1047.4531" y2="1051.4531"/><line style="stroke: #A80036; stroke-width: 1.0;" x1="742" x2="1432" y1="1047.4531" y2="1047.4531"/><text fill="#000000" font-family="sans-serif" font-size="13" lengthAdjust="spacingAndGlyphs" textLength="142" x="749" y="1042.52">notifyExitedCity(taxiId)</text><line style="stroke: #A80036; stroke-width: 1.0;" x1="742" x2="752" y1="1061.5859" y2="1057.5859"/><line style="stroke: #A80036; stroke-width: 1.0;" x1="742" x2="752" y1="1061.5859" y2="1065.5859"/><line style="stroke: #A80036; stroke-width: 1.0; stroke-dasharray: 2.0,2.0;" x1="742" x2="1432" y1="1061.5859" y2="1061.5859"/><line style="stroke: #A80036; stroke-width: 1.0;" x1="114" x2="124" y1="1090.5859" y2="1086.5859"/><line style="stroke: #A80036; stroke-width: 1.0;" x1="114" x2="124" y1="1090.5859" y2="1094.5859"/><line style="stroke: #A80036; stroke-width: 1.0;" x1="114" x2="1432" y1="1090.5859" y2="1090.5859"/><text fill="#000000" font-family="sans-serif" font-size="13" lengthAdjust="spacingAndGlyphs" textLength="142" x="131" y="1085.6528">notifyExitedCity(taxiId)</text><line style="stroke: #A80036; stroke-width: 1.0;" x1="1436" x2="1426" y1="1104.7188" y2="1100.7188"/><line style="stroke: #A80036; stroke-width: 1.0;" x1="1436" x2="1426" y1="1104.7188" y2="1108.7188"/><line style="stroke: #A80036; stroke-width: 1.0; stroke-dasharray: 2.0,2.0;" x1="114" x2="1437" y1="1104.7188" y2="1104.7188"/><rect fill="none" height="103.3984" style="stroke: #000000; stroke-width: 2.0;" width="1477.5" x="43" y="1119.7188"/><polygon fill="#EEEEEE" points="43,1119.7188,120,1119.7188,120,1126.7188,110,1136.7188,43,1136.7188,43,1119.7188" style="stroke: #000000; stroke-width: 2.0;"/><text fill="#000000" font-family="sans-serif" font-size="13" font-weight="bold" lengthAdjust="spacingAndGlyphs" textLength="32" x="58" y="1132.7856">loop</text><text fill="#000000" font-family="sans-serif" font-size="11" font-weight="bold" lengthAdjust="spacingAndGlyphs" textLength="212" x="135" y="1131.9292">[for all taxi driver in zone queue]</text><line style="stroke: #A80036; stroke-width: 1.0;" x1="1431" x2="1421" y1="1157.8516" y2="1153.8516"/><line style="stroke: #A80036; stroke-width: 1.0;" x1="1431" x2="1421" y1="1157.8516" y2="1161.8516"/><line style="stroke: #A80036; stroke-width: 1.0;" x1="742" x2="1432" y1="1157.8516" y2="1157.8516"/><text fill="#000000" font-family="sans-serif" font-size="13" lengthAdjust="spacingAndGlyphs" textLength="301" x="749" y="1152.9185">notifyQueueUpdate(taxiId, position, queueSize)</text><line style="stroke: #A80036; stroke-width: 1.0;" x1="742" x2="752" y1="1171.9844" y2="1167.9844"/><line style="stroke: #A80036; stroke-width: 1.0;" x1="742" x2="752" y1="1171.9844" y2="1175.9844"/><line style="stroke: #A80036; stroke-width: 1.0; stroke-dasharray: 2.0,2.0;" x1="742" x2="1432" y1="1171.9844" y2="1171.9844"/><line style="stroke: #A80036; stroke-width: 1.0;" x1="119" x2="129" y1="1200.9844" y2="1196.9844"/><line style="stroke: #A80036; stroke-width: 1.0;" x1="119" x2="129" y1="1200.9844" y2="1204.9844"/><line style="stroke: #A80036; stroke-width: 1.0;" x1="119" x2="1432" y1="1200.9844" y2="1200.9844"/><text fill="#000000" font-family="sans-serif" font-size="13" lengthAdjust="spacingAndGlyphs" textLength="301" x="136" y="1196.0513">notifyQueueUpdate(taxiId, position, queueSize)</text><line style="stroke: #A80036; stroke-width: 1.0;" x1="1436" x2="1426" y1="1215.1172" y2="1211.1172"/><line style="stroke: #A80036; stroke-width: 1.0;" x1="1436" x2="1426" y1="1215.1172" y2="1219.1172"/><line style="stroke: #A80036; stroke-width: 1.0; stroke-dasharray: 2.0,2.0;" x1="114" x2="1437" y1="1215.1172" y2="1215.1172"/><line style="stroke: #000000; stroke-width: 1.0; stroke-dasharray: 2.0,2.0;" x1="13" x2="1550.5" y1="1238.1172" y2="1238.1172"/><text fill="#000000" font-family="sans-serif" font-size="11" font-weight="bold" lengthAdjust="spacingAndGlyphs" textLength="153" x="18" y="1248.3276">[status == outside_city]</text><polygon fill="#A80036" points="1026,1268.9219,1036,1272.9219,1026,1276.9219,1030,1272.9219" style="stroke: #A80036; stroke-width: 1.0;"/><line style="stroke: #A80036; stroke-width: 1.0;" x1="742" x2="1032" y1="1272.9219" y2="1272.9219"/><text fill="#000000" font-family="sans-serif" font-size="13" lengthAdjust="spacingAndGlyphs" textLength="277" x="749" y="1267.9888">isLocationInsideCity(taxiId, currentLocation)</text><polygon fill="#A80036" points="753,1298.0547,743,1302.0547,753,1306.0547,749,1302.0547" style="stroke: #A80036; stroke-width: 1.0;"/><line style="stroke: #A80036; stroke-width: 1.0; stroke-dasharray: 2.0,2.0;" x1="747" x2="1042" y1="1302.0547" y2="1302.0547"/><text fill="#000000" font-family="sans-serif" font-size="13" lengthAdjust="spacingAndGlyphs" textLength="36" x="759" y="1297.1216">result</text><rect fill="none" height="479.5938" style="stroke: #000000; stroke-width: 2.0;" width="1497.5" x="33" y="1317.1875"/><polygon fill="#EEEEEE" points="33,1317.1875,97,1317.1875,97,1324.1875,87,1334.1875,33,1334.1875,33,1317.1875" style="stroke: #000000; stroke-width: 2.0;"/><text fill="#000000" font-family="sans-serif" font-size="13" font-weight="bold" lengthAdjust="spacingAndGlyphs" textLength="19" x="48" y="1330.2544">alt</text><text fill="#000000" font-family="sans-serif" font-size="11" font-weight="bold" lengthAdjust="spacingAndGlyphs" textLength="76" x="112" y="1329.3979">[inside city]</text><polygon fill="#A80036" points="1026,1351.3203,1036,1355.3203,1026,1359.3203,1030,1355.3203" style="stroke: #A80036; stroke-width: 1.0;"/><line style="stroke: #A80036; stroke-width: 1.0;" x1="742" x2="1032" y1="1355.3203" y2="1355.3203"/><text fill="#000000" font-family="sans-serif" font-size="13" lengthAdjust="spacingAndGlyphs" textLength="165" x="749" y="1350.3872">getZone(currentLocation)</text><polygon fill="#A80036" points="753,1380.4531,743,1384.4531,753,1388.4531,749,1384.4531" style="stroke: #A80036; stroke-width: 1.0;"/><line style="stroke: #A80036; stroke-width: 1.0; stroke-dasharray: 2.0,2.0;" x1="747" x2="1042" y1="1384.4531" y2="1384.4531"/><text fill="#000000" font-family="sans-serif" font-size="13" lengthAdjust="spacingAndGlyphs" textLength="31" x="759" y="1379.52">zone</text><line style="stroke: #A80036; stroke-width: 1.0;" x1="742" x2="784" y1="1413.7188" y2="1413.7188"/><line style="stroke: #A80036; stroke-width: 1.0;" x1="784" x2="784" y1="1413.7188" y2="1426.7188"/><line style="stroke: #A80036; stroke-width: 1.0;" x1="743" x2="784" y1="1426.7188" y2="1426.7188"/><polygon fill="#A80036" points="753,1422.7188,743,1426.7188,753,1430.7188,749,1426.7188" style="stroke: #A80036; stroke-width: 1.0;"/><text fill="#000000" font-family="sans-serif" font-size="13" lengthAdjust="spacingAndGlyphs" textLength="139" x="749" y="1408.6528">enqueue(taxiId, zone)</text><rect fill="none" height="103.3984" style="stroke: #000000; stroke-width: 2.0;" width="1477.5" x="43" y="1441.7188"/><polygon fill="#EEEEEE" points="43,1441.7188,120,1441.7188,120,1448.7188,110,1458.7188,43,1458.7188,43,1441.7188" style="stroke: #000000; stroke-width: 2.0;"/><text fill="#000000" font-family="sans-serif" font-size="13" font-weight="bold" lengthAdjust="spacingAndGlyphs" textLength="32" x="58" y="1454.7856">loop</text><text fill="#000000" font-family="sans-serif" font-size="11" font-weight="bold" lengthAdjust="spacingAndGlyphs" textLength="212" x="135" y="1453.9292">[for all taxi driver in zone queue]</text><line style="stroke: #A80036; stroke-width: 1.0;" x1="1431" x2="1421" y1="1479.8516" y2="1475.8516"/><line style="stroke: #A80036; stroke-width: 1.0;" x1="1431" x2="1421" y1="1479.8516" y2="1483.8516"/><line style="stroke: #A80036; stroke-width: 1.0;" x1="742" x2="1432" y1="1479.8516" y2="1479.8516"/><text fill="#000000" font-family="sans-serif" font-size="13" lengthAdjust="spacingAndGlyphs" textLength="301" x="749" y="1474.9185">notifyQueueUpdate(taxiId, position, queueSize)</text><line style="stroke: #A80036; stroke-width: 1.0;" x1="742" x2="752" y1="1493.9844" y2="1489.9844"/><line style="stroke: #A80036; stroke-width: 1.0;" x1="742" x2="752" y1="1493.9844" y2="1497.9844"/><line style="stroke: #A80036; stroke-width: 1.0; stroke-dasharray: 2.0,2.0;" x1="742" x2="1432" y1="1493.9844" y2="1493.9844"/><line style="stroke: #A80036; stroke-width: 1.0;" x1="119" x2="129" y1="1522.9844" y2="1518.9844"/><line style="stroke: #A80036; stroke-width: 1.0;" x1="119" x2="129" y1="1522.9844" y2="1526.9844"/><line style="stroke: #A80036; stroke-width: 1.0;" x1="119" x2="1432" y1="1522.9844" y2="1522.9844"/><text fill="#000000" font-family="sans-serif" font-size="13" lengthAdjust="spacingAndGlyphs" textLength="301" x="136" y="1518.0513">notifyQueueUpdate(taxiId, position, queueSize)</text><line style="stroke: #A80036; stroke-width: 1.0;" x1="1436" x2="1426" y1="1537.1172" y2="1533.1172"/><line style="stroke: #A80036; stroke-width: 1.0;" x1="1436" x2="1426" y1="1537.1172" y2="1541.1172"/><line style="stroke: #A80036; stroke-width: 1.0; stroke-dasharray: 2.0,2.0;" x1="114" x2="1437" y1="1537.1172" y2="1537.1172"/><line style="stroke: #A80036; stroke-width: 1.0;" x1="747" x2="789" y1="1573.25" y2="1573.25"/><line style="stroke: #A80036; stroke-width: 1.0;" x1="789" x2="789" y1="1573.25" y2="1586.25"/><line style="stroke: #A80036; stroke-width: 1.0;" x1="748" x2="789" y1="1586.25" y2="1586.25"/><polygon fill="#A80036" points="758,1582.25,748,1586.25,758,1590.25,754,1586.25" style="stroke: #A80036; stroke-width: 1.0;"/><text fill="#000000" font-family="sans-serif" font-size="13" lengthAdjust="spacingAndGlyphs" textLength="121" x="754" y="1568.1841">setAvailable(taxiId)</text><polygon fill="#A80036" points="1194,1641.25,1204,1645.25,1194,1649.25,1198,1645.25" style="stroke: #A80036; stroke-width: 1.0;"/><line style="stroke: #A80036; stroke-width: 1.0;" x1="742" x2="1200" y1="1645.25" y2="1645.25"/><text fill="#000000" font-family="sans-serif" font-size="13" lengthAdjust="spacingAndGlyphs" textLength="116" x="749" y="1640.3169">updateQueues(...)</text><polygon fill="#A80036" points="1308.5,1670.3828,1318.5,1674.3828,1308.5,1678.3828,1312.5,1674.3828" style="stroke: #A80036; stroke-width: 1.0;"/><line style="stroke: #A80036; stroke-width: 1.0;" x1="1216" x2="1314.5" y1="1674.3828" y2="1674.3828"/><text fill="#000000" font-family="sans-serif" font-size="13" lengthAdjust="spacingAndGlyphs" textLength="67" x="1223" y="1669.4497">update(...)</text><polygon fill="#A80036" points="1227,1684.5156,1217,1688.5156,1227,1692.5156,1223,1688.5156" style="stroke: #A80036; stroke-width: 1.0;"/><line style="stroke: #A80036; stroke-width: 1.0; stroke-dasharray: 2.0,2.0;" x1="1221" x2="1324.5" y1="1688.5156" y2="1688.5156"/><polygon fill="#A80036" points="753,1698.5156,743,1702.5156,753,1706.5156,749,1702.5156" style="stroke: #A80036; stroke-width: 1.0;"/><line style="stroke: #A80036; stroke-width: 1.0; stroke-dasharray: 2.0,2.0;" x1="747" x2="1210" y1="1702.5156" y2="1702.5156"/><line style="stroke: #A80036; stroke-width: 1.0;" x1="1431" x2="1421" y1="1731.5156" y2="1727.5156"/><line style="stroke: #A80036; stroke-width: 1.0;" x1="1431" x2="1421" y1="1731.5156" y2="1735.5156"/><line style="stroke: #A80036; stroke-width: 1.0;" x1="742" x2="1432" y1="1731.5156" y2="1731.5156"/><text fill="#000000" font-family="sans-serif" font-size="13" lengthAdjust="spacingAndGlyphs" textLength="216" x="749" y="1726.5825">notifyEnteredCity(taxiId,newZone)</text><line style="stroke: #A80036; stroke-width: 1.0;" x1="742" x2="752" y1="1745.6484" y2="1741.6484"/><line style="stroke: #A80036; stroke-width: 1.0;" x1="742" x2="752" y1="1745.6484" y2="1749.6484"/><line style="stroke: #A80036; stroke-width: 1.0; stroke-dasharray: 2.0,2.0;" x1="742" x2="1432" y1="1745.6484" y2="1745.6484"/><line style="stroke: #A80036; stroke-width: 1.0;" x1="114" x2="124" y1="1774.6484" y2="1770.6484"/><line style="stroke: #A80036; stroke-width: 1.0;" x1="114" x2="124" y1="1774.6484" y2="1778.6484"/><line style="stroke: #A80036; stroke-width: 1.0;" x1="114" x2="1432" y1="1774.6484" y2="1774.6484"/><text fill="#000000" font-family="sans-serif" font-size="13" lengthAdjust="spacingAndGlyphs" textLength="216" x="131" y="1769.7153">notifyEnteredCity(taxiId,newZone)</text><line style="stroke: #A80036; stroke-width: 1.0;" x1="1436" x2="1426" y1="1788.7813" y2="1784.7813"/><line style="stroke: #A80036; stroke-width: 1.0;" x1="1436" x2="1426" y1="1788.7813" y2="1792.7813"/><line style="stroke: #A80036; stroke-width: 1.0; stroke-dasharray: 2.0,2.0;" x1="114" x2="1437" y1="1788.7813" y2="1788.7813"/><line style="stroke: #A80036; stroke-width: 1.0;" x1="747" x2="789" y1="1831.9141" y2="1831.9141"/><line style="stroke: #A80036; stroke-width: 1.0;" x1="789" x2="789" y1="1831.9141" y2="1844.9141"/><line style="stroke: #A80036; stroke-width: 1.0;" x1="748" x2="789" y1="1844.9141" y2="1844.9141"/><polygon fill="#A80036" points="758,1840.9141,748,1844.9141,758,1848.9141,754,1844.9141" style="stroke: #A80036; stroke-width: 1.0;"/><text fill="#000000" font-family="sans-serif" font-size="13" lengthAdjust="spacingAndGlyphs" textLength="276" x="754" y="1826.8481">updateTaxiLocation(taxiId, currentLocation)</text><polygon fill="#A80036" points="1194,1899.9141,1204,1903.9141,1194,1907.9141,1198,1903.9141" style="stroke: #A80036; stroke-width: 1.0;"/><line style="stroke: #A80036; stroke-width: 1.0;" x1="742" x2="1200" y1="1903.9141" y2="1903.9141"/><text fill="#000000" font-family="sans-serif" font-size="13" lengthAdjust="spacingAndGlyphs" textLength="251" x="749" y="1898.981">updateLocation(taxiId, currentLocation)</text><polygon fill="#A80036" points="1308.5,1929.0469,1318.5,1933.0469,1308.5,1937.0469,1312.5,1933.0469" style="stroke: #A80036; stroke-width: 1.0;"/><line style="stroke: #A80036; stroke-width: 1.0;" x1="1216" x2="1314.5" y1="1933.0469" y2="1933.0469"/><text fill="#000000" font-family="sans-serif" font-size="13" lengthAdjust="spacingAndGlyphs" textLength="67" x="1223" y="1928.1138">update(...)</text><polygon fill="#A80036" points="1227,1943.1797,1217,1947.1797,1227,1951.1797,1223,1947.1797" style="stroke: #A80036; stroke-width: 1.0;"/><line style="stroke: #A80036; stroke-width: 1.0; stroke-dasharray: 2.0,2.0;" x1="1221" x2="1324.5" y1="1947.1797" y2="1947.1797"/><polygon fill="#A80036" points="748,1957.1797,738,1961.1797,748,1965.1797,744,1961.1797" style="stroke: #A80036; stroke-width: 1.0;"/><line style="stroke: #A80036; stroke-width: 1.0; stroke-dasharray: 2.0,2.0;" x1="742" x2="1210" y1="1961.1797" y2="1961.1797"/></g></svg>