<?xml version="1.0" encoding="UTF-8" standalone="yes"?><svg xmlns="http://www.w3.org/2000/svg" xmlns:xlink="http://www.w3.org/1999/xlink" height="1695px" style="width:1539px;height:1695px;" version="1.1" viewBox="0 0 1539 1695" width="1539px"><defs><filter height="300%" id="f1" width="300%" x="-1" y="-1"><feGaussianBlur result="blurOut" stdDeviation="2.0"/><feColorMatrix in="blurOut" result="blurOut2" type="matrix" values="0 0 0 0 0 0 0 0 0 0 0 0 0 0 0 0 0 0 .4 0"/><feOffset dx="4.0" dy="4.0" in="blurOut2" result="blurOut3"/><feBlend in="SourceGraphic" in2="blurOut3" mode="normal"/></filter></defs><g><text fill="#000000" font-family="sans-serif" font-size="14" font-weight="bold" lengthAdjust="spacingAndGlyphs" textLength="198" x="672.75" y="22.9951">sd_taxi_location_changed</text><rect fill="#FFFFFF" filter="url(#f1)" height="1409.9922" style="stroke: #A80036; stroke-width: 1.0;" width="10" x="94" y="78.5938"/><rect fill="#FFFFFF" filter="url(#f1)" height="57.2656" style="stroke: #A80036; stroke-width: 1.0;" width="10" x="408" y="99.5938"/><rect fill="#FFFFFF" filter="url(#f1)" height="1496.2578" style="stroke: #A80036; stroke-width: 1.0;" width="10" x="722" y="142.7266"/><rect fill="#FFFFFF" filter="url(#f1)" height="28" style="stroke: #A80036; stroke-width: 1.0;" width="10" x="727" y="193.8594"/><rect fill="#FFFFFF" filter="url(#f1)" height="28" style="stroke: #A80036; stroke-width: 1.0;" width="10" x="727" y="513.1875"/><rect fill="#FFFFFF" filter="url(#f1)" height="28" style="stroke: #A80036; stroke-width: 1.0;" width="10" x="727" y="779.6563"/><rect fill="#FFFFFF" filter="url(#f1)" height="28" style="stroke: #A80036; stroke-width: 1.0;" width="10" x="727" y="1186.7891"/><rect fill="#FFFFFF" filter="url(#f1)" height="28" style="stroke: #A80036; stroke-width: 1.0;" width="10" x="727" y="1258.9219"/><rect fill="#FFFFFF" filter="url(#f1)" height="28" style="stroke: #A80036; stroke-width: 1.0;" width="10" x="727" y="1517.5859"/><rect fill="#FFFFFF" filter="url(#f1)" height="29.1328" style="stroke: #A80036; stroke-width: 1.0;" width="10" x="1028" y="282.125"/><rect fill="#FFFFFF" filter="url(#f1)" height="87.3984" style="stroke: #A80036; stroke-width: 1.0;" width="10" x="1028" y="364.5234"/><rect fill="#FFFFFF" filter="url(#f1)" height="29.1328" style="stroke: #A80036; stroke-width: 1.0;" width="10" x="1028" y="1038.125"/><rect fill="#FFFFFF" filter="url(#f1)" height="29.1328" style="stroke: #A80036; stroke-width: 1.0;" width="10" x="1028" y="1120.5234"/><rect fill="#FFFFFF" filter="url(#f1)" height="57.2656" style="stroke: #A80036; stroke-width: 1.0;" width="10" x="1196" y="577.3203"/><rect fill="#FFFFFF" filter="url(#f1)" height="57.2656" style="stroke: #A80036; stroke-width: 1.0;" width="10" x="1196" y="843.7891"/><rect fill="#FFFFFF" filter="url(#f1)" height="57.2656" style="stroke: #A80036; stroke-width: 1.0;" width="10" x="1196" y="1323.0547"/><rect fill="#FFFFFF" filter="url(#f1)" height="57.2656" style="stroke: #A80036; stroke-width: 1.0;" width="10" x="1196" y="1581.7188"/><rect fill="#FFFFFF" filter="url(#f1)" height="14.1328" style="stroke: #A80036; stroke-width: 1.0;" width="10" x="1310.5" y="606.4531"/><rect fill="#FFFFFF" filter="url(#f1)" height="14.1328" style="stroke: #A80036; stroke-width: 1.0;" width="10" x="1310.5" y="872.9219"/><rect fill="#FFFFFF" filter="url(#f1)" height="14.1328" style="stroke: #A80036; stroke-width: 1.0;" width="10" x="1310.5" y="1352.1875"/><rect fill="#FFFFFF" filter="url(#f1)" height="14.1328" style="stroke: #A80036; stroke-width: 1.0;" width="10" x="1310.5" y="1610.8516"/><rect fill="#FFFFFF" filter="url(#f1)" height="57.2656" style="stroke: #A80036; stroke-width: 1.0;" width="10" x="1423" y="663.5859"/><rect fill="#FFFFFF" filter="url(#f1)" height="57.2656" style="stroke: #A80036; stroke-width: 1.0;" width="10" x="1423" y="930.0547"/><rect fill="#FFFFFF" filter="url(#f1)" height="57.2656" style="stroke: #A80036; stroke-width: 1.0;" width="10" x="1423" y="1409.3203"/><rect fill="#FFFFFF" filter="url(#f1)" height="1237.5938" style="stroke: #000000; stroke-width: 2.0;" width="1517.5" x="13" y="243.9922"/><rect fill="#FFFFFF" filter="url(#f1)" height="668.9297" style="stroke: #000000; stroke-width: 2.0;" width="1497.5" x="23" y="326.3906"/><rect fill="#FFFFFF" filter="url(#f1)" height="261.7969" style="stroke: #000000; stroke-width: 2.0;" width="1477.5" x="33" y="467.0547"/><rect fill="#FFFFFF" height="259.4688" style="stroke: none; stroke-width: 1.0;" width="1497.5" x="23" y="735.8516"/><rect fill="#FFFFFF" height="479.2656" style="stroke: none; stroke-width: 1.0;" width="1517.5" x="13" y="1002.3203"/><rect fill="#FFFFFF" filter="url(#f1)" height="392.1953" style="stroke: #000000; stroke-width: 2.0;" width="1477.5" x="33" y="1082.3906"/><line style="stroke: #A80036; stroke-width: 1.0; stroke-dasharray: 5.0,5.0;" x1="99" x2="99" y1="68.5938" y2="1656.9844"/><line style="stroke: #A80036; stroke-width: 1.0; stroke-dasharray: 5.0,5.0;" x1="412.5" x2="412.5" y1="68.5938" y2="1656.9844"/><line style="stroke: #A80036; stroke-width: 1.0; stroke-dasharray: 5.0,5.0;" x1="727" x2="727" y1="68.5938" y2="1656.9844"/><line style="stroke: #A80036; stroke-width: 1.0; stroke-dasharray: 5.0,5.0;" x1="1032.5" x2="1032.5" y1="68.5938" y2="1656.9844"/><line style="stroke: #A80036; stroke-width: 1.0; stroke-dasharray: 5.0,5.0;" x1="1200.5" x2="1200.5" y1="68.5938" y2="1656.9844"/><line style="stroke: #A80036; stroke-width: 1.0; stroke-dasharray: 5.0,5.0;" x1="1315.5" x2="1315.5" y1="68.5938" y2="1656.9844"/><line style="stroke: #A80036; stroke-width: 1.0; stroke-dasharray: 5.0,5.0;" x1="1427.5" x2="1427.5" y1="68.5938" y2="1656.9844"/><rect fill="#FEFECE" filter="url(#f1)" height="30.2969" style="stroke: #A80036; stroke-width: 1.5;" width="108" x="43" y="33.2969"/><text fill="#000000" font-family="sans-serif" font-size="14" lengthAdjust="spacingAndGlyphs" textLength="94" x="50" y="53.292">TaxiDriverApp</text><rect fill="#FEFECE" filter="url(#f1)" height="30.2969" style="stroke: #A80036; stroke-width: 1.5;" width="108" x="43" y="1655.9844"/><text fill="#000000" font-family="sans-serif" font-size="14" lengthAdjust="spacingAndGlyphs" textLength="94" x="50" y="1675.9795">TaxiDriverApp</text><rect fill="#FEFECE" filter="url(#f1)" height="30.2969" style="stroke: #A80036; stroke-width: 1.5;" width="187" x="317.5" y="33.2969"/><text fill="#000000" font-family="sans-serif" font-size="14" lengthAdjust="spacingAndGlyphs" textLength="173" x="324.5" y="53.292">RemoteServicesInterface</text><rect fill="#FEFECE" filter="url(#f1)" height="30.2969" style="stroke: #A80036; stroke-width: 1.5;" width="187" x="317.5" y="1655.9844"/><text fill="#000000" font-family="sans-serif" font-size="14" lengthAdjust="spacingAndGlyphs" textLength="173" x="324.5" y="1675.9795">RemoteServicesInterface</text><rect fill="#FEFECE" filter="url(#f1)" height="30.2969" style="stroke: #A80036; stroke-width: 1.5;" width="132" x="659" y="33.2969"/><text fill="#000000" font-family="sans-serif" font-size="14" lengthAdjust="spacingAndGlyphs" textLength="118" x="666" y="53.292">TaxiManagement</text><rect fill="#FEFECE" filter="url(#f1)" height="30.2969" style="stroke: #A80036; stroke-width: 1.5;" width="132" x="659" y="1655.9844"/><text fill="#000000" font-family="sans-serif" font-size="14" lengthAdjust="spacingAndGlyphs" textLength="118" x="666" y="1675.9795">TaxiManagement</text><rect fill="#FEFECE" filter="url(#f1)" height="30.2969" style="stroke: #A80036; stroke-width: 1.5;" width="163" x="949.5" y="33.2969"/><text fill="#000000" font-family="sans-serif" font-size="14" lengthAdjust="spacingAndGlyphs" textLength="149" x="956.5" y="53.292">LocationManagement</text><rect fill="#FEFECE" filter="url(#f1)" height="30.2969" style="stroke: #A80036; stroke-width: 1.5;" width="163" x="949.5" y="1655.9844"/><text fill="#000000" font-family="sans-serif" font-size="14" lengthAdjust="spacingAndGlyphs" textLength="149" x="956.5" y="1675.9795">LocationManagement</text><rect fill="#FEFECE" filter="url(#f1)" height="30.2969" style="stroke: #A80036; stroke-width: 1.5;" width="145" x="1126.5" y="33.2969"/><text fill="#000000" font-family="sans-serif" font-size="14" lengthAdjust="spacingAndGlyphs" textLength="131" x="1133.5" y="53.292">DataAccessUtilities</text><rect fill="#FEFECE" filter="url(#f1)" height="30.2969" style="stroke: #A80036; stroke-width: 1.5;" width="145" x="1126.5" y="1655.9844"/><text fill="#000000" font-family="sans-serif" font-size="14" lengthAdjust="spacingAndGlyphs" textLength="131" x="1133.5" y="1675.9795">DataAccessUtilities</text><rect fill="#FEFECE" filter="url(#f1)" height="30.2969" style="stroke: #A80036; stroke-width: 1.5;" width="56" x="1285.5" y="33.2969"/><text fill="#000000" font-family="sans-serif" font-size="14" lengthAdjust="spacingAndGlyphs" textLength="42" x="1292.5" y="53.292">DBMS</text><rect fill="#FEFECE" filter="url(#f1)" height="30.2969" style="stroke: #A80036; stroke-width: 1.5;" width="56" x="1285.5" y="1655.9844"/><text fill="#000000" font-family="sans-serif" font-size="14" lengthAdjust="spacingAndGlyphs" textLength="42" x="1292.5" y="1675.9795">DBMS</text><rect fill="#FEFECE" filter="url(#f1)" height="30.2969" style="stroke: #A80036; stroke-width: 1.5;" width="141" x="1355.5" y="33.2969"/><text fill="#000000" font-family="sans-serif" font-size="14" lengthAdjust="spacingAndGlyphs" textLength="127" x="1362.5" y="53.292">NotificationSystem</text><rect fill="#FEFECE" filter="url(#f1)" height="30.2969" style="stroke: #A80036; stroke-width: 1.5;" width="141" x="1355.5" y="1655.9844"/><text fill="#000000" font-family="sans-serif" font-size="14" lengthAdjust="spacingAndGlyphs" textLength="127" x="1362.5" y="1675.9795">NotificationSystem</text><rect fill="#FFFFFF" filter="url(#f1)" height="1409.9922" style="stroke: #A80036; stroke-width: 1.0;" width="10" x="94" y="78.5938"/><rect fill="#FFFFFF" filter="url(#f1)" height="57.2656" style="stroke: #A80036; stroke-width: 1.0;" width="10" x="408" y="99.5938"/><rect fill="#FFFFFF" filter="url(#f1)" height="1496.2578" style="stroke: #A80036; stroke-width: 1.0;" width="10" x="722" y="142.7266"/><rect fill="#FFFFFF" filter="url(#f1)" height="28" style="stroke: #A80036; stroke-width: 1.0;" width="10" x="727" y="193.8594"/><rect fill="#FFFFFF" filter="url(#f1)" height="28" style="stroke: #A80036; stroke-width: 1.0;" width="10" x="727" y="513.1875"/><rect fill="#FFFFFF" filter="url(#f1)" height="28" style="stroke: #A80036; stroke-width: 1.0;" width="10" x="727" y="779.6563"/><rect fill="#FFFFFF" filter="url(#f1)" height="28" style="stroke: #A80036; stroke-width: 1.0;" width="10" x="727" y="1186.7891"/><rect fill="#FFFFFF" filter="url(#f1)" height="28" style="stroke: #A80036; stroke-width: 1.0;" width="10" x="727" y="1258.9219"/><rect fill="#FFFFFF" filter="url(#f1)" height="28" style="stroke: #A80036; stroke-width: 1.0;" width="10" x="727" y="1517.5859"/><rect fill="#FFFFFF" filter="url(#f1)" height="29.1328" style="stroke: #A80036; stroke-width: 1.0;" width="10" x="1028" y="282.125"/><rect fill="#FFFFFF" filter="url(#f1)" height="87.3984" style="stroke: #A80036; stroke-width: 1.0;" width="10" x="1028" y="364.5234"/><rect fill="#FFFFFF" filter="url(#f1)" height="29.1328" style="stroke: #A80036; stroke-width: 1.0;" width="10" x="1028" y="1038.125"/><rect fill="#FFFFFF" filter="url(#f1)" height="29.1328" style="stroke: #A80036; stroke-width: 1.0;" width="10" x="1028" y="1120.5234"/><rect fill="#FFFFFF" filter="url(#f1)" height="57.2656" style="stroke: #A80036; stroke-width: 1.0;" width="10" x="1196" y="577.3203"/><rect fill="#FFFFFF" filter="url(#f1)" height="57.2656" style="stroke: #A80036; stroke-width: 1.0;" width="10" x="1196" y="843.7891"/><rect fill="#FFFFFF" filter="url(#f1)" height="57.2656" style="stroke: #A80036; stroke-width: 1.0;" width="10" x="1196" y="1323.0547"/><rect fill="#FFFFFF" filter="url(#f1)" height="57.2656" style="stroke: #A80036; stroke-width: 1.0;" width="10" x="1196" y="1581.7188"/><rect fill="#FFFFFF" filter="url(#f1)" height="14.1328" style="stroke: #A80036; stroke-width: 1.0;" width="10" x="1310.5" y="606.4531"/><rect fill="#FFFFFF" filter="url(#f1)" height="14.1328" style="stroke: #A80036; stroke-width: 1.0;" width="10" x="1310.5" y="872.9219"/><rect fill="#FFFFFF" filter="url(#f1)" height="14.1328" style="stroke: #A80036; stroke-width: 1.0;" width="10" x="1310.5" y="1352.1875"/><rect fill="#FFFFFF" filter="url(#f1)" height="14.1328" style="stroke: #A80036; stroke-width: 1.0;" width="10" x="1310.5" y="1610.8516"/><rect fill="#FFFFFF" filter="url(#f1)" height="57.2656" style="stroke: #A80036; stroke-width: 1.0;" width="10" x="1423" y="663.5859"/><rect fill="#FFFFFF" filter="url(#f1)" height="57.2656" style="stroke: #A80036; stroke-width: 1.0;" width="10" x="1423" y="930.0547"/><rect fill="#FFFFFF" filter="url(#f1)" height="57.2656" style="stroke: #A80036; stroke-width: 1.0;" width="10" x="1423" y="1409.3203"/><line style="stroke: #A80036; stroke-width: 1.0;" x1="406" x2="396" y1="99.5938" y2="95.5938"/><line style="stroke: #A80036; stroke-width: 1.0;" x1="406" x2="396" y1="99.5938" y2="103.5938"/><line style="stroke: #A80036; stroke-width: 1.0;" x1="104" x2="407" y1="99.5938" y2="99.5938"/><text fill="#000000" font-family="sans-serif" font-size="13" lengthAdjust="spacingAndGlyphs" textLength="285" x="111" y="94.6606">sendCurrentLocation(taxiId, currentLocation)</text><line style="stroke: #A80036; stroke-width: 1.0;" x1="104" x2="114" y1="113.7266" y2="109.7266"/><line style="stroke: #A80036; stroke-width: 1.0;" x1="104" x2="114" y1="113.7266" y2="117.7266"/><line style="stroke: #A80036; stroke-width: 1.0; stroke-dasharray: 2.0,2.0;" x1="104" x2="407" y1="113.7266" y2="113.7266"/><line style="stroke: #A80036; stroke-width: 1.0;" x1="720" x2="710" y1="142.7266" y2="138.7266"/><line style="stroke: #A80036; stroke-width: 1.0;" x1="720" x2="710" y1="142.7266" y2="146.7266"/><line style="stroke: #A80036; stroke-width: 1.0;" x1="418" x2="721" y1="142.7266" y2="142.7266"/><text fill="#000000" font-family="sans-serif" font-size="13" lengthAdjust="spacingAndGlyphs" textLength="285" x="425" y="137.7935">sendCurrentLocation(taxiId, currentLocation)</text><line style="stroke: #A80036; stroke-width: 1.0;" x1="413" x2="423" y1="156.8594" y2="152.8594"/><line style="stroke: #A80036; stroke-width: 1.0;" x1="413" x2="423" y1="156.8594" y2="160.8594"/><line style="stroke: #A80036; stroke-width: 1.0; stroke-dasharray: 2.0,2.0;" x1="413" x2="721" y1="156.8594" y2="156.8594"/><line style="stroke: #A80036; stroke-width: 1.0;" x1="737" x2="779" y1="185.9922" y2="185.9922"/><line style="stroke: #A80036; stroke-width: 1.0;" x1="779" x2="779" y1="185.9922" y2="198.9922"/><line style="stroke: #A80036; stroke-width: 1.0;" x1="738" x2="779" y1="198.9922" y2="198.9922"/><polygon fill="#A80036" points="748,194.9922,738,198.9922,748,202.9922,744,198.9922" style="stroke: #A80036; stroke-width: 1.0;"/><text fill="#000000" font-family="sans-serif" font-size="13" lengthAdjust="spacingAndGlyphs" textLength="148" x="744" y="180.9263">checkTaxiStatus(taxiId)</text><rect fill="none" height="1237.5938" style="stroke: #000000; stroke-width: 2.0;" width="1517.5" x="13" y="243.9922"/><polygon fill="#EEEEEE" points="13,243.9922,77,243.9922,77,250.9922,67,260.9922,13,260.9922,13,243.9922" style="stroke: #000000; stroke-width: 2.0;"/><text fill="#000000" font-family="sans-serif" font-size="13" font-weight="bold" lengthAdjust="spacingAndGlyphs" textLength="19" x="28" y="257.0591">alt</text><text fill="#000000" font-family="sans-serif" font-size="11" font-weight="bold" lengthAdjust="spacingAndGlyphs" textLength="135" x="92" y="256.2026">[status == available]</text><polygon fill="#A80036" points="1016,278.125,1026,282.125,1016,286.125,1020,282.125" style="stroke: #A80036; stroke-width: 1.0;"/><line style="stroke: #A80036; stroke-width: 1.0;" x1="732" x2="1022" y1="282.125" y2="282.125"/><text fill="#000000" font-family="sans-serif" font-size="13" lengthAdjust="spacingAndGlyphs" textLength="235" x="739" y="277.1919">isLocationInsideCity(currentLocation)</text><polygon fill="#A80036" points="743,307.2578,733,311.2578,743,315.2578,739,311.2578" style="stroke: #A80036; stroke-width: 1.0;"/><line style="stroke: #A80036; stroke-width: 1.0; stroke-dasharray: 2.0,2.0;" x1="737" x2="1032" y1="311.2578" y2="311.2578"/><text fill="#000000" font-family="sans-serif" font-size="13" lengthAdjust="spacingAndGlyphs" textLength="36" x="749" y="306.3247">result</text><rect fill="none" height="668.9297" style="stroke: #000000; stroke-width: 2.0;" width="1497.5" x="23" y="326.3906"/><polygon fill="#EEEEEE" points="23,326.3906,87,326.3906,87,333.3906,77,343.3906,23,343.3906,23,326.3906" style="stroke: #000000; stroke-width: 2.0;"/><text fill="#000000" font-family="sans-serif" font-size="13" font-weight="bold" lengthAdjust="spacingAndGlyphs" textLength="19" x="38" y="339.4575">alt</text><text fill="#000000" font-family="sans-serif" font-size="11" font-weight="bold" lengthAdjust="spacingAndGlyphs" textLength="76" x="102" y="338.6011">[inside city]</text><polygon fill="#A80036" points="1016,360.5234,1026,364.5234,1016,368.5234,1020,364.5234" style="stroke: #A80036; stroke-width: 1.0;"/><line style="stroke: #A80036; stroke-width: 1.0;" x1="732" x2="1022" y1="364.5234" y2="364.5234"/><text fill="#000000" font-family="sans-serif" font-size="13" lengthAdjust="spacingAndGlyphs" textLength="165" x="739" y="359.5903">getZone(currentLocation)</text><polygon fill="#A80036" points="743,389.6563,733,393.6563,743,397.6563,739,393.6563" style="stroke: #A80036; stroke-width: 1.0;"/><line style="stroke: #A80036; stroke-width: 1.0; stroke-dasharray: 2.0,2.0;" x1="737" x2="1027" y1="393.6563" y2="393.6563"/><text fill="#000000" font-family="sans-serif" font-size="13" lengthAdjust="spacingAndGlyphs" textLength="59" x="749" y="388.7231">newZone</text><polygon fill="#A80036" points="1016,418.7891,1026,422.7891,1016,426.7891,1020,422.7891" style="stroke: #A80036; stroke-width: 1.0;"/><line style="stroke: #A80036; stroke-width: 1.0;" x1="732" x2="1022" y1="422.7891" y2="422.7891"/><text fill="#000000" font-family="sans-serif" font-size="13" lengthAdjust="spacingAndGlyphs" textLength="173" x="739" y="417.856">getZone(previousLocation)</text><polygon fill="#A80036" points="743,447.9219,733,451.9219,743,455.9219,739,451.9219" style="stroke: #A80036; stroke-width: 1.0;"/><line style="stroke: #A80036; stroke-width: 1.0; stroke-dasharray: 2.0,2.0;" x1="737" x2="1032" y1="451.9219" y2="451.9219"/><text fill="#000000" font-family="sans-serif" font-size="13" lengthAdjust="spacingAndGlyphs" textLength="53" x="749" y="446.9888">oldZone</text><rect fill="none" height="261.7969" style="stroke: #000000; stroke-width: 2.0;" width="1477.5" x="33" y="467.0547"/><polygon fill="#EEEEEE" points="33,467.0547,97,467.0547,97,474.0547,87,484.0547,33,484.0547,33,467.0547" style="stroke: #000000; stroke-width: 2.0;"/><text fill="#000000" font-family="sans-serif" font-size="13" font-weight="bold" lengthAdjust="spacingAndGlyphs" textLength="19" x="48" y="480.1216">alt</text><text fill="#000000" font-family="sans-serif" font-size="11" font-weight="bold" lengthAdjust="spacingAndGlyphs" textLength="373" x="112" y="479.2651">[newZone == oldZone (i.e., the taxi driver changed zone)]</text><line style="stroke: #A80036; stroke-width: 1.0;" x1="737" x2="779" y1="505.3203" y2="505.3203"/><line style="stroke: #A80036; stroke-width: 1.0;" x1="779" x2="779" y1="505.3203" y2="518.3203"/><line style="stroke: #A80036; stroke-width: 1.0;" x1="738" x2="779" y1="518.3203" y2="518.3203"/><polygon fill="#A80036" points="748,514.3203,738,518.3203,748,522.3203,744,518.3203" style="stroke: #A80036; stroke-width: 1.0;"/><text fill="#000000" font-family="sans-serif" font-size="13" lengthAdjust="spacingAndGlyphs" textLength="162" x="744" y="500.2544">updateZone(taxiId, zone)</text><polygon fill="#A80036" points="1184,573.3203,1194,577.3203,1184,581.3203,1188,577.3203" style="stroke: #A80036; stroke-width: 1.0;"/><line style="stroke: #A80036; stroke-width: 1.0;" x1="732" x2="1190" y1="577.3203" y2="577.3203"/><text fill="#000000" font-family="sans-serif" font-size="13" lengthAdjust="spacingAndGlyphs" textLength="116" x="739" y="572.3872">updateQueues(...)</text><polygon fill="#A80036" points="1298.5,602.4531,1308.5,606.4531,1298.5,610.4531,1302.5,606.4531" style="stroke: #A80036; stroke-width: 1.0;"/><line style="stroke: #A80036; stroke-width: 1.0;" x1="1206" x2="1304.5" y1="606.4531" y2="606.4531"/><text fill="#000000" font-family="sans-serif" font-size="13" lengthAdjust="spacingAndGlyphs" textLength="67" x="1213" y="601.52">update(...)</text><polygon fill="#A80036" points="1217,616.5859,1207,620.5859,1217,624.5859,1213,620.5859" style="stroke: #A80036; stroke-width: 1.0;"/><line style="stroke: #A80036; stroke-width: 1.0; stroke-dasharray: 2.0,2.0;" x1="1211" x2="1314.5" y1="620.5859" y2="620.5859"/><polygon fill="#A80036" points="743,630.5859,733,634.5859,743,638.5859,739,634.5859" style="stroke: #A80036; stroke-width: 1.0;"/><line style="stroke: #A80036; stroke-width: 1.0; stroke-dasharray: 2.0,2.0;" x1="737" x2="1200" y1="634.5859" y2="634.5859"/><line style="stroke: #A80036; stroke-width: 1.0;" x1="1421" x2="1411" y1="663.5859" y2="659.5859"/><line style="stroke: #A80036; stroke-width: 1.0;" x1="1421" x2="1411" y1="663.5859" y2="667.5859"/><line style="stroke: #A80036; stroke-width: 1.0;" x1="732" x2="1422" y1="663.5859" y2="663.5859"/><text fill="#000000" font-family="sans-serif" font-size="13" lengthAdjust="spacingAndGlyphs" textLength="233" x="739" y="658.6528">notifyZoneChanged(taxiId,newZone)</text><line style="stroke: #A80036; stroke-width: 1.0;" x1="732" x2="742" y1="677.7188" y2="673.7188"/><line style="stroke: #A80036; stroke-width: 1.0;" x1="732" x2="742" y1="677.7188" y2="681.7188"/><line style="stroke: #A80036; stroke-width: 1.0; stroke-dasharray: 2.0,2.0;" x1="732" x2="1422" y1="677.7188" y2="677.7188"/><line style="stroke: #A80036; stroke-width: 1.0;" x1="104" x2="114" y1="706.7188" y2="702.7188"/><line style="stroke: #A80036; stroke-width: 1.0;" x1="104" x2="114" y1="706.7188" y2="710.7188"/><line style="stroke: #A80036; stroke-width: 1.0;" x1="104" x2="1422" y1="706.7188" y2="706.7188"/><text fill="#000000" font-family="sans-serif" font-size="13" lengthAdjust="spacingAndGlyphs" textLength="233" x="121" y="701.7856">notifyZoneChanged(taxiId,newZone)</text><line style="stroke: #A80036; stroke-width: 1.0;" x1="1426" x2="1416" y1="720.8516" y2="716.8516"/><line style="stroke: #A80036; stroke-width: 1.0;" x1="1426" x2="1416" y1="720.8516" y2="724.8516"/><line style="stroke: #A80036; stroke-width: 1.0; stroke-dasharray: 2.0,2.0;" x1="104" x2="1427" y1="720.8516" y2="720.8516"/><line style="stroke: #000000; stroke-width: 1.0; stroke-dasharray: 2.0,2.0;" x1="23" x2="1520.5" y1="736.8516" y2="736.8516"/><text fill="#000000" font-family="sans-serif" font-size="11" font-weight="bold" lengthAdjust="spacingAndGlyphs" textLength="85" x="28" y="747.062">[outside city]</text><line style="stroke: #A80036; stroke-width: 1.0;" x1="737" x2="779" y1="771.7891" y2="771.7891"/><line style="stroke: #A80036; stroke-width: 1.0;" x1="779" x2="779" y1="771.7891" y2="784.7891"/><line style="stroke: #A80036; stroke-width: 1.0;" x1="738" x2="779" y1="784.7891" y2="784.7891"/><polygon fill="#A80036" points="748,780.7891,738,784.7891,748,788.7891,744,784.7891" style="stroke: #A80036; stroke-width: 1.0;"/><text fill="#000000" font-family="sans-serif" font-size="13" lengthAdjust="spacingAndGlyphs" textLength="137" x="744" y="766.7231">setOutsideCity(taxiId)</text><polygon fill="#A80036" points="1184,839.7891,1194,843.7891,1184,847.7891,1188,843.7891" style="stroke: #A80036; stroke-width: 1.0;"/><line style="stroke: #A80036; stroke-width: 1.0;" x1="732" x2="1190" y1="843.7891" y2="843.7891"/><text fill="#000000" font-family="sans-serif" font-size="13" lengthAdjust="spacingAndGlyphs" textLength="116" x="739" y="838.856">updateQueues(...)</text><polygon fill="#A80036" points="1298.5,868.9219,1308.5,872.9219,1298.5,876.9219,1302.5,872.9219" style="stroke: #A80036; stroke-width: 1.0;"/><line style="stroke: #A80036; stroke-width: 1.0;" x1="1206" x2="1304.5" y1="872.9219" y2="872.9219"/><text fill="#000000" font-family="sans-serif" font-size="13" lengthAdjust="spacingAndGlyphs" textLength="67" x="1213" y="867.9888">update(...)</text><polygon fill="#A80036" points="1217,883.0547,1207,887.0547,1217,891.0547,1213,887.0547" style="stroke: #A80036; stroke-width: 1.0;"/><line style="stroke: #A80036; stroke-width: 1.0; stroke-dasharray: 2.0,2.0;" x1="1211" x2="1314.5" y1="887.0547" y2="887.0547"/><polygon fill="#A80036" points="743,897.0547,733,901.0547,743,905.0547,739,901.0547" style="stroke: #A80036; stroke-width: 1.0;"/><line style="stroke: #A80036; stroke-width: 1.0; stroke-dasharray: 2.0,2.0;" x1="737" x2="1200" y1="901.0547" y2="901.0547"/><line style="stroke: #A80036; stroke-width: 1.0;" x1="1421" x2="1411" y1="930.0547" y2="926.0547"/><line style="stroke: #A80036; stroke-width: 1.0;" x1="1421" x2="1411" y1="930.0547" y2="934.0547"/><line style="stroke: #A80036; stroke-width: 1.0;" x1="732" x2="1422" y1="930.0547" y2="930.0547"/><text fill="#000000" font-family="sans-serif" font-size="13" lengthAdjust="spacingAndGlyphs" textLength="142" x="739" y="925.1216">notifyExitedCity(taxiId)</text><line style="stroke: #A80036; stroke-width: 1.0;" x1="732" x2="742" y1="944.1875" y2="940.1875"/><line style="stroke: #A80036; stroke-width: 1.0;" x1="732" x2="742" y1="944.1875" y2="948.1875"/><line style="stroke: #A80036; stroke-width: 1.0; stroke-dasharray: 2.0,2.0;" x1="732" x2="1422" y1="944.1875" y2="944.1875"/><line style="stroke: #A80036; stroke-width: 1.0;" x1="104" x2="114" y1="973.1875" y2="969.1875"/><line style="stroke: #A80036; stroke-width: 1.0;" x1="104" x2="114" y1="973.1875" y2="977.1875"/><line style="stroke: #A80036; stroke-width: 1.0;" x1="104" x2="1422" y1="973.1875" y2="973.1875"/><text fill="#000000" font-family="sans-serif" font-size="13" lengthAdjust="spacingAndGlyphs" textLength="142" x="121" y="968.2544">notifyExitedCity(taxiId)</text><line style="stroke: #A80036; stroke-width: 1.0;" x1="1426" x2="1416" y1="987.3203" y2="983.3203"/><line style="stroke: #A80036; stroke-width: 1.0;" x1="1426" x2="1416" y1="987.3203" y2="991.3203"/><line style="stroke: #A80036; stroke-width: 1.0; stroke-dasharray: 2.0,2.0;" x1="104" x2="1427" y1="987.3203" y2="987.3203"/><line style="stroke: #000000; stroke-width: 1.0; stroke-dasharray: 2.0,2.0;" x1="13" x2="1530.5" y1="1003.3203" y2="1003.3203"/><text fill="#000000" font-family="sans-serif" font-size="11" font-weight="bold" lengthAdjust="spacingAndGlyphs" textLength="153" x="18" y="1013.5308">[status == outside_city]</text><polygon fill="#A80036" points="1016,1034.125,1026,1038.125,1016,1042.125,1020,1038.125" style="stroke: #A80036; stroke-width: 1.0;"/><line style="stroke: #A80036; stroke-width: 1.0;" x1="732" x2="1022" y1="1038.125" y2="1038.125"/><text fill="#000000" font-family="sans-serif" font-size="13" lengthAdjust="spacingAndGlyphs" textLength="277" x="739" y="1033.1919">isLocationInsideCity(taxiId, currentLocation)</text><polygon fill="#A80036" points="743,1063.2578,733,1067.2578,743,1071.2578,739,1067.2578" style="stroke: #A80036; stroke-width: 1.0;"/><line style="stroke: #A80036; stroke-width: 1.0; stroke-dasharray: 2.0,2.0;" x1="737" x2="1032" y1="1067.2578" y2="1067.2578"/><text fill="#000000" font-family="sans-serif" font-size="13" lengthAdjust="spacingAndGlyphs" textLength="36" x="749" y="1062.3247">result</text><rect fill="none" height="392.1953" style="stroke: #000000; stroke-width: 2.0;" width="1477.5" x="33" y="1082.3906"/><polygon fill="#EEEEEE" points="33,1082.3906,97,1082.3906,97,1089.3906,87,1099.3906,33,1099.3906,33,1082.3906" style="stroke: #000000; stroke-width: 2.0;"/><text fill="#000000" font-family="sans-serif" font-size="13" font-weight="bold" lengthAdjust="spacingAndGlyphs" textLength="19" x="48" y="1095.4575">alt</text><text fill="#000000" font-family="sans-serif" font-size="11" font-weight="bold" lengthAdjust="spacingAndGlyphs" textLength="76" x="112" y="1094.6011">[inside city]</text><polygon fill="#A80036" points="1016,1116.5234,1026,1120.5234,1016,1124.5234,1020,1120.5234" style="stroke: #A80036; stroke-width: 1.0;"/><line style="stroke: #A80036; stroke-width: 1.0;" x1="732" x2="1022" y1="1120.5234" y2="1120.5234"/><text fill="#000000" font-family="sans-serif" font-size="13" lengthAdjust="spacingAndGlyphs" textLength="165" x="739" y="1115.5903">getZone(currentLocation)</text><polygon fill="#A80036" points="743,1145.6563,733,1149.6563,743,1153.6563,739,1149.6563" style="stroke: #A80036; stroke-width: 1.0;"/><line style="stroke: #A80036; stroke-width: 1.0; stroke-dasharray: 2.0,2.0;" x1="737" x2="1032" y1="1149.6563" y2="1149.6563"/><text fill="#000000" font-family="sans-serif" font-size="13" lengthAdjust="spacingAndGlyphs" textLength="31" x="749" y="1144.7231">zone</text><line style="stroke: #A80036; stroke-width: 1.0;" x1="737" x2="779" y1="1178.9219" y2="1178.9219"/><line style="stroke: #A80036; stroke-width: 1.0;" x1="779" x2="779" y1="1178.9219" y2="1191.9219"/><line style="stroke: #A80036; stroke-width: 1.0;" x1="738" x2="779" y1="1191.9219" y2="1191.9219"/><polygon fill="#A80036" points="748,1187.9219,738,1191.9219,748,1195.9219,744,1191.9219" style="stroke: #A80036; stroke-width: 1.0;"/><text fill="#000000" font-family="sans-serif" font-size="13" lengthAdjust="spacingAndGlyphs" textLength="139" x="744" y="1173.856">enqueue(taxiId, zone)</text><line style="stroke: #A80036; stroke-width: 1.0;" x1="737" x2="779" y1="1251.0547" y2="1251.0547"/><line style="stroke: #A80036; stroke-width: 1.0;" x1="779" x2="779" y1="1251.0547" y2="1264.0547"/><line style="stroke: #A80036; stroke-width: 1.0;" x1="738" x2="779" y1="1264.0547" y2="1264.0547"/><polygon fill="#A80036" points="748,1260.0547,738,1264.0547,748,1268.0547,744,1264.0547" style="stroke: #A80036; stroke-width: 1.0;"/><text fill="#000000" font-family="sans-serif" font-size="13" lengthAdjust="spacingAndGlyphs" textLength="121" x="744" y="1245.9888">setAvailable(taxiId)</text><polygon fill="#A80036" points="1184,1319.0547,1194,1323.0547,1184,1327.0547,1188,1323.0547" style="stroke: #A80036; stroke-width: 1.0;"/><line style="stroke: #A80036; stroke-width: 1.0;" x1="732" x2="1190" y1="1323.0547" y2="1323.0547"/><text fill="#000000" font-family="sans-serif" font-size="13" lengthAdjust="spacingAndGlyphs" textLength="116" x="739" y="1318.1216">updateQueues(...)</text><polygon fill="#A80036" points="1298.5,1348.1875,1308.5,1352.1875,1298.5,1356.1875,1302.5,1352.1875" style="stroke: #A80036; stroke-width: 1.0;"/><line style="stroke: #A80036; stroke-width: 1.0;" x1="1206" x2="1304.5" y1="1352.1875" y2="1352.1875"/><text fill="#000000" font-family="sans-serif" font-size="13" lengthAdjust="spacingAndGlyphs" textLength="67" x="1213" y="1347.2544">update(...)</text><polygon fill="#A80036" points="1217,1362.3203,1207,1366.3203,1217,1370.3203,1213,1366.3203" style="stroke: #A80036; stroke-width: 1.0;"/><line style="stroke: #A80036; stroke-width: 1.0; stroke-dasharray: 2.0,2.0;" x1="1211" x2="1314.5" y1="1366.3203" y2="1366.3203"/><polygon fill="#A80036" points="743,1376.3203,733,1380.3203,743,1384.3203,739,1380.3203" style="stroke: #A80036; stroke-width: 1.0;"/><line style="stroke: #A80036; stroke-width: 1.0; stroke-dasharray: 2.0,2.0;" x1="737" x2="1200" y1="1380.3203" y2="1380.3203"/><line style="stroke: #A80036; stroke-width: 1.0;" x1="1421" x2="1411" y1="1409.3203" y2="1405.3203"/><line style="stroke: #A80036; stroke-width: 1.0;" x1="1421" x2="1411" y1="1409.3203" y2="1413.3203"/><line style="stroke: #A80036; stroke-width: 1.0;" x1="732" x2="1422" y1="1409.3203" y2="1409.3203"/><text fill="#000000" font-family="sans-serif" font-size="13" lengthAdjust="spacingAndGlyphs" textLength="216" x="739" y="1404.3872">notifyEnteredCity(taxiId,newZone)</text><line style="stroke: #A80036; stroke-width: 1.0;" x1="732" x2="742" y1="1423.4531" y2="1419.4531"/><line style="stroke: #A80036; stroke-width: 1.0;" x1="732" x2="742" y1="1423.4531" y2="1427.4531"/><line style="stroke: #A80036; stroke-width: 1.0; stroke-dasharray: 2.0,2.0;" x1="732" x2="1422" y1="1423.4531" y2="1423.4531"/><line style="stroke: #A80036; stroke-width: 1.0;" x1="104" x2="114" y1="1452.4531" y2="1448.4531"/><line style="stroke: #A80036; stroke-width: 1.0;" x1="104" x2="114" y1="1452.4531" y2="1456.4531"/><line style="stroke: #A80036; stroke-width: 1.0;" x1="104" x2="1422" y1="1452.4531" y2="1452.4531"/><text fill="#000000" font-family="sans-serif" font-size="13" lengthAdjust="spacingAndGlyphs" textLength="216" x="121" y="1447.52">notifyEnteredCity(taxiId,newZone)</text><line style="stroke: #A80036; stroke-width: 1.0;" x1="1426" x2="1416" y1="1466.5859" y2="1462.5859"/><line style="stroke: #A80036; stroke-width: 1.0;" x1="1426" x2="1416" y1="1466.5859" y2="1470.5859"/><line style="stroke: #A80036; stroke-width: 1.0; stroke-dasharray: 2.0,2.0;" x1="104" x2="1427" y1="1466.5859" y2="1466.5859"/><line style="stroke: #A80036; stroke-width: 1.0;" x1="737" x2="779" y1="1509.7188" y2="1509.7188"/><line style="stroke: #A80036; stroke-width: 1.0;" x1="779" x2="779" y1="1509.7188" y2="1522.7188"/><line style="stroke: #A80036; stroke-width: 1.0;" x1="738" x2="779" y1="1522.7188" y2="1522.7188"/><polygon fill="#A80036" points="748,1518.7188,738,1522.7188,748,1526.7188,744,1522.7188" style="stroke: #A80036; stroke-width: 1.0;"/><text fill="#000000" font-family="sans-serif" font-size="13" lengthAdjust="spacingAndGlyphs" textLength="276" x="744" y="1504.6528">updateTaxiLocation(taxiId, currentLocation)</text><polygon fill="#A80036" points="1184,1577.7188,1194,1581.7188,1184,1585.7188,1188,1581.7188" style="stroke: #A80036; stroke-width: 1.0;"/><line style="stroke: #A80036; stroke-width: 1.0;" x1="732" x2="1190" y1="1581.7188" y2="1581.7188"/><text fill="#000000" font-family="sans-serif" font-size="13" lengthAdjust="spacingAndGlyphs" textLength="251" x="739" y="1576.7856">updateLocation(taxiId, currentLocation)</text><polygon fill="#A80036" points="1298.5,1606.8516,1308.5,1610.8516,1298.5,1614.8516,1302.5,1610.8516" style="stroke: #A80036; stroke-width: 1.0;"/><line style="stroke: #A80036; stroke-width: 1.0;" x1="1206" x2="1304.5" y1="1610.8516" y2="1610.8516"/><text fill="#000000" font-family="sans-serif" font-size="13" lengthAdjust="spacingAndGlyphs" textLength="67" x="1213" y="1605.9185">update(...)</text><polygon fill="#A80036" points="1217,1620.9844,1207,1624.9844,1217,1628.9844,1213,1624.9844" style="stroke: #A80036; stroke-width: 1.0;"/><line style="stroke: #A80036; stroke-width: 1.0; stroke-dasharray: 2.0,2.0;" x1="1211" x2="1314.5" y1="1624.9844" y2="1624.9844"/><polygon fill="#A80036" points="738,1634.9844,728,1638.9844,738,1642.9844,734,1638.9844" style="stroke: #A80036; stroke-width: 1.0;"/><line style="stroke: #A80036; stroke-width: 1.0; stroke-dasharray: 2.0,2.0;" x1="732" x2="1200" y1="1638.9844" y2="1638.9844"/></g></svg>