<?xml version="1.0" encoding="UTF-8" standalone="yes"?><svg xmlns="http://www.w3.org/2000/svg" xmlns:xlink="http://www.w3.org/1999/xlink" height="1089px" style="width:1196px;height:1089px;" version="1.1" viewBox="0 0 1196 1089" width="1196px"><defs><filter height="300%" id="f1" width="300%" x="-1" y="-1"><feGaussianBlur result="blurOut" stdDeviation="2.0"/><feColorMatrix in="blurOut" result="blurOut2" type="matrix" values="0 0 0 0 0 0 0 0 0 0 0 0 0 0 0 0 0 0 .4 0"/><feOffset dx="4.0" dy="4.0" in="blurOut2" result="blurOut3"/><feBlend in="SourceGraphic" in2="blurOut3" mode="normal"/></filter></defs><g><text fill="#000000" font-family="sans-serif" font-size="14" font-weight="bold" lengthAdjust="spacingAndGlyphs" textLength="127" x="536.5" y="22.9951">sd_zone_update</text><rect fill="#FFFFFF" filter="url(#f1)" height="941.4609" style="stroke: #A80036; stroke-width: 1.0;" width="10" x="179" y="99.5938"/><rect fill="#FFFFFF" filter="url(#f1)" height="87.3984" style="stroke: #A80036; stroke-width: 1.0;" width="10" x="397" y="128.7266"/><rect fill="#FFFFFF" filter="url(#f1)" height="713.3984" style="stroke: #A80036; stroke-width: 1.0;" width="10" x="397" y="327.6563"/><rect fill="#FFFFFF" filter="url(#f1)" height="29.1328" style="stroke: #A80036; stroke-width: 1.0;" width="10" x="575.5" y="157.8594"/><rect fill="#FFFFFF" filter="url(#f1)" height="71.2656" style="stroke: #A80036; stroke-width: 1.0;" width="10" x="575.5" y="356.7891"/><rect fill="#FFFFFF" filter="url(#f1)" height="56.2656" style="stroke: #A80036; stroke-width: 1.0;" width="10" x="793.5" y="597.8516"/><rect fill="#FFFFFF" filter="url(#f1)" height="57.2656" style="stroke: #A80036; stroke-width: 1.0;" width="10" x="1007.5" y="736.3828"/><rect fill="#FFFFFF" filter="url(#f1)" height="14.1328" style="stroke: #A80036; stroke-width: 1.0;" width="10" x="1122" y="765.5156"/><rect fill="#FFFFFF" filter="url(#f1)" height="773.6641" style="stroke: #000000; stroke-width: 2.0;" width="1181" x="6" y="260.3906"/><rect fill="#FFFFFF" filter="url(#f1)" height="583.8672" style="stroke: #000000; stroke-width: 2.0;" width="1171" x="6" y="443.1875"/><rect fill="#FFFFFF" filter="url(#f1)" height="277.8672" style="stroke: #000000; stroke-width: 2.0;" width="1161" x="6" y="669.1172"/><rect fill="#FFFFFF" height="73.0703" style="stroke: none; stroke-width: 1.0;" width="1161" x="6" y="873.9141"/><rect fill="#FFFFFF" height="73.0703" style="stroke: none; stroke-width: 1.0;" width="1171" x="6" y="953.9844"/><line style="stroke: #A80036; stroke-width: 1.0; stroke-dasharray: 5.0,5.0;" x1="184" x2="184" y1="68.5938" y2="1051.0547"/><line style="stroke: #A80036; stroke-width: 1.0; stroke-dasharray: 5.0,5.0;" x1="401.5" x2="401.5" y1="68.5938" y2="1051.0547"/><line style="stroke: #A80036; stroke-width: 1.0; stroke-dasharray: 5.0,5.0;" x1="580.5" x2="580.5" y1="68.5938" y2="1051.0547"/><line style="stroke: #A80036; stroke-width: 1.0; stroke-dasharray: 5.0,5.0;" x1="798.5" x2="798.5" y1="68.5938" y2="1051.0547"/><line style="stroke: #A80036; stroke-width: 1.0; stroke-dasharray: 5.0,5.0;" x1="1012" x2="1012" y1="68.5938" y2="1051.0547"/><line style="stroke: #A80036; stroke-width: 1.0; stroke-dasharray: 5.0,5.0;" x1="1127" x2="1127" y1="68.5938" y2="1051.0547"/><rect fill="#FEFECE" filter="url(#f1)" height="30.2969" style="stroke: #A80036; stroke-width: 1.5;" width="170" x="97" y="33.2969"/><text fill="#000000" font-family="sans-serif" font-size="14" lengthAdjust="spacingAndGlyphs" textLength="156" x="104" y="53.292">AdministrationWebApp</text><rect fill="#FEFECE" filter="url(#f1)" height="30.2969" style="stroke: #A80036; stroke-width: 1.5;" width="170" x="97" y="1050.0547"/><text fill="#000000" font-family="sans-serif" font-size="14" lengthAdjust="spacingAndGlyphs" textLength="156" x="104" y="1070.0498">AdministrationWebApp</text><rect fill="#FEFECE" filter="url(#f1)" height="30.2969" style="stroke: #A80036; stroke-width: 1.5;" width="187" x="306.5" y="33.2969"/><text fill="#000000" font-family="sans-serif" font-size="14" lengthAdjust="spacingAndGlyphs" textLength="173" x="313.5" y="53.292">RemoteServicesInterface</text><rect fill="#FEFECE" filter="url(#f1)" height="30.2969" style="stroke: #A80036; stroke-width: 1.5;" width="187" x="306.5" y="1050.0547"/><text fill="#000000" font-family="sans-serif" font-size="14" lengthAdjust="spacingAndGlyphs" textLength="173" x="313.5" y="1070.0498">RemoteServicesInterface</text><rect fill="#FEFECE" filter="url(#f1)" height="30.2969" style="stroke: #A80036; stroke-width: 1.5;" width="142" x="507.5" y="33.2969"/><text fill="#000000" font-family="sans-serif" font-size="14" lengthAdjust="spacingAndGlyphs" textLength="128" x="514.5" y="53.292">ZoneManagement</text><rect fill="#FEFECE" filter="url(#f1)" height="30.2969" style="stroke: #A80036; stroke-width: 1.5;" width="142" x="507.5" y="1050.0547"/><text fill="#000000" font-family="sans-serif" font-size="14" lengthAdjust="spacingAndGlyphs" textLength="128" x="514.5" y="1070.0498">ZoneManagement</text><rect fill="#FEFECE" filter="url(#f1)" height="30.2969" style="stroke: #A80036; stroke-width: 1.5;" width="180" x="706.5" y="33.2969"/><text fill="#000000" font-family="sans-serif" font-size="14" lengthAdjust="spacingAndGlyphs" textLength="166" x="713.5" y="53.292">PermissionManagament</text><rect fill="#FEFECE" filter="url(#f1)" height="30.2969" style="stroke: #A80036; stroke-width: 1.5;" width="180" x="706.5" y="1050.0547"/><text fill="#000000" font-family="sans-serif" font-size="14" lengthAdjust="spacingAndGlyphs" textLength="166" x="713.5" y="1070.0498">PermissionManagament</text><rect fill="#FEFECE" filter="url(#f1)" height="30.2969" style="stroke: #A80036; stroke-width: 1.5;" width="145" x="938" y="33.2969"/><text fill="#000000" font-family="sans-serif" font-size="14" lengthAdjust="spacingAndGlyphs" textLength="131" x="945" y="53.292">DataAccessUtilities</text><rect fill="#FEFECE" filter="url(#f1)" height="30.2969" style="stroke: #A80036; stroke-width: 1.5;" width="145" x="938" y="1050.0547"/><text fill="#000000" font-family="sans-serif" font-size="14" lengthAdjust="spacingAndGlyphs" textLength="131" x="945" y="1070.0498">DataAccessUtilities</text><rect fill="#FEFECE" filter="url(#f1)" height="30.2969" style="stroke: #A80036; stroke-width: 1.5;" width="56" x="1097" y="33.2969"/><text fill="#000000" font-family="sans-serif" font-size="14" lengthAdjust="spacingAndGlyphs" textLength="42" x="1104" y="53.292">DBMS</text><rect fill="#FEFECE" filter="url(#f1)" height="30.2969" style="stroke: #A80036; stroke-width: 1.5;" width="56" x="1097" y="1050.0547"/><text fill="#000000" font-family="sans-serif" font-size="14" lengthAdjust="spacingAndGlyphs" textLength="42" x="1104" y="1070.0498">DBMS</text><rect fill="#FFFFFF" filter="url(#f1)" height="941.4609" style="stroke: #A80036; stroke-width: 1.0;" width="10" x="179" y="99.5938"/><rect fill="#FFFFFF" filter="url(#f1)" height="87.3984" style="stroke: #A80036; stroke-width: 1.0;" width="10" x="397" y="128.7266"/><rect fill="#FFFFFF" filter="url(#f1)" height="713.3984" style="stroke: #A80036; stroke-width: 1.0;" width="10" x="397" y="327.6563"/><rect fill="#FFFFFF" filter="url(#f1)" height="29.1328" style="stroke: #A80036; stroke-width: 1.0;" width="10" x="575.5" y="157.8594"/><rect fill="#FFFFFF" filter="url(#f1)" height="71.2656" style="stroke: #A80036; stroke-width: 1.0;" width="10" x="575.5" y="356.7891"/><rect fill="#FFFFFF" filter="url(#f1)" height="56.2656" style="stroke: #A80036; stroke-width: 1.0;" width="10" x="793.5" y="597.8516"/><rect fill="#FFFFFF" filter="url(#f1)" height="57.2656" style="stroke: #A80036; stroke-width: 1.0;" width="10" x="1007.5" y="736.3828"/><rect fill="#FFFFFF" filter="url(#f1)" height="14.1328" style="stroke: #A80036; stroke-width: 1.0;" width="10" x="1122" y="765.5156"/><polygon fill="#A80036" points="167,95.5938,177,99.5938,167,103.5938,171,99.5938" style="stroke: #A80036; stroke-width: 1.0;"/><line style="stroke: #A80036; stroke-width: 1.0;" x1="3" x2="173" y1="99.5938" y2="99.5938"/><text fill="#000000" font-family="sans-serif" font-size="13" font-style="italic" lengthAdjust="spacingAndGlyphs" textLength="150" x="10" y="94.6606">open zone update form</text><polygon fill="#A80036" points="385,124.7266,395,128.7266,385,132.7266,389,128.7266" style="stroke: #A80036; stroke-width: 1.0;"/><line style="stroke: #A80036; stroke-width: 1.0;" x1="189" x2="391" y1="128.7266" y2="128.7266"/><text fill="#000000" font-family="sans-serif" font-size="13" lengthAdjust="spacingAndGlyphs" textLength="139" x="196" y="123.7935">askZoneList(adminId)</text><polygon fill="#A80036" points="563.5,153.8594,573.5,157.8594,563.5,161.8594,567.5,157.8594" style="stroke: #A80036; stroke-width: 1.0;"/><line style="stroke: #A80036; stroke-width: 1.0;" x1="407" x2="569.5" y1="157.8594" y2="157.8594"/><text fill="#000000" font-family="sans-serif" font-size="13" lengthAdjust="spacingAndGlyphs" textLength="139" x="414" y="152.9263">askZoneList(adminId)</text><polygon fill="#A80036" points="418,182.9922,408,186.9922,418,190.9922,414,186.9922" style="stroke: #A80036; stroke-width: 1.0;"/><line style="stroke: #A80036; stroke-width: 1.0; stroke-dasharray: 2.0,2.0;" x1="412" x2="579.5" y1="186.9922" y2="186.9922"/><text fill="#000000" font-family="sans-serif" font-size="13" lengthAdjust="spacingAndGlyphs" textLength="53" x="424" y="182.0591">zoneList</text><polygon fill="#A80036" points="200,212.125,190,216.125,200,220.125,196,216.125" style="stroke: #A80036; stroke-width: 1.0;"/><line style="stroke: #A80036; stroke-width: 1.0; stroke-dasharray: 2.0,2.0;" x1="194" x2="401" y1="216.125" y2="216.125"/><text fill="#000000" font-family="sans-serif" font-size="13" lengthAdjust="spacingAndGlyphs" textLength="53" x="206" y="211.1919">zoneList</text><polygon fill="#A80036" points="14,241.2578,4,245.2578,14,249.2578,10,245.2578" style="stroke: #A80036; stroke-width: 1.0;"/><line style="stroke: #A80036; stroke-width: 1.0;" x1="8" x2="178" y1="245.2578" y2="245.2578"/><text fill="#000000" font-family="sans-serif" font-size="13" font-style="italic" lengthAdjust="spacingAndGlyphs" textLength="68" x="20" y="240.3247">show form</text><rect fill="none" height="773.6641" style="stroke: #000000; stroke-width: 2.0;" width="1181" x="6" y="260.3906"/><polygon fill="#EEEEEE" points="6,260.3906,83,260.3906,83,267.3906,73,277.3906,6,277.3906,6,260.3906" style="stroke: #000000; stroke-width: 2.0;"/><text fill="#000000" font-family="sans-serif" font-size="13" font-weight="bold" lengthAdjust="spacingAndGlyphs" textLength="32" x="21" y="273.4575">loop</text><text fill="#000000" font-family="sans-serif" font-size="11" font-weight="bold" lengthAdjust="spacingAndGlyphs" textLength="169" x="98" y="272.6011">[until confirmation or exit]</text><polygon fill="#A80036" points="167,294.5234,177,298.5234,167,302.5234,171,298.5234" style="stroke: #A80036; stroke-width: 1.0;"/><line style="stroke: #A80036; stroke-width: 1.0;" x1="3" x2="173" y1="298.5234" y2="298.5234"/><text fill="#000000" font-family="sans-serif" font-size="13" font-style="italic" lengthAdjust="spacingAndGlyphs" textLength="88" x="10" y="293.5903">data insertion</text><polygon fill="#A80036" points="385,323.6563,395,327.6563,385,331.6563,389,327.6563" style="stroke: #A80036; stroke-width: 1.0;"/><line style="stroke: #A80036; stroke-width: 1.0;" x1="189" x2="391" y1="327.6563" y2="327.6563"/><text fill="#000000" font-family="sans-serif" font-size="13" lengthAdjust="spacingAndGlyphs" textLength="135" x="196" y="322.7231">sendZoneData(data)</text><polygon fill="#A80036" points="563.5,352.7891,573.5,356.7891,563.5,360.7891,567.5,356.7891" style="stroke: #A80036; stroke-width: 1.0;"/><line style="stroke: #A80036; stroke-width: 1.0;" x1="407" x2="569.5" y1="356.7891" y2="356.7891"/><text fill="#000000" font-family="sans-serif" font-size="13" lengthAdjust="spacingAndGlyphs" textLength="135" x="414" y="351.856">sendZoneData(data)</text><line style="stroke: #A80036; stroke-width: 1.0;" x1="585.5" x2="627.5" y1="386.0547" y2="386.0547"/><line style="stroke: #A80036; stroke-width: 1.0;" x1="627.5" x2="627.5" y1="386.0547" y2="399.0547"/><line style="stroke: #A80036; stroke-width: 1.0;" x1="586.5" x2="627.5" y1="399.0547" y2="399.0547"/><polygon fill="#A80036" points="596.5,395.0547,586.5,399.0547,596.5,403.0547,592.5,399.0547" style="stroke: #A80036; stroke-width: 1.0;"/><text fill="#000000" font-family="sans-serif" font-size="13" lengthAdjust="spacingAndGlyphs" textLength="194" x="592.5" y="380.9888">checkZonesConsistency(data)</text><polygon fill="#A80036" points="418,424.0547,408,428.0547,418,432.0547,414,428.0547" style="stroke: #A80036; stroke-width: 1.0;"/><line style="stroke: #A80036; stroke-width: 1.0; stroke-dasharray: 2.0,2.0;" x1="412" x2="579.5" y1="428.0547" y2="428.0547"/><text fill="#000000" font-family="sans-serif" font-size="13" lengthAdjust="spacingAndGlyphs" textLength="36" x="424" y="423.1216">result</text><rect fill="none" height="583.8672" style="stroke: #000000; stroke-width: 2.0;" width="1171" x="6" y="443.1875"/><polygon fill="#EEEEEE" points="6,443.1875,70,443.1875,70,450.1875,60,460.1875,6,460.1875,6,443.1875" style="stroke: #000000; stroke-width: 2.0;"/><text fill="#000000" font-family="sans-serif" font-size="13" font-weight="bold" lengthAdjust="spacingAndGlyphs" textLength="19" x="21" y="456.2544">alt</text><text fill="#000000" font-family="sans-serif" font-size="11" font-weight="bold" lengthAdjust="spacingAndGlyphs" textLength="88" x="85" y="455.3979">[correct data]</text><polygon fill="#A80036" points="200,477.3203,190,481.3203,200,485.3203,196,481.3203" style="stroke: #A80036; stroke-width: 1.0;"/><line style="stroke: #A80036; stroke-width: 1.0; stroke-dasharray: 2.0,2.0;" x1="194" x2="396" y1="481.3203" y2="481.3203"/><text fill="#000000" font-family="sans-serif" font-size="13" lengthAdjust="spacingAndGlyphs" textLength="48" x="206" y="476.3872">confirm</text><polygon fill="#A80036" points="14,506.4531,4,510.4531,14,514.4531,10,510.4531" style="stroke: #A80036; stroke-width: 1.0;"/><line style="stroke: #A80036; stroke-width: 1.0; stroke-dasharray: 2.0,2.0;" x1="8" x2="178" y1="510.4531" y2="510.4531"/><text fill="#000000" font-family="sans-serif" font-size="13" font-style="italic" lengthAdjust="spacingAndGlyphs" textLength="118" x="20" y="505.52">show confirmation</text><polygon fill="#A80036" points="167,535.5859,177,539.5859,167,543.5859,171,539.5859" style="stroke: #A80036; stroke-width: 1.0;"/><line style="stroke: #A80036; stroke-width: 1.0;" x1="3" x2="173" y1="539.5859" y2="539.5859"/><text fill="#000000" font-family="sans-serif" font-size="13" font-style="italic" lengthAdjust="spacingAndGlyphs" textLength="102" x="10" y="534.6528">insert password</text><polygon fill="#A80036" points="385,564.7188,395,568.7188,385,572.7188,389,568.7188" style="stroke: #A80036; stroke-width: 1.0;"/><line style="stroke: #A80036; stroke-width: 1.0;" x1="189" x2="391" y1="568.7188" y2="568.7188"/><text fill="#000000" font-family="sans-serif" font-size="13" lengthAdjust="spacingAndGlyphs" textLength="184" x="196" y="563.7856">sendPassword(adminId, psw)</text><polygon fill="#A80036" points="781.5,593.8516,791.5,597.8516,781.5,601.8516,785.5,597.8516" style="stroke: #A80036; stroke-width: 1.0;"/><line style="stroke: #A80036; stroke-width: 1.0;" x1="407" x2="787.5" y1="597.8516" y2="597.8516"/><text fill="#000000" font-family="sans-serif" font-size="13" lengthAdjust="spacingAndGlyphs" textLength="184" x="414" y="592.9185">sendPassword(adminId, psw)</text><line style="stroke: #A80036; stroke-width: 1.0;" x1="803.5" x2="845.5" y1="627.1172" y2="627.1172"/><line style="stroke: #A80036; stroke-width: 1.0;" x1="845.5" x2="845.5" y1="627.1172" y2="640.1172"/><line style="stroke: #A80036; stroke-width: 1.0;" x1="804.5" x2="845.5" y1="640.1172" y2="640.1172"/><polygon fill="#A80036" points="814.5,636.1172,804.5,640.1172,814.5,644.1172,810.5,640.1172" style="stroke: #A80036; stroke-width: 1.0;"/><text fill="#000000" font-family="sans-serif" font-size="13" lengthAdjust="spacingAndGlyphs" textLength="190" x="810.5" y="622.0513">checkPassword(adminId, psw)</text><polygon fill="#A80036" points="418,650.1172,408,654.1172,418,658.1172,414,654.1172" style="stroke: #A80036; stroke-width: 1.0;"/><line style="stroke: #A80036; stroke-width: 1.0; stroke-dasharray: 2.0,2.0;" x1="412" x2="797.5" y1="654.1172" y2="654.1172"/><rect fill="none" height="277.8672" style="stroke: #000000; stroke-width: 2.0;" width="1161" x="6" y="669.1172"/><polygon fill="#EEEEEE" points="6,669.1172,70,669.1172,70,676.1172,60,686.1172,6,686.1172,6,669.1172" style="stroke: #000000; stroke-width: 2.0;"/><text fill="#000000" font-family="sans-serif" font-size="13" font-weight="bold" lengthAdjust="spacingAndGlyphs" textLength="19" x="21" y="682.1841">alt</text><text fill="#000000" font-family="sans-serif" font-size="11" font-weight="bold" lengthAdjust="spacingAndGlyphs" textLength="140" x="85" y="681.3276">[password confirmed]</text><polygon fill="#A80036" points="568.5,703.25,578.5,707.25,568.5,711.25,572.5,707.25" style="stroke: #A80036; stroke-width: 1.0;"/><line style="stroke: #A80036; stroke-width: 1.0;" x1="407" x2="574.5" y1="707.25" y2="707.25"/><text fill="#000000" font-family="sans-serif" font-size="13" lengthAdjust="spacingAndGlyphs" textLength="118" x="414" y="702.3169">updateZone(data)</text><polygon fill="#A80036" points="995.5,732.3828,1005.5,736.3828,995.5,740.3828,999.5,736.3828" style="stroke: #A80036; stroke-width: 1.0;"/><line style="stroke: #A80036; stroke-width: 1.0;" x1="580.5" x2="1001.5" y1="736.3828" y2="736.3828"/><text fill="#000000" font-family="sans-serif" font-size="13" lengthAdjust="spacingAndGlyphs" textLength="118" x="587.5" y="731.4497">updateZone(data)</text><polygon fill="#A80036" points="1110,761.5156,1120,765.5156,1110,769.5156,1114,765.5156" style="stroke: #A80036; stroke-width: 1.0;"/><line style="stroke: #A80036; stroke-width: 1.0;" x1="1017.5" x2="1116" y1="765.5156" y2="765.5156"/><text fill="#000000" font-family="sans-serif" font-size="13" lengthAdjust="spacingAndGlyphs" textLength="67" x="1024.5" y="760.5825">update(...)</text><polygon fill="#A80036" points="1028.5,775.6484,1018.5,779.6484,1028.5,783.6484,1024.5,779.6484" style="stroke: #A80036; stroke-width: 1.0;"/><line style="stroke: #A80036; stroke-width: 1.0; stroke-dasharray: 2.0,2.0;" x1="1022.5" x2="1126" y1="779.6484" y2="779.6484"/><polygon fill="#A80036" points="591.5,789.6484,581.5,793.6484,591.5,797.6484,587.5,793.6484" style="stroke: #A80036; stroke-width: 1.0;"/><line style="stroke: #A80036; stroke-width: 1.0; stroke-dasharray: 2.0,2.0;" x1="585.5" x2="1011.5" y1="793.6484" y2="793.6484"/><polygon fill="#A80036" points="418,803.6484,408,807.6484,418,811.6484,414,807.6484" style="stroke: #A80036; stroke-width: 1.0;"/><line style="stroke: #A80036; stroke-width: 1.0; stroke-dasharray: 2.0,2.0;" x1="412" x2="579.5" y1="807.6484" y2="807.6484"/><polygon fill="#A80036" points="200,832.6484,190,836.6484,200,840.6484,196,836.6484" style="stroke: #A80036; stroke-width: 1.0;"/><line style="stroke: #A80036; stroke-width: 1.0; stroke-dasharray: 2.0,2.0;" x1="194" x2="396" y1="836.6484" y2="836.6484"/><text fill="#000000" font-family="sans-serif" font-size="13" lengthAdjust="spacingAndGlyphs" textLength="48" x="206" y="831.7153">confirm</text><polygon fill="#A80036" points="14,861.7813,4,865.7813,14,869.7813,10,865.7813" style="stroke: #A80036; stroke-width: 1.0;"/><line style="stroke: #A80036; stroke-width: 1.0; stroke-dasharray: 2.0,2.0;" x1="8" x2="178" y1="865.7813" y2="865.7813"/><text fill="#000000" font-family="sans-serif" font-size="13" font-style="italic" lengthAdjust="spacingAndGlyphs" textLength="118" x="20" y="860.8481">show confirmation</text><line style="stroke: #000000; stroke-width: 1.0; stroke-dasharray: 2.0,2.0;" x1="6" x2="1167" y1="874.9141" y2="874.9141"/><text fill="#000000" font-family="sans-serif" font-size="11" font-weight="bold" lengthAdjust="spacingAndGlyphs" textLength="129" x="11" y="885.1245">[password rejected]</text><polygon fill="#A80036" points="200,905.7188,190,909.7188,200,913.7188,196,909.7188" style="stroke: #A80036; stroke-width: 1.0;"/><line style="stroke: #A80036; stroke-width: 1.0; stroke-dasharray: 2.0,2.0;" x1="194" x2="396" y1="909.7188" y2="909.7188"/><text fill="#000000" font-family="sans-serif" font-size="13" lengthAdjust="spacingAndGlyphs" textLength="36" x="206" y="904.7856">reject</text><polygon fill="#A80036" points="14,934.8516,4,938.8516,14,942.8516,10,938.8516" style="stroke: #A80036; stroke-width: 1.0;"/><line style="stroke: #A80036; stroke-width: 1.0; stroke-dasharray: 2.0,2.0;" x1="8" x2="178" y1="938.8516" y2="938.8516"/><text fill="#000000" font-family="sans-serif" font-size="13" font-style="italic" lengthAdjust="spacingAndGlyphs" textLength="135" x="20" y="933.9185">show password error</text><line style="stroke: #000000; stroke-width: 1.0; stroke-dasharray: 2.0,2.0;" x1="6" x2="1177" y1="954.9844" y2="954.9844"/><text fill="#000000" font-family="sans-serif" font-size="11" font-weight="bold" lengthAdjust="spacingAndGlyphs" textLength="83" x="11" y="965.1948">[wrong data]</text><polygon fill="#A80036" points="200,985.7891,190,989.7891,200,993.7891,196,989.7891" style="stroke: #A80036; stroke-width: 1.0;"/><line style="stroke: #A80036; stroke-width: 1.0; stroke-dasharray: 2.0,2.0;" x1="194" x2="396" y1="989.7891" y2="989.7891"/><text fill="#000000" font-family="sans-serif" font-size="13" lengthAdjust="spacingAndGlyphs" textLength="60" x="206" y="984.856">dataError</text><polygon fill="#A80036" points="14,1014.9219,4,1018.9219,14,1022.9219,10,1018.9219" style="stroke: #A80036; stroke-width: 1.0;"/><line style="stroke: #A80036; stroke-width: 1.0; stroke-dasharray: 2.0,2.0;" x1="8" x2="178" y1="1018.9219" y2="1018.9219"/><text fill="#000000" font-family="sans-serif" font-size="13" font-style="italic" lengthAdjust="spacingAndGlyphs" textLength="102" x="20" y="1013.9888">show data error</text></g></svg>